<svg width="36" height="36" viewBox="0 0 36 36" fill="none" xmlns="http://www.w3.org/2000/svg">
<path fill-rule="evenodd" clip-rule="evenodd" d="M3.08767 26.5989L0.550914 24.0621C-0.132504 23.3787 -0.132504 22.2707 0.550914 21.5873L6.7381 15.4001L9.21297 17.875C9.89639 18.5584 11.0044 18.5584 11.6878 17.875C12.3713 17.1915 12.3713 16.0835 11.6878 15.4001L9.21297 12.9252L21.5873 0.550836C22.2708 -0.132582 23.3788 -0.132581 24.0622 0.550836L26.599 3.08759C25.4735 4.78629 25.6592 7.09752 27.1558 8.59418C28.6525 10.0908 30.9637 10.2764 32.6624 9.15101L35.1992 11.6878C35.8826 12.3712 35.8826 13.4792 35.1992 14.1626L22.8248 26.537L20.3499 24.0621C19.6665 23.3787 18.5585 23.3787 17.875 24.0621C17.1916 24.7456 17.1916 25.8536 17.875 26.537L20.3499 29.0119L14.1627 35.1991C13.4793 35.8825 12.3713 35.8825 11.6878 35.1991L9.15109 32.6623C10.2765 30.9636 10.0909 28.6524 8.59426 27.1557C7.0976 25.6591 4.78637 25.4735 3.08767 26.5989ZM12.9253 19.1124C12.2419 19.7958 12.2419 20.9039 12.9253 21.5873L14.1627 22.8247C14.8461 23.5081 15.9542 23.5081 16.6376 22.8247C17.321 22.1413 17.321 21.0333 16.6376 20.3498L15.4002 19.1124C14.7167 18.429 13.6087 18.429 12.9253 19.1124Z" fill="#FFAE1E"/>
</svg>
