<svg width="482" height="251" viewBox="0 0 482 251" fill="none" xmlns="http://www.w3.org/2000/svg">
<path d="M7.47994 38.4587C5.68043 38.4587 4.34232 38.0126 3.46564 37.1206C2.60433 36.2131 2.17368 34.8519 2.17368 33.0371C2.17368 32.7294 2.18137 32.368 2.19675 31.9527C2.22751 31.5375 2.25827 31.1606 2.28903 30.8223H7.57222V32.8063H5.05752V33.1755C5.05752 33.9291 5.14211 34.529 5.31129 34.975C5.49586 35.421 5.76502 35.744 6.11877 35.944C6.47252 36.1439 6.91855 36.2439 7.45687 36.2439C8.04133 36.2439 8.54119 36.1208 8.95647 35.8748C9.37174 35.6287 9.68704 35.2057 9.90237 34.6059C10.1331 33.9906 10.2484 33.137 10.2484 32.045C10.2484 31.0607 10.1331 30.2455 9.90237 29.5995C9.68704 28.9382 9.3256 28.446 8.81804 28.123C8.31049 27.8 7.61068 27.6385 6.71861 27.6385C6.24181 27.6385 5.76502 27.6846 5.28822 27.7769C4.81143 27.8692 4.35001 27.9923 3.90398 28.1461C3.47333 28.2999 3.08112 28.4844 2.72737 28.6998V26.185C3.05036 26.0005 3.45026 25.8467 3.92705 25.7236C4.40385 25.5852 4.92678 25.4775 5.49586 25.4006C6.06494 25.3084 6.63402 25.2622 7.20309 25.2622C8.64886 25.2622 9.81008 25.5391 10.6868 26.0928C11.5788 26.6311 12.2248 27.4001 12.6247 28.3998C13.04 29.3996 13.2476 30.5762 13.2476 31.9297C13.2476 33.3139 13.0554 34.4982 12.6709 35.4825C12.2863 36.4515 11.6711 37.1898 10.8252 37.6973C9.97927 38.2049 8.86418 38.4587 7.47994 38.4587ZM8.93484 44.2033V42.0116C8.93484 41.6271 8.76565 41.4348 8.42728 41.4348C8.35038 41.4348 8.27348 41.4425 8.19658 41.4579C8.11967 41.4732 8.04277 41.4963 7.96587 41.5271L7.80437 39.9583C8.0197 39.8814 8.29655 39.8122 8.63492 39.7506C8.97329 39.6891 9.29628 39.6583 9.60389 39.6583C10.2652 39.6583 10.742 39.7968 11.0343 40.0736C11.3265 40.3659 11.4726 40.7581 11.4726 41.2502V44.2033H8.93484ZM21.6439 38.4587C19.706 38.4587 18.3064 38.0126 17.4451 37.1206C16.5991 36.2285 16.1762 34.9365 16.1762 33.2447V25.5391H19.1061V33.3831C19.1061 34.2752 19.3138 34.9519 19.7291 35.4133C20.1443 35.8594 20.7826 36.0824 21.6439 36.0824C22.5206 36.0824 23.1666 35.8594 23.5819 35.4133C23.9971 34.9519 24.2048 34.2752 24.2048 33.3831V20.9941H27.1348V33.2447C27.1348 34.9365 26.7041 36.2285 25.8428 37.1206C24.9815 38.0126 23.5819 38.4587 21.6439 38.4587ZM30.4575 38.1818V34.1214C30.4575 33.1524 30.6574 32.4218 31.0573 31.9297C31.4572 31.4375 32.0032 31.0991 32.6953 30.9145L32.7184 30.8223L30.2268 29.8994V29.2304C30.2268 28.5229 30.4421 27.8692 30.8727 27.2694C31.3188 26.6695 31.9571 26.185 32.7876 25.8159C33.6182 25.4468 34.6256 25.2622 35.8099 25.2622C36.8865 25.2622 37.8401 25.4314 38.6707 25.7698C39.5012 26.1081 40.1549 26.6234 40.6317 27.3155C41.1085 27.9923 41.3469 28.8689 41.3469 29.9456V38.1818H38.4169V30.1532C38.4169 29.2765 38.1708 28.6382 37.6786 28.2383C37.1864 27.8385 36.5405 27.6385 35.7407 27.6385C34.9409 27.6385 34.3257 27.8077 33.895 28.1461C33.4797 28.4691 33.2567 28.8766 33.226 29.3688L35.4638 30.4301L35.2331 31.7912C34.664 31.8066 34.2103 32.0066 33.8719 32.3911C33.549 32.7602 33.3875 33.2908 33.3875 33.983V38.1818H30.4575ZM48.8041 38.4587C47.8967 38.4587 47.0123 38.3664 46.151 38.1818C45.2897 37.9819 44.536 37.7204 43.89 37.3974L44.7206 35.0673C45.0436 35.2211 45.4127 35.3826 45.828 35.5518C46.2586 35.7056 46.72 35.8363 47.2122 35.944C47.7198 36.0516 48.2273 36.1055 48.7349 36.1055C49.427 36.1055 49.973 35.9978 50.3729 35.7825C50.7728 35.5518 50.9728 35.2134 50.9728 34.7674C50.9728 34.4597 50.8728 34.206 50.6728 34.006C50.4729 33.7907 50.173 33.5908 49.7731 33.4062C49.3732 33.2216 48.881 33.0371 48.2965 32.8525C47.4199 32.5603 46.6739 32.245 46.0587 31.9066C45.4435 31.5528 44.9744 31.1376 44.6514 30.6608C44.3284 30.1686 44.1669 29.5534 44.1669 28.8151C44.1669 28.0461 44.3591 27.4001 44.7437 26.8772C45.1435 26.3542 45.728 25.9543 46.497 25.6775C47.2661 25.4006 48.1889 25.2622 49.2655 25.2622C50.0807 25.2622 50.8266 25.3314 51.5034 25.4699C52.1801 25.6083 52.7107 25.7852 53.0953 26.0005V28.3537C52.8338 28.2307 52.4954 28.1076 52.0801 27.9846C51.6649 27.8615 51.2188 27.7615 50.742 27.6846C50.2652 27.5924 49.7961 27.5462 49.3347 27.5462C48.5657 27.5462 47.9966 27.6616 47.6275 27.8923C47.2737 28.1076 47.0969 28.3921 47.0969 28.7459C47.0969 29.0227 47.1968 29.2611 47.3968 29.4611C47.6121 29.6457 47.9428 29.8225 48.3888 29.9917C48.8349 30.1609 49.3963 30.3685 50.073 30.6146C50.842 30.8761 51.5111 31.176 52.0801 31.5144C52.6646 31.8374 53.1106 32.245 53.4182 32.7371C53.7412 33.2293 53.9027 33.8445 53.9027 34.5828C53.9027 35.2595 53.7412 35.8901 53.4182 36.4746C53.1106 37.059 52.5877 37.5358 51.8494 37.905C51.1112 38.2741 50.0961 38.4587 48.8041 38.4587ZM59.3898 38.4125C58.8207 38.4125 58.3131 38.3202 57.8671 38.1357C57.4211 37.9511 57.0673 37.6589 56.8059 37.259C56.5444 36.8437 56.4137 36.3131 56.4137 35.6671V33.8907C56.4137 32.9525 56.6136 32.268 57.0135 31.8374C57.4288 31.4067 57.9748 31.0991 58.6515 30.9145L58.6746 30.8223L56.1137 29.8994V29.2304C56.1137 28.4921 56.3291 27.8231 56.7597 27.2232C57.1904 26.6234 57.8056 26.1466 58.6054 25.7928C59.4205 25.4391 60.3895 25.2622 61.5123 25.2622C62.5428 25.2622 63.4579 25.4237 64.2577 25.7467C65.0575 26.0697 65.6881 26.5619 66.1495 27.2232C66.6109 27.8846 66.8416 28.7382 66.8416 29.7841V33.6138C66.8416 34.4136 67.0185 34.9981 67.3722 35.3672C67.7414 35.7209 68.2028 35.8978 68.7565 35.8978C69.264 35.8978 69.7024 35.7594 70.0715 35.4825C70.456 35.2057 70.756 34.8212 70.9713 34.329C71.1866 33.8215 71.2943 33.237 71.2943 32.5756V25.5391H74.2243V38.1818H71.9172L71.6403 36.1977H71.4788C71.202 36.8591 70.7406 37.3974 70.0946 37.8127C69.464 38.2126 68.7027 38.4125 67.8106 38.4125C66.5955 38.4125 65.6496 38.0819 64.9729 37.4205C64.2962 36.7591 63.9578 35.6979 63.9578 34.2367V30.0148C63.9578 29.415 63.8424 28.9382 63.6117 28.5844C63.3964 28.2307 63.0965 27.9846 62.712 27.8461C62.3428 27.6923 61.9352 27.6154 61.4892 27.6154C60.8125 27.6154 60.2511 27.7615 59.8051 28.0538C59.3744 28.3306 59.1437 28.7613 59.1129 29.3457L61.3739 30.407L61.1432 31.7682C60.5741 31.7682 60.1204 31.9143 59.782 32.2065C59.459 32.4987 59.2975 32.9986 59.2975 33.7061V35.3441C59.2975 35.6825 59.3667 35.9286 59.5051 36.0824C59.6589 36.2208 59.8973 36.29 60.2203 36.29C60.3741 36.29 60.5202 36.2823 60.6587 36.267C60.8125 36.2362 60.9432 36.1977 61.0509 36.1516L61.3739 37.9973C61.0816 38.1511 60.7663 38.2587 60.428 38.3202C60.105 38.3818 59.7589 38.4125 59.3898 38.4125ZM70.1351 24.2471C70.0121 24.0625 69.9121 23.8165 69.8352 23.5088C69.7583 23.1859 69.7199 22.8706 69.7199 22.5629C69.7199 22.1784 69.7968 21.8247 69.9506 21.5017C70.1044 21.1633 70.3735 20.8942 70.7581 20.6942C71.1426 20.4943 71.6732 20.3943 72.3499 20.3943H75.626V22.4476H73.2497C72.9575 22.4476 72.7268 22.5014 72.5576 22.6091C72.3884 22.7168 72.3038 22.9013 72.3038 23.1628C72.3038 23.2704 72.3192 23.3858 72.3499 23.5088C72.3807 23.6319 72.4268 23.7549 72.4884 23.878L70.1351 24.2471ZM77.8182 38.1818V30.4762C77.8182 28.7844 78.2643 27.4924 79.1563 26.6003C80.0638 25.7083 81.4865 25.2622 83.4244 25.2622C85.3931 25.2622 86.8158 25.7083 87.6925 26.6003C88.5846 27.4924 89.0306 28.7844 89.0306 30.4762V38.1818H86.1006V30.4301C86.1006 29.538 85.8776 28.8536 85.4316 28.3768C85.0009 27.8846 84.3242 27.6385 83.4014 27.6385C82.4785 27.6385 81.8018 27.8846 81.3711 28.3768C80.9405 28.8536 80.7252 29.538 80.7252 30.4301V32.6679H80.7944C81.102 32.0681 81.4711 31.6759 81.9018 31.4913C82.3478 31.2914 82.963 31.1914 83.7474 31.1914H84.3473V33.4523H83.7474C82.9015 33.4523 82.2632 33.5831 81.8325 33.8445C81.4019 34.106 81.1097 34.4521 80.9559 34.8827C80.8021 35.298 80.7252 35.7671 80.7252 36.29V38.1818H77.8182ZM97.262 38.4587C95.4625 38.4587 94.1244 38.0126 93.2477 37.1206C92.3864 36.2131 91.9557 34.8519 91.9557 33.0371C91.9557 32.7294 91.9634 32.368 91.9788 31.9527C92.0096 31.5375 92.0403 31.1606 92.0711 30.8223H97.3543V32.8063H94.8396V33.1755C94.8396 33.9291 94.9242 34.529 95.0933 34.975C95.2779 35.421 95.5471 35.744 95.9008 35.944C96.2546 36.1439 96.7006 36.2439 97.2389 36.2439C97.8234 36.2439 98.3232 36.1208 98.7385 35.8748C99.1538 35.6287 99.4691 35.2057 99.6844 34.6059C99.9151 33.9906 100.03 33.137 100.03 32.045C100.03 31.0607 99.9151 30.2455 99.6844 29.5995C99.4691 28.9382 99.1076 28.446 98.6001 28.123C98.0925 27.8 97.3927 27.6385 96.5007 27.6385C96.0239 27.6385 95.5471 27.6846 95.0703 27.7769C94.5935 27.8692 94.1321 27.9923 93.686 28.1461C93.2554 28.2999 92.8632 28.4844 92.5094 28.6998V26.185C92.8324 26.0005 93.2323 25.8467 93.7091 25.7236C94.1859 25.5852 94.7088 25.4775 95.2779 25.4006C95.847 25.3084 96.4161 25.2622 96.9851 25.2622C98.4309 25.2622 99.5921 25.5391 100.469 26.0928C101.361 26.6311 102.007 27.4001 102.407 28.3998C102.822 29.3996 103.03 30.5762 103.03 31.9297C103.03 33.3139 102.837 34.4982 102.453 35.4825C102.068 36.4515 101.453 37.1898 100.607 37.6973C99.7613 38.2049 98.6462 38.4587 97.262 38.4587ZM112.902 38.4125C111.857 38.4125 110.988 38.2126 110.296 37.8127C109.603 37.3974 109.127 36.8591 108.865 36.1977H108.704L108.427 38.1818H106.166V25.5391H109.096V32.0681C109.096 32.8986 109.203 33.5984 109.419 34.1675C109.65 34.7366 109.98 35.1672 110.411 35.4595C110.857 35.7517 111.38 35.8978 111.98 35.8978C112.733 35.8978 113.295 35.6902 113.664 35.2749C114.048 34.8443 114.241 34.1906 114.241 33.3139V25.5391H117.171V33.8445C117.171 34.8596 117.001 35.7056 116.663 36.3823C116.34 37.0437 115.863 37.5512 115.233 37.905C114.602 38.2433 113.825 38.4125 112.902 38.4125ZM121.895 38.1818L119.68 25.5391H122.564L123.303 30.3839C123.349 30.7838 123.41 31.3144 123.487 31.9758C123.564 32.6372 123.641 33.4139 123.718 34.3059H123.787C123.925 33.7061 124.048 33.1601 124.156 32.6679C124.279 32.1757 124.395 31.7374 124.502 31.3529C124.61 30.953 124.702 30.6069 124.779 30.3147L126.14 25.5391H128.078L129.439 30.3147C129.532 30.6069 129.632 30.953 129.739 31.3529C129.847 31.7374 129.955 32.1757 130.062 32.6679C130.185 33.1601 130.316 33.7061 130.454 34.3059H130.524C130.601 33.4139 130.67 32.6372 130.731 31.9758C130.808 31.3144 130.877 30.7838 130.939 30.3839L131.7 25.5391H134.561L132.346 38.1818H129.485L127.778 32.3911C127.64 31.8681 127.524 31.376 127.432 30.9145C127.34 30.4378 127.255 29.9071 127.178 29.3227H127.086C127.025 29.7226 126.963 30.084 126.902 30.407C126.84 30.73 126.771 31.053 126.694 31.376C126.617 31.6836 126.525 32.0219 126.417 32.3911L124.71 38.1818H121.895ZM123.364 23.6934V22.4476L125.44 21.5709H133.63V23.6934H123.364ZM140.141 38.4587C139.418 38.4587 138.733 38.3818 138.087 38.228C137.457 38.0742 136.834 37.8281 136.219 37.4897L137.026 35.3441C137.364 35.5441 137.764 35.7209 138.226 35.8748C138.687 36.0132 139.172 36.0824 139.679 36.0824C140.633 36.0824 141.386 35.7209 141.94 34.9981C142.509 34.2752 142.794 33.2062 142.794 31.7912C142.794 30.4378 142.509 29.4073 141.94 28.6998C141.386 27.9923 140.517 27.6385 139.333 27.6385C138.826 27.6385 138.31 27.7077 137.787 27.8461C137.264 27.9692 136.818 28.1384 136.449 28.3537V25.9313C136.911 25.7159 137.426 25.5544 137.995 25.4468C138.579 25.3237 139.179 25.2622 139.794 25.2622C141.209 25.2622 142.355 25.5314 143.232 26.0697C144.109 26.5926 144.747 27.3463 145.147 28.3306C145.562 29.2996 145.77 30.4531 145.77 31.7912C145.77 33.9291 145.285 35.5748 144.316 36.7284C143.363 37.8819 141.971 38.4587 140.141 38.4587ZM152.042 38.4125C151.457 38.4125 150.942 38.3202 150.496 38.1357C150.05 37.9511 149.704 37.6589 149.458 37.259C149.212 36.8437 149.089 36.3131 149.089 35.6671V25.5391H152.019V35.298C152.019 35.621 152.088 35.8594 152.226 36.0132C152.365 36.1516 152.588 36.2208 152.895 36.2208C153.018 36.2208 153.149 36.2054 153.288 36.1747C153.441 36.1439 153.58 36.1055 153.703 36.0593L154.026 37.9973C153.734 38.1511 153.418 38.2587 153.08 38.3202C152.742 38.3818 152.396 38.4125 152.042 38.4125ZM160.681 38.4125C159.343 38.4125 158.304 38.128 157.566 37.5589C156.828 36.9745 156.313 36.1824 156.02 35.1826C155.728 34.1675 155.582 32.9909 155.582 31.6528C155.582 30.1609 155.728 28.9535 156.02 28.0307C156.313 27.0925 156.743 26.4081 157.312 25.9774C157.897 25.5314 158.604 25.3084 159.435 25.3084C159.973 25.3084 160.442 25.4083 160.842 25.6083C161.242 25.8082 161.55 26.162 161.765 26.6695H161.857C162.042 26.1466 162.365 25.7928 162.826 25.6083C163.288 25.4083 163.795 25.3084 164.349 25.3084C165.379 25.3084 166.164 25.5852 166.702 26.1389C167.24 26.6926 167.51 27.5155 167.51 28.6075V38.1818H164.58V29.0227C164.58 28.4998 164.48 28.1461 164.28 27.9615C164.095 27.7769 163.841 27.6846 163.518 27.6846C163.18 27.6846 162.926 27.7769 162.757 27.9615C162.588 28.1461 162.48 28.4537 162.434 28.8843H161.096C161.034 28.4075 160.896 28.0922 160.681 27.9384C160.481 27.7692 160.25 27.6846 159.989 27.6846C159.512 27.6846 159.15 27.9923 158.904 28.6075C158.658 29.2227 158.535 30.2455 158.535 31.6759C158.535 32.6141 158.604 33.4216 158.743 34.0983C158.897 34.7597 159.158 35.2672 159.527 35.621C159.896 35.9593 160.427 36.1285 161.119 36.1285C161.35 36.1285 161.55 36.1208 161.719 36.1055C161.888 36.0747 162.042 36.0362 162.18 35.9901L162.48 38.1126C162.234 38.2203 161.957 38.2972 161.65 38.3433C161.357 38.3895 161.034 38.4125 160.681 38.4125ZM175.757 38.4587C173.957 38.4587 172.619 38.0126 171.742 37.1206C170.881 36.2131 170.45 34.8519 170.45 33.0371C170.45 32.7294 170.458 32.368 170.473 31.9527C170.504 31.5375 170.535 31.1606 170.566 30.8223H175.849V32.8063H173.334V33.1755C173.334 33.9291 173.419 34.529 173.588 34.975C173.772 35.421 174.042 35.744 174.395 35.944C174.749 36.1439 175.195 36.2439 175.733 36.2439C176.318 36.2439 176.818 36.1208 177.233 35.8748C177.648 35.6287 177.964 35.2057 178.179 34.6059C178.41 33.9906 178.525 33.137 178.525 32.045C178.525 31.0607 178.41 30.2455 178.179 29.5995C177.964 28.9382 177.602 28.446 177.095 28.123C176.587 27.8 175.887 27.6385 174.995 27.6385C174.518 27.6385 174.042 27.6846 173.565 27.7769C173.088 27.8692 172.627 27.9923 172.181 28.1461C171.75 28.2999 171.358 28.4844 171.004 28.6998V26.185C171.327 26.0005 171.727 25.8467 172.204 25.7236C172.68 25.5852 173.203 25.4775 173.772 25.4006C174.342 25.3084 174.911 25.2622 175.48 25.2622C176.925 25.2622 178.087 25.5391 178.963 26.0928C179.855 26.6311 180.501 27.4001 180.901 28.3998C181.317 29.3996 181.524 30.5762 181.524 31.9297C181.524 33.3139 181.332 34.4982 180.947 35.4825C180.563 36.4515 179.948 37.1898 179.102 37.6973C178.256 38.2049 177.141 38.4587 175.757 38.4587ZM188.49 38.4587C187.583 38.4587 186.698 38.3664 185.837 38.1818C184.976 37.9819 184.222 37.7204 183.576 37.3974L184.407 35.0673C184.73 35.2211 185.099 35.3826 185.514 35.5518C185.945 35.7056 186.406 35.8363 186.898 35.944C187.406 36.0516 187.913 36.1055 188.421 36.1055C189.113 36.1055 189.659 35.9978 190.059 35.7825C190.459 35.5518 190.659 35.2134 190.659 34.7674C190.659 34.4597 190.559 34.206 190.359 34.006C190.159 33.7907 189.859 33.5908 189.459 33.4062C189.059 33.2216 188.567 33.0371 187.983 32.8525C187.106 32.5603 186.36 32.245 185.745 31.9066C185.129 31.5528 184.66 31.1376 184.337 30.6608C184.014 30.1686 183.853 29.5534 183.853 28.8151C183.853 28.0461 184.045 27.4001 184.43 26.8772C184.83 26.3542 185.414 25.9543 186.183 25.6775C186.952 25.4006 187.875 25.2622 188.952 25.2622C189.767 25.2622 190.513 25.3314 191.189 25.4699C191.866 25.6083 192.397 25.7852 192.781 26.0005V28.3537C192.52 28.2307 192.181 28.1076 191.766 27.9846C191.351 27.8615 190.905 27.7615 190.428 27.6846C189.951 27.5924 189.482 27.5462 189.021 27.5462C188.252 27.5462 187.683 27.6616 187.313 27.8923C186.96 28.1076 186.783 28.3921 186.783 28.7459C186.783 29.0227 186.883 29.2611 187.083 29.4611C187.298 29.6457 187.629 29.8225 188.075 29.9917C188.521 30.1609 189.082 30.3685 189.759 30.6146C190.528 30.8761 191.197 31.176 191.766 31.5144C192.351 31.8374 192.797 32.245 193.104 32.7371C193.427 33.2293 193.589 33.8445 193.589 34.5828C193.589 35.2595 193.427 35.8901 193.104 36.4746C192.797 37.059 192.274 37.5358 191.535 37.905C190.797 38.2741 189.782 38.4587 188.49 38.4587ZM189.026 24.2471C188.903 24.0625 188.803 23.8165 188.726 23.5088C188.649 23.1859 188.611 22.8706 188.611 22.5629C188.611 22.1784 188.688 21.8247 188.841 21.5017C188.995 21.1633 189.264 20.8942 189.649 20.6942C190.033 20.4943 190.564 20.3943 191.241 20.3943H194.517V22.4476H192.14C191.848 22.4476 191.618 22.5014 191.448 22.6091C191.279 22.7168 191.195 22.9013 191.195 23.1628C191.195 23.2704 191.21 23.3858 191.241 23.5088C191.272 23.6319 191.318 23.7549 191.379 23.878L189.026 24.2471ZM201.175 38.4587C199.545 38.4587 198.299 38.0895 197.438 37.3513C196.576 36.5976 196.146 35.4979 196.146 34.0522V32.9678C196.146 32.2757 196.23 31.722 196.4 31.3067C196.569 30.8761 196.776 30.4916 197.022 30.1532C197.284 29.8148 197.499 29.5149 197.668 29.2535C197.838 28.9766 197.922 28.6767 197.922 28.3537C197.922 28.0615 197.853 27.8538 197.715 27.7308C197.576 27.6077 197.392 27.5462 197.161 27.5462C196.992 27.5462 196.815 27.577 196.63 27.6385C196.461 27.6846 196.277 27.7539 196.077 27.8461L195.546 25.9313C195.93 25.7159 196.353 25.5698 196.815 25.4929C197.276 25.416 197.684 25.3776 198.038 25.3776C198.684 25.3776 199.199 25.4852 199.583 25.7006C199.968 25.9005 200.245 26.1927 200.414 26.5773C200.583 26.9464 200.668 27.3924 200.668 27.9154C200.668 28.4229 200.583 28.8613 200.414 29.2304C200.26 29.5995 200.068 29.9686 199.837 30.3378C199.622 30.7069 199.437 31.053 199.283 31.376C199.13 31.699 199.053 32.1527 199.053 32.7371V33.7984C199.053 34.3675 199.137 34.8289 199.306 35.1826C199.491 35.521 199.745 35.7671 200.068 35.9209C200.391 36.0593 200.76 36.1285 201.175 36.1285C201.883 36.1285 202.398 35.9517 202.721 35.5979C203.059 35.2288 203.228 34.7135 203.228 34.0522V31.4452C203.228 30.9376 203.113 30.5454 202.882 30.2686C202.652 29.9917 202.275 29.8533 201.752 29.8533H201.637V28.2153H201.775C202.313 28.2153 202.698 28.0768 202.929 27.8C203.175 27.5232 203.328 27.1848 203.39 26.7849C203.452 26.3696 203.482 25.9543 203.482 25.5391H206.412C206.412 26.4311 206.297 27.1771 206.066 27.7769C205.835 28.3768 205.397 28.792 204.751 29.0227V29.115C205.136 29.2227 205.428 29.3919 205.628 29.6226C205.828 29.8533 205.959 30.1301 206.02 30.4531C206.097 30.7607 206.135 31.0837 206.135 31.4221V34.1444C206.135 35.5441 205.72 36.613 204.89 37.3513C204.059 38.0895 202.821 38.4587 201.175 38.4587ZM203.218 23.6934C202.526 23.6934 201.98 23.5934 201.58 23.3935C201.18 23.1782 200.895 22.9167 200.726 22.6091C200.542 22.2861 200.449 21.9477 200.449 21.594C200.449 21.3479 200.488 21.0864 200.565 20.8096C200.626 20.5173 200.726 20.2559 200.865 20.0252L203.079 20.3482C203.049 20.4251 203.026 20.5327 203.01 20.6711C202.979 20.7942 202.964 20.9095 202.964 21.0172C202.964 21.2172 203.033 21.3863 203.172 21.5248C203.295 21.6478 203.502 21.7093 203.795 21.7093H209.101V23.6934H203.218ZM202.699 19.5948V18.695C202.884 18.6489 203.092 18.5797 203.322 18.4874C203.538 18.3951 203.73 18.2798 203.899 18.1413C204.068 17.9875 204.153 17.7953 204.153 17.5646C204.153 17.3954 204.107 17.2646 204.015 17.1724C203.907 17.0647 203.776 17.0109 203.622 17.0109C203.515 17.0109 203.399 17.0339 203.276 17.0801C203.138 17.1108 203.015 17.1647 202.907 17.2416L202.492 15.9958C202.769 15.7958 203.099 15.6651 203.484 15.6035C203.868 15.542 204.191 15.5113 204.453 15.5113C204.976 15.5113 205.414 15.6266 205.768 15.8573C206.106 16.0727 206.275 16.4418 206.275 16.9647C206.275 17.18 206.229 17.4184 206.137 17.6799C206.029 17.926 205.829 18.1259 205.537 18.2798L205.399 17.7953H208.859V19.5948H202.699ZM213.888 38.4125C212.966 38.4125 212.181 38.2433 211.535 37.905C210.889 37.5512 210.397 37.0283 210.059 36.3362C209.72 35.644 209.551 34.775 209.551 33.7292V25.5391H212.481V33.3139C212.481 34.1906 212.673 34.8443 213.058 35.2749C213.458 35.6902 214.027 35.8978 214.765 35.8978C215.673 35.8978 216.372 35.5748 216.865 34.9289C217.372 34.2675 217.626 33.3139 217.626 32.0681V25.5391H220.556V38.1818H218.272L218.018 36.267H217.834C217.572 36.8822 217.111 37.3974 216.449 37.8127C215.803 38.2126 214.95 38.4125 213.888 38.4125ZM228.51 38.4125C227.588 38.4125 226.803 38.2433 226.157 37.905C225.511 37.5512 225.019 37.0283 224.681 36.3362C224.342 35.644 224.173 34.775 224.173 33.7292V25.5391H227.103V33.3139C227.103 34.1906 227.295 34.8443 227.68 35.2749C228.08 35.6902 228.649 35.8978 229.387 35.8978C230.295 35.8978 230.994 35.5748 231.487 34.9289C231.994 34.2675 232.248 33.3139 232.248 32.0681V25.5391H235.178V38.1818H232.894L232.64 36.267H232.456C232.194 36.8822 231.733 37.3974 231.071 37.8127C230.425 38.2126 229.572 38.4125 228.51 38.4125ZM233.097 24.224C232.266 24.224 231.605 24.0318 231.113 23.6473C230.605 23.2628 230.351 22.7168 230.351 22.0092C230.351 21.3017 230.605 20.7557 231.113 20.3712C231.605 19.9867 232.266 19.7945 233.097 19.7945C233.943 19.7945 234.619 19.9867 235.127 20.3712C235.619 20.7557 235.865 21.3017 235.865 22.0092C235.865 22.7168 235.619 23.2628 235.127 23.6473C234.619 24.0318 233.943 24.224 233.097 24.224ZM233.097 22.9782C233.45 22.9782 233.72 22.8936 233.904 22.7244C234.089 22.5399 234.181 22.3015 234.181 22.0092C234.181 21.717 234.089 21.4863 233.904 21.3171C233.72 21.1326 233.45 21.0403 233.097 21.0403C232.758 21.0403 232.497 21.1326 232.312 21.3171C232.128 21.4863 232.035 21.717 232.035 22.0092C232.035 22.3015 232.128 22.5399 232.312 22.7244C232.497 22.8936 232.758 22.9782 233.097 22.9782ZM242.233 38.1818V29.5995C242.233 28.9074 242.071 28.4075 241.748 28.0999C241.441 27.7769 240.918 27.6154 240.179 27.6154C239.656 27.6154 239.172 27.6923 238.726 27.8461C238.28 27.9846 237.857 28.1614 237.457 28.3768V25.9543C237.78 25.8005 238.241 25.6467 238.841 25.4929C239.441 25.3391 240.149 25.2622 240.964 25.2622C241.794 25.2622 242.525 25.3853 243.155 25.6314C243.786 25.8621 244.278 26.262 244.632 26.831C244.986 27.3847 245.163 28.1384 245.163 29.092V38.1818H242.233ZM253.487 38.4587C251.872 38.4587 250.642 38.0895 249.796 37.3513C248.95 36.5976 248.527 35.4979 248.527 34.0522V32.9448C248.527 32.268 248.619 31.722 248.804 31.3067C248.988 30.8761 249.204 30.4916 249.45 30.1532C249.711 29.8148 249.927 29.5149 250.096 29.2535C250.265 28.9766 250.35 28.6767 250.35 28.3537C250.35 28.0615 250.28 27.8538 250.142 27.7308C250.003 27.6077 249.819 27.5462 249.588 27.5462C249.419 27.5462 249.242 27.577 249.058 27.6385C248.888 27.6846 248.704 27.7539 248.504 27.8461L247.973 25.9313C248.358 25.7159 248.781 25.5698 249.242 25.4929C249.704 25.416 250.111 25.3776 250.465 25.3776C251.111 25.3776 251.626 25.4852 252.011 25.7006C252.395 25.9005 252.672 26.1927 252.841 26.5773C253.01 26.9464 253.095 27.3924 253.095 27.9154C253.095 28.4229 253.01 28.8613 252.841 29.2304C252.687 29.5995 252.495 29.9686 252.264 30.3378C252.049 30.7069 251.857 31.053 251.688 31.376C251.518 31.699 251.434 32.1527 251.434 32.7371V33.8215C251.434 34.3905 251.526 34.8443 251.711 35.1826C251.895 35.521 252.141 35.7671 252.449 35.9209C252.757 36.0593 253.11 36.1285 253.51 36.1285C254.172 36.1285 254.671 35.9593 255.01 35.621C255.348 35.2672 255.517 34.7443 255.517 34.0522V25.5391H258.424V34.1444C258.424 35.5441 258.001 36.613 257.155 37.3513C256.325 38.0895 255.102 38.4587 253.487 38.4587ZM266.665 38.4587C264.866 38.4587 263.527 38.0126 262.651 37.1206C261.789 36.2131 261.359 34.8519 261.359 33.0371C261.359 32.7294 261.366 32.368 261.382 31.9527C261.413 31.5375 261.443 31.1606 261.474 30.8223H266.757V32.8063H264.243V33.1755C264.243 33.9291 264.327 34.529 264.496 34.975C264.681 35.421 264.95 35.744 265.304 35.944C265.658 36.1439 266.104 36.2439 266.642 36.2439C267.226 36.2439 267.726 36.1208 268.142 35.8748C268.557 35.6287 268.872 35.2057 269.087 34.6059C269.318 33.9906 269.434 33.137 269.434 32.045C269.434 31.0607 269.318 30.2455 269.087 29.5995C268.872 28.9382 268.511 28.446 268.003 28.123C267.496 27.8 266.796 27.6385 265.904 27.6385C265.427 27.6385 264.95 27.6846 264.473 27.7769C263.997 27.8692 263.535 27.9923 263.089 28.1461C262.658 28.2999 262.266 28.4844 261.912 28.6998V26.185C262.235 26.0005 262.635 25.8467 263.112 25.7236C263.589 25.5852 264.112 25.4775 264.681 25.4006C265.25 25.3084 265.819 25.2622 266.388 25.2622C267.834 25.2622 268.995 25.5391 269.872 26.0928C270.764 26.6311 271.41 27.4001 271.81 28.3998C272.225 29.3996 272.433 30.5762 272.433 31.9297C272.433 33.3139 272.24 34.4982 271.856 35.4825C271.471 36.4515 270.856 37.1898 270.01 37.6973C269.164 38.2049 268.049 38.4587 266.665 38.4587ZM277.507 38.1818L273.723 25.5391H276.676L279.699 35.7825H279.906C280.198 35.7825 280.475 35.7056 280.737 35.5518C280.998 35.398 281.229 35.198 281.429 34.9519C281.783 34.4905 282.044 33.9291 282.213 33.2678C282.398 32.6064 282.49 31.945 282.49 31.2837C282.49 30.1609 282.259 29.2919 281.798 28.6767C281.337 28.0615 280.698 27.7539 279.883 27.7539C279.729 27.7539 279.576 27.7692 279.422 27.8C279.283 27.8154 279.16 27.8461 279.053 27.8923L278.476 25.6083C278.814 25.516 279.129 25.4545 279.422 25.4237C279.729 25.393 279.991 25.3776 280.206 25.3776C281.006 25.3776 281.706 25.4929 282.306 25.7236C282.905 25.939 283.421 26.262 283.851 26.6926C284.39 27.2155 284.789 27.8692 285.051 28.6536C285.328 29.438 285.466 30.3147 285.466 31.2837C285.466 32.5141 285.274 33.5984 284.889 34.5366C284.505 35.4595 284.036 36.1901 283.482 36.7284C283.021 37.1744 282.452 37.5282 281.775 37.7896C281.098 38.0511 280.191 38.1818 279.053 38.1818H277.507ZM293.694 38.4587C291.756 38.4587 290.356 38.0126 289.495 37.1206C288.649 36.2285 288.226 34.9365 288.226 33.2447V25.5391H291.156V33.3831C291.156 34.2752 291.364 34.9519 291.779 35.4133C292.194 35.8594 292.832 36.0824 293.694 36.0824C294.57 36.0824 295.216 35.8594 295.632 35.4133C296.047 34.9519 296.255 34.2752 296.255 33.3831V20.9941H299.185V33.2447C299.185 34.9365 298.754 36.2285 297.893 37.1206C297.031 38.0126 295.632 38.4587 293.694 38.4587ZM306.66 38.4587C305.753 38.4587 304.868 38.3664 304.007 38.1818C303.146 37.9819 302.392 37.7204 301.746 37.3974L302.576 35.0673C302.899 35.2211 303.269 35.3826 303.684 35.5518C304.114 35.7056 304.576 35.8363 305.068 35.944C305.576 36.0516 306.083 36.1055 306.591 36.1055C307.283 36.1055 307.829 35.9978 308.229 35.7825C308.629 35.5518 308.829 35.2134 308.829 34.7674C308.829 34.4597 308.729 34.206 308.529 34.006C308.329 33.7907 308.029 33.5908 307.629 33.4062C307.229 33.2216 306.737 33.0371 306.152 32.8525C305.276 32.5603 304.53 32.245 303.915 31.9066C303.299 31.5528 302.83 31.1376 302.507 30.6608C302.184 30.1686 302.023 29.5534 302.023 28.8151C302.023 28.0461 302.215 27.4001 302.6 26.8772C302.999 26.3542 303.584 25.9543 304.353 25.6775C305.122 25.4006 306.045 25.2622 307.121 25.2622C307.937 25.2622 308.682 25.3314 309.359 25.4699C310.036 25.6083 310.567 25.7852 310.951 26.0005V28.3537C310.69 28.2307 310.351 28.1076 309.936 27.9846C309.521 27.8615 309.075 27.7615 308.598 27.6846C308.121 27.5924 307.652 27.5462 307.191 27.5462C306.422 27.5462 305.852 27.6616 305.483 27.8923C305.13 28.1076 304.953 28.3921 304.953 28.7459C304.953 29.0227 305.053 29.2611 305.253 29.4611C305.468 29.6457 305.799 29.8225 306.245 29.9917C306.691 30.1609 307.252 30.3685 307.929 30.6146C308.698 30.8761 309.367 31.176 309.936 31.5144C310.52 31.8374 310.966 32.245 311.274 32.7371C311.597 33.2293 311.759 33.8445 311.759 34.5828C311.759 35.2595 311.597 35.8901 311.274 36.4746C310.966 37.059 310.444 37.5358 309.705 37.905C308.967 38.2741 307.952 38.4587 306.66 38.4587ZM316.3 30.5454C315.623 30.5454 315.077 30.4454 314.662 30.2455C314.262 30.0302 313.97 29.7533 313.785 29.415C313.616 29.0766 313.531 28.7228 313.531 28.3537C313.531 28.0922 313.562 27.8308 313.624 27.5693C313.7 27.2924 313.808 27.0387 313.947 26.808L316.161 27.1079C316.131 27.2155 316.1 27.3309 316.069 27.4539C316.054 27.577 316.046 27.7077 316.046 27.8461C316.046 28.0461 316.1 28.2076 316.207 28.3306C316.33 28.4537 316.538 28.5152 316.83 28.5152H319.714V30.5454H316.3ZM316.3 37.0052C315.623 37.0052 315.077 36.9052 314.662 36.7053C314.262 36.49 313.97 36.2131 313.785 35.8748C313.616 35.5364 313.531 35.1826 313.531 34.8135C313.531 34.552 313.562 34.2906 313.624 34.0291C313.7 33.7522 313.808 33.4985 313.947 33.2678L316.161 33.5677C316.131 33.6753 316.1 33.7907 316.069 33.9137C316.054 34.0368 316.046 34.1675 316.046 34.3059C316.046 34.5059 316.1 34.6674 316.207 34.7904C316.33 34.9135 316.538 34.975 316.83 34.975H319.714V37.0052H316.3ZM325.68 38.4125C325.096 38.4125 324.581 38.3202 324.135 38.1357C323.689 37.9511 323.343 37.6589 323.097 37.259C322.85 36.8437 322.727 36.3131 322.727 35.6671V25.5391H325.657V35.298C325.657 35.621 325.727 35.8594 325.865 36.0132C326.003 36.1516 326.226 36.2208 326.534 36.2208C326.657 36.2208 326.788 36.2054 326.926 36.1747C327.08 36.1439 327.219 36.1055 327.342 36.0593L327.665 37.9973C327.372 38.1511 327.057 38.2587 326.719 38.3202C326.38 38.3818 326.034 38.4125 325.68 38.4125ZM330 38.1818V25.5391H332.122L332.538 27.5232H332.699C332.961 26.8772 333.422 26.3465 334.083 25.9313C334.745 25.516 335.583 25.3084 336.598 25.3084C337.552 25.3084 338.351 25.4775 338.997 25.8159C339.659 26.1389 340.159 26.6465 340.497 27.3386C340.835 28.0153 341.005 28.8766 341.005 29.9225V38.1818H338.075V30.407C338.075 29.5149 337.875 28.8613 337.475 28.446C337.09 28.0307 336.521 27.8231 335.767 27.8231C335.152 27.8231 334.629 27.9846 334.199 28.3076C333.783 28.6152 333.468 29.0535 333.253 29.6226C333.037 30.1763 332.93 30.853 332.93 31.6528V38.1818H330ZM344.416 38.1818V30.4762C344.416 28.7844 344.862 27.4924 345.754 26.6003C346.661 25.7083 348.092 25.2622 350.045 25.2622C350.922 25.2622 351.683 25.3776 352.329 25.6083C352.99 25.839 353.498 26.2312 353.852 26.7849C354.513 27.0617 354.974 27.5232 355.236 28.1691C355.497 28.8151 355.628 29.5841 355.628 30.4762V38.1818H352.721V30.4301C352.721 29.538 352.498 28.8536 352.052 28.3768C351.621 27.8846 350.952 27.6385 350.045 27.6385C349.122 27.6385 348.438 27.8846 347.992 28.3768C347.561 28.8536 347.346 29.538 347.346 30.4301V32.6449L347.415 32.6679C347.738 32.0681 348.115 31.6759 348.545 31.4913C348.976 31.2914 349.576 31.1914 350.345 31.1914H350.991V33.4523H350.345C349.53 33.4523 348.899 33.5831 348.453 33.8445C348.022 34.106 347.73 34.4521 347.576 34.8827C347.423 35.298 347.346 35.7671 347.346 36.29V38.1818H344.416ZM353.921 27.7769L352.306 26.3696C352.798 26.2312 353.206 26.0312 353.529 25.7698C353.852 25.4929 354.013 25.1392 354.013 24.7085H356.666C356.666 25.1853 356.559 25.6314 356.343 26.0466C356.143 26.4465 355.836 26.8003 355.42 27.1079C355.021 27.4001 354.521 27.6231 353.921 27.7769ZM3.71941 85.1818V66.2177H6.90317L7.52608 69.1938H7.76832C8.16053 68.2248 8.85265 67.4289 9.84469 66.806C10.8367 66.1831 12.0941 65.8716 13.6168 65.8716C15.0471 65.8716 16.2468 66.1254 17.2158 66.633C18.2078 67.1175 18.9576 67.8788 19.4652 68.917C19.9727 69.9321 20.2265 71.224 20.2265 72.7928V85.1818H15.8315V73.5196C15.8315 72.1815 15.5316 71.201 14.9318 70.5781C14.355 69.9551 13.5014 69.6437 12.3709 69.6437C11.4481 69.6437 10.6637 69.8859 10.0177 70.3704C9.39481 70.8318 8.92186 71.4894 8.59887 72.343C8.27588 73.1735 8.11439 74.1886 8.11439 75.3883V85.1818H3.71941ZM4.13874 63.4492V61.5805L7.25329 60.2654H19.5384V63.4492H4.13874ZM15.6972 61.6151V57.7046H19.5731V61.6151H15.6972ZM15.6626 55.8013V49.676H19.5731V55.8013H15.6626ZM25.3433 85.1818V73.6234C25.3433 71.0856 26.0124 69.1477 27.3505 67.8096C28.7117 66.4715 30.8457 65.8024 33.7526 65.8024C36.7057 65.8024 38.8397 66.4715 40.1547 67.8096C41.4928 69.1477 42.1619 71.0856 42.1619 73.6234V85.1818H37.7669V73.5542C37.7669 72.2161 37.4324 71.1894 36.7634 70.4742C36.1174 69.736 35.1023 69.3668 33.718 69.3668C32.3338 69.3668 31.3187 69.736 30.6727 70.4742C30.0267 71.1894 29.7037 72.2161 29.7037 73.5542V76.911H29.8075C30.2689 76.0112 30.8226 75.4229 31.4686 75.1461C32.1377 74.8461 33.0605 74.6962 34.2371 74.6962H35.1369V78.0876H34.2371C32.9682 78.0876 32.0108 78.2837 31.3648 78.6759C30.7188 79.0681 30.2805 79.5872 30.0498 80.2332C29.8191 80.8561 29.7037 81.5597 29.7037 82.3441V85.1818H25.3433ZM36.8639 63.4492C35.8257 63.4492 35.0067 63.2992 34.4069 62.9993C33.8071 62.6763 33.3802 62.2841 33.1265 61.8227C32.8496 61.3382 32.7112 60.8307 32.7112 60.3001C32.7112 59.9309 32.7689 59.5387 32.8842 59.1234C32.9765 58.6851 33.1265 58.2929 33.3341 57.9468L36.6563 58.4313C36.6101 58.5467 36.5755 58.7082 36.5525 58.9158C36.5063 59.1004 36.4833 59.2734 36.4833 59.4349C36.4833 59.7348 36.5871 59.9886 36.7947 60.1962C36.9793 60.3808 37.2907 60.4731 37.7291 60.4731H45.6885V63.4492H36.8639ZM53.9553 85.5279C52.1096 85.5279 50.6446 85.1126 49.5603 84.2821C48.476 83.4284 47.7031 82.2749 47.2417 80.8215C46.7803 79.368 46.5496 77.73 46.5496 75.9074C46.5496 73.9233 46.7572 72.2738 47.1725 70.9587C47.6108 69.6437 48.2222 68.617 49.0066 67.8788C49.8141 67.1175 50.7715 66.5868 51.8789 66.2869C52.9863 65.9639 54.209 65.8024 55.5471 65.8024C57.5312 65.8024 59.1231 66.0908 60.3228 66.6676C61.5455 67.2213 62.4338 68.0172 62.9875 69.0554C63.5642 70.0936 63.8526 71.3163 63.8526 72.7236V85.1818H59.4576V73.0697C59.4576 71.87 59.1577 70.9587 58.5579 70.3358C57.9811 69.6898 56.9891 69.3668 55.5818 69.3668C54.682 69.3668 53.8745 69.5514 53.1593 69.9205C52.4672 70.2666 51.925 70.901 51.5328 71.8239C51.1637 72.7467 50.9791 74.0963 50.9791 75.8728C50.9791 77.0494 51.0945 78.0991 51.3252 79.0219C51.5559 79.9448 51.9366 80.6715 52.4672 81.2021C53.0209 81.7097 53.7707 81.9635 54.7166 81.9635C55.0165 81.9635 55.2934 81.9519 55.5471 81.9289C55.824 81.8827 56.0662 81.825 56.2739 81.7558L56.6891 85.078C56.32 85.2395 55.8817 85.3549 55.3741 85.4241C54.8896 85.4933 54.4167 85.5279 53.9553 85.5279ZM79.9082 85.1818V72.7582C79.9082 71.4894 79.5852 70.5896 78.9392 70.059C78.3163 69.5053 77.3127 69.2284 75.9285 69.2284C74.7519 69.2284 73.6099 69.4015 72.5025 69.7475C71.3951 70.0936 70.4031 70.5204 69.5264 71.0279V67.2559C70.1954 66.9329 71.1183 66.6099 72.2949 66.2869C73.4945 65.9639 74.8673 65.8024 76.413 65.8024C77.6357 65.8024 78.7085 65.9524 79.6314 66.2523C80.5773 66.5291 81.2694 67.0828 81.7077 67.9134C82.6075 68.2364 83.2419 68.8247 83.6111 69.6783C84.0033 70.5088 84.1994 71.547 84.1994 72.7928V85.1818H79.9082ZM74.129 85.5279C72.1218 85.5279 70.5761 85.0549 69.4918 84.109C68.4305 83.1631 67.8999 81.8366 67.8999 80.1293C67.8999 78.2375 68.5689 76.761 69.907 75.6998C71.2682 74.6154 73.4369 73.9695 76.413 73.7618L80.6349 73.4504V76.7379L76.9321 77.0494C75.1787 77.2109 73.9675 77.5339 73.2984 78.0184C72.6294 78.4798 72.2949 79.1373 72.2949 79.9909C72.2949 80.7984 72.5486 81.4098 73.0562 81.825C73.5868 82.2172 74.302 82.4133 75.2018 82.4133C75.5248 82.4133 75.8247 82.3903 76.1015 82.3441C76.4015 82.2749 76.6783 82.2057 76.9321 82.1365L77.4166 85.0088C76.9782 85.1703 76.4707 85.2972 75.8939 85.3895C75.3171 85.4817 74.7288 85.5279 74.129 85.5279ZM81.6039 69.5745L79.1815 67.4635C79.8967 67.2559 80.4965 66.956 80.981 66.5638C81.4885 66.1485 81.7423 65.6179 81.7423 64.9719H85.722C85.722 65.6871 85.5605 66.3561 85.2375 66.979C84.9376 67.5789 84.4762 68.1095 83.8533 68.5709C83.2535 69.0093 82.5037 69.3438 81.6039 69.5745ZM95.4747 85.5971C94.1135 85.5971 92.787 85.4587 91.495 85.1818C90.2031 84.8819 89.0726 84.4897 88.1036 84.0052L89.3494 80.51C89.8339 80.7407 90.3876 80.983 91.0105 81.2367C91.6565 81.4674 92.3486 81.6635 93.0869 81.825C93.8482 81.9865 94.6096 82.0673 95.3709 82.0673C96.4091 82.0673 97.2281 81.9058 97.8279 81.5828C98.4278 81.2367 98.7277 80.7292 98.7277 80.0601C98.7277 79.5987 98.5777 79.218 98.2778 78.9181C97.9779 78.5951 97.528 78.2952 96.9282 78.0184C96.3283 77.7415 95.5901 77.4647 94.7134 77.1878C93.3984 76.7495 92.2794 76.2765 91.3566 75.769C90.4338 75.2383 89.7301 74.6154 89.2456 73.9002C88.7611 73.162 88.5189 72.2392 88.5189 71.1318C88.5189 69.9782 88.8073 69.0093 89.384 68.2248C89.9839 67.4404 90.8606 66.8406 92.0141 66.4253C93.1676 66.0101 94.5519 65.8024 96.1668 65.8024C97.3896 65.8024 98.5085 65.9062 99.5236 66.1139C100.539 66.3215 101.335 66.5868 101.911 66.9098V70.4396C101.519 70.2551 101.012 70.0705 100.389 69.8859C99.7659 69.7014 99.0968 69.5514 98.3816 69.4361C97.6664 69.2976 96.9628 69.2284 96.2707 69.2284C95.1171 69.2284 94.2635 69.4015 93.7098 69.7475C93.1792 70.0705 92.9139 70.4973 92.9139 71.0279C92.9139 71.4432 93.0638 71.8008 93.3637 72.1007C93.6867 72.3776 94.1828 72.6429 94.8518 72.8967C95.5209 73.1504 96.3629 73.4619 97.3781 73.831C98.5316 74.2232 99.5352 74.6731 100.389 75.1807C101.265 75.6652 101.935 76.2765 102.396 77.0148C102.88 77.7531 103.123 78.6759 103.123 79.7833C103.123 80.7984 102.88 81.7443 102.396 82.621C101.935 83.4977 101.15 84.2129 100.043 84.7666C98.9353 85.3202 97.4127 85.5971 95.4747 85.5971ZM113.014 85.5971C111.653 85.5971 110.327 85.4587 109.035 85.1818C107.743 84.8819 106.612 84.4897 105.643 84.0052L106.889 80.51C107.374 80.7407 107.927 80.983 108.55 81.2367C109.196 81.4674 109.888 81.6635 110.627 81.825C111.388 81.9865 112.149 82.0673 112.911 82.0673C113.949 82.0673 114.768 81.9058 115.368 81.5828C115.967 81.2367 116.267 80.7292 116.267 80.0601C116.267 79.5987 116.117 79.218 115.817 78.9181C115.517 78.5951 115.068 78.2952 114.468 78.0184C113.868 77.7415 113.13 77.4647 112.253 77.1878C110.938 76.7495 109.819 76.2765 108.896 75.769C107.973 75.2383 107.27 74.6154 106.785 73.9002C106.301 73.162 106.058 72.2392 106.058 71.1318C106.058 69.9782 106.347 69.0093 106.924 68.2248C107.523 67.4404 108.4 66.8406 109.554 66.4253C110.707 66.0101 112.091 65.8024 113.706 65.8024C114.929 65.8024 116.048 65.9062 117.063 66.1139C118.078 66.3215 118.874 66.5868 119.451 66.9098V70.4396C119.059 70.2551 118.551 70.0705 117.928 69.8859C117.305 69.7014 116.636 69.5514 115.921 69.4361C115.206 69.2976 114.502 69.2284 113.81 69.2284C112.657 69.2284 111.803 69.4015 111.249 69.7475C110.719 70.0705 110.453 70.4973 110.453 71.0279C110.453 71.4432 110.603 71.8008 110.903 72.1007C111.226 72.3776 111.722 72.6429 112.391 72.8967C113.06 73.1504 113.903 73.4619 114.918 73.831C116.071 74.2232 117.075 74.6731 117.928 75.1807C118.805 75.6652 119.474 76.2765 119.936 77.0148C120.42 77.7531 120.662 78.6759 120.662 79.7833C120.662 80.7984 120.42 81.7443 119.936 82.621C119.474 83.4977 118.69 84.2129 117.582 84.7666C116.475 85.3202 114.952 85.5971 113.014 85.5971ZM134.914 85.5279C133.345 85.5279 132.042 85.228 131.004 84.6281C129.966 84.0052 129.25 83.1977 128.858 82.2057H128.616L128.201 85.1818H124.809V66.2177H129.204V76.0112C129.204 77.257 129.366 78.3067 129.689 79.1604C130.035 80.014 130.531 80.66 131.177 81.0983C131.846 81.5367 132.63 81.7558 133.53 81.7558C134.661 81.7558 135.503 81.4444 136.056 80.8215C136.633 80.1755 136.921 79.195 136.921 77.8799V66.2177H141.316V78.6759C141.316 80.1985 141.063 81.4674 140.555 82.4825C140.071 83.4746 139.355 84.2359 138.41 84.7666C137.464 85.2741 136.299 85.5279 134.914 85.5279ZM151.587 85.1818V72.3084C151.587 71.2702 151.345 70.5204 150.86 70.059C150.399 69.5745 149.615 69.3322 148.507 69.3322C147.723 69.3322 146.996 69.4476 146.327 69.6783C145.658 69.8859 145.024 70.1513 144.424 70.4742V66.8406C144.908 66.6099 145.6 66.3792 146.5 66.1485C147.4 65.9178 148.461 65.8024 149.684 65.8024C150.93 65.8024 152.025 65.987 152.971 66.3561C153.917 66.7022 154.656 67.302 155.186 68.1556C155.717 68.9862 155.982 70.1166 155.982 71.547V85.1818H151.587ZM166.047 85.5279C165.17 85.5279 164.397 85.3895 163.728 85.1126C163.059 84.8358 162.54 84.3974 162.171 83.7976C161.801 83.1747 161.617 82.3787 161.617 81.4098V66.2177H166.012V80.8561C166.012 81.3405 166.116 81.6981 166.323 81.9289C166.531 82.1365 166.866 82.2403 167.327 82.2403C167.511 82.2403 167.708 82.2172 167.915 82.1711C168.146 82.125 168.354 82.0673 168.538 81.9981L169.023 84.905C168.584 85.1357 168.111 85.2972 167.604 85.3895C167.096 85.4817 166.577 85.5279 166.047 85.5279ZM173.75 85.1818L170.427 66.2177H174.753L175.861 73.485C175.93 74.0848 176.022 74.8807 176.137 75.8728C176.253 76.8648 176.368 78.0299 176.483 79.368H176.587C176.795 78.4682 176.98 77.6492 177.141 76.911C177.326 76.1727 177.499 75.5152 177.66 74.9384C177.822 74.3386 177.96 73.8195 178.075 73.3812L180.117 66.2177H183.024L185.066 73.3812C185.204 73.8195 185.354 74.3386 185.516 74.9384C185.677 75.5152 185.839 76.1727 186 76.911C186.185 77.6492 186.381 78.4682 186.588 79.368H186.692C186.808 78.0299 186.911 76.8648 187.004 75.8728C187.119 74.8807 187.223 74.0848 187.315 73.485L188.457 66.2177H192.748L189.426 85.1818H185.135L182.574 76.4957C182.367 75.7113 182.193 74.973 182.055 74.2809C181.917 73.5657 181.79 72.7698 181.674 71.8931H181.536C181.444 72.4929 181.351 73.0351 181.259 73.5196C181.167 74.0041 181.063 74.4885 180.948 74.973C180.832 75.4344 180.694 75.942 180.532 76.4957L177.972 85.1818H173.75ZM175.952 63.4492V61.5805L179.102 60.2654H191.387V63.4492H175.952ZM183.185 61.6151V57.7046H186.196V61.6151H183.185ZM188.411 61.6151V57.7046H191.387V61.6151H188.411ZM185.584 55.8013V49.676H189.494V55.8013H185.584ZM203.748 85.5971C201.048 85.5971 199.041 84.928 197.726 83.5899C196.434 82.2288 195.788 80.187 195.788 77.4647C195.788 77.0033 195.8 76.4611 195.823 75.8382C195.869 75.2153 195.915 74.65 195.961 74.1425H203.886V77.1186H200.114V77.6723C200.114 78.8028 200.241 79.7025 200.495 80.3716C200.772 81.0406 201.175 81.5251 201.706 81.825C202.237 82.125 202.906 82.2749 203.713 82.2749C204.59 82.2749 205.34 82.0903 205.962 81.7212C206.585 81.3521 207.058 80.7176 207.381 79.8179C207.727 78.8951 207.9 77.6146 207.9 75.9766C207.9 74.5001 207.727 73.2773 207.381 72.3084C207.058 71.3163 206.516 70.5781 205.755 70.0936C204.993 69.6091 203.944 69.3668 202.606 69.3668C201.89 69.3668 201.175 69.4361 200.46 69.5745C199.745 69.7129 199.053 69.8975 198.384 70.1282C197.738 70.3589 197.149 70.6357 196.619 70.9587V67.1867C197.103 66.9098 197.703 66.6791 198.418 66.4945C199.134 66.2869 199.918 66.1254 200.772 66.0101C201.625 65.8716 202.479 65.8024 203.332 65.8024C205.501 65.8024 207.243 66.2177 208.558 67.0482C209.896 67.8557 210.865 69.0093 211.465 70.5088C212.088 72.0084 212.399 73.7734 212.399 75.8036C212.399 77.8799 212.111 79.6564 211.534 81.1329C210.957 82.5864 210.034 83.6938 208.766 84.4551C207.497 85.2164 205.824 85.5971 203.748 85.5971ZM216.792 85.1818V73.6234C216.792 71.0856 217.461 69.1477 218.799 67.8096C220.16 66.4715 222.294 65.8024 225.201 65.8024C228.154 65.8024 230.288 66.4715 231.603 67.8096C232.941 69.1477 233.611 71.0856 233.611 73.6234V85.1818H229.216V73.5542C229.216 72.2161 228.881 71.1894 228.212 70.4742C227.566 69.736 226.551 69.3668 225.167 69.3668C223.782 69.3668 222.767 69.736 222.121 70.4742C221.475 71.1894 221.152 72.2161 221.152 73.5542V76.911H221.256C221.718 76.0112 222.271 75.4229 222.917 75.1461C223.586 74.8461 224.509 74.6962 225.686 74.6962H226.586V78.0876H225.686C224.417 78.0876 223.459 78.2837 222.813 78.6759C222.167 79.0681 221.729 79.5872 221.498 80.2332C221.268 80.8561 221.152 81.5597 221.152 82.3441V85.1818H216.792ZM229.789 94.214V90.9264C229.789 90.3497 229.535 90.0613 229.028 90.0613C228.913 90.0613 228.797 90.0728 228.682 90.0959C228.567 90.119 228.451 90.1536 228.336 90.1997L228.094 87.8465C228.417 87.7311 228.832 87.6273 229.339 87.535C229.847 87.4428 230.331 87.3966 230.793 87.3966C231.785 87.3966 232.5 87.6042 232.938 88.0195C233.377 88.4579 233.596 89.0462 233.596 89.7844V94.214H229.789ZM243.12 85.5279C242.266 85.5279 241.505 85.3895 240.836 85.1126C240.167 84.8358 239.636 84.3974 239.244 83.7976C238.852 83.1747 238.656 82.3787 238.656 81.4098V78.7451C238.656 77.3378 238.956 76.3111 239.555 75.6652C240.178 75.0192 240.997 74.5578 242.013 74.2809L242.047 74.1425L238.206 72.7582V71.7547C238.206 70.6473 238.529 69.6437 239.175 68.7439C239.821 67.8442 240.744 67.129 241.943 66.5984C243.166 66.0677 244.62 65.8024 246.304 65.8024C247.849 65.8024 249.222 66.0447 250.422 66.5291C251.621 67.0136 252.567 67.7519 253.259 68.7439C253.952 69.736 254.298 71.0164 254.298 72.5852V78.3298C254.298 79.5295 254.563 80.4062 255.094 80.9599C255.647 81.4905 256.339 81.7558 257.17 81.7558C257.931 81.7558 258.589 81.5482 259.143 81.1329C259.719 80.7176 260.169 80.1409 260.492 79.4026C260.815 78.6413 260.977 77.7646 260.977 76.7725V66.2177H265.372V85.1818H261.911L261.496 82.2057H261.253C260.838 83.1977 260.146 84.0052 259.177 84.6281C258.231 85.228 257.089 85.5279 255.751 85.5279C253.929 85.5279 252.51 85.0319 251.495 84.0398C250.479 83.0478 249.972 81.4559 249.972 79.2642V72.9313C249.972 72.0315 249.799 71.3163 249.453 70.7857C249.13 70.2551 248.68 69.8859 248.103 69.6783C247.549 69.4476 246.938 69.3322 246.269 69.3322C245.254 69.3322 244.412 69.5514 243.743 69.9898C243.097 70.405 242.751 71.051 242.705 71.9277L246.096 73.5196L245.75 75.5613C244.896 75.5613 244.216 75.7805 243.708 76.2189C243.224 76.6572 242.981 77.407 242.981 78.4682V80.9253C242.981 81.4328 243.085 81.802 243.293 82.0327C243.524 82.2403 243.881 82.3441 244.366 82.3441C244.596 82.3441 244.816 82.3326 245.023 82.3095C245.254 82.2634 245.45 82.2057 245.612 82.1365L246.096 84.905C245.658 85.1357 245.185 85.2972 244.677 85.3895C244.193 85.4817 243.674 85.5279 243.12 85.5279Z" fill="white"/>
<path d="M42.3191 143.405C41.6904 143.405 41.0779 143.34 40.4815 143.211C39.9012 143.082 39.2806 142.841 38.6197 142.486L39.2967 140.842C39.6513 141.051 40.0543 141.237 40.5056 141.398C40.957 141.543 41.4809 141.616 42.0773 141.616C43.2701 141.616 44.1969 141.18 44.8578 140.31C45.5348 139.423 45.8733 138.15 45.8733 136.49C45.8733 134.862 45.5268 133.62 44.8336 132.766C44.1566 131.896 43.1089 131.46 41.6904 131.46C41.1746 131.46 40.6507 131.517 40.1188 131.63C39.5869 131.743 39.1194 131.912 38.7164 132.137V130.324C39.1839 130.082 39.6916 129.913 40.2397 129.816C40.8039 129.72 41.368 129.671 41.9322 129.671C43.3829 129.671 44.5596 129.961 45.4623 130.542C46.365 131.106 47.0258 131.896 47.4449 132.911C47.864 133.927 48.0736 135.12 48.0736 136.49C48.0736 138.617 47.59 140.302 46.6229 141.543C45.6718 142.784 44.2372 143.405 42.3191 143.405ZM44.6149 127.809C43.9379 127.809 43.3979 127.713 42.9949 127.519C42.5919 127.326 42.3018 127.076 42.1245 126.77C41.9311 126.464 41.8343 126.141 41.8343 125.803C41.8343 125.561 41.8746 125.303 41.9552 125.029C42.0197 124.739 42.1084 124.505 42.2212 124.328L44.0346 124.642C44.0024 124.707 43.9701 124.819 43.9379 124.981C43.9057 125.126 43.8895 125.263 43.8895 125.392C43.8895 125.601 43.954 125.787 44.083 125.948C44.2119 126.093 44.4295 126.165 44.7358 126.165H50.853V127.809H44.6149ZM56.1296 143.405C55.1786 143.405 54.3565 143.244 53.6634 142.921C52.9864 142.583 52.4625 142.075 52.0918 141.398C51.7372 140.721 51.5599 139.842 51.5599 138.762V129.913H53.7118V138.642C53.7118 139.609 53.9536 140.342 54.4371 140.842C54.9368 141.341 55.6541 141.591 56.589 141.591C57.7174 141.591 58.5878 141.229 59.2003 140.503C59.829 139.778 60.1433 138.803 60.1433 137.578V129.913H62.2952V143.163H60.506L60.4093 141.204H60.2884C59.9982 141.849 59.4905 142.381 58.7651 142.8C58.0559 143.203 57.1774 143.405 56.1296 143.405Z" fill="white"/>
<g filter="url(#filter0_d_8_1960)">
<rect x="10.6501" y="163.552" width="80.8301" height="80.8301" rx="16.166" fill="black" fill-opacity="0.7" shape-rendering="crispEdges"/>
<path d="M49.0153 204.239C49.0153 207.019 48.8052 209.509 48.3849 211.707C47.9645 213.906 47.2856 215.781 46.3479 217.333C45.4103 218.853 44.1817 220.017 42.6621 220.825C41.1425 221.633 39.2995 222.037 37.1333 222.037C34.4174 222.037 32.1865 221.326 30.4406 219.903C28.6946 218.481 27.4014 216.444 26.5607 213.793C25.7201 211.141 25.2998 207.957 25.2998 204.239C25.2998 200.488 25.6878 197.287 26.4637 194.636C27.2397 191.985 28.4845 189.948 30.1981 188.525C31.944 187.103 34.2558 186.391 37.1333 186.391C39.8492 186.391 42.0801 187.103 43.826 188.525C45.572 189.915 46.8652 191.952 47.7059 194.636C48.5788 197.287 49.0153 200.488 49.0153 204.239ZM31.459 204.239C31.459 207.051 31.6369 209.412 31.9925 211.319C32.3482 213.194 32.9301 214.617 33.7384 215.587C34.5791 216.525 35.7107 216.993 37.1333 216.993C38.5559 216.993 39.6714 216.525 40.4797 215.587C41.3203 214.649 41.9184 213.243 42.2741 211.368C42.6621 209.46 42.8561 207.084 42.8561 204.239C42.8561 201.393 42.6621 199.033 42.2741 197.158C41.9184 195.25 41.3203 193.828 40.4797 192.89C39.6714 191.92 38.5559 191.435 37.1333 191.435C35.7107 191.435 34.5791 191.92 33.7384 192.89C32.9301 193.828 32.3482 195.25 31.9925 197.158C31.6369 199.033 31.459 201.393 31.459 204.239ZM75.5081 194.83C75.5081 196.382 75.1848 197.74 74.5382 198.904C73.9239 200.068 73.0671 201.021 71.9678 201.765C70.8685 202.476 69.5914 202.994 68.1364 203.317V203.463C70.917 203.786 73.0186 204.643 74.4412 206.033C75.8638 207.423 76.5751 209.266 76.5751 211.562C76.5751 213.566 76.0901 215.361 75.1202 216.945C74.1502 218.529 72.6468 219.774 70.6098 220.679C68.6053 221.585 66.0187 222.037 62.8502 222.037C60.9749 222.037 59.229 221.876 57.6124 221.552C55.9958 221.261 54.4762 220.793 53.0535 220.146V214.763C54.5085 215.506 56.0604 216.072 57.7094 216.46C59.3583 216.848 60.9102 217.042 62.3652 217.042C65.1781 217.042 67.1665 216.541 68.3304 215.539C69.4944 214.504 70.0764 213.081 70.0764 211.271C70.0764 210.107 69.7854 209.153 69.2034 208.409C68.6214 207.666 67.6676 207.116 66.342 206.76C65.0487 206.372 63.3513 206.178 61.2497 206.178H58.3398V201.28H61.2982C63.3351 201.28 64.9356 201.054 66.0995 200.601C67.2958 200.149 68.1364 199.518 68.6214 198.71C69.1387 197.901 69.3974 196.964 69.3974 195.897C69.3974 194.507 68.9447 193.423 68.0394 192.647C67.1341 191.871 65.7762 191.484 63.9656 191.484C62.8017 191.484 61.7509 191.613 60.8132 191.871C59.8756 192.13 59.0188 192.47 58.2428 192.89C57.4669 193.278 56.7394 193.698 56.0604 194.151L53.1505 189.932C54.4438 188.962 55.9958 188.137 57.8064 187.458C59.6493 186.779 61.7994 186.44 64.2566 186.44C67.8455 186.44 70.6098 187.2 72.5498 188.719C74.522 190.206 75.5081 192.243 75.5081 194.83Z" fill="#FDB022"/>
</g>
<path d="M110.712 220.975C110.712 219.779 111.003 218.938 111.585 218.453C112.167 217.968 112.862 217.726 113.67 217.726C114.511 217.726 115.222 217.968 115.804 218.453C116.418 218.938 116.726 219.779 116.726 220.975C116.726 222.139 116.418 222.98 115.804 223.497C115.222 224.014 114.511 224.273 113.67 224.273C112.862 224.273 112.167 224.014 111.585 223.497C111.003 222.98 110.712 222.139 110.712 220.975ZM110.712 200.218C110.712 198.989 111.003 198.132 111.585 197.647C112.167 197.162 112.862 196.92 113.67 196.92C114.511 196.92 115.222 197.162 115.804 197.647C116.418 198.132 116.726 198.989 116.726 200.218C116.726 201.382 116.418 202.222 115.804 202.74C115.222 203.257 114.511 203.516 113.67 203.516C112.862 203.516 112.167 203.257 111.585 202.74C111.003 202.222 110.712 201.382 110.712 200.218Z" fill="white" fill-opacity="0.3"/>
<path d="M153.574 143.405C152.043 143.405 150.858 143.042 150.02 142.317C149.198 141.575 148.787 140.471 148.787 139.004V137.529C148.787 136.723 148.899 136.087 149.125 135.619C149.351 135.152 149.593 134.749 149.85 134.41C150.124 134.039 150.358 133.717 150.552 133.443C150.761 133.169 150.866 132.839 150.866 132.452C150.866 132.113 150.777 131.871 150.6 131.726C150.439 131.581 150.229 131.509 149.971 131.509C149.778 131.509 149.568 131.541 149.343 131.605C149.133 131.67 148.924 131.751 148.714 131.847L148.23 130.3C148.521 130.106 148.875 129.969 149.294 129.889C149.73 129.808 150.108 129.768 150.431 129.768C151.027 129.768 151.503 129.873 151.857 130.082C152.228 130.292 152.494 130.582 152.655 130.953C152.816 131.307 152.897 131.726 152.897 132.21C152.897 132.806 152.792 133.298 152.583 133.685C152.389 134.072 152.155 134.45 151.881 134.821C151.607 135.224 151.382 135.611 151.204 135.982C151.027 136.353 150.939 136.836 150.939 137.433V138.859C150.939 139.601 151.059 140.173 151.301 140.576C151.543 140.979 151.865 141.261 152.268 141.422C152.671 141.567 153.107 141.64 153.574 141.64C154.38 141.64 154.992 141.454 155.412 141.084C155.831 140.697 156.04 140.108 156.04 139.318V135.933C156.04 135.337 155.903 134.886 155.629 134.579C155.355 134.257 154.912 134.096 154.299 134.096H154.203V132.718H154.324C154.984 132.718 155.452 132.565 155.726 132.258C156 131.952 156.161 131.581 156.209 131.146C156.274 130.695 156.306 130.284 156.306 129.913H158.458C158.458 130.767 158.353 131.493 158.144 132.089C157.934 132.685 157.459 133.121 156.717 133.395V133.491C157.169 133.604 157.491 133.798 157.684 134.072C157.894 134.33 158.031 134.628 158.095 134.966C158.16 135.289 158.192 135.603 158.192 135.909V139.439C158.192 140.681 157.805 141.656 157.032 142.365C156.258 143.058 155.105 143.405 153.574 143.405ZM155.397 127.809C154.72 127.809 154.18 127.713 153.777 127.519C153.374 127.326 153.084 127.076 152.907 126.77C152.713 126.463 152.617 126.141 152.617 125.803C152.617 125.561 152.657 125.303 152.738 125.029C152.802 124.739 152.891 124.505 153.004 124.328L154.817 124.642C154.785 124.706 154.752 124.819 154.72 124.98C154.688 125.126 154.672 125.263 154.672 125.392C154.672 125.601 154.736 125.786 154.865 125.948C154.994 126.093 155.212 126.165 155.518 126.165H161.635V127.809H155.397ZM157.169 124.708V120.767H159.224V124.708H157.169ZM164.837 143.405C164.208 143.405 163.595 143.34 162.999 143.211C162.419 143.082 161.798 142.841 161.137 142.486L161.814 140.842C162.169 141.051 162.572 141.237 163.023 141.398C163.474 141.543 163.998 141.615 164.595 141.615C165.788 141.615 166.714 141.18 167.375 140.31C168.052 139.423 168.391 138.15 168.391 136.49C168.391 134.862 168.044 133.62 167.351 132.766C166.674 131.896 165.626 131.46 164.208 131.46C163.692 131.46 163.168 131.517 162.636 131.63C162.104 131.742 161.637 131.912 161.234 132.137V130.324C161.701 130.082 162.209 129.913 162.757 129.816C163.321 129.72 163.886 129.671 164.45 129.671C165.9 129.671 167.077 129.961 167.98 130.542C168.882 131.106 169.543 131.896 169.962 132.911C170.382 133.927 170.591 135.119 170.591 136.49C170.591 138.617 170.108 140.302 169.14 141.543C168.189 142.784 166.755 143.405 164.837 143.405ZM174.779 132.331V127.592C174.779 126.625 174.545 125.932 174.077 125.512C173.626 125.093 173.046 124.884 172.336 124.884V123.965L174.126 123.191H180.581V124.884H175.673L175.649 124.98C176.004 125.222 176.302 125.593 176.544 126.093C176.802 126.576 176.93 127.213 176.93 128.003V132.331H174.779ZM177.414 143.405C176.979 143.405 176.56 143.332 176.157 143.187C175.754 143.042 175.423 142.784 175.165 142.413C174.908 142.043 174.779 141.527 174.779 140.866V129.913H176.93V140.6C176.93 140.971 177.011 141.237 177.172 141.398C177.333 141.559 177.591 141.64 177.946 141.64C178.091 141.64 178.244 141.624 178.405 141.591C178.567 141.559 178.72 141.519 178.865 141.47L179.155 143.042C178.849 143.187 178.55 143.284 178.26 143.332C177.97 143.381 177.688 143.405 177.414 143.405ZM187.898 143.405C186.867 143.405 185.972 143.203 185.215 142.8C184.473 142.381 183.965 141.801 183.691 141.059H183.595L183.474 143.163H181.709V129.913H183.86V137.578C183.86 138.384 183.998 139.093 184.272 139.705C184.562 140.302 184.973 140.769 185.505 141.108C186.053 141.43 186.706 141.591 187.463 141.591C188.414 141.591 189.123 141.341 189.591 140.842C190.058 140.342 190.292 139.609 190.292 138.641V129.913H192.444V138.787C192.444 139.85 192.259 140.721 191.888 141.398C191.533 142.075 191.017 142.583 190.34 142.921C189.663 143.243 188.849 143.405 187.898 143.405ZM198.543 143.163L194.409 129.913H196.585L200.163 141.301H200.453C200.84 141.301 201.219 141.212 201.59 141.035C201.96 140.842 202.275 140.6 202.533 140.31C203.016 139.778 203.371 139.109 203.597 138.303C203.822 137.481 203.935 136.675 203.935 135.885C203.935 134.547 203.629 133.499 203.016 132.742C202.42 131.968 201.59 131.581 200.526 131.581C200.316 131.581 200.107 131.597 199.897 131.63C199.704 131.662 199.543 131.702 199.414 131.751L198.882 130.034C199.22 129.937 199.535 129.873 199.825 129.84C200.131 129.808 200.405 129.792 200.647 129.792C201.453 129.792 202.17 129.913 202.799 130.155C203.443 130.38 203.992 130.719 204.443 131.17C205.007 131.718 205.418 132.403 205.676 133.225C205.95 134.048 206.087 134.958 206.087 135.958C206.087 137.215 205.894 138.335 205.507 139.318C205.12 140.286 204.636 141.059 204.056 141.64C203.589 142.107 203.016 142.478 202.339 142.752C201.662 143.026 200.8 143.163 199.752 143.163H198.543Z" fill="white"/>
<g filter="url(#filter1_d_8_1960)">
<rect x="136.745" y="163.552" width="80.8301" height="80.8301" rx="16.166" fill="black" fill-opacity="0.7" shape-rendering="crispEdges"/>
<path d="M175.11 204.239C175.11 207.019 174.9 209.509 174.48 211.707C174.059 213.906 173.38 215.781 172.443 217.333C171.505 218.853 170.277 220.017 168.757 220.825C167.237 221.633 165.394 222.037 163.228 222.037C160.512 222.037 158.281 221.326 156.535 219.903C154.79 218.481 153.496 216.444 152.656 213.793C151.815 211.141 151.395 207.957 151.395 204.239C151.395 200.488 151.783 197.287 152.559 194.636C153.335 191.985 154.579 189.948 156.293 188.525C158.039 187.103 160.351 186.391 163.228 186.391C165.944 186.391 168.175 187.103 169.921 188.525C171.667 189.915 172.96 191.952 173.801 194.636C174.674 197.287 175.11 200.488 175.11 204.239ZM157.554 204.239C157.554 207.051 157.732 209.412 158.087 211.319C158.443 213.194 159.025 214.617 159.833 215.587C160.674 216.525 161.806 216.993 163.228 216.993C164.651 216.993 165.766 216.525 166.575 215.587C167.415 214.649 168.013 213.243 168.369 211.368C168.757 209.46 168.951 207.084 168.951 204.239C168.951 201.393 168.757 199.033 168.369 197.158C168.013 195.25 167.415 193.828 166.575 192.89C165.766 191.92 164.651 191.435 163.228 191.435C161.806 191.435 160.674 191.92 159.833 192.89C159.025 193.828 158.443 195.25 158.087 197.158C157.732 199.033 157.554 201.393 157.554 204.239ZM191.03 186.488C193.035 186.488 194.846 186.795 196.462 187.41C198.079 188.024 199.372 188.945 200.342 190.174C201.312 191.403 201.797 192.938 201.797 194.781C201.797 196.172 201.506 197.4 200.924 198.467C200.374 199.502 199.615 200.407 198.645 201.183C197.707 201.959 196.64 202.654 195.444 203.269C196.769 203.915 197.998 204.675 199.13 205.548C200.261 206.389 201.167 207.391 201.846 208.555C202.557 209.686 202.912 211.028 202.912 212.58C202.912 214.488 202.411 216.153 201.409 217.575C200.439 218.998 199.065 220.097 197.287 220.873C195.508 221.649 193.439 222.037 191.079 222.037C188.525 222.037 186.358 221.665 184.58 220.922C182.802 220.178 181.444 219.111 180.506 217.721C179.569 216.331 179.1 214.682 179.1 212.774C179.1 211.19 179.407 209.816 180.021 208.652C180.668 207.488 181.509 206.486 182.543 205.645C183.578 204.772 184.71 204.045 185.938 203.463C184.871 202.816 183.901 202.088 183.028 201.28C182.155 200.439 181.46 199.502 180.943 198.467C180.458 197.4 180.215 196.155 180.215 194.733C180.215 192.922 180.7 191.403 181.67 190.174C182.673 188.945 183.982 188.024 185.599 187.41C187.248 186.795 189.058 186.488 191.03 186.488ZM184.92 212.483C184.92 213.906 185.421 215.086 186.423 216.024C187.425 216.929 188.945 217.381 190.982 217.381C192.987 217.381 194.506 216.945 195.541 216.072C196.575 215.167 197.093 213.97 197.093 212.483C197.093 211.513 196.818 210.656 196.268 209.913C195.719 209.169 195.007 208.506 194.134 207.924C193.261 207.342 192.291 206.809 191.224 206.324L190.545 205.984C189.382 206.502 188.379 207.084 187.539 207.73C186.698 208.345 186.051 209.04 185.599 209.816C185.146 210.592 184.92 211.481 184.92 212.483ZM190.982 191.096C189.559 191.096 188.379 191.451 187.442 192.162C186.536 192.874 186.084 193.876 186.084 195.169C186.084 196.107 186.31 196.915 186.763 197.594C187.215 198.273 187.813 198.855 188.557 199.34C189.333 199.825 190.174 200.294 191.079 200.747C191.984 200.326 192.793 199.874 193.504 199.389C194.248 198.904 194.829 198.322 195.25 197.643C195.702 196.964 195.929 196.139 195.929 195.169C195.929 193.876 195.46 192.874 194.522 192.162C193.617 191.451 192.437 191.096 190.982 191.096Z" fill="#FDB022"/>
</g>
<path d="M237.615 220.975C237.615 219.779 237.906 218.938 238.488 218.453C239.07 217.968 239.765 217.726 240.573 217.726C241.414 217.726 242.125 217.968 242.707 218.453C243.322 218.938 243.629 219.779 243.629 220.975C243.629 222.139 243.322 222.98 242.707 223.497C242.125 224.014 241.414 224.273 240.573 224.273C239.765 224.273 239.07 224.014 238.488 223.497C237.906 222.98 237.615 222.139 237.615 220.975ZM237.615 200.218C237.615 198.989 237.906 198.132 238.488 197.647C239.07 197.162 239.765 196.92 240.573 196.92C241.414 196.92 242.125 197.162 242.707 197.647C243.322 198.132 243.629 198.989 243.629 200.218C243.629 201.382 243.322 202.222 242.707 202.74C242.125 203.257 241.414 203.516 240.573 203.516C239.765 203.516 239.07 203.257 238.488 202.74C237.906 202.222 237.615 201.382 237.615 200.218Z" fill="white" fill-opacity="0.3"/>
<path d="M290.899 143.405C289.948 143.405 289.126 143.243 288.433 142.921C287.756 142.583 287.232 142.075 286.861 141.398C286.507 140.721 286.329 139.842 286.329 138.762V129.913H288.481V138.641C288.481 139.609 288.723 140.342 289.207 140.842C289.706 141.341 290.424 141.591 291.358 141.591C292.487 141.591 293.357 141.229 293.97 140.503C294.598 139.778 294.913 138.803 294.913 137.578V129.913H297.065V143.163H295.275L295.179 141.204H295.058C294.768 141.849 294.26 142.381 293.535 142.8C292.825 143.203 291.947 143.405 290.899 143.405ZM304.905 143.163V133.757C304.905 132.968 304.72 132.387 304.349 132.017C303.995 131.646 303.39 131.46 302.536 131.46C301.956 131.46 301.408 131.541 300.892 131.702C300.392 131.847 299.908 132.057 299.441 132.331V130.397C299.763 130.235 300.223 130.074 300.819 129.913C301.416 129.752 302.125 129.671 302.947 129.671C303.785 129.671 304.51 129.792 305.123 130.034C305.735 130.276 306.211 130.679 306.55 131.243C306.888 131.791 307.057 132.524 307.057 133.443V143.163H304.905ZM311.053 143.163V129.913H312.552L312.939 132.017H313.035C313.309 131.291 313.809 130.719 314.535 130.3C315.26 129.881 316.138 129.671 317.17 129.671C318.137 129.671 318.959 129.84 319.636 130.179C320.329 130.501 320.861 131.001 321.232 131.678C321.603 132.355 321.788 133.233 321.788 134.313V143.163H319.636V134.434C319.636 133.467 319.394 132.734 318.911 132.234C318.427 131.734 317.71 131.485 316.759 131.485C316.001 131.485 315.357 131.662 314.825 132.017C314.293 132.371 313.89 132.855 313.616 133.467C313.342 134.064 313.205 134.741 313.205 135.498V143.163H311.053ZM311.257 127.809V126.866L313.022 126.093H321.533V127.809H311.257ZM319.526 126.866V124.134H321.557V126.866H319.526Z" fill="white"/>
<g filter="url(#filter2_d_8_1960)">
<rect x="263.648" y="163.552" width="80.8301" height="80.8301" rx="16.166" fill="black" fill-opacity="0.7" shape-rendering="crispEdges"/>
<path d="M295.272 221.552H289.161V199.971C289.161 199.259 289.161 198.532 289.161 197.788C289.194 197.045 289.226 196.301 289.258 195.557C289.291 194.781 289.323 194.07 289.355 193.423C289.032 193.747 288.628 194.135 288.143 194.587C287.658 195.008 287.157 195.444 286.639 195.897L282.76 199.001L279.704 195.218L290.18 186.925H295.272V221.552ZM329.767 201.717C329.767 203.689 329.622 205.661 329.331 207.633C329.04 209.573 328.538 211.416 327.827 213.162C327.116 214.876 326.13 216.412 324.869 217.769C323.608 219.095 321.991 220.146 320.019 220.922C318.079 221.665 315.719 222.037 312.938 222.037C312.292 222.037 311.516 222.005 310.61 221.94C309.737 221.876 309.01 221.779 308.428 221.649V216.606C309.042 216.767 309.705 216.896 310.416 216.993C311.16 217.09 311.887 217.139 312.599 217.139C314.797 217.139 316.608 216.848 318.031 216.266C319.485 215.652 320.617 214.811 321.425 213.744C322.266 212.645 322.88 211.368 323.268 209.913C323.656 208.426 323.883 206.841 323.947 205.16H323.656C323.171 205.904 322.589 206.583 321.91 207.197C321.264 207.811 320.439 208.296 319.437 208.652C318.467 209.007 317.238 209.185 315.751 209.185C313.779 209.185 312.049 208.765 310.562 207.924C309.107 207.084 307.975 205.855 307.167 204.239C306.359 202.622 305.955 200.682 305.955 198.419C305.955 195.929 306.423 193.795 307.361 192.017C308.299 190.239 309.624 188.881 311.338 187.943C313.084 186.973 315.121 186.488 317.449 186.488C319.195 186.488 320.811 186.812 322.298 187.458C323.786 188.072 325.079 189.01 326.178 190.271C327.31 191.5 328.183 193.068 328.797 194.975C329.444 196.883 329.767 199.13 329.767 201.717ZM317.546 191.532C315.897 191.532 314.555 192.082 313.52 193.181C312.486 194.28 311.968 195.994 311.968 198.322C311.968 200.197 312.405 201.684 313.278 202.784C314.183 203.883 315.557 204.432 317.4 204.432C318.661 204.432 319.744 204.158 320.649 203.608C321.587 203.058 322.315 202.379 322.832 201.571C323.349 200.763 323.608 199.906 323.608 199.001C323.608 198.128 323.478 197.255 323.22 196.382C322.961 195.477 322.573 194.668 322.056 193.957C321.571 193.213 320.94 192.631 320.164 192.211C319.421 191.758 318.548 191.532 317.546 191.532Z" fill="#FDB022"/>
</g>
<path d="M364.518 220.975C364.518 219.779 364.809 218.938 365.391 218.453C365.973 217.968 366.668 217.726 367.476 217.726C368.317 217.726 369.028 217.968 369.61 218.453C370.225 218.938 370.532 219.779 370.532 220.975C370.532 222.139 370.225 222.98 369.61 223.497C369.028 224.014 368.317 224.273 367.476 224.273C366.668 224.273 365.973 224.014 365.391 223.497C364.809 222.98 364.518 222.139 364.518 220.975ZM364.518 200.218C364.518 198.989 364.809 198.132 365.391 197.647C365.973 197.162 366.668 196.92 367.476 196.92C368.317 196.92 369.028 197.162 369.61 197.647C370.225 198.132 370.532 198.989 370.532 200.218C370.532 201.382 370.225 202.222 369.61 202.74C369.028 203.257 368.317 203.516 367.476 203.516C366.668 203.516 365.973 203.257 365.391 202.74C364.809 202.222 364.518 201.382 364.518 200.218Z" fill="white" fill-opacity="0.3"/>
<path d="M409.942 143.405C409.313 143.405 408.701 143.34 408.104 143.211C407.524 143.082 406.903 142.841 406.243 142.486L406.92 140.842C407.274 141.051 407.677 141.237 408.129 141.398C408.58 141.543 409.104 141.615 409.7 141.615C410.893 141.615 411.82 141.18 412.481 140.31C413.158 139.423 413.496 138.15 413.496 136.49C413.496 134.862 413.15 133.62 412.456 132.766C411.779 131.896 410.732 131.46 409.313 131.46C408.797 131.46 408.274 131.517 407.742 131.63C407.21 131.742 406.742 131.912 406.339 132.137V130.324C406.807 130.082 407.314 129.913 407.863 129.816C408.427 129.72 408.991 129.671 409.555 129.671C411.006 129.671 412.182 129.961 413.085 130.542C413.988 131.106 414.649 131.896 415.068 132.911C415.487 133.927 415.696 135.119 415.696 136.49C415.696 138.617 415.213 140.302 414.246 141.543C413.295 142.784 411.86 143.405 409.942 143.405ZM405.032 127.809V126.866L406.798 126.093H415.308V127.809H405.032ZM423.753 143.405C422.801 143.405 421.979 143.243 421.286 142.921C420.609 142.583 420.085 142.075 419.715 141.398C419.36 140.721 419.183 139.842 419.183 138.762V129.913H421.335V138.641C421.335 139.609 421.576 140.342 422.06 140.842C422.56 141.341 423.277 141.591 424.212 141.591C425.34 141.591 426.211 141.229 426.823 140.503C427.452 139.778 427.766 138.803 427.766 137.578V129.913H429.918V143.163H428.129L428.032 141.204H427.911C427.621 141.849 427.113 142.381 426.388 142.8C425.679 143.203 424.8 143.405 423.753 143.405ZM437.759 143.163V133.757C437.759 132.968 437.573 132.387 437.203 132.017C436.848 131.646 436.244 131.46 435.389 131.46C434.809 131.46 434.261 131.541 433.745 131.702C433.245 131.847 432.762 132.057 432.294 132.331V130.397C432.617 130.235 433.076 130.074 433.673 129.913C434.269 129.752 434.978 129.671 435.8 129.671C436.639 129.671 437.364 129.792 437.976 130.034C438.589 130.276 439.064 130.679 439.403 131.243C439.741 131.791 439.911 132.524 439.911 133.443V143.163H437.759ZM443.906 143.163V129.913H445.405L445.792 132.017H445.889C446.163 131.291 446.663 130.719 447.388 130.3C448.113 129.881 448.992 129.671 450.023 129.671C450.991 129.671 451.813 129.84 452.49 130.179C453.183 130.501 453.715 131.001 454.085 131.678C454.456 132.355 454.642 133.233 454.642 134.313V143.163H452.49V134.434C452.49 133.467 452.248 132.734 451.764 132.234C451.281 131.734 450.563 131.485 449.612 131.485C448.855 131.485 448.21 131.662 447.678 132.017C447.146 132.371 446.743 132.855 446.469 133.467C446.195 134.064 446.058 134.741 446.058 135.498V143.163H443.906ZM444.11 127.809V126.866L445.875 126.093H454.386V127.809H444.11ZM452.38 126.866V124.134H454.411V126.866H452.38Z" fill="white"/>
<g filter="url(#filter3_d_8_1960)">
<rect x="390.551" y="163.552" width="80.8301" height="80.8301" rx="16.166" fill="black" fill-opacity="0.7" shape-rendering="crispEdges"/>
<path d="M422.175 221.552H416.065V199.971C416.065 199.259 416.065 198.532 416.065 197.788C416.097 197.045 416.129 196.301 416.162 195.557C416.194 194.781 416.226 194.07 416.259 193.423C415.935 193.747 415.531 194.135 415.046 194.587C414.561 195.008 414.06 195.444 413.543 195.897L409.663 199.001L406.607 195.218L417.083 186.925H422.175V221.552ZM456.767 221.552H433.052V217.042L441.878 208.118C443.624 206.34 445.047 204.82 446.146 203.56C447.278 202.266 448.102 201.07 448.62 199.971C449.169 198.871 449.444 197.675 449.444 196.382C449.444 194.798 448.991 193.617 448.086 192.841C447.181 192.033 445.985 191.629 444.497 191.629C443.042 191.629 441.684 191.936 440.423 192.55C439.162 193.132 437.853 193.973 436.495 195.072L433.149 191.047C434.119 190.206 435.153 189.447 436.253 188.768C437.352 188.056 438.597 187.491 439.987 187.07C441.377 186.65 442.994 186.44 444.837 186.44C447.068 186.44 448.975 186.844 450.56 187.652C452.176 188.428 453.421 189.511 454.294 190.902C455.167 192.292 455.603 193.908 455.603 195.751C455.603 197.627 455.232 199.356 454.488 200.941C453.744 202.525 452.661 204.093 451.238 205.645C449.848 207.165 448.183 208.846 446.243 210.689L440.763 215.975V216.266H456.767V221.552Z" fill="#FDB022"/>
</g>
<defs>
<filter id="filter0_d_8_1960" x="7.41688" y="160.319" width="87.2965" height="90.5297" filterUnits="userSpaceOnUse" color-interpolation-filters="sRGB">
<feFlood flood-opacity="0" result="BackgroundImageFix"/>
<feColorMatrix in="SourceAlpha" type="matrix" values="0 0 0 0 0 0 0 0 0 0 0 0 0 0 0 0 0 0 127 0" result="hardAlpha"/>
<feOffset dy="3.2332"/>
<feGaussianBlur stdDeviation="1.6166"/>
<feComposite in2="hardAlpha" operator="out"/>
<feColorMatrix type="matrix" values="0 0 0 0 0 0 0 0 0 0 0 0 0 0 0 0 0 0 0.25 0"/>
<feBlend mode="normal" in2="BackgroundImageFix" result="effect1_dropShadow_8_1960"/>
<feBlend mode="normal" in="SourceGraphic" in2="effect1_dropShadow_8_1960" result="shape"/>
</filter>
<filter id="filter1_d_8_1960" x="133.512" y="160.319" width="87.2965" height="90.5297" filterUnits="userSpaceOnUse" color-interpolation-filters="sRGB">
<feFlood flood-opacity="0" result="BackgroundImageFix"/>
<feColorMatrix in="SourceAlpha" type="matrix" values="0 0 0 0 0 0 0 0 0 0 0 0 0 0 0 0 0 0 127 0" result="hardAlpha"/>
<feOffset dy="3.2332"/>
<feGaussianBlur stdDeviation="1.6166"/>
<feComposite in2="hardAlpha" operator="out"/>
<feColorMatrix type="matrix" values="0 0 0 0 0 0 0 0 0 0 0 0 0 0 0 0 0 0 0.25 0"/>
<feBlend mode="normal" in2="BackgroundImageFix" result="effect1_dropShadow_8_1960"/>
<feBlend mode="normal" in="SourceGraphic" in2="effect1_dropShadow_8_1960" result="shape"/>
</filter>
<filter id="filter2_d_8_1960" x="260.415" y="160.319" width="87.2965" height="90.5297" filterUnits="userSpaceOnUse" color-interpolation-filters="sRGB">
<feFlood flood-opacity="0" result="BackgroundImageFix"/>
<feColorMatrix in="SourceAlpha" type="matrix" values="0 0 0 0 0 0 0 0 0 0 0 0 0 0 0 0 0 0 127 0" result="hardAlpha"/>
<feOffset dy="3.2332"/>
<feGaussianBlur stdDeviation="1.6166"/>
<feComposite in2="hardAlpha" operator="out"/>
<feColorMatrix type="matrix" values="0 0 0 0 0 0 0 0 0 0 0 0 0 0 0 0 0 0 0.25 0"/>
<feBlend mode="normal" in2="BackgroundImageFix" result="effect1_dropShadow_8_1960"/>
<feBlend mode="normal" in="SourceGraphic" in2="effect1_dropShadow_8_1960" result="shape"/>
</filter>
<filter id="filter3_d_8_1960" x="387.318" y="160.319" width="87.2965" height="90.5297" filterUnits="userSpaceOnUse" color-interpolation-filters="sRGB">
<feFlood flood-opacity="0" result="BackgroundImageFix"/>
<feColorMatrix in="SourceAlpha" type="matrix" values="0 0 0 0 0 0 0 0 0 0 0 0 0 0 0 0 0 0 127 0" result="hardAlpha"/>
<feOffset dy="3.2332"/>
<feGaussianBlur stdDeviation="1.6166"/>
<feComposite in2="hardAlpha" operator="out"/>
<feColorMatrix type="matrix" values="0 0 0 0 0 0 0 0 0 0 0 0 0 0 0 0 0 0 0.25 0"/>
<feBlend mode="normal" in2="BackgroundImageFix" result="effect1_dropShadow_8_1960"/>
<feBlend mode="normal" in="SourceGraphic" in2="effect1_dropShadow_8_1960" result="shape"/>
</filter>
</defs>
</svg>
