<svg width="96" height="128" viewBox="0 0 96 128" fill="none" xmlns="http://www.w3.org/2000/svg">
<rect width="96" height="96" rx="48" fill="#F4F6F8"/>
<path d="M57.3985 24H38.4583C37.0106 24 35.6223 24.5751 34.5987 25.5987C33.5751 26.6223 33 28.0106 33 29.4583V63.2177C33.0033 64.5025 33.4596 65.745 34.2888 66.7264C35.118 67.7079 36.2668 68.3653 37.5331 68.5831V71.0748C37.5331 71.3202 37.6306 71.5555 37.8041 71.729C37.9776 71.9025 38.2129 72 38.4583 72C38.7036 72 38.939 71.9025 39.1125 71.729C39.286 71.5555 39.3834 71.3202 39.3834 71.0748V68.6677H57.1828V71.0748C57.1828 71.3202 57.2803 71.5555 57.4538 71.729C57.6273 71.9025 57.8627 72 58.108 72C58.3534 72 58.5887 71.9025 58.7622 71.729C58.9357 71.5555 59.0332 71.3202 59.0332 71.0748V68.4194C60.1417 68.0708 61.11 67.3775 61.7972 66.4404C62.4844 65.5034 62.8546 64.3715 62.854 63.2095V29.4583C62.854 28.0111 62.2793 26.6232 61.2563 25.5997C60.2332 24.5761 58.8456 24.0007 57.3985 24Z" fill="#1F157C"/>
<path d="M47.9311 32.3319C49.6941 32.3319 51.4599 32.3319 53.2229 32.3319C53.4265 32.3195 53.6303 32.3521 53.8198 32.4274C54.0093 32.5028 54.1799 32.619 54.3193 32.7678C54.4588 32.9166 54.5637 33.0944 54.6265 33.2884C54.6894 33.4824 54.7087 33.6879 54.683 33.8903C54.612 34.6244 54.0171 35.1347 53.182 35.1375C50.9032 35.1375 48.6243 35.1375 46.3591 35.1375C45.1583 35.1375 43.9548 35.1375 42.754 35.1375C41.7988 35.1375 41.182 34.5644 41.1929 33.7101C41.2038 32.8559 41.8124 32.3319 42.7458 32.3319C44.4597 32.3292 46.1927 32.3319 47.9311 32.3319Z" fill="#DEE4F3"/>
<path d="M47.972 38.0278C49.7214 38.0278 51.4681 38.0278 53.2174 38.0278C54.1235 38.0278 54.7157 38.6419 54.683 39.4879C54.673 39.7786 54.5705 40.0584 54.3903 40.2867C54.2102 40.515 53.9618 40.6798 53.6814 40.757C53.485 40.8062 53.2834 40.8309 53.081 40.8306C49.6477 40.8306 46.2145 40.8306 42.7812 40.8306C41.8479 40.8306 41.2311 40.323 41.1765 39.5398C41.1192 38.6719 41.7223 38.036 42.6366 38.0278C44.3068 38.0278 45.9743 38.0278 47.6445 38.0278H47.972Z" fill="#DEE4F3"/>
<path d="M49.2493 55.4832V56.2036C49.2493 57.9121 49.2493 59.6214 49.2493 61.3317C49.2585 61.6202 49.2403 61.909 49.1947 62.1941C49.1089 62.6044 48.9226 62.987 48.6525 63.3075C48.3824 63.6281 48.037 63.8766 47.6473 64.0308C47.405 64.1352 47.1572 64.2263 46.9049 64.3037C46.7548 64.3501 46.6675 64.3037 46.632 64.1372C46.6197 64.0789 46.6142 64.0194 46.6156 63.9598C46.6156 62.437 46.6156 60.9141 46.6156 59.3913C46.6097 58.9619 46.6972 58.5363 46.8722 58.1441C47.2477 57.2834 47.8065 56.515 48.5097 55.8925C48.7127 55.6891 48.9691 55.5472 49.2493 55.4832Z" fill="#DEE4F3"/>
<path d="M46.6074 53.8757L46.6293 57.3799C47.2869 56.5037 48.2035 55.8564 49.2492 55.5296V53.8757H46.6074Z" fill="#FDAF17"/>
<path d="M36.558 115.376C36.1007 115.376 35.6947 115.46 35.34 115.628C34.9853 115.796 34.682 116.039 34.43 116.356C34.1873 116.673 34.0007 117.056 33.87 117.504C33.7487 117.952 33.688 118.456 33.688 119.016C33.688 119.772 33.7907 120.421 33.996 120.962C34.2013 121.494 34.514 121.905 34.934 122.194C35.3633 122.483 35.9 122.628 36.544 122.628C36.9733 122.628 37.384 122.586 37.776 122.502C38.1773 122.409 38.5973 122.287 39.036 122.138V123.664C38.6253 123.832 38.21 123.953 37.79 124.028C37.3793 124.103 36.9033 124.14 36.362 124.14C35.3353 124.14 34.486 123.93 33.814 123.51C33.142 123.081 32.6427 122.483 32.316 121.718C31.9893 120.943 31.826 120.038 31.826 119.002C31.826 118.246 31.9287 117.555 32.134 116.93C32.3487 116.305 32.652 115.763 33.044 115.306C33.4453 114.849 33.94 114.494 34.528 114.242C35.116 113.99 35.7927 113.864 36.558 113.864C37.062 113.864 37.5567 113.925 38.042 114.046C38.5367 114.158 38.9987 114.317 39.428 114.522L38.812 115.992C38.4573 115.833 38.0887 115.693 37.706 115.572C37.3327 115.441 36.95 115.376 36.558 115.376ZM47.3627 124L46.4527 121.354H42.6867L41.7907 124H39.8867L43.5547 113.962H45.5987L49.2667 124H47.3627ZM45.1227 117.238C45.0854 117.107 45.0294 116.93 44.9547 116.706C44.8801 116.482 44.8054 116.253 44.7307 116.02C44.6654 115.777 44.6141 115.577 44.5767 115.418C44.5301 115.605 44.4694 115.819 44.3947 116.062C44.3294 116.305 44.2641 116.533 44.1987 116.748C44.1427 116.963 44.0961 117.126 44.0587 117.238L43.1767 119.814H45.9907L45.1227 117.238ZM56.3913 121.27C56.3913 121.858 56.2466 122.367 55.9573 122.796C55.668 123.225 55.248 123.557 54.6973 123.79C54.156 124.023 53.5073 124.14 52.7513 124.14C52.3873 124.14 52.0373 124.117 51.7013 124.07C51.3746 124.033 51.062 123.972 50.7633 123.888C50.474 123.804 50.2033 123.701 49.9513 123.58V121.9C50.3713 122.087 50.8333 122.259 51.3373 122.418C51.8413 122.567 52.3546 122.642 52.8773 122.642C53.2786 122.642 53.6053 122.591 53.8573 122.488C54.1186 122.376 54.31 122.227 54.4313 122.04C54.5526 121.844 54.6133 121.62 54.6133 121.368C54.6133 121.088 54.534 120.85 54.3753 120.654C54.2166 120.458 53.9833 120.276 53.6753 120.108C53.3673 119.94 52.9846 119.763 52.5273 119.576C52.2193 119.445 51.916 119.301 51.6173 119.142C51.328 118.974 51.0666 118.773 50.8333 118.54C50.6 118.307 50.4133 118.031 50.2733 117.714C50.1333 117.397 50.0633 117.023 50.0633 116.594C50.0633 116.025 50.1986 115.535 50.4693 115.124C50.7493 114.713 51.1366 114.401 51.6313 114.186C52.1353 113.971 52.7186 113.864 53.3813 113.864C53.9133 113.864 54.4126 113.92 54.8793 114.032C55.346 114.144 55.808 114.303 56.2653 114.508L55.6913 115.95C55.2806 115.773 54.884 115.633 54.5013 115.53C54.1186 115.427 53.7266 115.376 53.3253 115.376C53.008 115.376 52.7373 115.427 52.5133 115.53C52.2893 115.623 52.1213 115.759 52.0093 115.936C51.8973 116.113 51.8413 116.319 51.8413 116.552C51.8413 116.823 51.9113 117.051 52.0513 117.238C52.1913 117.425 52.406 117.602 52.6953 117.77C52.994 117.929 53.3766 118.111 53.8433 118.316C54.3846 118.549 54.842 118.792 55.2153 119.044C55.5886 119.296 55.878 119.599 56.0833 119.954C56.2886 120.309 56.3913 120.747 56.3913 121.27ZM63.9626 124H58.2786V114.004H63.9626V115.502H60.0706V118.05H63.7106V119.548H60.0706V122.488H63.9626V124Z" fill="#221690"/>
</svg>
