<svg width="30" height="48" viewBox="0 0 30 48" fill="none" xmlns="http://www.w3.org/2000/svg">
<path d="M24.3985 0H5.45827C4.01064 0 2.62231 0.575062 1.59869 1.59869C0.575066 2.62231 0 4.01064 0 5.45827V39.2177C0.00325157 40.5025 0.459642 41.745 1.28883 42.7264C2.11802 43.7079 3.26685 44.3653 4.53309 44.5831V47.0748C4.53309 47.3202 4.63056 47.5555 4.80407 47.729C4.97757 47.9025 5.21289 48 5.45827 48C5.70364 48 5.93896 47.9025 6.11247 47.729C6.28597 47.5555 6.38344 47.3202 6.38344 47.0748V44.6677H24.1828V47.0748C24.1828 47.3202 24.2803 47.5555 24.4538 47.729C24.6273 47.9025 24.8627 48 25.108 48C25.3534 48 25.5887 47.9025 25.7622 47.729C25.9357 47.5555 26.0332 47.3202 26.0332 47.0748V44.4194C27.1417 44.0708 28.11 43.3775 28.7972 42.4404C29.4844 41.5034 29.8546 40.3715 29.854 39.2095V5.45827C29.854 4.01112 29.2793 2.6232 28.2563 1.59965C27.2332 0.576106 25.8456 0.000723575 24.3985 0Z" fill="#1F157C"/>
<path d="M14.9311 8.33194C16.6941 8.33194 18.4599 8.33194 20.2229 8.33194C20.4265 8.31947 20.6303 8.35207 20.8198 8.42742C21.0093 8.50276 21.1799 8.61898 21.3193 8.76781C21.4588 8.91664 21.5637 9.0944 21.6265 9.28842C21.6894 9.48243 21.7087 9.68794 21.683 9.89026C21.612 10.6244 21.0171 11.1347 20.182 11.1375C17.9032 11.1375 15.6243 11.1375 13.3591 11.1375C12.1583 11.1375 10.9548 11.1375 9.75396 11.1375C8.79876 11.1375 8.18198 10.5644 8.19289 9.71015C8.20381 8.85593 8.81241 8.33194 9.74577 8.33194C11.4597 8.32921 13.1927 8.33194 14.9311 8.33194Z" fill="#DEE4F3"/>
<path d="M14.972 14.0278C16.7214 14.0278 18.4681 14.0278 20.2174 14.0278C21.1235 14.0278 21.7157 14.6419 21.683 15.4879C21.673 15.7786 21.5705 16.0584 21.3903 16.2867C21.2102 16.515 20.9618 16.6798 20.6814 16.757C20.485 16.8062 20.2834 16.8309 20.081 16.8306C16.6477 16.8306 13.2145 16.8306 9.78122 16.8306C8.84785 16.8306 8.23107 16.323 8.17649 15.5398C8.11918 14.6719 8.72231 14.036 9.63657 14.0278C11.3068 14.0278 12.9743 14.0278 14.6445 14.0278H14.972Z" fill="#DEE4F3"/>
<path d="M16.2493 31.4832V32.2036C16.2493 33.9121 16.2493 35.6214 16.2493 37.3317C16.2585 37.6202 16.2403 37.909 16.1947 38.1941C16.1089 38.6044 15.9226 38.987 15.6525 39.3075C15.3824 39.6281 15.037 39.8766 14.6473 40.0308C14.405 40.1352 14.1572 40.2263 13.9049 40.3037C13.7548 40.3501 13.6675 40.3037 13.632 40.1372C13.6197 40.0789 13.6142 40.0194 13.6156 39.9598C13.6156 38.437 13.6156 36.9141 13.6156 35.3913C13.6097 34.9619 13.6972 34.5363 13.8722 34.1441C14.2477 33.2834 14.8065 32.515 15.5097 31.8925C15.7127 31.6891 15.9691 31.5472 16.2493 31.4832Z" fill="#DEE4F3"/>
<path d="M13.6074 29.8757L13.6293 33.3799C14.2869 32.5037 15.2035 31.8564 16.2492 31.5296V29.8757H13.6074Z" fill="#FDAF17"/>
</svg>
