<svg width="96" height="144" viewBox="0 0 96 144" fill="none" xmlns="http://www.w3.org/2000/svg">
<rect width="96" height="96" rx="48" fill="#F4F6F8"/>
<path d="M65.8873 24H30.1127C26.7368 24 24 26.7368 24 30.1127V65.8873C24 69.2633 26.7368 72 30.1127 72H65.8873C69.2633 72 72 69.2633 72 65.8873V30.1127C72 26.7368 69.2633 24 65.8873 24Z" fill="#1F157C"/>
<mask id="mask0_1_2031" style="mask-type:luminance" maskUnits="userSpaceOnUse" x="31" y="31" width="34" height="34">
<path d="M48.0015 64.9031C57.336 64.9031 64.9031 57.336 64.9031 48.0015C64.9031 38.667 57.336 31.0999 48.0015 31.0999C38.667 31.0999 31.0999 38.667 31.0999 48.0015C31.0999 57.336 38.667 64.9031 48.0015 64.9031Z" fill="white"/>
</mask>
<g mask="url(#mask0_1_2031)">
<path d="M48.0015 48.4905L47.9954 48.5058V48.4844L48.0015 48.4905Z" fill="url(#paint0_linear_1_2031)"/>
<path d="M48.3499 48.3621V48.8358L48.3163 48.7991C48.3163 48.6494 48.3377 48.4935 48.3438 48.3621H48.3499Z" fill="url(#paint1_linear_1_2031)"/>
<path d="M50.3732 54.5452C50.3769 56.8417 49.4945 59.0512 47.9098 60.7134C46.3252 62.3756 44.1604 63.3625 41.8663 63.4684C39.5722 63.5744 37.3256 62.7913 35.5945 61.2822C33.8633 59.7732 32.781 57.6545 32.573 55.3674C32.6056 55.3856 32.6364 55.4071 32.6647 55.4315C32.7784 55.5355 32.9 55.6306 33.0284 55.7158C33.3174 55.9434 33.624 56.1478 33.9453 56.327C34.0584 56.4004 34.1806 56.4554 34.2937 56.5227C34.4068 56.5899 34.5382 56.651 34.6605 56.7091L35.0517 56.8802C35.3023 56.978 35.5621 57.0758 35.825 57.1553C35.825 57.1553 35.825 57.1553 35.8402 57.1553L36.2223 57.2684C36.3109 57.2837 36.3934 57.3081 36.4668 57.3265L36.8336 57.4059L37.2064 57.4793C37.3929 57.5037 37.5824 57.5282 37.7688 57.5465C37.9552 57.5649 38.0928 57.571 38.2486 57.5771C38.4045 57.5832 38.5543 57.5954 38.7285 57.5954C39.989 57.5991 41.2377 57.3527 42.4024 56.8706C43.567 56.3885 44.6245 55.6802 45.5136 54.7866C45.6511 54.6491 45.7795 54.5116 45.9109 54.3649C46.16 54.09 46.3907 53.799 46.6017 53.4938C46.6842 53.3716 46.7667 53.2585 46.837 53.1454C47.0679 52.7944 47.2723 52.4266 47.4483 52.0451C47.5633 51.7959 47.6654 51.5408 47.7539 51.281C47.8028 51.1526 47.8517 51.012 47.8914 50.8837C47.9312 50.7553 47.974 50.6147 48.0076 50.4833C48.0412 50.3519 48.0718 50.2174 48.1054 50.0768C48.139 49.9362 48.1604 49.8017 48.1848 49.6703C48.2338 49.3952 48.2674 49.1171 48.2918 48.842C48.4202 48.9887 48.5424 49.1477 48.6586 49.3035C48.7228 49.3952 48.7869 49.4839 48.845 49.5725C48.9673 49.7437 49.0712 49.924 49.1782 50.1104C49.247 50.2176 49.3093 50.3288 49.3646 50.4436C49.6131 50.9202 49.8177 51.4184 49.9759 51.932C50.0156 52.0787 50.0553 52.2163 50.0889 52.363C50.1226 52.5097 50.1531 52.6411 50.1868 52.7878C50.2204 52.9345 50.2357 53.0537 50.2509 53.1851C50.2973 53.489 50.3279 53.795 50.3426 54.102C50.3426 54.1601 50.3426 54.209 50.3426 54.264C50.3426 54.319 50.3732 54.4566 50.3732 54.5452Z" fill="#DEE4F3"/>
<path d="M48.7777 48.3467H48.3407V48.362C48.3399 48.509 48.3317 48.6559 48.3162 48.8021L48.3468 48.8327V48.362C48.5088 48.362 48.6524 48.362 48.8205 48.3773C48.8079 48.3649 48.7935 48.3546 48.7777 48.3467ZM48.4721 48.0136C48.4374 47.9618 48.3963 47.9145 48.3498 47.873V48.0197C48.3529 48.0655 48.3529 48.1114 48.3498 48.1572C48.3936 48.1196 48.4344 48.0787 48.4721 48.035V48.0136ZM48.1512 47.6743H48.0136C48.0624 47.6697 48.1115 47.6697 48.1603 47.6743H48.1512ZM47.9922 47.5154L47.9678 47.5551C47.9749 47.5412 47.9868 47.5303 48.0014 47.5245L47.9922 47.5154ZM47.8547 47.6529C47.7896 47.6575 47.7242 47.6575 47.6591 47.6529H47.9922C47.9506 47.6567 47.9086 47.6567 47.8669 47.6529H47.8547ZM47.8547 48.3375H47.9922C47.9485 48.3418 47.9045 48.3418 47.8608 48.3375H47.8547ZM47.6591 48.7685V48.8327L47.9922 48.5087V48.4842C47.8893 48.5858 47.7801 48.6807 47.6652 48.7685H47.6591ZM47.6591 48.1572V48.3436C47.6871 48.3095 47.7201 48.2796 47.7569 48.255L47.6591 48.1572Z" fill="url(#paint2_linear_1_2031)"/>
<path d="M48.5088 48.0198H48.4721C48.4314 48.0167 48.3905 48.0167 48.3499 48.0198V47.873L48.4813 48.0014L48.5088 48.0198Z" fill="url(#paint3_linear_1_2031)"/>
<path d="M48.8358 47.7051C48.7197 47.7998 48.6036 47.9037 48.4935 48.0107L48.7992 47.7051C48.8111 47.7015 48.8239 47.7015 48.8358 47.7051Z" fill="url(#paint4_linear_1_2031)"/>
<path d="M63.4697 54.548C63.4668 56.7725 62.6335 58.9158 61.1331 60.5581C59.6327 62.2004 57.5733 63.2234 55.3581 63.4268C55.3854 63.3967 55.4109 63.3651 55.4345 63.332C55.5231 63.2281 55.6057 63.1272 55.6882 63.0264C56.3358 62.1612 56.8328 61.193 57.1583 60.1626C57.2011 60.025 57.2408 59.8936 57.2775 59.7591C57.2958 59.6766 57.3172 59.5941 57.3386 59.5177C57.36 59.4413 57.3997 59.2701 57.4211 59.1479C57.4425 59.0256 57.467 58.8881 57.4884 58.7567C57.5159 58.5733 57.5434 58.396 57.5556 58.2096C57.5678 58.0231 57.5831 57.9039 57.5923 57.7358C57.6015 57.5677 57.5923 57.4149 57.5923 57.256C57.5943 55.9953 57.3473 54.7466 56.8652 53.5816C56.3832 52.4167 55.6757 51.3585 54.7835 50.4678C54.6674 50.3517 54.5512 50.2417 54.4351 50.1408C54.3189 50.0399 54.1936 49.9269 54.0714 49.8352C53.9491 49.7435 53.833 49.6365 53.7077 49.5295C53.5824 49.4226 53.402 49.3247 53.2645 49.2239C53.127 49.123 53.0292 49.0711 52.913 49.0038C52.7524 48.9008 52.5861 48.8069 52.4148 48.7226C52.2895 48.6554 52.1611 48.5943 52.0358 48.5393C51.253 48.1724 50.4228 47.9162 49.5694 47.7782C49.4746 47.7578 49.3787 47.7435 49.2821 47.7354C49.1718 47.7164 49.0606 47.7031 48.9489 47.6957C48.9072 47.6927 48.8653 47.6927 48.8236 47.6957C49.4467 47.1694 50.1413 46.7341 50.8866 46.4029C51.0792 46.3142 51.284 46.2317 51.4979 46.1553L51.6232 46.1156C51.7333 46.0789 51.8341 46.0392 51.9289 46.0117C52.155 45.9444 52.3873 45.8802 52.6196 45.8344C52.726 45.8061 52.8342 45.7857 52.9436 45.7733C53.1106 45.7354 53.2802 45.7099 53.4509 45.6969C53.5457 45.6969 53.6404 45.6694 53.7382 45.6632C53.836 45.6571 53.9705 45.6418 54.0928 45.6418C54.215 45.6418 54.3984 45.6418 54.539 45.6418C56.9019 45.6459 59.1668 46.5872 60.8365 48.2592C62.5062 49.9312 63.4444 52.1973 63.4452 54.5603L63.4697 54.548Z" fill="#DEE4F3"/>
<path d="M48.845 47.6957C48.8856 47.6912 48.9267 47.6912 48.9673 47.6957C48.9267 47.6905 48.8856 47.6905 48.845 47.6957ZM48.7961 47.6957L48.4905 48.0014C48.5975 47.9036 48.7197 47.7966 48.8328 47.6957C48.8207 47.6933 48.8082 47.6933 48.7961 47.6957ZM48.5088 48.0197V48.0044L48.3805 47.873V48.0197C48.3835 48.0655 48.3835 48.1115 48.3805 48.1572C48.4242 48.1196 48.4651 48.0787 48.5027 48.035H48.5272C48.6341 48.142 48.7228 48.2551 48.8114 48.362H48.8603L48.5088 48.0197ZM48.0137 47.6743C48.0625 47.6698 48.1116 47.6698 48.1604 47.6743C48.1929 47.7008 48.2226 47.7305 48.249 47.763C48.2826 47.7294 48.3071 47.6957 48.3377 47.6713L48.0137 47.6743ZM48.7778 48.359H48.3407V48.3743C48.5027 48.3743 48.6464 48.3743 48.8145 48.3895C48.8047 48.3733 48.7923 48.3589 48.7778 48.3467V48.359ZM47.867 47.6652H48.0045C47.9584 47.6657 47.9123 47.6616 47.867 47.653V47.6652ZM47.867 48.3498H48.0045C47.9563 48.3508 47.9082 48.3467 47.8609 48.3376L47.867 48.3498ZM47.6714 48.1634V48.3498C47.6994 48.3156 47.7324 48.2857 47.7692 48.2612L47.6714 48.1634ZM47.5308 48.0075L47.6683 48.145C47.6117 48.1002 47.5595 48.0501 47.5125 47.9953L47.5308 48.0075ZM48.3957 47.1945C48.4997 47.1028 48.6066 47.0142 48.7197 46.9255C48.6005 47.0019 48.4935 47.0936 48.3896 47.1823L48.3957 47.1945Z" fill="url(#paint5_linear_1_2031)"/>
<path d="M47.6316 48.8083C47.6316 48.9427 47.6041 49.0742 47.5827 49.2056C47.5613 49.337 47.5491 49.4562 47.5216 49.5876C47.4941 49.719 47.4727 49.8413 47.4452 49.9636C47.3842 50.247 47.3066 50.5266 47.2129 50.801C47.1854 50.8896 47.1518 50.9844 47.1181 51.073C46.9883 51.4335 46.832 51.7839 46.6505 52.1213C46.5955 52.2253 46.5405 52.3292 46.4794 52.427C46.3794 52.6106 46.2702 52.7891 46.1523 52.9618C46.0759 53.078 45.9934 53.188 45.9109 53.298C45.8284 53.4081 45.8009 53.4478 45.7397 53.5181C45.6786 53.5884 45.6358 53.6526 45.5747 53.7229C45.4035 53.9276 45.2262 54.1202 45.0398 54.3036C43.4149 55.9122 41.234 56.8349 38.9479 56.8806C36.6619 56.9264 34.4458 56.0918 32.7578 54.5495C31.0698 53.0072 30.0392 50.8751 29.8791 48.5942C29.719 46.3134 30.4416 44.0582 31.8975 42.2952C31.925 42.5764 31.9586 42.8514 32.0075 43.1234C32.0289 43.2335 32.0473 43.3435 32.0687 43.4535C32.0687 43.5147 32.0962 43.5758 32.1084 43.6461C32.1206 43.7164 32.1573 43.8447 32.1848 43.9517C32.2534 44.2207 32.3361 44.486 32.4324 44.7464C32.4935 44.9236 32.5607 45.0948 32.6371 45.269C32.6799 45.3709 32.7258 45.4728 32.7747 45.5746C32.8847 45.813 33.007 46.0392 33.1384 46.2745C33.2056 46.3907 33.282 46.5068 33.3493 46.6169C33.4165 46.7269 33.4929 46.8338 33.5693 46.9439C33.6457 47.0539 33.6855 47.1089 33.7466 47.1914C33.8077 47.274 33.9055 47.4023 33.9881 47.4971C34.2033 47.7621 34.4318 48.0161 34.6727 48.2581C35.5634 49.1502 36.6217 49.8576 37.7866 50.3396C38.9515 50.8216 40.2001 51.0688 41.4608 51.0669C41.6259 51.0669 41.7818 51.0669 41.9407 51.0516C42.0996 51.0363 42.2463 51.0333 42.4205 51.018C42.5947 51.0027 42.8026 50.9783 42.9951 50.9416L43.3527 50.8805L43.6797 50.8071C43.7776 50.7857 43.8723 50.7643 43.9609 50.7368C44.0985 50.7032 44.2268 50.6604 44.3644 50.6207C45.5628 50.2479 46.6739 49.6377 47.6316 48.8266C47.6316 48.8266 47.6316 48.8144 47.6316 48.8083Z" fill="#1F157C"/>
<path d="M47.6621 48.3406H47.6499V48.3467H47.6621V48.3406Z" fill="#1F157C"/>
<path d="M47.9923 48.4844V48.5058L47.6653 48.8359V48.7717C47.78 48.6826 47.8892 48.5866 47.9923 48.4844Z" fill="#1F157C"/>
<path d="M48.0014 48.3469H47.8578C47.9056 48.35 47.9536 48.35 48.0014 48.3469Z" fill="#1F157C"/>
<path d="M48.0229 47.5002V47.5155L47.9984 47.5553C48.0055 47.5413 48.0175 47.5304 48.032 47.5247C48.136 47.4208 48.2429 47.323 48.356 47.2191V47.1763L48.0229 47.5002ZM48.0229 47.6622C48.0717 47.6577 48.1208 47.6577 48.1696 47.6622C48.2021 47.6887 48.2318 47.7184 48.2582 47.7509C48.2918 47.7172 48.3163 47.6836 48.3468 47.6592V47.6745L48.0229 47.6622ZM47.8762 47.6531H48.0137C47.9649 47.6582 47.9157 47.6582 47.867 47.6531H47.8762ZM47.8762 48.3377H48.0137C47.9629 48.3434 47.9117 48.3434 47.8609 48.3377H47.8762ZM47.6805 48.7686V48.8328L48.0137 48.5088V48.4844C47.9039 48.5866 47.7875 48.6816 47.6653 48.7686H47.6805ZM47.6805 48.1574V48.3438C47.7086 48.3096 47.7416 48.2797 47.7784 48.2552L47.6805 48.1574ZM47.54 47.9984V48.0137L47.6775 48.1512C47.6174 48.105 47.5621 48.0528 47.5125 47.9954L47.54 47.9984ZM47.6378 48.8206C47.6378 48.8848 47.6225 48.952 47.6225 49.0162C47.6225 48.952 47.6378 48.8787 47.6469 48.8114C47.6316 48.8175 47.6316 48.8175 47.6225 48.8175L47.6378 48.8206Z" fill="#1F157C"/>
<path d="M56.9229 57.2623C56.9205 58.9563 56.4361 60.6148 55.5264 62.0439C54.6167 63.473 53.3191 64.6137 51.7852 65.3329C50.2514 66.0521 48.5446 66.32 46.8641 66.1053C45.1837 65.8907 43.599 65.2024 42.2952 64.1207C42.5702 64.0871 42.8575 64.0535 43.1326 64.0046C43.2696 63.9863 43.4053 63.9598 43.5391 63.9251C43.6793 63.8998 43.818 63.8671 43.9548 63.8273C44.2221 63.7611 44.4854 63.6795 44.7433 63.5828C45.4073 63.3375 46.0426 63.0208 46.6382 62.6384L46.9439 62.4275C47.0509 62.3541 47.1548 62.2716 47.2495 62.1983C47.5952 61.9317 47.9238 61.6438 48.2337 61.3364C49.1272 60.4461 49.8355 59.3875 50.3176 58.2218C50.7997 57.0562 51.0461 55.8066 51.0424 54.5452C51.0424 54.3893 51.0424 54.2395 51.0241 54.0653V53.9675C51.0241 53.8453 51.0241 53.723 50.9936 53.5916C50.9752 53.4143 50.9508 53.2279 50.9263 53.0384C50.9018 52.91 50.8866 52.7878 50.853 52.6655C50.8311 52.5226 50.7984 52.3816 50.7551 52.2437C50.7138 52.0419 50.6597 51.8428 50.5932 51.6477C50.5534 51.5194 50.5137 51.388 50.4648 51.2596L50.3181 50.8684C50.2019 50.6147 50.0889 50.3702 49.9666 50.1196C49.9522 50.089 49.9358 50.0594 49.9177 50.0309C49.8444 49.8903 49.7649 49.762 49.6824 49.6244C49.5998 49.4869 49.5204 49.3555 49.4318 49.2241C49.3431 49.0926 49.2606 48.9734 49.1689 48.8512C49.0772 48.7289 48.9336 48.5455 48.8052 48.3774C48.8449 48.3774 48.8938 48.3774 48.9336 48.3958L49.3095 48.4447L49.7404 48.518C49.8871 48.5486 50.0155 48.5822 50.1622 48.6158C50.4465 48.6861 50.7154 48.7687 50.9936 48.8573C51.0144 48.8668 51.0358 48.8749 51.0577 48.8817C51.2778 48.9643 51.4978 49.0529 51.7087 49.1507C52.3494 49.4471 52.9527 49.8185 53.5059 50.2571C53.5792 50.306 53.6434 50.3702 53.7107 50.4191C53.839 50.5261 53.9613 50.6391 54.0835 50.7614C54.1569 50.8195 54.2211 50.8837 54.2944 50.9478C55.1269 51.7753 55.7876 52.7591 56.2387 53.8428C56.6898 54.9264 56.9223 56.0885 56.9229 57.2623Z" fill="#1F157C"/>
<path d="M47.1579 48.307C47.1411 48.325 47.1227 48.3413 47.1028 48.3559C46.9928 48.4506 46.8767 48.5393 46.7605 48.6218C46.6444 48.7043 46.5221 48.7929 46.3968 48.8755C46.2715 48.958 46.1584 49.0344 46.0331 49.1077C45.9078 49.1811 45.7825 49.2575 45.6511 49.3278C45.5197 49.3981 45.3974 49.4562 45.266 49.5204C44.9762 49.6565 44.6793 49.7769 44.3766 49.881C44.2666 49.9177 44.1657 49.9574 44.071 49.9849C43.8448 50.0522 43.6125 50.1163 43.3863 50.1622C43.261 50.1897 43.1449 50.2111 43.0226 50.2325C42.6564 50.301 42.2855 50.3419 41.9132 50.3547C41.7604 50.3547 41.6075 50.37 41.4669 50.37C39.1709 50.3721 36.9626 49.4886 35.3016 47.9035C33.6406 46.3183 32.6549 44.1536 32.5498 41.86C32.4446 39.5664 33.2281 37.3206 34.7371 35.5902C36.2461 33.8597 38.3643 32.7778 40.6509 32.5698L40.5837 32.6615C40.4818 32.7767 40.3859 32.8971 40.2964 33.0222C40.2964 33.0222 40.2964 33.0374 40.2811 33.0374C40.0073 33.4163 39.7582 33.8124 39.5353 34.2233C39.5214 34.2541 39.505 34.2837 39.4864 34.3119C39.3642 34.5565 39.248 34.804 39.138 35.0577C39.028 35.3114 38.9393 35.5773 38.8568 35.8401C38.8171 35.9746 38.7743 36.106 38.7407 36.2436L38.6795 36.482C38.6459 36.6073 38.6184 36.7295 38.597 36.8518C38.5756 36.974 38.5481 37.1146 38.5267 37.243C38.4992 37.4203 38.4717 37.6067 38.4595 37.784C38.4473 37.9612 38.432 38.0896 38.4259 38.2577C38.4198 38.4258 38.4106 38.5786 38.4106 38.7375C38.4048 39.9983 38.6481 41.2477 39.1265 42.4142C39.6048 43.5806 40.3088 44.6411 41.198 45.5349L41.308 45.6388C41.5015 45.8342 41.7056 46.0189 41.9193 46.192C42.0201 46.2806 42.1302 46.3631 42.2249 46.4457C42.3197 46.5282 42.445 46.6107 42.5611 46.6841C43.4624 47.3083 44.4672 47.7677 45.5288 48.0411C45.7733 48.1022 46.0209 48.1572 46.2746 48.2061C46.5667 48.2577 46.8617 48.2914 47.1579 48.307Z" fill="#DEE4F3"/>
<path d="M47.6591 48.1358L47.5216 47.9983H47.543C47.5787 48.0466 47.6175 48.0925 47.6591 48.1358Z" fill="url(#paint6_linear_1_2031)"/>
<path d="M47.76 48.246C47.7264 48.2735 47.6928 48.3071 47.6653 48.3346V48.1482L47.76 48.246Z" fill="url(#paint7_linear_1_2031)"/>
<path d="M48.356 47.8731V48.0198C48.3591 48.0656 48.3591 48.1116 48.356 48.1574C48.3998 48.1197 48.4406 48.0789 48.4783 48.0351L48.356 47.8731ZM48.0137 47.6622C48.0625 47.6577 48.1116 47.6577 48.1604 47.6622C48.1929 47.6887 48.2226 47.7184 48.249 47.7509C48.2827 47.7173 48.3071 47.6836 48.3377 47.6592L48.0137 47.6622ZM47.867 47.6622C47.8019 47.6668 47.7365 47.6668 47.6714 47.6622H48.0045C47.9585 47.6638 47.9124 47.6607 47.867 47.6531V47.6622ZM47.867 48.3469H48.0045C47.9565 48.3489 47.9083 48.3458 47.8609 48.3377L47.867 48.3469ZM47.6714 48.1604V48.3469C47.6995 48.3127 47.7324 48.2828 47.7692 48.2582L47.6714 48.1604ZM47.5308 48.0015C47.433 47.9037 47.3352 47.7876 47.2252 47.6745H47.1763L47.5125 47.9801L47.65 48.1176C47.6009 48.0807 47.5549 48.0398 47.5125 47.9954L47.5308 48.0015Z" fill="url(#paint8_linear_1_2031)"/>
<path d="M47.5125 47.98L47.1793 47.6743H47.2252C47.323 47.7782 47.4177 47.8883 47.5125 47.98Z" fill="#1F157C"/>
<path d="M53.7077 31.8853C53.4265 31.9067 53.1453 31.9464 52.8703 31.9953C52.7358 32.0167 52.5982 32.0442 52.4607 32.0778C52.3232 32.1115 52.1917 32.139 52.0573 32.1726C51.9228 32.2062 51.7883 32.249 51.6599 32.2918C51.5248 32.3283 51.3921 32.3732 51.2626 32.4263C51.0013 32.5134 50.7451 32.6154 50.4955 32.7319C50.1155 32.9089 49.7488 33.1132 49.3982 33.3432C49.2821 33.4165 49.1659 33.4929 49.0559 33.5754C48.9459 33.658 48.842 33.7252 48.7503 33.8016C48.4027 34.0647 48.0748 34.3527 47.7692 34.6635C46.8743 35.5531 46.1647 36.6114 45.6815 37.7771C45.1983 38.9429 44.9511 40.1928 44.9543 41.4547C44.9543 41.6106 44.9543 41.7604 44.9543 41.9315C44.9576 42.0879 44.9688 42.2439 44.9879 42.3991C44.9879 42.5825 45.0277 42.7628 45.0552 42.9401C45.0827 43.1174 45.0979 43.1999 45.1255 43.3313C45.153 43.4627 45.1805 43.6186 45.2202 43.7562C45.3027 44.0893 45.4036 44.4194 45.5258 44.7403C45.6298 45.0154 45.7459 45.2813 45.8681 45.5441C45.9507 45.7214 46.0393 45.8925 46.1371 46.0637C46.1921 46.1676 46.2471 46.2624 46.3021 46.3693C46.3572 46.4763 46.4733 46.6444 46.5619 46.7819C46.6506 46.9195 46.7331 47.0356 46.8278 47.164C46.9226 47.2924 47.0693 47.4696 47.1977 47.6316C47.0632 47.6316 46.9318 47.6041 46.8003 47.5827L46.4183 47.5216L46.0424 47.4482C45.7887 47.3932 45.5411 47.3229 45.2936 47.2496C45.0328 47.1609 44.7767 47.0589 44.5264 46.9439C44.4103 46.8981 44.2941 46.8492 44.1841 46.7942C44.0511 46.7353 43.9215 46.669 43.796 46.5955C43.6645 46.5344 43.5423 46.458 43.4169 46.3846C42.7876 46.0052 42.2076 45.5494 41.6901 45.0276L41.6015 44.9451C40.0133 43.3057 39.1139 41.1201 39.0882 38.8377C39.0625 36.5554 39.9126 34.35 41.4635 32.6754C43.0144 31.0008 45.1482 29.9843 47.4258 29.835C49.7033 29.6858 51.9515 30.4151 53.7077 31.8731V31.8853Z" fill="#1F157C"/>
<path d="M47.2068 47.6224C47.0784 47.604 46.947 47.5979 46.8156 47.5796L47.216 47.6285C47.216 47.6285 47.2068 47.6285 47.2068 47.6224ZM48.5241 48.0197V48.0044L48.3957 47.873V48.0197C48.3987 48.0655 48.3987 48.1115 48.3957 48.1572C48.4394 48.1196 48.4803 48.0787 48.5179 48.035H48.5424C48.6494 48.142 48.738 48.2551 48.8266 48.362H48.8755L48.5241 48.0197ZM48.0137 47.6743C48.0624 47.6698 48.1116 47.6698 48.1604 47.6743H48.0137ZM48.0137 47.5368L47.9892 47.5765C47.9963 47.5626 48.0083 47.5517 48.0228 47.546L48.0137 47.5368ZM47.708 47.1884C47.708 47.1884 47.708 47.219 47.708 47.2281L48.0137 47.5338C47.9067 47.3932 47.818 47.2801 47.705 47.167L47.708 47.1884ZM47.87 47.6743C47.8049 47.6789 47.7395 47.6789 47.6744 47.6743H48.0075C47.9601 47.6721 47.9129 47.6649 47.8669 47.653L47.87 47.6743ZM47.6683 48.1725V48.359C47.6963 48.3248 47.7293 48.2949 47.7661 48.2703L47.6683 48.1725ZM47.5277 48.0136C47.4299 47.9158 47.3321 47.7997 47.2221 47.6866H47.1732L47.5124 47.98L47.6499 48.1175C47.6008 48.0806 47.5548 48.0397 47.5124 47.9953L47.5277 48.0136Z" fill="#1F157C"/>
<path d="M48.0076 47.6743H47.6714C47.7325 47.6743 47.7936 47.6743 47.8639 47.6743C47.9118 47.6776 47.9598 47.6776 48.0076 47.6743Z" fill="url(#paint9_linear_1_2031)"/>
<path d="M48.0198 47.4972V47.5339C48.0198 47.5339 47.9923 47.5491 47.9862 47.5614L48.0137 47.5277L47.708 47.2221C47.7051 47.207 47.7051 47.1914 47.708 47.1763C47.8058 47.2924 47.9077 47.4086 48.0137 47.5247L48.0198 47.4972Z" fill="url(#paint10_linear_1_2031)"/>
<path d="M63.4268 40.6449L63.3382 40.5746C63.2221 40.4737 63.0998 40.3759 62.9745 40.2873C62.7147 40.0947 62.4549 39.9236 62.189 39.7585L61.7764 39.5262C61.5024 39.3791 61.2208 39.2465 60.9329 39.1289C60.7892 39.0678 60.6456 39.0128 60.4958 38.9639C60.346 38.915 60.2574 38.8752 60.1382 38.8416C60.019 38.808 59.8876 38.7652 59.7562 38.7316L59.5147 38.6705L59.1449 38.5879C59.0165 38.5604 58.8851 38.539 58.7567 38.5207C58.5764 38.4932 58.393 38.4657 58.2158 38.4504C58.0385 38.4351 57.9101 38.4229 57.742 38.4168C57.5739 38.4107 57.4211 38.4168 57.2622 38.4168C56.0002 38.4136 54.7502 38.6614 53.5849 39.1457C52.4195 39.63 51.3621 40.3411 50.474 41.2378C50.0745 41.6357 49.7123 42.0695 49.3921 42.5337C49.3096 42.6498 49.2332 42.766 49.1598 42.8821C49.0864 42.9983 49.007 43.1144 48.9397 43.2397C48.7987 43.4763 48.6701 43.7201 48.5546 43.9702C48.4324 44.233 48.3224 44.505 48.2184 44.7923C48.1726 44.936 48.1237 45.098 48.0748 45.2324C48.0259 45.3669 47.9862 45.5381 47.9525 45.6848C47.9189 45.8315 47.8761 45.9904 47.8486 46.1432C47.819 46.2785 47.7966 46.4152 47.7814 46.5528C47.7479 46.7254 47.7254 46.9 47.7141 47.0754C47.7095 47.112 47.7095 47.1489 47.7141 47.1854C47.6054 47.0563 47.5034 46.9216 47.4085 46.782C47.2308 46.5514 47.0685 46.3095 46.9225 46.0577C46.8472 45.9313 46.7738 45.803 46.7025 45.6726C46.5657 45.4194 46.4423 45.1592 46.3327 44.8932C46.1594 44.4802 46.0193 44.054 45.914 43.6187C45.8803 43.5087 45.8589 43.3925 45.8314 43.2764C45.7856 43.0502 45.752 42.8149 45.7245 42.5826C45.7092 42.4817 45.697 42.3778 45.6878 42.2769C45.6786 42.1761 45.6694 42.0508 45.6694 41.9346C45.6694 41.8185 45.6694 41.629 45.6694 41.4915C45.7454 39.2532 46.6607 37.1255 48.2333 35.5311C49.806 33.9366 51.921 32.9923 54.158 32.8856C56.395 32.779 58.5903 33.5178 60.3075 34.9554C62.0248 36.393 63.1383 38.424 63.4268 40.6449Z" fill="#DEE4F3"/>
<path d="M48.0015 47.6622C48.0503 47.6576 48.0994 47.6576 48.1482 47.6622C48.1807 47.6886 48.2104 47.7183 48.2368 47.7508C48.2704 47.7172 48.2949 47.6836 48.3254 47.6591L48.0015 47.6622ZM48.3346 47.8669V48.0045C48.3302 47.9608 48.3302 47.9167 48.3346 47.8731V47.8669ZM48.3346 48.1512V48.0136C48.3397 48.0593 48.3418 48.1053 48.3407 48.1512H48.3346ZM48.3346 48.3468V48.3621C48.3338 48.5091 48.3257 48.656 48.3102 48.8022L48.3407 48.8328V48.3468H48.3346ZM48.0168 47.5002V47.5155L47.9923 47.5552C47.9994 47.5412 48.0114 47.5304 48.0259 47.5246C48.1298 47.4207 48.2368 47.3229 48.3499 47.219V47.1762L48.0168 47.5002ZM47.6897 47.1945L47.9954 47.5002C47.8976 47.3779 47.7937 47.2648 47.6897 47.1518C47.6959 47.1732 47.6958 47.1976 47.6958 47.2068L47.6897 47.1945ZM47.8609 47.6408C47.7958 47.6454 47.7304 47.6454 47.6653 47.6408H47.9984C47.9551 47.649 47.9111 47.6531 47.867 47.653L47.8609 47.6408ZM47.8609 48.3254H47.9984C47.9531 48.3341 47.907 48.3382 47.8609 48.3376V48.3254ZM63.4697 41.5739C63.3963 41.5097 63.3169 41.4272 63.2435 41.3691C63.3413 41.4608 63.4391 41.5495 63.5278 41.6473L63.4697 41.5739Z" fill="url(#paint11_linear_1_2031)"/>
<path d="M48.3499 47.1763V47.2191C48.2337 47.3138 48.1298 47.4086 48.0198 47.5247V47.5094L48.3499 47.1763Z" fill="#1F157C"/>
<path d="M48.3651 47.6743C48.3315 47.7018 48.304 47.7355 48.2704 47.763C48.2424 47.7309 48.2129 47.7003 48.1817 47.6713C48.1339 47.6682 48.0859 47.6682 48.0381 47.6713L48.3651 47.6743Z" fill="#1F157C"/>
<path d="M66.1807 48.0044C66.1898 50.0917 65.4564 52.1143 64.1115 53.7106C64.0871 53.4294 64.0504 53.1513 64.0046 52.8762C63.9832 52.7662 63.9618 52.65 63.9404 52.5461C63.9067 52.3841 63.867 52.2191 63.8242 52.054C63.7814 51.889 63.7509 51.7881 63.7081 51.6567C63.6653 51.5253 63.6256 51.3969 63.5797 51.2655C63.5339 51.1341 63.4819 51.0057 63.4269 50.8743C63.3719 50.7429 63.3046 50.587 63.2374 50.4494C63.0292 50.0069 62.786 49.5817 62.51 49.178C62.4336 49.0588 62.3511 48.9518 62.2716 48.8418C62.1921 48.7318 62.1616 48.689 62.1004 48.6156L61.914 48.3895C61.7367 48.1694 61.5381 47.9646 61.3394 47.7599C60.4502 46.8624 59.3912 46.151 58.2242 45.6672C57.0572 45.1833 55.8054 44.9368 54.5421 44.9419C54.3801 44.9419 54.2364 44.9419 54.0653 44.9572C53.8941 44.9725 53.7413 44.9786 53.5854 44.9908C53.4296 45.003 53.2065 45.0336 53.0231 45.0611C52.9008 45.0794 52.7755 45.1069 52.6533 45.1283L52.2834 45.2109L52.042 45.272C51.9136 45.3056 51.7883 45.3392 51.6599 45.382C51.5316 45.4248 51.4277 45.4584 51.3024 45.5043C51.177 45.5501 50.9967 45.6082 50.8653 45.6693C50.5766 45.7876 50.295 45.9223 50.0217 46.0728C49.9278 46.1177 49.837 46.1687 49.7497 46.2256C49.6519 46.2775 49.5572 46.3325 49.4441 46.3967C49.331 46.4609 49.2454 46.5251 49.1385 46.5862L48.8726 46.7788C48.8023 46.8277 48.7411 46.8735 48.68 46.9224L48.3499 47.1914C48.3456 47.162 48.3456 47.1321 48.3499 47.1027C48.3499 46.9652 48.3774 46.8307 48.3958 46.6932C48.4141 46.5557 48.4447 46.3876 48.4722 46.2622C48.4997 46.1369 48.5272 45.9994 48.5608 45.871C48.5944 45.7427 48.6372 45.5654 48.6861 45.4187C48.7219 45.2791 48.7648 45.1414 48.8145 45.0061C48.8695 44.8563 48.9306 44.7004 49.0009 44.5476C49.0712 44.3948 49.0957 44.3215 49.1507 44.2053C49.4512 43.5874 49.8247 43.0076 50.2632 42.4785C50.3137 42.4067 50.3688 42.3383 50.4282 42.2737C50.5933 42.075 50.7705 41.8764 50.957 41.6899C52.1442 40.5022 53.6424 39.6734 55.2794 39.2987C56.9165 38.9241 58.626 39.0188 60.2116 39.5719C60.3491 39.6208 60.4775 39.6697 60.6089 39.7247C60.7404 39.7797 60.8687 39.8347 61.0002 39.8959C61.1316 39.957 61.2599 40.012 61.3822 40.0792C61.5045 40.1465 61.6878 40.2382 61.8345 40.3329C62.0865 40.4803 62.3294 40.6426 62.5619 40.8189C62.7056 40.9228 62.8492 41.0328 62.9868 41.149C63.0754 41.2254 63.164 41.2926 63.2466 41.3751C63.3291 41.4577 63.3963 41.5127 63.4727 41.5799L63.5339 41.6502L63.5675 41.6838C64.4025 42.5099 65.0638 43.4947 65.5126 44.5801C65.9614 45.6656 66.1885 46.8298 66.1807 48.0044Z" fill="#1F157C"/>
<path d="M52.8824 48.0015C52.8828 48.513 52.8034 49.0213 52.6471 49.5083C52.5926 49.6808 52.5262 49.8493 52.4484 50.0126C51.9912 51.0223 51.2045 51.8467 50.2173 52.3507C50.0579 52.4341 49.8936 52.5076 49.7252 52.5708C49.1725 52.775 48.5877 52.8786 47.9984 52.8764C47.4799 52.8778 46.9643 52.7984 46.4702 52.6411C46.3005 52.5844 46.1342 52.5181 45.972 52.4424C44.959 51.9841 44.1337 51.1923 43.6339 50.1991C43.5515 50.0422 43.48 49.8798 43.42 49.7131C43.0282 48.6773 43.0012 47.5388 43.3436 46.4856C43.397 46.3122 43.4624 46.1427 43.5392 45.9782C43.9953 44.9663 44.7821 44.1395 45.7703 43.634C45.9323 43.5576 46.0973 43.4812 46.2654 43.4201C47.3054 43.0259 48.4491 43.0011 49.5052 43.3498C49.6725 43.4039 49.8368 43.4671 49.9972 43.5393C51.0082 43.9947 51.8332 44.7819 52.3354 45.7704C52.4187 45.9308 52.4922 46.0962 52.5554 46.2655C52.7683 46.8197 52.8791 47.4079 52.8824 48.0015Z" fill="#DEE4F3"/>
</g>
<path d="M48.0015 64.9031C57.336 64.9031 64.9031 57.336 64.9031 48.0015C64.9031 38.667 57.336 31.0999 48.0015 31.0999C38.667 31.0999 31.0999 38.667 31.0999 48.0015C31.0999 57.336 38.667 64.9031 48.0015 64.9031Z" stroke="#DEE4F3" stroke-width="3" stroke-miterlimit="10"/>
<path d="M68.1704 41.0757C70.0286 38.1049 68.2926 32.4812 62.8921 28.239C57.5343 32.4904 55.8166 38.0988 57.681 41.0757C58.5979 42.5611 60.6731 43.7683 62.8921 43.7806C65.111 43.7928 67.2351 42.5733 68.1704 41.0757Z" fill="#DEE4F3"/>
<path d="M63.8304 34.5872V35.0792C63.8304 36.2559 63.8304 37.4296 63.8304 38.6063C63.8381 38.8036 63.8258 39.0013 63.7937 39.1961C63.7356 39.4785 63.6079 39.7419 63.4222 39.9623C63.2364 40.1828 62.9985 40.3533 62.7301 40.4584C62.5635 40.5281 62.3931 40.5883 62.2197 40.6387C62.1158 40.6693 62.0577 40.6387 62.0332 40.5226C62.0301 40.4819 62.0301 40.441 62.0332 40.4003C62.0332 39.3551 62.0332 38.3098 62.0332 37.2615C62.0285 36.9666 62.089 36.6744 62.2105 36.4057C62.4666 35.8134 62.8507 35.2853 63.3352 34.8592C63.4718 34.7243 63.6433 34.6301 63.8304 34.5872Z" fill="#1F157C"/>
<path d="M62.0149 33.4807V35.8891C62.286 35.5295 62.6218 35.2237 63.0051 34.9875C63.2593 34.8322 63.5312 34.708 63.8151 34.6177V33.4807H62.0149Z" fill="#FDAF17"/>
<path d="M12.7885 115.376C12.3311 115.376 11.9251 115.46 11.5705 115.628C11.2158 115.796 10.9125 116.039 10.6605 116.356C10.4178 116.673 10.2311 117.056 10.1005 117.504C9.97914 117.952 9.91847 118.456 9.91847 119.016C9.91847 119.772 10.0211 120.421 10.2265 120.962C10.4318 121.494 10.7445 121.905 11.1645 122.194C11.5938 122.483 12.1305 122.628 12.7745 122.628C13.2038 122.628 13.6145 122.586 14.0065 122.502C14.4078 122.409 14.8278 122.287 15.2665 122.138V123.664C14.8558 123.832 14.4405 123.953 14.0205 124.028C13.6098 124.103 13.1338 124.14 12.5925 124.14C11.5658 124.14 10.7165 123.93 10.0445 123.51C9.37247 123.081 8.87314 122.483 8.54647 121.718C8.2198 120.943 8.05647 120.038 8.05647 119.002C8.05647 118.246 8.15914 117.555 8.36447 116.93C8.57914 116.305 8.88247 115.763 9.27447 115.306C9.6758 114.849 10.1705 114.494 10.7585 114.242C11.3465 113.99 12.0231 113.864 12.7885 113.864C13.2925 113.864 13.7871 113.925 14.2725 114.046C14.7671 114.158 15.2291 114.317 15.6585 114.522L15.0425 115.992C14.6878 115.833 14.3191 115.693 13.9365 115.572C13.5631 115.441 13.1805 115.376 12.7885 115.376ZM20.4012 114.004C21.6985 114.004 22.6412 114.275 23.2292 114.816C23.8265 115.357 24.1252 116.104 24.1252 117.056C24.1252 117.485 24.0599 117.896 23.9292 118.288C23.7985 118.671 23.5792 119.016 23.2712 119.324C22.9632 119.632 22.5572 119.875 22.0532 120.052C21.5585 120.229 20.9425 120.318 20.2052 120.318H19.2112V124H17.4192V114.004H20.4012ZM20.2892 115.488H19.2112V118.834H20.0232C20.5085 118.834 20.9192 118.778 21.2552 118.666C21.6005 118.545 21.8619 118.358 22.0392 118.106C22.2165 117.854 22.3052 117.527 22.3052 117.126C22.3052 116.575 22.1419 116.165 21.8152 115.894C21.4885 115.623 20.9799 115.488 20.2892 115.488ZM34.0112 120.472C34.0112 121.163 33.8618 121.788 33.5632 122.348C33.2738 122.899 32.8305 123.337 32.2332 123.664C31.6358 123.981 30.8798 124.14 29.9652 124.14C28.6678 124.14 27.6832 123.804 27.0112 123.132C26.3392 122.451 26.0032 121.555 26.0032 120.444V114.004H27.7952V120.262C27.7952 121.074 27.9818 121.671 28.3552 122.054C28.7285 122.427 29.2838 122.614 30.0212 122.614C30.5438 122.614 30.9638 122.525 31.2812 122.348C31.6078 122.171 31.8458 121.905 31.9952 121.55C32.1538 121.186 32.2332 120.752 32.2332 120.248V114.004H34.0112V120.472ZM40.1829 124V114.004H41.9749V122.488H46.1469V124H40.1829ZM51.2681 124H47.0681V122.978L48.2721 122.53V115.488L47.0681 115.026V114.004H51.2681V115.026L50.0641 115.488V122.53L51.2681 122.978V124ZM61.9938 118.988C61.9938 119.763 61.8958 120.467 61.6998 121.102C61.5131 121.727 61.2238 122.269 60.8318 122.726C60.4491 123.183 59.9591 123.529 59.3618 123.762L61.7698 126.38H59.3898L57.5278 124.14C57.4904 124.14 57.4484 124.14 57.4018 124.14C57.3644 124.14 57.3271 124.14 57.2898 124.14C56.4871 124.14 55.7871 124.019 55.1898 123.776C54.6018 123.524 54.1164 123.174 53.7338 122.726C53.3511 122.269 53.0618 121.723 52.8658 121.088C52.6791 120.453 52.5858 119.749 52.5858 118.974C52.5858 117.938 52.7538 117.037 53.0898 116.272C53.4351 115.507 53.9531 114.914 54.6438 114.494C55.3438 114.065 56.2304 113.85 57.3038 113.85C58.3584 113.85 59.2311 114.065 59.9218 114.494C60.6124 114.914 61.1304 115.511 61.4758 116.286C61.8211 117.051 61.9938 117.952 61.9938 118.988ZM54.4758 118.988C54.4758 119.744 54.5738 120.393 54.7698 120.934C54.9751 121.475 55.2831 121.891 55.6938 122.18C56.1138 122.469 56.6458 122.614 57.2898 122.614C57.9524 122.614 58.4891 122.469 58.8998 122.18C59.3104 121.891 59.6138 121.475 59.8098 120.934C60.0058 120.393 60.1038 119.744 60.1038 118.988C60.1038 117.859 59.8844 116.972 59.4458 116.328C59.0071 115.684 58.2931 115.362 57.3038 115.362C56.6504 115.362 56.1138 115.507 55.6938 115.796C55.2831 116.085 54.9751 116.501 54.7698 117.042C54.5738 117.583 54.4758 118.232 54.4758 118.988ZM72.0463 120.472C72.0463 121.163 71.897 121.788 71.5983 122.348C71.309 122.899 70.8656 123.337 70.2683 123.664C69.671 123.981 68.915 124.14 68.0003 124.14C66.703 124.14 65.7183 123.804 65.0463 123.132C64.3743 122.451 64.0383 121.555 64.0383 120.444V114.004H65.8303V120.262C65.8303 121.074 66.017 121.671 66.3903 122.054C66.7636 122.427 67.319 122.614 68.0563 122.614C68.579 122.614 68.999 122.525 69.3163 122.348C69.643 122.171 69.881 121.905 70.0303 121.55C70.189 121.186 70.2683 120.752 70.2683 120.248V114.004H72.0463V120.472ZM77.9693 124H73.7693V122.978L74.9733 122.53V115.488L73.7693 115.026V114.004H77.9693V115.026L76.7653 115.488V122.53L77.9693 122.978V124ZM87.9389 118.904C87.9389 120.024 87.7243 120.962 87.2949 121.718C86.8749 122.474 86.2636 123.043 85.4609 123.426C84.6676 123.809 83.7063 124 82.5769 124H79.7629V114.004H82.8709C83.9069 114.004 84.8029 114.191 85.5589 114.564C86.3149 114.937 86.8983 115.488 87.3089 116.216C87.7289 116.935 87.9389 117.831 87.9389 118.904ZM86.0629 118.96C86.0629 118.167 85.9416 117.513 85.6989 117C85.4563 116.487 85.0969 116.109 84.6209 115.866C84.1449 115.614 83.5616 115.488 82.8709 115.488H81.5549V122.502H82.6329C83.7903 122.502 84.6489 122.208 85.2089 121.62C85.7783 121.023 86.0629 120.136 86.0629 118.96ZM25.9135 131.376C25.4561 131.376 25.0501 131.46 24.6955 131.628C24.3408 131.796 24.0375 132.039 23.7855 132.356C23.5428 132.673 23.3561 133.056 23.2255 133.504C23.1041 133.952 23.0435 134.456 23.0435 135.016C23.0435 135.772 23.1461 136.421 23.3515 136.962C23.5568 137.494 23.8695 137.905 24.2895 138.194C24.7188 138.483 25.2555 138.628 25.8995 138.628C26.3288 138.628 26.7395 138.586 27.1315 138.502C27.5328 138.409 27.9528 138.287 28.3915 138.138V139.664C27.9808 139.832 27.5655 139.953 27.1455 140.028C26.7348 140.103 26.2588 140.14 25.7175 140.14C24.6908 140.14 23.8415 139.93 23.1695 139.51C22.4975 139.081 21.9981 138.483 21.6715 137.718C21.3448 136.943 21.1815 136.038 21.1815 135.002C21.1815 134.246 21.2841 133.555 21.4895 132.93C21.7041 132.305 22.0075 131.763 22.3995 131.306C22.8008 130.849 23.2955 130.494 23.8835 130.242C24.4715 129.99 25.1481 129.864 25.9135 129.864C26.4175 129.864 26.9121 129.925 27.3975 130.046C27.8921 130.158 28.3541 130.317 28.7835 130.522L28.1675 131.992C27.8128 131.833 27.4441 131.693 27.0615 131.572C26.6881 131.441 26.3055 131.376 25.9135 131.376ZM39.2028 134.988C39.2028 135.763 39.1048 136.467 38.9088 137.102C38.7221 137.727 38.4328 138.269 38.0408 138.726C37.6581 139.183 37.1681 139.533 36.5708 139.776C35.9828 140.019 35.2921 140.14 34.4988 140.14C33.6961 140.14 32.9961 140.019 32.3988 139.776C31.8108 139.524 31.3254 139.174 30.9428 138.726C30.5601 138.269 30.2708 137.723 30.0748 137.088C29.8881 136.453 29.7948 135.749 29.7948 134.974C29.7948 133.938 29.9628 133.037 30.2988 132.272C30.6441 131.507 31.1621 130.914 31.8528 130.494C32.5528 130.065 33.4394 129.85 34.5128 129.85C35.5674 129.85 36.4401 130.065 37.1308 130.494C37.8214 130.914 38.3394 131.511 38.6848 132.286C39.0301 133.051 39.2028 133.952 39.2028 134.988ZM31.6848 134.988C31.6848 135.744 31.7828 136.393 31.9788 136.934C32.1841 137.475 32.4921 137.891 32.9028 138.18C33.3228 138.469 33.8548 138.614 34.4988 138.614C35.1614 138.614 35.6981 138.469 36.1088 138.18C36.5194 137.891 36.8228 137.475 37.0188 136.934C37.2148 136.393 37.3128 135.744 37.3128 134.988C37.3128 133.859 37.0934 132.972 36.6548 132.328C36.2161 131.684 35.5021 131.362 34.5128 131.362C33.8594 131.362 33.3228 131.507 32.9028 131.796C32.4921 132.085 32.1841 132.501 31.9788 133.042C31.7828 133.583 31.6848 134.232 31.6848 134.988ZM50.2633 134.988C50.2633 135.763 50.1653 136.467 49.9693 137.102C49.7826 137.727 49.4933 138.269 49.1013 138.726C48.7186 139.183 48.2286 139.533 47.6313 139.776C47.0433 140.019 46.3526 140.14 45.5593 140.14C44.7566 140.14 44.0566 140.019 43.4593 139.776C42.8713 139.524 42.386 139.174 42.0033 138.726C41.6206 138.269 41.3313 137.723 41.1353 137.088C40.9486 136.453 40.8553 135.749 40.8553 134.974C40.8553 133.938 41.0233 133.037 41.3593 132.272C41.7046 131.507 42.2226 130.914 42.9133 130.494C43.6133 130.065 44.5 129.85 45.5733 129.85C46.628 129.85 47.5006 130.065 48.1913 130.494C48.882 130.914 49.4 131.511 49.7453 132.286C50.0906 133.051 50.2633 133.952 50.2633 134.988ZM42.7453 134.988C42.7453 135.744 42.8433 136.393 43.0393 136.934C43.2446 137.475 43.5526 137.891 43.9633 138.18C44.3833 138.469 44.9153 138.614 45.5593 138.614C46.222 138.614 46.7586 138.469 47.1693 138.18C47.58 137.891 47.8833 137.475 48.0793 136.934C48.2753 136.393 48.3733 135.744 48.3733 134.988C48.3733 133.859 48.154 132.972 47.7153 132.328C47.2766 131.684 46.5626 131.362 45.5733 131.362C44.92 131.362 44.3833 131.507 43.9633 131.796C43.5526 132.085 43.2446 132.501 43.0393 133.042C42.8433 133.583 42.7453 134.232 42.7453 134.988ZM52.3918 140V130.004H54.1838V138.488H58.3558V140H52.3918ZM65.7731 140H60.0891V130.004H65.7731V131.502H61.8811V134.05H65.5211V135.548H61.8811V138.488H65.7731V140ZM70.7378 130.004C71.6151 130.004 72.3384 130.111 72.9078 130.326C73.4771 130.541 73.9018 130.867 74.1818 131.306C74.4618 131.735 74.6018 132.281 74.6018 132.944C74.6018 133.429 74.5084 133.845 74.3218 134.19C74.1444 134.535 73.9111 134.825 73.6218 135.058C73.3324 135.282 73.0198 135.464 72.6838 135.604L75.5538 140H73.5378L71.1438 136.052H69.6878V140H67.8958V130.004H70.7378ZM70.6258 131.502H69.6878V134.582H70.6818C71.4191 134.582 71.9511 134.451 72.2778 134.19C72.6138 133.919 72.7818 133.523 72.7818 133C72.7818 132.636 72.7024 132.347 72.5438 132.132C72.3851 131.908 72.1471 131.749 71.8298 131.656C71.5218 131.553 71.1204 131.502 70.6258 131.502Z" fill="#221690"/>
<defs>
<linearGradient id="paint0_linear_1_2031" x1="47.9923" y1="48.4966" x2="48.0015" y2="48.4966" gradientUnits="userSpaceOnUse">
<stop stop-color="#0E172B"/>
<stop offset="1" stop-color="#1D284C"/>
</linearGradient>
<linearGradient id="paint1_linear_1_2031" x1="48.3163" y1="48.5974" x2="48.3499" y2="48.5974" gradientUnits="userSpaceOnUse">
<stop stop-color="#0E172B"/>
<stop offset="1" stop-color="#1D284C"/>
</linearGradient>
<linearGradient id="paint2_linear_1_2031" x1="47.6469" y1="48.1756" x2="48.8205" y2="48.1756" gradientUnits="userSpaceOnUse">
<stop stop-color="#0E172B"/>
<stop offset="1" stop-color="#1D284C"/>
</linearGradient>
<linearGradient id="paint3_linear_1_2031" x1="48.3499" y1="47.9433" x2="48.5088" y2="47.9433" gradientUnits="userSpaceOnUse">
<stop stop-color="#0E172B"/>
<stop offset="1" stop-color="#1D284C"/>
</linearGradient>
<linearGradient id="paint4_linear_1_2031" x1="48.4935" y1="47.8518" x2="48.8358" y2="47.8518" gradientUnits="userSpaceOnUse">
<stop stop-color="#0E172B"/>
<stop offset="1" stop-color="#1D284C"/>
</linearGradient>
<linearGradient id="paint5_linear_1_2031" x1="47.5186" y1="47.6499" x2="48.9581" y2="47.6499" gradientUnits="userSpaceOnUse">
<stop stop-color="#0E172B"/>
<stop offset="1" stop-color="#1D284C"/>
</linearGradient>
<linearGradient id="paint6_linear_1_2031" x1="47.5063" y1="48.0655" x2="47.6591" y2="48.0655" gradientUnits="userSpaceOnUse">
<stop stop-color="#0E172B"/>
<stop offset="1" stop-color="#1D284C"/>
</linearGradient>
<linearGradient id="paint7_linear_1_2031" x1="47.6653" y1="48.2429" x2="47.76" y2="48.2429" gradientUnits="userSpaceOnUse">
<stop stop-color="#0E172B"/>
<stop offset="1" stop-color="#1D284C"/>
</linearGradient>
<linearGradient id="paint8_linear_1_2031" x1="47.1763" y1="48.0015" x2="48.4844" y2="48.0015" gradientUnits="userSpaceOnUse">
<stop stop-color="#0E172B"/>
<stop offset="1" stop-color="#1D284C"/>
</linearGradient>
<linearGradient id="paint9_linear_1_2031" x1="47.6714" y1="47.659" x2="48.0076" y2="47.659" gradientUnits="userSpaceOnUse">
<stop stop-color="#0E172B"/>
<stop offset="1" stop-color="#1D284C"/>
</linearGradient>
<linearGradient id="paint10_linear_1_2031" x1="47.6989" y1="47.3566" x2="48.0198" y2="47.3566" gradientUnits="userSpaceOnUse">
<stop stop-color="#0E172B"/>
<stop offset="1" stop-color="#1D284C"/>
</linearGradient>
<linearGradient id="paint11_linear_1_2031" x1="47.6653" y1="45.1071" x2="63.5278" y2="45.1071" gradientUnits="userSpaceOnUse">
<stop stop-color="#0E172B"/>
<stop offset="1" stop-color="#1D284C"/>
</linearGradient>
</defs>
</svg>
