<svg width="48" height="48" viewBox="0 0 48 48" fill="none" xmlns="http://www.w3.org/2000/svg">
<path d="M41.8873 0H6.1127C2.73675 0 0 2.73675 0 6.1127V41.8873C0 45.2633 2.73675 48 6.1127 48H41.8873C45.2633 48 48 45.2633 48 41.8873V6.1127C48 2.73675 45.2633 0 41.8873 0Z" fill="#1F157C"/>
<mask id="mask0_8_2041" style="mask-type:luminance" maskUnits="userSpaceOnUse" x="7" y="7" width="34" height="34">
<path d="M24.0015 40.9031C33.336 40.9031 40.9031 33.336 40.9031 24.0015C40.9031 14.667 33.336 7.09985 24.0015 7.09985C14.667 7.09985 7.09985 14.667 7.09985 24.0015C7.09985 33.336 14.667 40.9031 24.0015 40.9031Z" fill="white"/>
</mask>
<g mask="url(#mask0_8_2041)">
<path d="M24.0015 24.4905L23.9954 24.5058V24.4844L24.0015 24.4905Z" fill="url(#paint0_linear_8_2041)"/>
<path d="M24.3499 24.3621V24.8358L24.3163 24.7991C24.3163 24.6494 24.3377 24.4935 24.3438 24.3621H24.3499Z" fill="url(#paint1_linear_8_2041)"/>
<path d="M26.3732 30.5452C26.3769 32.8417 25.4945 35.0512 23.9098 36.7134C22.3252 38.3756 20.1604 39.3625 17.8663 39.4684C15.5722 39.5744 13.3256 38.7913 11.5945 37.2822C9.86331 35.7732 8.78103 33.6545 8.573 31.3674C8.60564 31.3856 8.63637 31.4071 8.66469 31.4315C8.7784 31.5355 8.89999 31.6306 9.02839 31.7158C9.31739 31.9434 9.62398 32.1478 9.9453 32.327C10.0584 32.4004 10.1806 32.4554 10.2937 32.5227C10.4068 32.5899 10.5382 32.651 10.6605 32.7091L11.0517 32.8802C11.3023 32.978 11.5621 33.0758 11.825 33.1553C11.825 33.1553 11.825 33.1553 11.8402 33.1553L12.2223 33.2684C12.3109 33.2837 12.3934 33.3081 12.4668 33.3265L12.8336 33.4059L13.2064 33.4793C13.3929 33.5037 13.5824 33.5282 13.7688 33.5465C13.9552 33.5649 14.0928 33.571 14.2486 33.5771C14.4045 33.5832 14.5543 33.5954 14.7285 33.5954C15.989 33.5991 17.2377 33.3527 18.4024 32.8706C19.567 32.3885 20.6245 31.6802 21.5136 30.7866C21.6511 30.6491 21.7795 30.5116 21.9109 30.3649C22.16 30.09 22.3907 29.799 22.6017 29.4938C22.6842 29.3716 22.7667 29.2585 22.837 29.1454C23.0679 28.7944 23.2723 28.4266 23.4483 28.0451C23.5633 27.7959 23.6654 27.5408 23.7539 27.281C23.8028 27.1526 23.8517 27.012 23.8914 26.8837C23.9312 26.7553 23.974 26.6147 24.0076 26.4833C24.0412 26.3519 24.0718 26.2174 24.1054 26.0768C24.139 25.9362 24.1604 25.8017 24.1848 25.6703C24.2338 25.3952 24.2674 25.1171 24.2918 24.842C24.4202 24.9887 24.5424 25.1477 24.6586 25.3035C24.7228 25.3952 24.7869 25.4839 24.845 25.5725C24.9673 25.7437 25.0712 25.924 25.1782 26.1104C25.247 26.2176 25.3093 26.3288 25.3646 26.4436C25.6131 26.9202 25.8177 27.4184 25.9759 27.932C26.0156 28.0787 26.0553 28.2163 26.0889 28.363C26.1226 28.5097 26.1531 28.6411 26.1868 28.7878C26.2204 28.9345 26.2357 29.0537 26.2509 29.1851C26.2973 29.489 26.3279 29.795 26.3426 30.102C26.3426 30.1601 26.3426 30.209 26.3426 30.264C26.3426 30.319 26.3732 30.4566 26.3732 30.5452Z" fill="#DEE4F3"/>
<path d="M24.7777 24.3467H24.3407V24.362C24.3399 24.509 24.3317 24.6559 24.3162 24.8021L24.3468 24.8327V24.362C24.5088 24.362 24.6524 24.362 24.8205 24.3773C24.8079 24.3649 24.7935 24.3546 24.7777 24.3467ZM24.4721 24.0136C24.4374 23.9618 24.3963 23.9145 24.3498 23.873V24.0197C24.3529 24.0655 24.3529 24.1114 24.3498 24.1572C24.3936 24.1196 24.4344 24.0787 24.4721 24.035V24.0136ZM24.1512 23.6743H24.0136C24.0624 23.6697 24.1115 23.6697 24.1603 23.6743H24.1512ZM23.9922 23.5154L23.9678 23.5551C23.9749 23.5412 23.9868 23.5303 24.0014 23.5245L23.9922 23.5154ZM23.8547 23.6529C23.7896 23.6575 23.7242 23.6575 23.6591 23.6529H23.9922C23.9506 23.6567 23.9086 23.6567 23.8669 23.6529H23.8547ZM23.8547 24.3375H23.9922C23.9485 24.3418 23.9045 24.3418 23.8608 24.3375H23.8547ZM23.6591 24.7685V24.8327L23.9922 24.5087V24.4842C23.8893 24.5858 23.7801 24.6807 23.6652 24.7685H23.6591ZM23.6591 24.1572V24.3436C23.6871 24.3095 23.7201 24.2796 23.7569 24.255L23.6591 24.1572Z" fill="url(#paint2_linear_8_2041)"/>
<path d="M24.5088 24.0198H24.4721C24.4314 24.0167 24.3905 24.0167 24.3499 24.0198V23.873L24.4813 24.0014L24.5088 24.0198Z" fill="url(#paint3_linear_8_2041)"/>
<path d="M24.8358 23.7051C24.7197 23.7998 24.6036 23.9037 24.4935 24.0107L24.7992 23.7051C24.8111 23.7015 24.8239 23.7015 24.8358 23.7051Z" fill="url(#paint4_linear_8_2041)"/>
<path d="M39.4697 30.548C39.4668 32.7725 38.6335 34.9158 37.1331 36.5581C35.6327 38.2004 33.5733 39.2234 31.3581 39.4268C31.3854 39.3967 31.4109 39.3651 31.4345 39.332C31.5231 39.2281 31.6057 39.1272 31.6882 39.0264C32.3358 38.1612 32.8328 37.193 33.1583 36.1626C33.2011 36.025 33.2408 35.8936 33.2775 35.7591C33.2958 35.6766 33.3172 35.5941 33.3386 35.5177C33.36 35.4413 33.3997 35.2701 33.4211 35.1479C33.4425 35.0256 33.467 34.8881 33.4884 34.7567C33.5159 34.5733 33.5434 34.396 33.5556 34.2096C33.5678 34.0231 33.5831 33.9039 33.5923 33.7358C33.6015 33.5677 33.5923 33.4149 33.5923 33.256C33.5943 31.9953 33.3473 30.7466 32.8652 29.5816C32.3832 28.4167 31.6757 27.3585 30.7835 26.4678C30.6674 26.3517 30.5512 26.2417 30.4351 26.1408C30.3189 26.0399 30.1936 25.9269 30.0714 25.8352C29.9491 25.7435 29.833 25.6365 29.7077 25.5295C29.5824 25.4226 29.402 25.3247 29.2645 25.2239C29.127 25.123 29.0292 25.0711 28.913 25.0038C28.7524 24.9008 28.5861 24.8069 28.4148 24.7226C28.2895 24.6554 28.1611 24.5943 28.0358 24.5393C27.253 24.1724 26.4228 23.9162 25.5694 23.7782C25.4746 23.7578 25.3787 23.7435 25.2821 23.7354C25.1718 23.7164 25.0606 23.7031 24.9489 23.6957C24.9072 23.6927 24.8653 23.6927 24.8236 23.6957C25.4467 23.1694 26.1413 22.7341 26.8866 22.4029C27.0792 22.3142 27.284 22.2317 27.4979 22.1553L27.6232 22.1156C27.7333 22.0789 27.8341 22.0392 27.9289 22.0117C28.155 21.9444 28.3873 21.8802 28.6196 21.8344C28.726 21.8061 28.8342 21.7857 28.9436 21.7733C29.1106 21.7354 29.2802 21.7099 29.4509 21.6969C29.5457 21.6969 29.6404 21.6694 29.7382 21.6632C29.836 21.6571 29.9705 21.6418 30.0928 21.6418C30.215 21.6418 30.3984 21.6418 30.539 21.6418C32.9019 21.6459 35.1668 22.5872 36.8365 24.2592C38.5062 25.9312 39.4444 28.1973 39.4452 30.5603L39.4697 30.548Z" fill="#DEE4F3"/>
<path d="M24.845 23.6957C24.8856 23.6912 24.9267 23.6912 24.9673 23.6957C24.9267 23.6905 24.8856 23.6905 24.845 23.6957ZM24.7961 23.6957L24.4905 24.0014C24.5975 23.9036 24.7197 23.7966 24.8328 23.6957C24.8207 23.6933 24.8082 23.6933 24.7961 23.6957ZM24.5088 24.0197V24.0044L24.3805 23.873V24.0197C24.3835 24.0655 24.3835 24.1115 24.3805 24.1572C24.4242 24.1196 24.4651 24.0787 24.5027 24.035H24.5272C24.6341 24.142 24.7228 24.2551 24.8114 24.362H24.8603L24.5088 24.0197ZM24.0137 23.6743C24.0625 23.6698 24.1116 23.6698 24.1604 23.6743C24.1929 23.7008 24.2226 23.7305 24.249 23.763C24.2826 23.7294 24.3071 23.6957 24.3377 23.6713L24.0137 23.6743ZM24.7778 24.359H24.3407V24.3743C24.5027 24.3743 24.6464 24.3743 24.8145 24.3895C24.8047 24.3733 24.7923 24.3589 24.7778 24.3467V24.359ZM23.867 23.6652H24.0045C23.9584 23.6657 23.9123 23.6616 23.867 23.653V23.6652ZM23.867 24.3498H24.0045C23.9563 24.3508 23.9082 24.3467 23.8609 24.3376L23.867 24.3498ZM23.6714 24.1634V24.3498C23.6994 24.3156 23.7324 24.2857 23.7692 24.2612L23.6714 24.1634ZM23.5308 24.0075L23.6683 24.145C23.6117 24.1002 23.5595 24.0501 23.5125 23.9953L23.5308 24.0075ZM24.3957 23.1945C24.4997 23.1028 24.6066 23.0142 24.7197 22.9255C24.6005 23.0019 24.4935 23.0936 24.3896 23.1823L24.3957 23.1945Z" fill="url(#paint5_linear_8_2041)"/>
<path d="M23.6316 24.8083C23.6316 24.9427 23.6041 25.0742 23.5827 25.2056C23.5613 25.337 23.5491 25.4562 23.5216 25.5876C23.4941 25.719 23.4727 25.8413 23.4452 25.9636C23.3842 26.247 23.3066 26.5266 23.2129 26.801C23.1854 26.8896 23.1518 26.9844 23.1181 27.073C22.9883 27.4335 22.832 27.7839 22.6505 28.1213C22.5955 28.2253 22.5405 28.3292 22.4794 28.427C22.3794 28.6106 22.2702 28.7891 22.1523 28.9618C22.0759 29.078 21.9934 29.188 21.9109 29.298C21.8284 29.4081 21.8009 29.4478 21.7397 29.5181C21.6786 29.5884 21.6358 29.6526 21.5747 29.7229C21.4035 29.9276 21.2262 30.1202 21.0398 30.3036C19.4149 31.9122 17.234 32.8349 14.9479 32.8806C12.6619 32.9264 10.4458 32.0918 8.75779 30.5495C7.06982 29.0072 6.03919 26.8751 5.87907 24.5942C5.71895 22.3134 6.44159 20.0582 7.89751 18.2952C7.92501 18.5764 7.95863 18.8514 8.00753 19.1234C8.02893 19.2335 8.04727 19.3435 8.06866 19.4535C8.06866 19.5147 8.09617 19.5758 8.1084 19.6461C8.12062 19.7164 8.1573 19.8447 8.18481 19.9517C8.25343 20.2207 8.33607 20.486 8.43237 20.7464C8.4935 20.9236 8.56073 21.0948 8.63714 21.269C8.67993 21.3709 8.72578 21.4728 8.77468 21.5746C8.88471 21.813 9.00696 22.0392 9.13839 22.2745C9.20563 22.3907 9.28204 22.5068 9.34927 22.6169C9.41651 22.7269 9.49292 22.8338 9.56933 22.9439C9.64574 23.0539 9.68547 23.1089 9.7466 23.1914C9.80772 23.274 9.90553 23.4023 9.98805 23.4971C10.2033 23.7621 10.4318 24.0161 10.6727 24.2581C11.5634 25.1502 12.6217 25.8576 13.7866 26.3396C14.9515 26.8216 16.2001 27.0688 17.4608 27.0669C17.6259 27.0669 17.7818 27.0669 17.9407 27.0516C18.0996 27.0363 18.2463 27.0333 18.4205 27.018C18.5947 27.0027 18.8026 26.9783 18.9951 26.9416L19.3527 26.8805L19.6797 26.8071C19.7776 26.7857 19.8723 26.7643 19.9609 26.7368C20.0985 26.7032 20.2268 26.6604 20.3644 26.6207C21.5628 26.2479 22.6739 25.6377 23.6316 24.8266C23.6316 24.8266 23.6316 24.8144 23.6316 24.8083Z" fill="#1F157C"/>
<path d="M23.6621 24.3406H23.6499V24.3467H23.6621V24.3406Z" fill="#1F157C"/>
<path d="M23.9923 24.4844V24.5058L23.6653 24.8359V24.7717C23.78 24.6826 23.8892 24.5866 23.9923 24.4844Z" fill="#1F157C"/>
<path d="M24.0014 24.3469H23.8578C23.9056 24.35 23.9536 24.35 24.0014 24.3469Z" fill="#1F157C"/>
<path d="M24.0229 23.5002V23.5155L23.9984 23.5553C24.0055 23.5413 24.0175 23.5304 24.032 23.5247C24.136 23.4208 24.2429 23.323 24.356 23.2191V23.1763L24.0229 23.5002ZM24.0229 23.6622C24.0717 23.6577 24.1208 23.6577 24.1696 23.6622C24.2021 23.6887 24.2318 23.7184 24.2582 23.7509C24.2918 23.7172 24.3163 23.6836 24.3468 23.6592V23.6745L24.0229 23.6622ZM23.8762 23.6531H24.0137C23.9649 23.6582 23.9157 23.6582 23.867 23.6531H23.8762ZM23.8762 24.3377H24.0137C23.9629 24.3434 23.9117 24.3434 23.8609 24.3377H23.8762ZM23.6805 24.7686V24.8328L24.0137 24.5088V24.4844C23.9039 24.5866 23.7875 24.6816 23.6653 24.7686H23.6805ZM23.6805 24.1574V24.3438C23.7086 24.3096 23.7416 24.2797 23.7784 24.2552L23.6805 24.1574ZM23.54 23.9984V24.0137L23.6775 24.1512C23.6174 24.105 23.5621 24.0528 23.5125 23.9954L23.54 23.9984ZM23.6378 24.8206C23.6378 24.8848 23.6225 24.952 23.6225 25.0162C23.6225 24.952 23.6378 24.8787 23.6469 24.8114C23.6316 24.8175 23.6316 24.8175 23.6225 24.8175L23.6378 24.8206Z" fill="#1F157C"/>
<path d="M32.9229 33.2623C32.9205 34.9563 32.4361 36.6148 31.5264 38.0439C30.6167 39.473 29.3191 40.6137 27.7852 41.3329C26.2514 42.0521 24.5446 42.32 22.8641 42.1053C21.1837 41.8907 19.599 41.2024 18.2952 40.1207C18.5702 40.0871 18.8575 40.0535 19.1326 40.0046C19.2696 39.9863 19.4053 39.9598 19.5391 39.9251C19.6793 39.8998 19.818 39.8671 19.9548 39.8273C20.2221 39.7611 20.4854 39.6795 20.7433 39.5828C21.4073 39.3375 22.0426 39.0208 22.6382 38.6384L22.9439 38.4275C23.0509 38.3541 23.1548 38.2716 23.2495 38.1983C23.5952 37.9317 23.9238 37.6438 24.2337 37.3364C25.1272 36.4461 25.8355 35.3875 26.3176 34.2218C26.7997 33.0562 27.0461 31.8066 27.0424 30.5452C27.0424 30.3893 27.0424 30.2395 27.0241 30.0653V29.9675C27.0241 29.8453 27.0241 29.723 26.9936 29.5916C26.9752 29.4143 26.9508 29.2279 26.9263 29.0384C26.9018 28.91 26.8866 28.7878 26.853 28.6655C26.8311 28.5226 26.7984 28.3816 26.7551 28.2437C26.7138 28.0419 26.6597 27.8428 26.5932 27.6477C26.5534 27.5194 26.5137 27.388 26.4648 27.2596L26.3181 26.8684C26.2019 26.6147 26.0889 26.3702 25.9666 26.1196C25.9522 26.089 25.9358 26.0594 25.9177 26.0309C25.8444 25.8903 25.7649 25.762 25.6824 25.6244C25.5998 25.4869 25.5204 25.3555 25.4318 25.2241C25.3431 25.0926 25.2606 24.9734 25.1689 24.8512C25.0772 24.7289 24.9336 24.5455 24.8052 24.3774C24.8449 24.3774 24.8938 24.3774 24.9336 24.3958L25.3095 24.4447L25.7404 24.518C25.8871 24.5486 26.0155 24.5822 26.1622 24.6158C26.4465 24.6861 26.7154 24.7687 26.9936 24.8573C27.0144 24.8668 27.0358 24.8749 27.0577 24.8817C27.2778 24.9643 27.4978 25.0529 27.7087 25.1507C28.3494 25.4471 28.9527 25.8185 29.5059 26.2571C29.5792 26.306 29.6434 26.3702 29.7107 26.4191C29.839 26.5261 29.9613 26.6391 30.0835 26.7614C30.1569 26.8195 30.2211 26.8837 30.2944 26.9478C31.1269 27.7753 31.7876 28.7591 32.2387 29.8428C32.6898 30.9264 32.9223 32.0885 32.9229 33.2623Z" fill="#1F157C"/>
<path d="M23.1579 24.307C23.1411 24.325 23.1227 24.3413 23.1028 24.3559C22.9928 24.4506 22.8767 24.5393 22.7605 24.6218C22.6444 24.7043 22.5221 24.7929 22.3968 24.8755C22.2715 24.958 22.1584 25.0344 22.0331 25.1077C21.9078 25.1811 21.7825 25.2575 21.6511 25.3278C21.5197 25.3981 21.3974 25.4562 21.266 25.5204C20.9762 25.6565 20.6793 25.7769 20.3766 25.881C20.2666 25.9177 20.1657 25.9574 20.071 25.9849C19.8448 26.0522 19.6125 26.1163 19.3863 26.1622C19.261 26.1897 19.1449 26.2111 19.0226 26.2325C18.6564 26.301 18.2855 26.3419 17.9132 26.3547C17.7604 26.3547 17.6075 26.37 17.4669 26.37C15.1709 26.3721 12.9626 25.4886 11.3016 23.9035C9.64059 22.3183 8.65492 20.1536 8.54977 17.86C8.44462 15.5664 9.22809 13.3206 10.7371 11.5902C12.2461 9.85967 14.3643 8.77783 16.6509 8.56982L16.5837 8.66152C16.4818 8.77675 16.3859 8.89712 16.2964 9.02217C16.2964 9.02217 16.2964 9.03745 16.2811 9.03745C16.0073 9.41629 15.7582 9.8124 15.5353 10.2233C15.5214 10.2541 15.505 10.2837 15.4864 10.3119C15.3642 10.5565 15.248 10.804 15.138 11.0577C15.028 11.3114 14.9393 11.5773 14.8568 11.8401C14.8171 11.9746 14.7743 12.106 14.7407 12.2436L14.6795 12.482C14.6459 12.6073 14.6184 12.7295 14.597 12.8518C14.5756 12.974 14.5481 13.1146 14.5267 13.243C14.4992 13.4203 14.4717 13.6067 14.4595 13.784C14.4473 13.9612 14.432 14.0896 14.4259 14.2577C14.4198 14.4258 14.4106 14.5786 14.4106 14.7375C14.4048 15.9983 14.6481 17.2477 15.1265 18.4142C15.6048 19.5806 16.3088 20.6411 17.198 21.5349L17.308 21.6388C17.5015 21.8342 17.7056 22.0189 17.9193 22.192C18.0201 22.2806 18.1302 22.3631 18.2249 22.4457C18.3197 22.5282 18.445 22.6107 18.5611 22.6841C19.4624 23.3083 20.4672 23.7677 21.5288 24.0411C21.7733 24.1022 22.0209 24.1572 22.2746 24.2061C22.5667 24.2577 22.8617 24.2914 23.1579 24.307Z" fill="#DEE4F3"/>
<path d="M23.6591 24.1358L23.5216 23.9983H23.543C23.5787 24.0466 23.6175 24.0925 23.6591 24.1358Z" fill="url(#paint6_linear_8_2041)"/>
<path d="M23.76 24.246C23.7264 24.2735 23.6928 24.3071 23.6653 24.3346V24.1482L23.76 24.246Z" fill="url(#paint7_linear_8_2041)"/>
<path d="M24.356 23.8731V24.0198C24.3591 24.0656 24.3591 24.1116 24.356 24.1574C24.3998 24.1197 24.4406 24.0789 24.4783 24.0351L24.356 23.8731ZM24.0137 23.6622C24.0625 23.6577 24.1116 23.6577 24.1604 23.6622C24.1929 23.6887 24.2226 23.7184 24.249 23.7509C24.2827 23.7173 24.3071 23.6836 24.3377 23.6592L24.0137 23.6622ZM23.867 23.6622C23.8019 23.6668 23.7365 23.6668 23.6714 23.6622H24.0045C23.9585 23.6638 23.9124 23.6607 23.867 23.6531V23.6622ZM23.867 24.3469H24.0045C23.9565 24.3489 23.9083 24.3458 23.8609 24.3377L23.867 24.3469ZM23.6714 24.1604V24.3469C23.6995 24.3127 23.7324 24.2828 23.7692 24.2582L23.6714 24.1604ZM23.5308 24.0015C23.433 23.9037 23.3352 23.7876 23.2252 23.6745H23.1763L23.5125 23.9801L23.65 24.1176C23.6009 24.0807 23.5549 24.0398 23.5125 23.9954L23.5308 24.0015Z" fill="url(#paint8_linear_8_2041)"/>
<path d="M23.5125 23.98L23.1793 23.6743H23.2252C23.323 23.7782 23.4177 23.8883 23.5125 23.98Z" fill="#1F157C"/>
<path d="M29.7077 7.88528C29.4265 7.90668 29.1453 7.94642 28.8703 7.99532C28.7358 8.01671 28.5982 8.04422 28.4607 8.07784C28.3232 8.11146 28.1917 8.13896 28.0573 8.17258C27.9228 8.2062 27.7883 8.249 27.6599 8.29178C27.5248 8.3283 27.3921 8.3732 27.2626 8.42626C27.0013 8.51335 26.7451 8.6154 26.4955 8.73189C26.1155 8.90894 25.7488 9.11323 25.3982 9.34316C25.2821 9.41651 25.1659 9.49293 25.0559 9.57545C24.9459 9.65797 24.842 9.7252 24.7503 9.80161C24.4027 10.0647 24.0748 10.3527 23.7692 10.6635C22.8743 11.5531 22.1647 12.6114 21.6815 13.7771C21.1983 14.9429 20.9511 16.1928 20.9543 17.4547C20.9543 17.6106 20.9543 17.7604 20.9543 17.9315C20.9576 18.0879 20.9688 18.2439 20.9879 18.3991C20.9879 18.5825 21.0277 18.7628 21.0552 18.9401C21.0827 19.1174 21.0979 19.1999 21.1255 19.3313C21.153 19.4627 21.1805 19.6186 21.2202 19.7562C21.3027 20.0893 21.4036 20.4194 21.5258 20.7403C21.6298 21.0154 21.7459 21.2813 21.8681 21.5441C21.9507 21.7214 22.0393 21.8925 22.1371 22.0637C22.1921 22.1676 22.2471 22.2624 22.3021 22.3693C22.3572 22.4763 22.4733 22.6444 22.5619 22.7819C22.6506 22.9195 22.7331 23.0356 22.8278 23.164C22.9226 23.2924 23.0693 23.4696 23.1977 23.6316C23.0632 23.6316 22.9318 23.6041 22.8003 23.5827L22.4183 23.5216L22.0424 23.4482C21.7887 23.3932 21.5411 23.3229 21.2936 23.2496C21.0328 23.1609 20.7767 23.0589 20.5264 22.9439C20.4103 22.8981 20.2941 22.8492 20.1841 22.7942C20.0511 22.7353 19.9215 22.669 19.796 22.5955C19.6645 22.5344 19.5423 22.458 19.4169 22.3846C18.7876 22.0052 18.2076 21.5494 17.6901 21.0276L17.6015 20.9451C16.0133 19.3057 15.1139 17.1201 15.0882 14.8377C15.0625 12.5554 15.9126 10.35 17.4635 8.67541C19.0144 7.00079 21.1482 5.98427 23.4258 5.83503C25.7033 5.68578 27.9515 6.41514 29.7077 7.87306V7.88528Z" fill="#1F157C"/>
<path d="M23.2068 23.6224C23.0784 23.604 22.947 23.5979 22.8156 23.5796L23.216 23.6285C23.216 23.6285 23.2068 23.6285 23.2068 23.6224ZM24.5241 24.0197V24.0044L24.3957 23.873V24.0197C24.3987 24.0655 24.3987 24.1115 24.3957 24.1572C24.4394 24.1196 24.4803 24.0787 24.5179 24.035H24.5424C24.6494 24.142 24.738 24.2551 24.8266 24.362H24.8755L24.5241 24.0197ZM24.0137 23.6743C24.0624 23.6698 24.1116 23.6698 24.1604 23.6743H24.0137ZM24.0137 23.5368L23.9892 23.5765C23.9963 23.5626 24.0083 23.5517 24.0228 23.546L24.0137 23.5368ZM23.708 23.1884C23.708 23.1884 23.708 23.219 23.708 23.2281L24.0137 23.5338C23.9067 23.3932 23.818 23.2801 23.705 23.167L23.708 23.1884ZM23.87 23.6743C23.8049 23.6789 23.7395 23.6789 23.6744 23.6743H24.0075C23.9601 23.6721 23.9129 23.6649 23.8669 23.653L23.87 23.6743ZM23.6683 24.1725V24.359C23.6963 24.3248 23.7293 24.2949 23.7661 24.2703L23.6683 24.1725ZM23.5277 24.0136C23.4299 23.9158 23.3321 23.7997 23.2221 23.6866H23.1732L23.5124 23.98L23.6499 24.1175C23.6008 24.0806 23.5548 24.0397 23.5124 23.9953L23.5277 24.0136Z" fill="#1F157C"/>
<path d="M24.0076 23.6743H23.6714C23.7325 23.6743 23.7936 23.6743 23.8639 23.6743C23.9118 23.6776 23.9598 23.6776 24.0076 23.6743Z" fill="url(#paint9_linear_8_2041)"/>
<path d="M24.0198 23.4972V23.5339C24.0198 23.5339 23.9923 23.5491 23.9862 23.5614L24.0137 23.5277L23.708 23.2221C23.7051 23.207 23.7051 23.1914 23.708 23.1763C23.8058 23.2924 23.9077 23.4086 24.0137 23.5247L24.0198 23.4972Z" fill="url(#paint10_linear_8_2041)"/>
<path d="M39.4268 16.6449L39.3382 16.5746C39.2221 16.4737 39.0998 16.3759 38.9745 16.2873C38.7147 16.0947 38.4549 15.9236 38.189 15.7585L37.7764 15.5262C37.5024 15.3791 37.2208 15.2465 36.9329 15.1289C36.7892 15.0678 36.6456 15.0128 36.4958 14.9639C36.346 14.915 36.2574 14.8752 36.1382 14.8416C36.019 14.808 35.8876 14.7652 35.7562 14.7316L35.5147 14.6705L35.1449 14.5879C35.0165 14.5604 34.8851 14.539 34.7567 14.5207C34.5764 14.4932 34.393 14.4657 34.2158 14.4504C34.0385 14.4351 33.9101 14.4229 33.742 14.4168C33.5739 14.4107 33.4211 14.4168 33.2622 14.4168C32.0002 14.4136 30.7502 14.6614 29.5849 15.1457C28.4195 15.63 27.3621 16.3411 26.474 17.2378C26.0745 17.6357 25.7123 18.0695 25.3921 18.5337C25.3096 18.6498 25.2332 18.766 25.1598 18.8821C25.0864 18.9983 25.007 19.1144 24.9397 19.2397C24.7987 19.4763 24.6701 19.7201 24.5546 19.9702C24.4324 20.233 24.3224 20.505 24.2184 20.7923C24.1726 20.936 24.1237 21.098 24.0748 21.2324C24.0259 21.3669 23.9862 21.5381 23.9525 21.6848C23.9189 21.8315 23.8761 21.9904 23.8486 22.1432C23.819 22.2785 23.7966 22.4152 23.7814 22.5528C23.7479 22.7254 23.7254 22.9 23.7141 23.0754C23.7095 23.112 23.7095 23.1489 23.7141 23.1854C23.6054 23.0563 23.5034 22.9216 23.4085 22.782C23.2308 22.5514 23.0685 22.3095 22.9225 22.0577C22.8472 21.9313 22.7738 21.803 22.7025 21.6726C22.5657 21.4194 22.4423 21.1592 22.3327 20.8932C22.1594 20.4802 22.0193 20.054 21.914 19.6187C21.8803 19.5087 21.8589 19.3925 21.8314 19.2764C21.7856 19.0502 21.752 18.8149 21.7245 18.5826C21.7092 18.4817 21.697 18.3778 21.6878 18.2769C21.6786 18.1761 21.6694 18.0508 21.6694 17.9346C21.6694 17.8185 21.6694 17.629 21.6694 17.4915C21.7454 15.2532 22.6607 13.1255 24.2333 11.5311C25.806 9.93664 27.921 8.99227 30.158 8.88562C32.395 8.77896 34.5903 9.51783 36.3075 10.9554C38.0248 12.393 39.1383 14.424 39.4268 16.6449Z" fill="#DEE4F3"/>
<path d="M24.0015 23.6622C24.0503 23.6576 24.0994 23.6576 24.1482 23.6622C24.1807 23.6886 24.2104 23.7183 24.2368 23.7508C24.2704 23.7172 24.2949 23.6836 24.3254 23.6591L24.0015 23.6622ZM24.3346 23.8669V24.0045C24.3302 23.9608 24.3302 23.9167 24.3346 23.8731V23.8669ZM24.3346 24.1512V24.0136C24.3397 24.0593 24.3418 24.1053 24.3407 24.1512H24.3346ZM24.3346 24.3468V24.3621C24.3338 24.5091 24.3257 24.656 24.3102 24.8022L24.3407 24.8328V24.3468H24.3346ZM24.0168 23.5002V23.5155L23.9923 23.5552C23.9994 23.5412 24.0114 23.5304 24.0259 23.5246C24.1298 23.4207 24.2368 23.3229 24.3499 23.219V23.1762L24.0168 23.5002ZM23.6897 23.1945L23.9954 23.5002C23.8976 23.3779 23.7937 23.2648 23.6897 23.1518C23.6959 23.1732 23.6958 23.1976 23.6958 23.2068L23.6897 23.1945ZM23.8609 23.6408C23.7958 23.6454 23.7304 23.6454 23.6653 23.6408H23.9984C23.9551 23.649 23.9111 23.6531 23.867 23.653L23.8609 23.6408ZM23.8609 24.3254H23.9984C23.9531 24.3341 23.907 24.3382 23.8609 24.3376V24.3254ZM39.4697 17.5739C39.3963 17.5097 39.3169 17.4272 39.2435 17.3691C39.3413 17.4608 39.4391 17.5495 39.5278 17.6473L39.4697 17.5739Z" fill="url(#paint11_linear_8_2041)"/>
<path d="M24.3499 23.1763V23.2191C24.2337 23.3138 24.1298 23.4086 24.0198 23.5247V23.5094L24.3499 23.1763Z" fill="#1F157C"/>
<path d="M24.3651 23.6743C24.3315 23.7018 24.304 23.7355 24.2704 23.763C24.2424 23.7309 24.2129 23.7003 24.1817 23.6713C24.1339 23.6682 24.0859 23.6682 24.0381 23.6713L24.3651 23.6743Z" fill="#1F157C"/>
<path d="M42.1807 24.0044C42.1898 26.0917 41.4564 28.1143 40.1115 29.7106C40.0871 29.4294 40.0504 29.1513 40.0046 28.8762C39.9832 28.7662 39.9618 28.65 39.9404 28.5461C39.9067 28.3841 39.867 28.2191 39.8242 28.054C39.7814 27.889 39.7509 27.7881 39.7081 27.6567C39.6653 27.5253 39.6256 27.3969 39.5797 27.2655C39.5339 27.1341 39.4819 27.0057 39.4269 26.8743C39.3719 26.7429 39.3046 26.587 39.2374 26.4494C39.0292 26.0069 38.786 25.5817 38.51 25.178C38.4336 25.0588 38.3511 24.9518 38.2716 24.8418C38.1921 24.7318 38.1616 24.689 38.1004 24.6156L37.914 24.3895C37.7367 24.1694 37.5381 23.9646 37.3394 23.7599C36.4502 22.8624 35.3912 22.151 34.2242 21.6672C33.0572 21.1833 31.8054 20.9368 30.5421 20.9419C30.3801 20.9419 30.2364 20.9419 30.0653 20.9572C29.8941 20.9725 29.7413 20.9786 29.5854 20.9908C29.4296 21.003 29.2065 21.0336 29.0231 21.0611C28.9008 21.0794 28.7755 21.1069 28.6533 21.1283L28.2834 21.2109L28.042 21.272C27.9136 21.3056 27.7883 21.3392 27.6599 21.382C27.5316 21.4248 27.4277 21.4584 27.3024 21.5043C27.177 21.5501 26.9967 21.6082 26.8653 21.6693C26.5766 21.7876 26.295 21.9223 26.0217 22.0728C25.9278 22.1177 25.837 22.1687 25.7497 22.2256C25.6519 22.2775 25.5572 22.3325 25.4441 22.3967C25.331 22.4609 25.2454 22.5251 25.1385 22.5862L24.8726 22.7788C24.8023 22.8277 24.7411 22.8735 24.68 22.9224L24.3499 23.1914C24.3456 23.162 24.3456 23.1321 24.3499 23.1027C24.3499 22.9652 24.3774 22.8307 24.3958 22.6932C24.4141 22.5557 24.4447 22.3876 24.4722 22.2622C24.4997 22.1369 24.5272 21.9994 24.5608 21.871C24.5944 21.7427 24.6372 21.5654 24.6861 21.4187C24.7219 21.2791 24.7648 21.1414 24.8145 21.0061C24.8695 20.8563 24.9306 20.7004 25.0009 20.5476C25.0712 20.3948 25.0957 20.3215 25.1507 20.2053C25.4512 19.5874 25.8247 19.0076 26.2632 18.4785C26.3137 18.4067 26.3688 18.3383 26.4282 18.2737C26.5933 18.075 26.7705 17.8764 26.957 17.6899C28.1442 16.5022 29.6424 15.6734 31.2794 15.2987C32.9165 14.9241 34.626 15.0188 36.2116 15.5719C36.3491 15.6208 36.4775 15.6697 36.6089 15.7247C36.7404 15.7797 36.8687 15.8347 37.0002 15.8959C37.1316 15.957 37.2599 16.012 37.3822 16.0792C37.5045 16.1465 37.6878 16.2382 37.8345 16.3329C38.0865 16.4803 38.3294 16.6426 38.5619 16.8189C38.7056 16.9228 38.8492 17.0328 38.9868 17.149C39.0754 17.2254 39.164 17.2926 39.2466 17.3751C39.3291 17.4577 39.3963 17.5127 39.4727 17.5799L39.5339 17.6502L39.5675 17.6838C40.4025 18.5099 41.0638 19.4947 41.5126 20.5801C41.9614 21.6656 42.1885 22.8298 42.1807 24.0044Z" fill="#1F157C"/>
<path d="M28.8824 24.0015C28.8828 24.513 28.8034 25.0213 28.6471 25.5083C28.5926 25.6808 28.5262 25.8493 28.4484 26.0126C27.9912 27.0223 27.2045 27.8467 26.2173 28.3507C26.0579 28.4341 25.8936 28.5076 25.7252 28.5708C25.1725 28.775 24.5877 28.8786 23.9984 28.8764C23.4799 28.8778 22.9643 28.7984 22.4702 28.6411C22.3005 28.5844 22.1342 28.5181 21.972 28.4424C20.959 27.9841 20.1337 27.1923 19.6339 26.1991C19.5515 26.0422 19.48 25.8798 19.42 25.7131C19.0282 24.6773 19.0012 23.5388 19.3436 22.4856C19.397 22.3122 19.4624 22.1427 19.5392 21.9782C19.9953 20.9663 20.7821 20.1395 21.7703 19.634C21.9323 19.5576 22.0973 19.4812 22.2654 19.4201C23.3054 19.0259 24.4491 19.0011 25.5052 19.3498C25.6725 19.4039 25.8368 19.4671 25.9972 19.5393C27.0082 19.9947 27.8332 20.7819 28.3354 21.7704C28.4187 21.9308 28.4922 22.0962 28.5554 22.2655C28.7683 22.8197 28.8791 23.4079 28.8824 24.0015Z" fill="#DEE4F3"/>
</g>
<path d="M24.0015 40.9031C33.336 40.9031 40.9031 33.336 40.9031 24.0015C40.9031 14.667 33.336 7.09985 24.0015 7.09985C14.667 7.09985 7.09985 14.667 7.09985 24.0015C7.09985 33.336 14.667 40.9031 24.0015 40.9031Z" stroke="#DEE4F3" stroke-width="3" stroke-miterlimit="10"/>
<path d="M44.1704 17.0757C46.0286 14.1049 44.2926 8.48123 38.8921 4.23901C33.5343 8.4904 31.8166 14.0988 33.681 17.0757C34.5979 18.5611 36.6731 19.7683 38.8921 19.7806C41.111 19.7928 43.2351 18.5733 44.1704 17.0757Z" fill="#DEE4F3"/>
<path d="M39.8304 10.5872V11.0792C39.8304 12.2559 39.8304 13.4296 39.8304 14.6063C39.8381 14.8036 39.8258 15.0013 39.7937 15.1961C39.7356 15.4785 39.6079 15.7419 39.4222 15.9623C39.2364 16.1828 38.9985 16.3533 38.7301 16.4584C38.5635 16.5281 38.3931 16.5883 38.2197 16.6387C38.1158 16.6693 38.0577 16.6387 38.0332 16.5226C38.0301 16.4819 38.0301 16.441 38.0332 16.4003C38.0332 15.3551 38.0332 14.3098 38.0332 13.2615C38.0285 12.9666 38.089 12.6744 38.2105 12.4057C38.4666 11.8134 38.8507 11.2853 39.3352 10.8592C39.4718 10.7243 39.6433 10.6301 39.8304 10.5872Z" fill="#1F157C"/>
<path d="M38.0149 9.48071V11.8891C38.286 11.5295 38.6218 11.2237 39.0051 10.9875C39.2593 10.8322 39.5312 10.708 39.8151 10.6177V9.48071H38.0149Z" fill="#FDAF17"/>
<defs>
<linearGradient id="paint0_linear_8_2041" x1="23.9923" y1="24.4966" x2="24.0015" y2="24.4966" gradientUnits="userSpaceOnUse">
<stop stop-color="#0E172B"/>
<stop offset="1" stop-color="#1D284C"/>
</linearGradient>
<linearGradient id="paint1_linear_8_2041" x1="24.3163" y1="24.5974" x2="24.3499" y2="24.5974" gradientUnits="userSpaceOnUse">
<stop stop-color="#0E172B"/>
<stop offset="1" stop-color="#1D284C"/>
</linearGradient>
<linearGradient id="paint2_linear_8_2041" x1="23.6469" y1="24.1756" x2="24.8205" y2="24.1756" gradientUnits="userSpaceOnUse">
<stop stop-color="#0E172B"/>
<stop offset="1" stop-color="#1D284C"/>
</linearGradient>
<linearGradient id="paint3_linear_8_2041" x1="24.3499" y1="23.9433" x2="24.5088" y2="23.9433" gradientUnits="userSpaceOnUse">
<stop stop-color="#0E172B"/>
<stop offset="1" stop-color="#1D284C"/>
</linearGradient>
<linearGradient id="paint4_linear_8_2041" x1="24.4935" y1="23.8518" x2="24.8358" y2="23.8518" gradientUnits="userSpaceOnUse">
<stop stop-color="#0E172B"/>
<stop offset="1" stop-color="#1D284C"/>
</linearGradient>
<linearGradient id="paint5_linear_8_2041" x1="23.5186" y1="23.6499" x2="24.9581" y2="23.6499" gradientUnits="userSpaceOnUse">
<stop stop-color="#0E172B"/>
<stop offset="1" stop-color="#1D284C"/>
</linearGradient>
<linearGradient id="paint6_linear_8_2041" x1="23.5063" y1="24.0655" x2="23.6591" y2="24.0655" gradientUnits="userSpaceOnUse">
<stop stop-color="#0E172B"/>
<stop offset="1" stop-color="#1D284C"/>
</linearGradient>
<linearGradient id="paint7_linear_8_2041" x1="23.6653" y1="24.2429" x2="23.76" y2="24.2429" gradientUnits="userSpaceOnUse">
<stop stop-color="#0E172B"/>
<stop offset="1" stop-color="#1D284C"/>
</linearGradient>
<linearGradient id="paint8_linear_8_2041" x1="23.1763" y1="24.0015" x2="24.4844" y2="24.0015" gradientUnits="userSpaceOnUse">
<stop stop-color="#0E172B"/>
<stop offset="1" stop-color="#1D284C"/>
</linearGradient>
<linearGradient id="paint9_linear_8_2041" x1="23.6714" y1="23.659" x2="24.0076" y2="23.659" gradientUnits="userSpaceOnUse">
<stop stop-color="#0E172B"/>
<stop offset="1" stop-color="#1D284C"/>
</linearGradient>
<linearGradient id="paint10_linear_8_2041" x1="23.6989" y1="23.3566" x2="24.0198" y2="23.3566" gradientUnits="userSpaceOnUse">
<stop stop-color="#0E172B"/>
<stop offset="1" stop-color="#1D284C"/>
</linearGradient>
<linearGradient id="paint11_linear_8_2041" x1="23.6653" y1="21.1071" x2="39.5278" y2="21.1071" gradientUnits="userSpaceOnUse">
<stop stop-color="#0E172B"/>
<stop offset="1" stop-color="#1D284C"/>
</linearGradient>
</defs>
</svg>
