<svg width="49" height="48" viewBox="0 0 49 48" fill="none" xmlns="http://www.w3.org/2000/svg">
<path d="M47.0933 24.9094C47.3366 24.9094 47.57 24.8128 47.7421 24.6407C47.9142 24.4686 48.0108 24.2352 48.0108 23.9919C48.0108 23.7485 47.9142 23.5151 47.7421 23.3431C47.57 23.171 47.3366 23.0743 47.0933 23.0743H44.6573V20.0158H47.0933C47.3366 20.0158 47.57 19.9191 47.7421 19.747C47.9142 19.575 48.0108 19.3416 48.0108 19.0982C48.0108 18.8549 47.9142 18.6215 47.7421 18.4494C47.57 18.2773 47.3366 18.1807 47.0933 18.1807H44.6573V8.76689C44.6573 7.33118 44.0869 5.95428 43.0717 4.93909C42.0565 3.92389 40.6796 3.35356 39.2439 3.35356H29.4999V0.91756C29.4999 0.674208 29.4033 0.440823 29.2312 0.268747C29.0591 0.0966713 28.8257 0 28.5824 0C28.339 0 28.1056 0.0966713 27.9336 0.268747C27.7615 0.440823 27.6648 0.674208 27.6648 0.91756V3.35356H24.6063V0.91756C24.6063 0.674208 24.5096 0.440823 24.3375 0.268747C24.1655 0.0966713 23.9321 0 23.6887 0C23.4454 0 23.212 0.0966713 23.0399 0.268747C22.8678 0.440823 22.7712 0.674208 22.7712 0.91756V3.35356H19.7126V0.91756C19.7126 0.674208 19.616 0.440823 19.4439 0.268747C19.2718 0.0966713 19.0384 0 18.7951 0C18.5517 0 18.3183 0.0966713 18.1463 0.268747C17.9742 0.440823 17.8775 0.674208 17.8775 0.91756V3.35356H8.76689C7.33118 3.35356 5.95428 3.92389 4.93909 4.93909C3.92389 5.95428 3.35356 7.33118 3.35356 8.76689V18.1753H0.917559C0.674207 18.1753 0.440823 18.2719 0.268747 18.444C0.0966713 18.6161 0 18.8495 0 19.0928C0 19.3362 0.0966713 19.5696 0.268747 19.7416C0.440823 19.9137 0.674207 20.0104 0.917559 20.0104H3.35356V23.0689H0.917559C0.674207 23.0689 0.440823 23.1656 0.268747 23.3377C0.0966713 23.5097 0 23.7431 0 23.9865C0 24.2298 0.0966713 24.4632 0.268747 24.6353C0.440823 24.8074 0.674207 24.904 0.917559 24.904H3.35356V27.9626H0.917559C0.674207 27.9626 0.440823 28.0592 0.268747 28.2313C0.0966713 28.4034 0 28.6368 0 28.8801C0 29.1235 0.0966713 29.3569 0.268747 29.5289C0.440823 29.701 0.674207 29.7977 0.917559 29.7977H3.35356V39.2331C3.35356 40.6688 3.92389 42.0457 4.93909 43.0609C5.95428 44.0761 7.33118 44.6464 8.76689 44.6464H17.8775V47.0824C17.8775 47.3258 17.9742 47.5592 18.1463 47.7313C18.3183 47.9033 18.5517 48 18.7951 48C19.0384 48 19.2718 47.9033 19.4439 47.7313C19.616 47.5592 19.7126 47.3258 19.7126 47.0824V44.6464H22.7712V47.0824C22.7712 47.3258 22.8678 47.5592 23.0399 47.7313C23.212 47.9033 23.4454 48 23.6887 48C23.9321 48 24.1655 47.9033 24.3375 47.7313C24.5096 47.5592 24.6063 47.3258 24.6063 47.0824V44.6464H27.6648V47.0824C27.6648 47.3258 27.7615 47.5592 27.9336 47.7313C28.1056 47.9033 28.339 48 28.5824 48C28.8257 48 29.0591 47.9033 29.2312 47.7313C29.4033 47.5592 29.4999 47.3258 29.4999 47.0824V44.6464H39.2439C40.6796 44.6464 42.0565 44.0761 43.0717 43.0609C44.0869 42.0457 44.6573 40.6688 44.6573 39.2331V29.8139H47.0933C47.3366 29.8139 47.57 29.7172 47.7421 29.5452C47.9142 29.3731 48.0108 29.1397 48.0108 28.8964C48.0108 28.653 47.9142 28.4196 47.7421 28.2475C47.57 28.0755 47.3366 27.9788 47.0933 27.9788H44.6573V24.9203L47.0933 24.9094Z" fill="#1F157C"/>
<path d="M32.9212 9.79004H15.0815C12.0918 9.79004 9.66821 12.2137 9.66821 15.2034V33.043C9.66821 36.0327 12.0918 38.4563 15.0815 38.4563H32.9212C35.9109 38.4563 38.3345 36.0327 38.3345 33.043V15.2034C38.3345 12.2137 35.9109 9.79004 32.9212 9.79004Z" fill="#DEE4F3"/>
<path d="M26.2141 18.01V19.2145C26.2141 22.0781 26.2141 24.9427 26.2141 27.8081C26.232 28.2899 26.2021 28.7722 26.1248 29.2481C25.8162 30.7178 24.8878 31.7112 23.5291 32.3256C23.1241 32.4958 22.7092 32.6413 22.2867 32.7613C22.035 32.8398 21.8888 32.7397 21.832 32.4907C21.8145 32.3933 21.8063 32.2945 21.8076 32.1956C21.8076 29.6433 21.8212 27.0936 21.8076 24.5412C21.7996 23.8216 21.9473 23.1088 22.2407 22.4516C22.8673 21.0091 23.8033 19.7219 24.9825 18.6813C25.3221 18.3465 25.7488 18.114 26.2141 18.01Z" fill="#1F157C"/>
<path d="M21.7859 15.3169C21.7986 17.2747 21.8112 19.2307 21.8238 21.1849C22.9285 19.7196 24.4635 18.6361 26.2141 18.0858V15.3169H21.7859Z" fill="#FDAF17"/>
</svg>
