<svg width="96" height="128" viewBox="0 0 96 128" fill="none" xmlns="http://www.w3.org/2000/svg">
<rect width="96" height="96" rx="48" fill="#F4F6F8"/>
<path d="M71.0933 48.9094C71.3366 48.9094 71.57 48.8128 71.7421 48.6407C71.9142 48.4686 72.0108 48.2352 72.0108 47.9919C72.0108 47.7485 71.9142 47.5151 71.7421 47.3431C71.57 47.171 71.3366 47.0743 71.0933 47.0743H68.6573V44.0158H71.0933C71.3366 44.0158 71.57 43.9191 71.7421 43.747C71.9142 43.575 72.0108 43.3416 72.0108 43.0982C72.0108 42.8549 71.9142 42.6215 71.7421 42.4494C71.57 42.2773 71.3366 42.1807 71.0933 42.1807H68.6573V32.7669C68.6573 31.3312 68.0869 29.9543 67.0717 28.9391C66.0565 27.9239 64.6796 27.3536 63.2439 27.3536H53.4999V24.9176C53.4999 24.6742 53.4033 24.4408 53.2312 24.2687C53.0591 24.0967 52.8257 24 52.5824 24C52.339 24 52.1056 24.0967 51.9336 24.2687C51.7615 24.4408 51.6648 24.6742 51.6648 24.9176V27.3536H48.6063V24.9176C48.6063 24.6742 48.5096 24.4408 48.3375 24.2687C48.1655 24.0967 47.9321 24 47.6887 24C47.4454 24 47.212 24.0967 47.0399 24.2687C46.8678 24.4408 46.7712 24.6742 46.7712 24.9176V27.3536H43.7126V24.9176C43.7126 24.6742 43.616 24.4408 43.4439 24.2687C43.2718 24.0967 43.0384 24 42.7951 24C42.5517 24 42.3183 24.0967 42.1463 24.2687C41.9742 24.4408 41.8775 24.6742 41.8775 24.9176V27.3536H32.7669C31.3312 27.3536 29.9543 27.9239 28.9391 28.9391C27.9239 29.9543 27.3536 31.3312 27.3536 32.7669V42.1753H24.9176C24.6742 42.1753 24.4408 42.2719 24.2687 42.444C24.0967 42.6161 24 42.8495 24 43.0928C24 43.3362 24.0967 43.5696 24.2687 43.7416C24.4408 43.9137 24.6742 44.0104 24.9176 44.0104H27.3536V47.0689H24.9176C24.6742 47.0689 24.4408 47.1656 24.2687 47.3377C24.0967 47.5097 24 47.7431 24 47.9865C24 48.2298 24.0967 48.4632 24.2687 48.6353C24.4408 48.8074 24.6742 48.904 24.9176 48.904H27.3536V51.9626H24.9176C24.6742 51.9626 24.4408 52.0592 24.2687 52.2313C24.0967 52.4034 24 52.6368 24 52.8801C24 53.1235 24.0967 53.3569 24.2687 53.5289C24.4408 53.701 24.6742 53.7977 24.9176 53.7977H27.3536V63.2331C27.3536 64.6688 27.9239 66.0457 28.9391 67.0609C29.9543 68.0761 31.3312 68.6464 32.7669 68.6464H41.8775V71.0824C41.8775 71.3258 41.9742 71.5592 42.1463 71.7313C42.3183 71.9033 42.5517 72 42.7951 72C43.0384 72 43.2718 71.9033 43.4439 71.7313C43.616 71.5592 43.7126 71.3258 43.7126 71.0824V68.6464H46.7712V71.0824C46.7712 71.3258 46.8678 71.5592 47.0399 71.7313C47.212 71.9033 47.4454 72 47.6887 72C47.9321 72 48.1655 71.9033 48.3375 71.7313C48.5096 71.5592 48.6063 71.3258 48.6063 71.0824V68.6464H51.6648V71.0824C51.6648 71.3258 51.7615 71.5592 51.9336 71.7313C52.1056 71.9033 52.339 72 52.5824 72C52.8257 72 53.0591 71.9033 53.2312 71.7313C53.4033 71.5592 53.4999 71.3258 53.4999 71.0824V68.6464H63.2439C64.6796 68.6464 66.0565 68.0761 67.0717 67.0609C68.0869 66.0457 68.6573 64.6688 68.6573 63.2331V53.8139H71.0933C71.3366 53.8139 71.57 53.7172 71.7421 53.5452C71.9142 53.3731 72.0108 53.1397 72.0108 52.8964C72.0108 52.653 71.9142 52.4196 71.7421 52.2475C71.57 52.0755 71.3366 51.9788 71.0933 51.9788H68.6573V48.9203L71.0933 48.9094Z" fill="#1F157C"/>
<path d="M56.9212 33.79H39.0815C36.0918 33.79 33.6682 36.2137 33.6682 39.2034V57.043C33.6682 60.0327 36.0918 62.4563 39.0815 62.4563H56.9212C59.9109 62.4563 62.3345 60.0327 62.3345 57.043V39.2034C62.3345 36.2137 59.9109 33.79 56.9212 33.79Z" fill="#DEE4F3"/>
<path d="M50.2141 42.01V43.2145C50.2141 46.0781 50.2141 48.9427 50.2141 51.8081C50.232 52.2899 50.2021 52.7722 50.1248 53.2481C49.8162 54.7178 48.8878 55.7112 47.5291 56.3256C47.1241 56.4958 46.7092 56.6413 46.2867 56.7613C46.035 56.8398 45.8888 56.7397 45.832 56.4907C45.8145 56.3933 45.8063 56.2945 45.8076 56.1956C45.8076 53.6433 45.8212 51.0936 45.8076 48.5412C45.7996 47.8216 45.9473 47.1088 46.2407 46.4516C46.8673 45.0091 47.8033 43.7219 48.9825 42.6813C49.3221 42.3465 49.7488 42.114 50.2141 42.01Z" fill="#1F157C"/>
<path d="M45.7859 39.3169C45.7986 41.2747 45.8112 43.2307 45.8238 45.1849C46.9285 43.7196 48.4635 42.6361 50.2141 42.0858V39.3169H45.7859Z" fill="#FDAF17"/>
<path d="M39.058 115.376C38.6007 115.376 38.1947 115.46 37.84 115.628C37.4853 115.796 37.182 116.039 36.93 116.356C36.6873 116.673 36.5007 117.056 36.37 117.504C36.2487 117.952 36.188 118.456 36.188 119.016C36.188 119.772 36.2907 120.421 36.496 120.962C36.7013 121.494 37.014 121.905 37.434 122.194C37.8633 122.483 38.4 122.628 39.044 122.628C39.4733 122.628 39.884 122.586 40.276 122.502C40.6773 122.409 41.0973 122.287 41.536 122.138V123.664C41.1253 123.832 40.71 123.953 40.29 124.028C39.8793 124.103 39.4033 124.14 38.862 124.14C37.8353 124.14 36.986 123.93 36.314 123.51C35.642 123.081 35.1427 122.483 34.816 121.718C34.4893 120.943 34.326 120.038 34.326 119.002C34.326 118.246 34.4287 117.555 34.634 116.93C34.8487 116.305 35.152 115.763 35.544 115.306C35.9453 114.849 36.44 114.494 37.028 114.242C37.616 113.99 38.2927 113.864 39.058 113.864C39.562 113.864 40.0567 113.925 40.542 114.046C41.0367 114.158 41.4987 114.317 41.928 114.522L41.312 115.992C40.9573 115.833 40.5887 115.693 40.206 115.572C39.8327 115.441 39.45 115.376 39.058 115.376ZM46.6707 114.004C47.9681 114.004 48.9107 114.275 49.4987 114.816C50.0961 115.357 50.3947 116.104 50.3947 117.056C50.3947 117.485 50.3294 117.896 50.1987 118.288C50.0681 118.671 49.8487 119.016 49.5407 119.324C49.2327 119.632 48.8267 119.875 48.3227 120.052C47.8281 120.229 47.2121 120.318 46.4747 120.318H45.4807V124H43.6887V114.004H46.6707ZM46.5587 115.488H45.4807V118.834H46.2927C46.7781 118.834 47.1887 118.778 47.5247 118.666C47.8701 118.545 48.1314 118.358 48.3087 118.106C48.4861 117.854 48.5747 117.527 48.5747 117.126C48.5747 116.575 48.4114 116.165 48.0847 115.894C47.7581 115.623 47.2494 115.488 46.5587 115.488ZM60.2807 120.472C60.2807 121.163 60.1314 121.788 59.8327 122.348C59.5434 122.899 59.1 123.337 58.5027 123.664C57.9054 123.981 57.1494 124.14 56.2347 124.14C54.9374 124.14 53.9527 123.804 53.2807 123.132C52.6087 122.451 52.2727 121.555 52.2727 120.444V114.004H54.0647V120.262C54.0647 121.074 54.2514 121.671 54.6247 122.054C54.998 122.427 55.5534 122.614 56.2907 122.614C56.8134 122.614 57.2334 122.525 57.5507 122.348C57.8774 122.171 58.1154 121.905 58.2647 121.55C58.4234 121.186 58.5027 120.752 58.5027 120.248V114.004H60.2807V120.472Z" fill="#221690"/>
</svg>
