<svg width="96" height="128" viewBox="0 0 96 128" fill="none" xmlns="http://www.w3.org/2000/svg">
<rect width="96" height="96" rx="48" fill="#F4F6F8"/>
<path d="M62.1046 24H34.3164C30.8279 24 28 26.8279 28 30.3164V65.6836C28 69.1721 30.8279 72 34.3164 72H62.1046C65.593 72 68.4209 69.1721 68.4209 65.6836V30.3164C68.4209 26.8279 65.593 24 62.1046 24Z" fill="#1F157C"/>
<path d="M57.0509 24.0054V29.1463C57.0513 29.5611 56.9699 29.972 56.8113 30.3553C56.6527 30.7386 56.4201 31.0869 56.1267 31.3803C55.8334 31.6736 55.4851 31.9062 55.1018 32.0648C54.7184 32.2234 54.3076 32.3048 53.8928 32.3045H42.5255C41.6879 32.3045 40.8846 31.9717 40.2923 31.3795C39.7 30.7872 39.3673 29.9839 39.3673 29.1463V24.0054H57.0509Z" fill="#DEE4F3"/>
<path d="M43.3546 24.0054V28.8872C43.3609 28.9948 43.3452 29.1025 43.3083 29.2038C43.2715 29.3051 43.2144 29.3978 43.1405 29.4762C43.0665 29.5546 42.9773 29.6171 42.8784 29.6598C42.7794 29.7025 42.6728 29.7245 42.565 29.7245C42.4572 29.7245 42.3506 29.7025 42.2517 29.6598C42.1527 29.6171 42.0635 29.5546 41.9896 29.4762C41.9157 29.3978 41.8585 29.3051 41.8217 29.2038C41.7849 29.1025 41.7691 28.9948 41.7755 28.8872V24.0054H43.3546Z" fill="#1F157C"/>
<path d="M47.1019 24.0054V28.8872C47.1082 28.9948 47.0925 29.1025 47.0556 29.2038C47.0188 29.3051 46.9617 29.3978 46.8878 29.4762C46.8138 29.5546 46.7246 29.6171 46.6257 29.6598C46.5267 29.7025 46.4201 29.7245 46.3123 29.7245C46.2045 29.7245 46.0979 29.7025 45.999 29.6598C45.9 29.6171 45.8108 29.5546 45.7369 29.4762C45.663 29.3978 45.6058 29.3051 45.569 29.2038C45.5322 29.1025 45.5165 28.9948 45.5228 28.8872V24.0054H47.1019Z" fill="#1F157C"/>
<path d="M50.8491 24.0054V28.8872C50.8491 29.0962 50.766 29.2967 50.6182 29.4445C50.4704 29.5923 50.2699 29.6754 50.0609 29.6754C49.8518 29.6754 49.6514 29.5923 49.5036 29.4445C49.3557 29.2967 49.2727 29.0962 49.2727 28.8872V24.0054H50.8491Z" fill="#1F157C"/>
<path d="M54.5991 24.0054V28.8872C54.6055 28.9948 54.5897 29.1025 54.5529 29.2038C54.5161 29.3051 54.459 29.3978 54.385 29.4762C54.3111 29.5546 54.2219 29.6171 54.123 29.6598C54.024 29.7025 53.9173 29.7245 53.8096 29.7245C53.7018 29.7245 53.5952 29.7025 53.4962 29.6598C53.3973 29.6171 53.3081 29.5546 53.2341 29.4762C53.1602 29.3978 53.1031 29.3051 53.0663 29.2038C53.0294 29.1025 53.0137 28.9948 53.02 28.8872V24.0054H54.5991Z" fill="#1F157C"/>
<path d="M48.1846 64.5438C55.8001 64.5438 61.9737 58.3702 61.9737 50.7547C61.9737 43.1392 55.8001 36.9656 48.1846 36.9656C40.5691 36.9656 34.3955 43.1392 34.3955 50.7547C34.3955 58.3702 40.5691 64.5438 48.1846 64.5438Z" fill="#DEE4F3"/>
<path d="M49.8618 46.1672C49.8618 46.4891 49.8618 46.7863 49.8618 47.0809C49.8618 49.2627 49.8618 51.4354 49.8618 53.5991C49.8773 53.9641 49.8545 54.3297 49.7937 54.69C49.6854 55.2117 49.449 55.6983 49.1057 56.1059C48.7624 56.5135 48.3231 56.8292 47.8273 57.0245C47.5199 57.154 47.2047 57.2642 46.8837 57.3545C46.6927 57.4145 46.5809 57.3381 46.54 57.1445C46.5254 57.07 46.519 56.9941 46.5209 56.9181C46.5209 54.9845 46.5209 53.0481 46.5209 51.1145C46.5134 50.5688 46.6251 50.028 46.8482 49.53C47.3239 48.4354 48.0343 47.4587 48.9291 46.6691C49.1865 46.4172 49.5098 46.2432 49.8618 46.1672Z" fill="#1F157C"/>
<path d="M46.5046 44.1272L46.5346 48.5754C47.0381 47.9104 47.6604 47.3445 48.37 46.9063C48.8374 46.6185 49.3384 46.3895 49.8618 46.2245V44.1272H46.5046Z" fill="#FDAF17"/>
<path d="M19.282 124H17.49V119.562H13.094V124H11.302V114.004H13.094V118.036H17.49V114.004H19.282V124ZM28.058 124L27.148 121.354H23.382L22.486 124H20.582L24.25 113.962H26.294L29.962 124H28.058ZM25.818 117.238C25.7807 117.107 25.7247 116.93 25.65 116.706C25.5754 116.482 25.5007 116.253 25.426 116.02C25.3607 115.777 25.3094 115.577 25.272 115.418C25.2254 115.605 25.1647 115.819 25.09 116.062C25.0247 116.305 24.9594 116.533 24.894 116.748C24.838 116.963 24.7914 117.126 24.754 117.238L23.872 119.814H26.686L25.818 117.238ZM34.1186 114.004C34.9959 114.004 35.7193 114.111 36.2886 114.326C36.8579 114.541 37.2826 114.867 37.5626 115.306C37.8426 115.735 37.9826 116.281 37.9826 116.944C37.9826 117.429 37.8893 117.845 37.7026 118.19C37.5253 118.535 37.2919 118.825 37.0026 119.058C36.7133 119.282 36.4006 119.464 36.0646 119.604L38.9346 124H36.9186L34.5246 120.052H33.0686V124H31.2766V114.004H34.1186ZM34.0066 115.502H33.0686V118.582H34.0626C34.7999 118.582 35.3319 118.451 35.6586 118.19C35.9946 117.919 36.1626 117.523 36.1626 117C36.1626 116.636 36.0833 116.347 35.9246 116.132C35.7659 115.908 35.5279 115.749 35.2106 115.656C34.9026 115.553 34.5013 115.502 34.0066 115.502ZM48.5034 118.904C48.5034 120.024 48.2887 120.962 47.8594 121.718C47.4394 122.474 46.8281 123.043 46.0254 123.426C45.2321 123.809 44.2707 124 43.1414 124H40.3274V114.004H43.4354C44.4714 114.004 45.3674 114.191 46.1234 114.564C46.8794 114.937 47.4627 115.488 47.8734 116.216C48.2934 116.935 48.5034 117.831 48.5034 118.904ZM46.6274 118.96C46.6274 118.167 46.5061 117.513 46.2634 117C46.0207 116.487 45.6614 116.109 45.1854 115.866C44.7094 115.614 44.1261 115.488 43.4354 115.488H42.1194V122.502H43.1974C44.3547 122.502 45.2134 122.208 45.7734 121.62C46.3427 121.023 46.6274 120.136 46.6274 118.96ZM62.4487 118.904C62.4487 120.024 62.234 120.962 61.8047 121.718C61.3847 122.474 60.7734 123.043 59.9707 123.426C59.1774 123.809 58.216 124 57.0867 124H54.2727V114.004H57.3807C58.4167 114.004 59.3127 114.191 60.0687 114.564C60.8247 114.937 61.408 115.488 61.8187 116.216C62.2387 116.935 62.4487 117.831 62.4487 118.904ZM60.5727 118.96C60.5727 118.167 60.4514 117.513 60.2087 117C59.966 116.487 59.6067 116.109 59.1307 115.866C58.6547 115.614 58.0714 115.488 57.3807 115.488H56.0647V122.502H57.1427C58.3 122.502 59.1587 122.208 59.7187 121.62C60.288 121.023 60.5727 120.136 60.5727 118.96ZM67.9693 124H63.7693V122.978L64.9733 122.53V115.488L63.7693 115.026V114.004H67.9693V115.026L66.7653 115.488V122.53L67.9693 122.978V124ZM75.5729 121.27C75.5729 121.858 75.4283 122.367 75.1389 122.796C74.8496 123.225 74.4296 123.557 73.8789 123.79C73.3376 124.023 72.6889 124.14 71.9329 124.14C71.5689 124.14 71.2189 124.117 70.8829 124.07C70.5563 124.033 70.2436 123.972 69.9449 123.888C69.6556 123.804 69.3849 123.701 69.1329 123.58V121.9C69.5529 122.087 70.0149 122.259 70.5189 122.418C71.0229 122.567 71.5363 122.642 72.0589 122.642C72.4603 122.642 72.7869 122.591 73.0389 122.488C73.3003 122.376 73.4916 122.227 73.6129 122.04C73.7343 121.844 73.7949 121.62 73.7949 121.368C73.7949 121.088 73.7156 120.85 73.5569 120.654C73.3983 120.458 73.1649 120.276 72.8569 120.108C72.5489 119.94 72.1663 119.763 71.7089 119.576C71.4009 119.445 71.0976 119.301 70.7989 119.142C70.5096 118.974 70.2483 118.773 70.0149 118.54C69.7816 118.307 69.5949 118.031 69.4549 117.714C69.3149 117.397 69.2449 117.023 69.2449 116.594C69.2449 116.025 69.3803 115.535 69.6509 115.124C69.9309 114.713 70.3183 114.401 70.8129 114.186C71.3169 113.971 71.9003 113.864 72.5629 113.864C73.0949 113.864 73.5943 113.92 74.0609 114.032C74.5276 114.144 74.9896 114.303 75.4469 114.508L74.8729 115.95C74.4623 115.773 74.0656 115.633 73.6829 115.53C73.3003 115.427 72.9083 115.376 72.5069 115.376C72.1896 115.376 71.9189 115.427 71.6949 115.53C71.4709 115.623 71.3029 115.759 71.1909 115.936C71.0789 116.113 71.0229 116.319 71.0229 116.552C71.0229 116.823 71.0929 117.051 71.2329 117.238C71.3729 117.425 71.5876 117.602 71.8769 117.77C72.1756 117.929 72.5583 118.111 73.0249 118.316C73.5663 118.549 74.0236 118.792 74.3969 119.044C74.7703 119.296 75.0596 119.599 75.2649 119.954C75.4703 120.309 75.5729 120.747 75.5729 121.27ZM85.2162 124H83.1582L80.1902 119.576L79.2522 120.318V124H77.4602V114.004H79.2522V118.708C79.4389 118.475 79.6302 118.237 79.8262 117.994C80.0222 117.751 80.2182 117.509 80.4142 117.266L83.1162 114.004H85.1462L81.4782 118.4L85.2162 124Z" fill="#221690"/>
</svg>
