<svg width="41" height="48" viewBox="0 0 41 48" fill="none" xmlns="http://www.w3.org/2000/svg">
<path d="M34.1046 0H6.31636C2.82793 0 0 2.82793 0 6.31636V41.6836C0 45.1721 2.82793 48 6.31636 48H34.1046C37.593 48 40.4209 45.1721 40.4209 41.6836V6.31636C40.4209 2.82793 37.593 0 34.1046 0Z" fill="#1F157C"/>
<path d="M29.0509 0.00537109V5.14628C29.0513 5.56112 28.9699 5.97196 28.8113 6.35529C28.6527 6.73862 28.4201 7.08692 28.1267 7.38025C27.8334 7.67359 27.4851 7.9062 27.1018 8.06479C26.7184 8.22338 26.3076 8.30482 25.8928 8.30446H14.5255C13.6879 8.30446 12.8846 7.97173 12.2923 7.37945C11.7 6.78718 11.3673 5.98388 11.3673 5.14628V0.00537109H29.0509Z" fill="#DEE4F3"/>
<path d="M15.3546 0.00537109V4.88719C15.3609 4.99478 15.3452 5.10252 15.3083 5.20381C15.2715 5.3051 15.2144 5.3978 15.1405 5.47621C15.0665 5.55462 14.9773 5.61709 14.8784 5.6598C14.7794 5.7025 14.6728 5.72452 14.565 5.72452C14.4572 5.72452 14.3506 5.7025 14.2517 5.6598C14.1527 5.61709 14.0635 5.55462 13.9896 5.47621C13.9157 5.3978 13.8585 5.3051 13.8217 5.20381C13.7849 5.10252 13.7691 4.99478 13.7755 4.88719V0.00537109H15.3546Z" fill="#1F157C"/>
<path d="M19.1019 0.00537109V4.88719C19.1082 4.99478 19.0925 5.10252 19.0556 5.20381C19.0188 5.3051 18.9617 5.3978 18.8878 5.47621C18.8138 5.55462 18.7246 5.61709 18.6257 5.6598C18.5267 5.7025 18.4201 5.72452 18.3123 5.72452C18.2045 5.72452 18.0979 5.7025 17.999 5.6598C17.9 5.61709 17.8108 5.55462 17.7369 5.47621C17.663 5.3978 17.6058 5.3051 17.569 5.20381C17.5322 5.10252 17.5165 4.99478 17.5228 4.88719V0.00537109H19.1019Z" fill="#1F157C"/>
<path d="M22.8491 0.00537109V4.88719C22.8491 5.09623 22.766 5.29671 22.6182 5.44452C22.4704 5.59233 22.2699 5.67537 22.0609 5.67537C21.8518 5.67537 21.6514 5.59233 21.5036 5.44452C21.3557 5.29671 21.2727 5.09623 21.2727 4.88719V0.00537109H22.8491Z" fill="#1F157C"/>
<path d="M26.5991 0.00537109V4.88719C26.6055 4.99478 26.5897 5.10252 26.5529 5.20381C26.5161 5.3051 26.459 5.3978 26.385 5.47621C26.3111 5.55462 26.2219 5.61709 26.123 5.6598C26.024 5.7025 25.9173 5.72452 25.8096 5.72452C25.7018 5.72452 25.5952 5.7025 25.4962 5.6598C25.3973 5.61709 25.3081 5.55462 25.2341 5.47621C25.1602 5.3978 25.1031 5.3051 25.0663 5.20381C25.0294 5.10252 25.0137 4.99478 25.02 4.88719V0.00537109H26.5991Z" fill="#1F157C"/>
<path d="M20.1846 40.5438C27.8001 40.5438 33.9737 34.3702 33.9737 26.7547C33.9737 19.1392 27.8001 12.9656 20.1846 12.9656C12.5691 12.9656 6.39551 19.1392 6.39551 26.7547C6.39551 34.3702 12.5691 40.5438 20.1846 40.5438Z" fill="#DEE4F3"/>
<path d="M21.8618 22.1672C21.8618 22.4891 21.8618 22.7863 21.8618 23.0809C21.8618 25.2627 21.8618 27.4354 21.8618 29.5991C21.8773 29.9641 21.8545 30.3297 21.7937 30.69C21.6854 31.2117 21.449 31.6983 21.1057 32.1059C20.7624 32.5135 20.3231 32.8292 19.8273 33.0245C19.5199 33.154 19.2047 33.2642 18.8837 33.3545C18.6927 33.4145 18.5809 33.3381 18.54 33.1445C18.5254 33.07 18.519 32.9941 18.5209 32.9181C18.5209 30.9845 18.5209 29.0481 18.5209 27.1145C18.5134 26.5688 18.6251 26.028 18.8482 25.53C19.3239 24.4354 20.0343 23.4587 20.9291 22.6691C21.1865 22.4172 21.5098 22.2432 21.8618 22.1672Z" fill="#1F157C"/>
<path d="M18.5046 20.1272L18.5346 24.5754C19.0381 23.9104 19.6604 23.3445 20.37 22.9063C20.8374 22.6185 21.3384 22.3895 21.8618 22.2245V20.1272H18.5046Z" fill="#FDAF17"/>
</svg>
