<svg width="49" height="48" viewBox="0 0 49 48" fill="none" xmlns="http://www.w3.org/2000/svg">
<path d="M47.0933 24.9094C47.2138 24.9094 47.3331 24.8857 47.4444 24.8396C47.5557 24.7935 47.6569 24.7259 47.7421 24.6407C47.8273 24.5555 47.8949 24.4543 47.941 24.343C47.9871 24.2317 48.0108 24.1124 48.0108 23.9919C48.0108 23.8714 47.9871 23.7521 47.941 23.6407C47.8949 23.5294 47.8273 23.4283 47.7421 23.3431C47.6569 23.2579 47.5557 23.1903 47.4444 23.1442C47.3331 23.0981 47.2138 23.0743 47.0933 23.0743H44.6573V20.0158H47.0933C47.3366 20.0158 47.57 19.9191 47.7421 19.747C47.9142 19.575 48.0108 19.3416 48.0108 19.0982C48.0108 18.8549 47.9142 18.6215 47.7421 18.4494C47.57 18.2773 47.3366 18.1807 47.0933 18.1807H44.6573V8.76689C44.6573 7.33119 44.0869 5.95428 43.0717 4.93909C42.0565 3.92389 40.6796 3.35356 39.2439 3.35356H29.4999V0.917563C29.4999 0.674212 29.4033 0.440826 29.2312 0.26875C29.0591 0.0966744 28.8257 0 28.5824 0C28.339 0 28.1056 0.0966744 27.9336 0.26875C27.7615 0.440826 27.6648 0.674212 27.6648 0.917563V3.35356H24.6063V0.917563C24.6063 0.674212 24.5096 0.440826 24.3375 0.26875C24.1655 0.0966744 23.9321 0 23.6887 0C23.4454 0 23.212 0.0966744 23.0399 0.26875C22.8678 0.440826 22.7712 0.674212 22.7712 0.917563V3.35356H19.7126V0.917563C19.7126 0.674212 19.616 0.440826 19.4439 0.26875C19.2718 0.0966744 19.0384 0 18.7951 0C18.5517 0 18.3183 0.0966744 18.1463 0.26875C17.9742 0.440826 17.8775 0.674212 17.8775 0.917563V3.35356H8.76689C7.33118 3.35356 5.95428 3.92389 4.93909 4.93909C3.92389 5.95428 3.35356 7.33119 3.35356 8.76689V18.1807H0.917559C0.674207 18.1807 0.440823 18.2773 0.268747 18.4494C0.0966713 18.6215 0 18.8549 0 19.0982C0 19.3416 0.0966713 19.575 0.268747 19.747C0.440823 19.9191 0.674207 20.0158 0.917559 20.0158H3.35356V23.0743H0.917559C0.674207 23.0743 0.440823 23.171 0.268747 23.3431C0.0966713 23.5151 0 23.7485 0 23.9919C0 24.2352 0.0966713 24.4686 0.268747 24.6407C0.440823 24.8128 0.674207 24.9094 0.917559 24.9094H3.35356V27.968H0.917559C0.674207 27.968 0.440823 28.0646 0.268747 28.2367C0.0966713 28.4088 0 28.6422 0 28.8855C0 29.1289 0.0966713 29.3623 0.268747 29.5343C0.440823 29.7064 0.674207 29.8031 0.917559 29.8031H3.35356V39.2331C3.35356 40.6688 3.92389 42.0457 4.93909 43.0609C5.95428 44.0761 7.33118 44.6464 8.76689 44.6464H17.8775V47.0824C17.8775 47.3258 17.9742 47.5592 18.1463 47.7313C18.3183 47.9033 18.5517 48 18.7951 48C19.0384 48 19.2718 47.9033 19.4439 47.7313C19.616 47.5592 19.7126 47.3258 19.7126 47.0824V44.6464H22.7712V47.0824C22.7712 47.3258 22.8678 47.5592 23.0399 47.7313C23.212 47.9033 23.4454 48 23.6887 48C23.9321 48 24.1655 47.9033 24.3375 47.7313C24.5096 47.5592 24.6063 47.3258 24.6063 47.0824V44.6464H27.6648V47.0824C27.6648 47.3258 27.7615 47.5592 27.9336 47.7313C28.1056 47.9033 28.339 48 28.5824 48C28.8257 48 29.0591 47.9033 29.2312 47.7313C29.4033 47.5592 29.4999 47.3258 29.4999 47.0824V44.6464H39.2439C40.6796 44.6464 42.0565 44.0761 43.0717 43.0609C44.0869 42.0457 44.6573 40.6688 44.6573 39.2331V29.8031H47.0933C47.3366 29.8031 47.57 29.7064 47.7421 29.5343C47.9142 29.3623 48.0108 29.1289 48.0108 28.8855C48.0108 28.6422 47.9142 28.4088 47.7421 28.2367C47.57 28.0646 47.3366 27.968 47.0933 27.968H44.6573V24.9094H47.0933Z" fill="#1F157C"/>
<path d="M32.9212 9.66821H15.0815C12.0918 9.66821 9.66821 12.0918 9.66821 15.0815V32.9212C9.66821 35.9109 12.0918 38.3345 15.0815 38.3345H32.9212C35.9109 38.3345 38.3345 35.9109 38.3345 32.9212V15.0815C38.3345 12.0918 35.9109 9.66821 32.9212 9.66821Z" fill="#DEE4F3"/>
<path d="M13.3492 18.7383H16.4836L19.0387 22.8849L21.591 18.7383H24.7281V29.4458H21.7751V23.2963L19.0387 27.4862H18.9764L16.2535 23.3261V29.4458H13.3492V18.7383Z" fill="#FDAF17"/>
<path d="M26.168 27.202L30.1739 24.1435C31.1699 23.3613 31.5516 22.8578 31.5516 22.2163C31.5516 21.5749 31.0779 21.1337 30.3579 21.1337C29.638 21.1337 29.075 21.5478 28.2332 22.5114L26.2303 20.8441C27.3752 19.3608 28.5093 18.5515 30.588 18.5515C32.9293 18.5515 34.5343 19.9427 34.5343 21.9619V21.9917C34.5343 23.705 33.6465 24.5901 32.055 25.7377L30.228 27.0288H34.648V29.4458H26.168V27.202Z" fill="#FDAF17"/>
</svg>
