<svg width="104" height="132" viewBox="0 0 104 132" fill="none" xmlns="http://www.w3.org/2000/svg">
<g filter="url(#filter0_d_1_2011)">
<rect x="4" y="4" width="96" height="96" rx="48" fill="#F4F6F8"/>
</g>
<path d="M75.0933 52.9094C75.2138 52.9094 75.3331 52.8857 75.4444 52.8396C75.5557 52.7935 75.6569 52.7259 75.7421 52.6407C75.8273 52.5555 75.8949 52.4543 75.941 52.343C75.9871 52.2317 76.0108 52.1124 76.0108 51.9919C76.0108 51.8714 75.9871 51.7521 75.941 51.6407C75.8949 51.5294 75.8273 51.4283 75.7421 51.3431C75.6569 51.2579 75.5557 51.1903 75.4444 51.1442C75.3331 51.0981 75.2138 51.0743 75.0933 51.0743H72.6573V48.0158H75.0933C75.3366 48.0158 75.57 47.9191 75.7421 47.747C75.9142 47.575 76.0108 47.3416 76.0108 47.0982C76.0108 46.8549 75.9142 46.6215 75.7421 46.4494C75.57 46.2773 75.3366 46.1807 75.0933 46.1807H72.6573V36.7669C72.6573 35.3312 72.0869 33.9543 71.0717 32.9391C70.0565 31.9239 68.6796 31.3536 67.2439 31.3536H57.4999V28.9176C57.4999 28.6742 57.4033 28.4408 57.2312 28.2688C57.0591 28.0967 56.8257 28 56.5824 28C56.339 28 56.1056 28.0967 55.9336 28.2688C55.7615 28.4408 55.6648 28.6742 55.6648 28.9176V31.3536H52.6063V28.9176C52.6063 28.6742 52.5096 28.4408 52.3375 28.2688C52.1655 28.0967 51.9321 28 51.6887 28C51.4454 28 51.212 28.0967 51.0399 28.2688C50.8678 28.4408 50.7712 28.6742 50.7712 28.9176V31.3536H47.7126V28.9176C47.7126 28.6742 47.616 28.4408 47.4439 28.2688C47.2718 28.0967 47.0384 28 46.7951 28C46.5517 28 46.3183 28.0967 46.1463 28.2688C45.9742 28.4408 45.8775 28.6742 45.8775 28.9176V31.3536H36.7669C35.3312 31.3536 33.9543 31.9239 32.9391 32.9391C31.9239 33.9543 31.3536 35.3312 31.3536 36.7669V46.1807H28.9176C28.6742 46.1807 28.4408 46.2773 28.2687 46.4494C28.0967 46.6215 28 46.8549 28 47.0982C28 47.3416 28.0967 47.575 28.2687 47.747C28.4408 47.9191 28.6742 48.0158 28.9176 48.0158H31.3536V51.0743H28.9176C28.6742 51.0743 28.4408 51.171 28.2687 51.3431C28.0967 51.5151 28 51.7485 28 51.9919C28 52.2352 28.0967 52.4686 28.2687 52.6407C28.4408 52.8128 28.6742 52.9094 28.9176 52.9094H31.3536V55.968H28.9176C28.6742 55.968 28.4408 56.0646 28.2687 56.2367C28.0967 56.4088 28 56.6422 28 56.8855C28 57.1289 28.0967 57.3623 28.2687 57.5343C28.4408 57.7064 28.6742 57.8031 28.9176 57.8031H31.3536V67.2331C31.3536 68.6688 31.9239 70.0457 32.9391 71.0609C33.9543 72.0761 35.3312 72.6464 36.7669 72.6464H45.8775V75.0824C45.8775 75.3258 45.9742 75.5592 46.1463 75.7313C46.3183 75.9033 46.5517 76 46.7951 76C47.0384 76 47.2718 75.9033 47.4439 75.7313C47.616 75.5592 47.7126 75.3258 47.7126 75.0824V72.6464H50.7712V75.0824C50.7712 75.3258 50.8678 75.5592 51.0399 75.7313C51.212 75.9033 51.4454 76 51.6887 76C51.9321 76 52.1655 75.9033 52.3375 75.7313C52.5096 75.5592 52.6063 75.3258 52.6063 75.0824V72.6464H55.6648V75.0824C55.6648 75.3258 55.7615 75.5592 55.9336 75.7313C56.1056 75.9033 56.339 76 56.5824 76C56.8257 76 57.0591 75.9033 57.2312 75.7313C57.4033 75.5592 57.4999 75.3258 57.4999 75.0824V72.6464H67.2439C68.6796 72.6464 70.0565 72.0761 71.0717 71.0609C72.0869 70.0457 72.6573 68.6688 72.6573 67.2331V57.8031H75.0933C75.3366 57.8031 75.57 57.7064 75.7421 57.5343C75.9142 57.3623 76.0108 57.1289 76.0108 56.8855C76.0108 56.6422 75.9142 56.4088 75.7421 56.2367C75.57 56.0646 75.3366 55.968 75.0933 55.968H72.6573V52.9094H75.0933Z" fill="#1F157C"/>
<path d="M60.9212 37.6682H43.0815C40.0918 37.6682 37.6682 40.0918 37.6682 43.0815V60.9212C37.6682 63.9109 40.0918 66.3345 43.0815 66.3345H60.9212C63.9109 66.3345 66.3345 63.9109 66.3345 60.9212V43.0815C66.3345 40.0918 63.9109 37.6682 60.9212 37.6682Z" fill="#DEE4F3"/>
<path d="M41.3492 46.7383H44.4836L47.0387 50.8849L49.591 46.7383H52.7281V57.4458H49.7751V51.2963L47.0387 55.4862H46.9764L44.2535 51.3261V57.4458H41.3492V46.7383Z" fill="#FDAF17"/>
<path d="M54.168 55.202L58.1739 52.1435C59.1699 51.3613 59.5516 50.8578 59.5516 50.2163C59.5516 49.5749 59.0779 49.1337 58.3579 49.1337C57.638 49.1337 57.075 49.5478 56.2332 50.5114L54.2303 48.8441C55.3752 47.3608 56.5093 46.5515 58.588 46.5515C60.9293 46.5515 62.5343 47.9427 62.5343 49.9619V49.9917C62.5343 51.705 61.6465 52.5901 60.055 53.7377L58.228 55.0288H62.648V57.4458H54.168V55.202Z" fill="#FDAF17"/>
<path d="M46.6 128L43.856 119.81H43.8C43.8093 119.997 43.8233 120.263 43.842 120.608C43.8607 120.944 43.8747 121.313 43.884 121.714C43.9027 122.106 43.912 122.475 43.912 122.82V128H42.302V118.004H44.794L47.426 125.858H47.482L50.226 118.004H52.718V128H51.01V122.736C51.01 122.419 51.0147 122.073 51.024 121.7C51.0427 121.317 51.0567 120.958 51.066 120.622C51.0847 120.277 51.0987 120.011 51.108 119.824H51.052L48.196 128H46.6ZM61.45 128H54.604V126.698L57.152 124.122C57.656 123.609 58.0666 123.17 58.384 122.806C58.7106 122.433 58.9486 122.087 59.098 121.77C59.2566 121.453 59.336 121.107 59.336 120.734C59.336 120.277 59.2053 119.936 58.944 119.712C58.6826 119.479 58.3373 119.362 57.908 119.362C57.488 119.362 57.096 119.451 56.732 119.628C56.368 119.796 55.99 120.039 55.598 120.356L54.632 119.194C54.912 118.951 55.2106 118.732 55.528 118.536C55.8453 118.331 56.2046 118.167 56.606 118.046C57.0073 117.925 57.474 117.864 58.006 117.864C58.65 117.864 59.2006 117.981 59.658 118.214C60.1246 118.438 60.484 118.751 60.736 119.152C60.988 119.553 61.114 120.02 61.114 120.552C61.114 121.093 61.0066 121.593 60.792 122.05C60.5773 122.507 60.2646 122.96 59.854 123.408C59.4526 123.847 58.972 124.332 58.412 124.864L56.83 126.39V126.474H61.45V128Z" fill="#221690"/>
<defs>
<filter id="filter0_d_1_2011" x="0" y="0" width="104" height="104" filterUnits="userSpaceOnUse" color-interpolation-filters="sRGB">
<feFlood flood-opacity="0" result="BackgroundImageFix"/>
<feColorMatrix in="SourceAlpha" type="matrix" values="0 0 0 0 0 0 0 0 0 0 0 0 0 0 0 0 0 0 127 0" result="hardAlpha"/>
<feOffset/>
<feGaussianBlur stdDeviation="2"/>
<feComposite in2="hardAlpha" operator="out"/>
<feColorMatrix type="matrix" values="0 0 0 0 0.839216 0 0 0 0 0.862745 0 0 0 0 0.921569 0 0 0 0.5 0"/>
<feBlend mode="normal" in2="BackgroundImageFix" result="effect1_dropShadow_1_2011"/>
<feBlend mode="normal" in="SourceGraphic" in2="effect1_dropShadow_1_2011" result="shape"/>
</filter>
</defs>
</svg>
