<svg width="48" height="48" viewBox="0 0 48 48" fill="none" xmlns="http://www.w3.org/2000/svg">
<path d="M41.6842 0H6.31579C2.82768 0 0 2.82768 0 6.31579V41.6842C0 45.1723 2.82768 48 6.31579 48H41.6842C45.1723 48 48 45.1723 48 41.6842V6.31579C48 2.82768 45.1723 0 41.6842 0Z" fill="#1F157C"/>
<path d="M40.0926 25.5789C40.5113 25.5789 40.913 25.4125 41.2091 25.1164C41.5052 24.8203 41.6715 24.4187 41.6715 24C41.6715 23.5812 41.5052 23.1796 41.2091 22.8835C40.913 22.5873 40.5113 22.421 40.0926 22.421H36.5242C36.4459 21.7805 36.3181 21.147 36.1421 20.5263H40.0926C40.5113 20.5263 40.913 20.3599 41.2091 20.0638C41.5052 19.7677 41.6715 19.3661 41.6715 18.9473C41.6715 18.5286 41.5052 18.1269 41.2091 17.8308C40.913 17.5347 40.5113 17.3684 40.0926 17.3684H34.7494C33.7172 15.7006 32.3119 14.2953 30.6442 13.2631V7.90732C30.6442 7.48855 30.4778 7.08695 30.1817 6.79084C29.8856 6.49473 29.484 6.32837 29.0652 6.32837C28.6465 6.32837 28.2448 6.49473 27.9487 6.79084C27.6526 7.08695 27.4863 7.48855 27.4863 7.90732V11.8547C26.8651 11.6794 26.2318 11.5506 25.5915 11.4694V7.90732C25.5915 7.48855 25.4252 7.08695 25.1291 6.79084C24.833 6.49473 24.4313 6.32837 24.0126 6.32837C23.5938 6.32837 23.1922 6.49473 22.8961 6.79084C22.6 7.08695 22.4336 7.48855 22.4336 7.90732V11.4694C21.7933 11.55 21.1599 11.6788 20.5389 11.8547V7.90732C20.5389 7.48855 20.3725 7.08695 20.0764 6.79084C19.7803 6.49473 19.3787 6.32837 18.9599 6.32837C18.5412 6.32837 18.1396 6.49473 17.8435 6.79084C17.5474 7.08695 17.381 7.48855 17.381 7.90732V13.2505C15.7077 14.281 14.2969 15.6864 13.26 17.3557H7.90732C7.48855 17.3557 7.08695 17.5221 6.79084 17.8182C6.49473 18.1143 6.32837 18.5159 6.32837 18.9347C6.32837 19.3534 6.49473 19.755 6.79084 20.0512C7.08695 20.3473 7.48855 20.5136 7.90732 20.5136H11.8547C11.6801 21.1348 11.5524 21.7681 11.4726 22.4084H7.90732C7.48855 22.4084 7.08695 22.5747 6.79084 22.8708C6.49473 23.1669 6.32837 23.5685 6.32837 23.9873C6.32837 24.4061 6.49473 24.8077 6.79084 25.1038C7.08695 25.3999 7.48855 25.5663 7.90732 25.5663H11.4821C11.5619 26.2065 11.6896 26.8399 11.8642 27.461H7.91679C7.49803 27.461 7.09642 27.6274 6.80031 27.9235C6.5042 28.2196 6.33784 28.6212 6.33784 29.0399C6.33784 29.4587 6.5042 29.8603 6.80031 30.1564C7.09642 30.4525 7.49803 30.6189 7.91679 30.6189H13.2568C14.2938 32.2882 15.7046 33.6936 17.3778 34.7242V40.0926C17.3778 40.5113 17.5442 40.9129 17.8403 41.2091C18.1364 41.5052 18.538 41.6715 18.9568 41.6715C19.3756 41.6715 19.7772 41.5052 20.0733 41.2091C20.3694 40.9129 20.5357 40.5113 20.5357 40.0926V36.1452C21.1567 36.3211 21.7901 36.4499 22.4305 36.5305V40.0926C22.4305 40.5113 22.5968 40.9129 22.8929 41.2091C23.189 41.5052 23.5907 41.6715 24.0094 41.6715C24.4282 41.6715 24.8298 41.5052 25.1259 41.2091C25.422 40.9129 25.5884 40.5113 25.5884 40.0926V36.5305C26.2286 36.4493 26.862 36.3205 27.4831 36.1452V40.0926C27.4831 40.5113 27.6495 40.9129 27.9456 41.2091C28.2417 41.5052 28.6433 41.6715 29.0621 41.6715C29.4808 41.6715 29.8824 41.5052 30.1785 41.2091C30.4747 40.9129 30.641 40.5113 30.641 40.0926V34.7494C32.308 33.7163 33.7132 32.3112 34.7463 30.6442H40.0926C40.5113 30.6442 40.913 30.4778 41.2091 30.1817C41.5052 29.8856 41.6715 29.484 41.6715 29.0652C41.6715 28.6464 41.5052 28.2448 41.2091 27.9487C40.913 27.6526 40.5113 27.4863 40.0926 27.4863H36.1421C36.3181 26.8655 36.4459 26.232 36.5242 25.5915L40.0926 25.5789Z" fill="#DEE4F3"/>
<path d="M23.9999 36.78C31.0581 36.78 36.7799 31.0582 36.7799 24C36.7799 16.9418 31.0581 11.22 23.9999 11.22C16.9417 11.22 11.2199 16.9418 11.2199 24C11.2199 31.0582 16.9417 36.78 23.9999 36.78Z" fill="#DEE4F3"/>
<path d="M27.1674 19.5474H20.8326C20.1228 19.5474 19.5474 20.1228 19.5474 20.8326V27.1674C19.5474 27.8772 20.1228 28.4526 20.8326 28.4526H27.1674C27.8772 28.4526 28.4526 27.8772 28.4526 27.1674V20.8326C28.4526 20.1228 27.8772 19.5474 27.1674 19.5474Z" fill="#FDAF17"/>
</svg>
