<svg width="96" height="128" viewBox="0 0 96 128" fill="none" xmlns="http://www.w3.org/2000/svg">
<rect width="96" height="96" rx="48" fill="#F4F6F8"/>
<path d="M65.6842 24H30.3158C26.8277 24 24 26.8277 24 30.3158V65.6842C24 69.1723 26.8277 72 30.3158 72H65.6842C69.1723 72 72 69.1723 72 65.6842V30.3158C72 26.8277 69.1723 24 65.6842 24Z" fill="#1F157C"/>
<path d="M64.0926 49.5789C64.5113 49.5789 64.913 49.4125 65.2091 49.1164C65.5052 48.8203 65.6715 48.4187 65.6715 48C65.6715 47.5812 65.5052 47.1796 65.2091 46.8835C64.913 46.5873 64.5113 46.421 64.0926 46.421H60.5242C60.4459 45.7805 60.3181 45.147 60.1421 44.5263H64.0926C64.5113 44.5263 64.913 44.3599 65.2091 44.0638C65.5052 43.7677 65.6715 43.3661 65.6715 42.9473C65.6715 42.5286 65.5052 42.1269 65.2091 41.8308C64.913 41.5347 64.5113 41.3684 64.0926 41.3684H58.7494C57.7172 39.7006 56.3119 38.2953 54.6442 37.2631V31.9073C54.6442 31.4886 54.4778 31.0869 54.1817 30.7908C53.8856 30.4947 53.484 30.3284 53.0652 30.3284C52.6465 30.3284 52.2448 30.4947 51.9487 30.7908C51.6526 31.0869 51.4863 31.4886 51.4863 31.9073V35.8547C50.8651 35.6794 50.2318 35.5506 49.5915 35.4694V31.9073C49.5915 31.4886 49.4252 31.0869 49.1291 30.7908C48.833 30.4947 48.4313 30.3284 48.0126 30.3284C47.5938 30.3284 47.1922 30.4947 46.8961 30.7908C46.6 31.0869 46.4336 31.4886 46.4336 31.9073V35.4694C45.7933 35.55 45.1599 35.6788 44.5389 35.8547V31.9073C44.5389 31.4886 44.3725 31.0869 44.0764 30.7908C43.7803 30.4947 43.3787 30.3284 42.9599 30.3284C42.5412 30.3284 42.1396 30.4947 41.8435 30.7908C41.5474 31.0869 41.381 31.4886 41.381 31.9073V37.2505C39.7077 38.281 38.2969 39.6864 37.26 41.3557H31.9073C31.4886 41.3557 31.0869 41.5221 30.7908 41.8182C30.4947 42.1143 30.3284 42.5159 30.3284 42.9347C30.3284 43.3534 30.4947 43.755 30.7908 44.0512C31.0869 44.3473 31.4886 44.5136 31.9073 44.5136H35.8547C35.6801 45.1348 35.5524 45.7681 35.4726 46.4084H31.9073C31.4886 46.4084 31.0869 46.5747 30.7908 46.8708C30.4947 47.1669 30.3284 47.5685 30.3284 47.9873C30.3284 48.4061 30.4947 48.8077 30.7908 49.1038C31.0869 49.3999 31.4886 49.5663 31.9073 49.5663H35.4821C35.5619 50.2065 35.6896 50.8399 35.8642 51.461H31.9168C31.498 51.461 31.0964 51.6274 30.8003 51.9235C30.5042 52.2196 30.3378 52.6212 30.3378 53.0399C30.3378 53.4587 30.5042 53.8603 30.8003 54.1564C31.0964 54.4525 31.498 54.6189 31.9168 54.6189H37.2568C38.2938 56.2882 39.7046 57.6936 41.3778 58.7242V64.0926C41.3778 64.5113 41.5442 64.9129 41.8403 65.2091C42.1364 65.5052 42.538 65.6715 42.9568 65.6715C43.3756 65.6715 43.7772 65.5052 44.0733 65.2091C44.3694 64.9129 44.5357 64.5113 44.5357 64.0926V60.1452C45.1567 60.3211 45.7901 60.4499 46.4305 60.5305V64.0926C46.4305 64.5113 46.5968 64.9129 46.8929 65.2091C47.189 65.5052 47.5907 65.6715 48.0094 65.6715C48.4282 65.6715 48.8298 65.5052 49.1259 65.2091C49.422 64.9129 49.5884 64.5113 49.5884 64.0926V60.5305C50.2286 60.4493 50.862 60.3205 51.4831 60.1452V64.0926C51.4831 64.5113 51.6495 64.9129 51.9456 65.2091C52.2417 65.5052 52.6433 65.6715 53.0621 65.6715C53.4808 65.6715 53.8824 65.5052 54.1785 65.2091C54.4747 64.9129 54.641 64.5113 54.641 64.0926V58.7494C56.308 57.7163 57.7132 56.3112 58.7463 54.6442H64.0926C64.5113 54.6442 64.913 54.4778 65.2091 54.1817C65.5052 53.8856 65.6715 53.484 65.6715 53.0652C65.6715 52.6464 65.5052 52.2448 65.2091 51.9487C64.913 51.6526 64.5113 51.4863 64.0926 51.4863H60.1421C60.3181 50.8655 60.4459 50.232 60.5242 49.5915L64.0926 49.5789Z" fill="#DEE4F3"/>
<path d="M47.9999 60.78C55.0581 60.78 60.7799 55.0582 60.7799 48C60.7799 40.9418 55.0581 35.22 47.9999 35.22C40.9417 35.22 35.2199 40.9418 35.2199 48C35.2199 55.0582 40.9417 60.78 47.9999 60.78Z" fill="#DEE4F3"/>
<path d="M51.1674 43.5474H44.8326C44.1228 43.5474 43.5474 44.1228 43.5474 44.8326V51.1674C43.5474 51.8772 44.1228 52.4526 44.8326 52.4526H51.1674C51.8772 52.4526 52.4526 51.8772 52.4526 51.1674V44.8326C52.4526 44.1228 51.8772 43.5474 51.1674 43.5474Z" fill="#FDAF17"/>
<path d="M7.6 124L4.856 115.81H4.8C4.80933 115.997 4.82333 116.263 4.842 116.608C4.86067 116.944 4.87467 117.313 4.884 117.714C4.90267 118.106 4.912 118.475 4.912 118.82V124H3.302V114.004H5.794L8.426 121.858H8.482L11.226 114.004H13.718V124H12.01V118.736C12.01 118.419 12.0147 118.073 12.024 117.7C12.0427 117.317 12.0567 116.958 12.066 116.622C12.0847 116.277 12.0987 116.011 12.108 115.824H12.052L9.196 124H7.6ZM22.478 124L21.568 121.354H17.802L16.906 124H15.002L18.67 113.962H20.714L24.382 124H22.478ZM20.238 117.238C20.2006 117.107 20.1446 116.93 20.07 116.706C19.9953 116.482 19.9206 116.253 19.846 116.02C19.7806 115.777 19.7293 115.577 19.692 115.418C19.6453 115.605 19.5846 115.819 19.51 116.062C19.4446 116.305 19.3793 116.533 19.314 116.748C19.258 116.963 19.2113 117.126 19.174 117.238L18.292 119.814H21.106L20.238 117.238ZM29.0845 124H24.8845V122.978L26.0885 122.53V115.488L24.8845 115.026V114.004H29.0845V115.026L27.8805 115.488V122.53L29.0845 122.978V124ZM39.3762 124H37.1502L32.4182 116.16H32.3622C32.3808 116.44 32.3948 116.734 32.4042 117.042C32.4228 117.35 32.4368 117.667 32.4462 117.994C32.4648 118.311 32.4788 118.633 32.4882 118.96V124H30.8782V114.004H33.0902L37.8082 121.788H37.8502C37.8408 121.545 37.8315 121.27 37.8222 120.962C37.8128 120.654 37.7988 120.341 37.7802 120.024C37.7708 119.697 37.7615 119.385 37.7522 119.086V114.004H39.3762V124ZM48.6265 114.004C49.9238 114.004 50.9038 114.191 51.5665 114.564C52.2385 114.937 52.5745 115.586 52.5745 116.51C52.5745 116.893 52.5091 117.238 52.3785 117.546C52.2478 117.854 52.0565 118.106 51.8045 118.302C51.5618 118.498 51.2585 118.629 50.8945 118.694V118.764C51.2678 118.829 51.5991 118.951 51.8885 119.128C52.1871 119.296 52.4205 119.543 52.5885 119.87C52.7658 120.187 52.8545 120.607 52.8545 121.13C52.8545 121.737 52.7098 122.255 52.4205 122.684C52.1311 123.113 51.7158 123.44 51.1745 123.664C50.6425 123.888 50.0078 124 49.2705 124H45.6165V114.004H48.6265ZM48.8645 118.078C49.5738 118.078 50.0591 117.966 50.3205 117.742C50.5911 117.518 50.7265 117.187 50.7265 116.748C50.7265 116.3 50.5678 115.978 50.2505 115.782C49.9331 115.586 49.4245 115.488 48.7245 115.488H47.4085V118.078H48.8645ZM47.4085 119.52V122.502H49.0325C49.7605 122.502 50.2645 122.362 50.5445 122.082C50.8338 121.802 50.9785 121.429 50.9785 120.962C50.9785 120.663 50.9178 120.407 50.7965 120.192C50.6751 119.977 50.4651 119.814 50.1665 119.702C49.8678 119.581 49.4618 119.52 48.9485 119.52H47.4085ZM63.8453 118.988C63.8453 119.763 63.7473 120.467 63.5513 121.102C63.3647 121.727 63.0753 122.269 62.6833 122.726C62.3007 123.183 61.8107 123.533 61.2133 123.776C60.6253 124.019 59.9347 124.14 59.1413 124.14C58.3387 124.14 57.6387 124.019 57.0413 123.776C56.4533 123.524 55.968 123.174 55.5853 122.726C55.2027 122.269 54.9133 121.723 54.7173 121.088C54.5307 120.453 54.4373 119.749 54.4373 118.974C54.4373 117.938 54.6053 117.037 54.9413 116.272C55.2867 115.507 55.8047 114.914 56.4953 114.494C57.1953 114.065 58.082 113.85 59.1553 113.85C60.21 113.85 61.0827 114.065 61.7733 114.494C62.464 114.914 62.982 115.511 63.3273 116.286C63.6727 117.051 63.8453 117.952 63.8453 118.988ZM56.3273 118.988C56.3273 119.744 56.4253 120.393 56.6213 120.934C56.8267 121.475 57.1347 121.891 57.5453 122.18C57.9653 122.469 58.4973 122.614 59.1413 122.614C59.804 122.614 60.3407 122.469 60.7513 122.18C61.162 121.891 61.4653 121.475 61.6613 120.934C61.8573 120.393 61.9553 119.744 61.9553 118.988C61.9553 117.859 61.736 116.972 61.2973 116.328C60.8587 115.684 60.1447 115.362 59.1553 115.362C58.502 115.362 57.9653 115.507 57.5453 115.796C57.1347 116.085 56.8267 116.501 56.6213 117.042C56.4253 117.583 56.3273 118.232 56.3273 118.988ZM71.8744 124L70.9644 121.354H67.1984L66.3024 124H64.3984L68.0664 113.962H70.1104L73.7784 124H71.8744ZM69.6344 117.238C69.5971 117.107 69.5411 116.93 69.4664 116.706C69.3918 116.482 69.3171 116.253 69.2424 116.02C69.1771 115.777 69.1258 115.577 69.0884 115.418C69.0418 115.605 68.9811 115.819 68.9064 116.062C68.8411 116.305 68.7758 116.533 68.7104 116.748C68.6544 116.963 68.6078 117.126 68.5704 117.238L67.6884 119.814H70.5024L69.6344 117.238ZM77.935 114.004C78.8123 114.004 79.5357 114.111 80.105 114.326C80.6743 114.541 81.099 114.867 81.379 115.306C81.659 115.735 81.799 116.281 81.799 116.944C81.799 117.429 81.7057 117.845 81.519 118.19C81.3417 118.535 81.1083 118.825 80.819 119.058C80.5297 119.282 80.217 119.464 79.881 119.604L82.751 124H80.735L78.341 120.052H76.885V124H75.093V114.004H77.935ZM77.823 115.502H76.885V118.582H77.879C78.6163 118.582 79.1483 118.451 79.475 118.19C79.811 117.919 79.979 117.523 79.979 117C79.979 116.636 79.8997 116.347 79.741 116.132C79.5823 115.908 79.3443 115.749 79.027 115.656C78.719 115.553 78.3177 115.502 77.823 115.502ZM92.3198 118.904C92.3198 120.024 92.1051 120.962 91.6758 121.718C91.2558 122.474 90.6445 123.043 89.8418 123.426C89.0485 123.809 88.0871 124 86.9578 124H84.1438V114.004H87.2518C88.2878 114.004 89.1838 114.191 89.9398 114.564C90.6958 114.937 91.2791 115.488 91.6898 116.216C92.1098 116.935 92.3198 117.831 92.3198 118.904ZM90.4438 118.96C90.4438 118.167 90.3225 117.513 90.0798 117C89.8371 116.487 89.4778 116.109 89.0018 115.866C88.5258 115.614 87.9425 115.488 87.2518 115.488H85.9358V122.502H87.0138C88.1711 122.502 89.0298 122.208 89.5898 121.62C90.1591 121.023 90.4438 120.136 90.4438 118.96Z" fill="#221690"/>
</svg>
