<svg width="48" height="35" viewBox="0 0 48 35" fill="none" xmlns="http://www.w3.org/2000/svg">
<path d="M47.7003 27.0264L47.6682 26.9087L47.6361 26.7936L47.604 26.6786L47.5719 26.5635L47.5397 26.4458L47.5076 26.3307C47.4943 26.2932 47.4862 26.2531 47.4755 26.2156C47.4648 26.1782 47.4541 26.138 47.4434 26.0979C47.4327 26.0578 47.422 26.0203 47.4113 25.9828C47.4006 25.9454 47.3899 25.9052 47.3792 25.8678C47.3685 25.8303 47.3578 25.7902 47.3444 25.7527C47.331 25.7152 47.3257 25.6751 47.3123 25.635C47.2989 25.5948 47.2936 25.5574 47.2802 25.5199C47.2668 25.4824 47.2614 25.4423 47.2481 25.4048C47.2347 25.3674 47.2293 25.3272 47.216 25.2871C47.2026 25.247 47.1972 25.2095 47.1838 25.172C47.1705 25.1346 47.1651 25.0944 47.1517 25.057C47.1384 25.0195 47.133 24.9794 47.1196 24.9419C47.1063 24.9045 47.1009 24.8643 47.0875 24.8242C47.0741 24.784 47.0688 24.7466 47.0554 24.7091C47.042 24.6717 47.0367 24.6315 47.0233 24.594C47.0099 24.5566 47.0046 24.5164 46.9912 24.4763C46.9778 24.4362 46.9725 24.3987 46.9591 24.3612C46.9457 24.3238 46.9404 24.2836 46.927 24.2462L46.8949 24.1311L46.8627 24.0134L46.8306 23.8983L46.7985 23.7833L46.7664 23.6655L46.7343 23.5505L46.7022 23.4354L46.6701 23.3203L46.638 23.2026L46.6059 23.0875C46.5925 23.0501 46.5845 23.0099 46.5738 22.9725C46.5631 22.935 46.5524 22.8949 46.5416 22.8574C46.5309 22.8199 46.5202 22.7771 46.5095 22.7397C46.4988 22.7022 46.4881 22.6621 46.4774 22.6246C46.4667 22.5871 46.456 22.547 46.4426 22.5095C46.4292 22.4721 46.4239 22.4319 46.4105 22.3918C46.3971 22.3517 46.3918 22.3142 46.3784 22.2767C46.365 22.2393 46.3597 22.1991 46.3463 22.1617C46.3329 22.1242 46.3276 22.0841 46.3142 22.0466C46.3008 22.0091 46.2955 21.9663 46.2821 21.9289C46.2687 21.8914 46.2633 21.8513 46.25 21.8138C46.2366 21.7764 46.2312 21.7362 46.2179 21.6988C46.2045 21.6613 46.1991 21.6211 46.1858 21.581C46.1724 21.5409 46.167 21.5034 46.1536 21.4659C46.1403 21.4285 46.1349 21.3883 46.1215 21.3509C46.1082 21.3134 46.1028 21.2733 46.0894 21.2358C46.076 21.1983 46.0707 21.1555 46.0573 21.1181C46.0439 21.0806 46.0386 21.0405 46.0252 21.003L45.9931 20.888L45.961 20.7702L45.9289 20.6551L45.8968 20.5401L45.8646 20.425L45.8325 20.3073L45.8004 20.1922L45.7817 20.0691L45.7496 19.9514L45.7175 19.8363L45.6854 19.7213C45.672 19.6811 45.664 19.6437 45.6533 19.6062C45.6425 19.5687 45.6318 19.5286 45.6211 19.4885C45.6104 19.4483 45.5997 19.4109 45.589 19.3734C45.5783 19.3359 45.5676 19.2958 45.5569 19.2583C45.5462 19.2209 45.5355 19.1807 45.5221 19.1406C45.5088 19.1005 45.5034 19.063 45.49 19.0255C45.4766 18.9881 45.4713 18.9479 45.4579 18.9105C45.4445 18.873 45.4392 18.8329 45.4258 18.7954C45.4124 18.7579 45.4071 18.7178 45.3937 18.6777C45.3803 18.6375 45.375 18.6001 45.3616 18.5626C45.3482 18.5251 45.3428 18.485 45.3295 18.4475C45.3161 18.4101 45.3107 18.3699 45.2974 18.3298C45.284 18.2897 45.2786 18.2522 45.2652 18.2147C45.2519 18.1773 45.2465 18.1371 45.2331 18.0997C45.2198 18.0622 45.2144 18.0221 45.201 17.9846C45.1876 17.9472 45.1823 17.907 45.1689 17.8669C45.1555 17.8267 45.1502 17.7893 45.1368 17.7518L45.1047 17.6367L45.0726 17.519L45.0405 17.4039L45.0084 17.2889L44.9762 17.1738L44.9441 17.0561L44.912 16.941L44.8799 16.826L44.8478 16.7082L44.8157 16.5932C44.8023 16.5557 44.7943 16.5156 44.7836 16.4781C44.7729 16.4406 44.7622 16.4005 44.7515 16.363C44.7408 16.3256 44.7301 16.2854 44.7194 16.2453C44.7087 16.2052 44.6979 16.1677 44.6872 16.1302C44.6765 16.0928 44.6658 16.0526 44.6551 16.0152C44.6444 15.9777 44.6337 15.9376 44.6203 15.8974C44.607 15.8573 44.6016 15.8198 44.5882 15.7824C44.5749 15.7449 44.5695 15.7048 44.5561 15.6673C44.5428 15.6298 44.5374 15.5897 44.524 15.5522C44.5106 15.5148 44.5053 15.4746 44.4919 15.4345C44.4785 15.3944 44.4732 15.3569 44.4598 15.3194C44.4464 15.282 44.4411 15.2418 44.4277 15.2044C44.4143 15.1669 44.409 15.1268 44.3956 15.0893C44.3822 15.0519 44.3769 15.009 44.3635 14.9716C44.3501 14.9341 44.3447 14.894 44.3314 14.8565C44.318 14.8191 44.3126 14.7789 44.2993 14.7415C44.2859 14.704 44.2805 14.6639 44.2671 14.6237C44.2538 14.5836 44.2484 14.5461 44.235 14.5086C44.2216 14.4712 44.2163 14.431 44.2029 14.3936L44.1708 14.2785L44.1387 14.1608L44.1066 14.0457L44.0745 13.9307L44.0424 13.8129L44.0103 13.6979L43.9781 13.5828L43.946 13.4677L43.9139 13.35L43.8818 13.2349C43.8684 13.1975 43.8604 13.1573 43.8497 13.1199C43.839 13.0824 43.8283 13.0423 43.8176 13.0021C43.8069 12.962 43.7962 12.9245 43.7855 12.8871C43.7748 12.8496 43.7641 12.8095 43.7507 12.772C43.7373 12.7345 43.732 12.6944 43.7186 12.6569C43.7052 12.6195 43.6998 12.5767 43.6865 12.5392C43.6731 12.5017 43.6677 12.4616 43.6544 12.4241C43.641 12.3867 43.6356 12.3465 43.6222 12.3091C43.6089 12.2716 43.6035 12.2315 43.5901 12.1913C43.5768 12.1512 43.5714 12.1137 43.558 12.0763C43.5447 12.0388 43.5393 11.9987 43.5259 11.9612C43.5125 11.9237 43.5072 11.8836 43.4938 11.8461C43.4804 11.8087 43.4751 11.7685 43.4617 11.7284C43.4483 11.6883 43.443 11.6508 43.4296 11.6133C43.4162 11.5759 43.4109 11.5357 43.3975 11.4983C43.3841 11.4608 43.3787 11.4207 43.3654 11.3805C43.352 11.3404 43.3466 11.3029 43.3332 11.2655C43.3199 11.228 43.3145 11.1879 43.3011 11.1504L43.269 11.0353L43.2369 10.9176L43.2048 10.8025L43.1727 10.6875L43.1406 10.5697L43.1085 10.4547L43.0764 10.3396L43.0443 10.2246L43.0122 10.1068L42.98 9.99176C42.9667 9.9543 42.9586 9.91414 42.9479 9.87668C42.9372 9.83922 42.9265 9.79908 42.9158 9.75894C42.9051 9.7188 42.8944 9.68134 42.8837 9.64388C42.873 9.60642 42.8623 9.56628 42.8516 9.52882C42.8409 9.49136 42.8302 9.45122 42.8168 9.41376C42.8034 9.3763 42.7981 9.33616 42.7847 9.29602C42.7713 9.25588 42.766 9.21842 42.7526 9.18096C42.7392 9.1435 42.7339 9.10336 42.7205 9.0659C42.7071 9.02843 42.7017 8.9883 42.6884 8.94816C42.675 8.90802 42.6696 8.87056 42.6563 8.8331C42.6429 8.79563 42.6375 8.7555 42.6241 8.71803C42.6108 8.68057 42.6054 8.64044 42.592 8.60297C42.5787 8.56551 42.5733 8.52537 42.5599 8.48523C42.5466 8.4451 42.5412 8.40764 42.5278 8.37017C42.5144 8.33271 42.5091 8.29256 42.4957 8.2551C42.4823 8.21763 42.477 8.1775 42.4636 8.13736C42.4502 8.09722 42.4449 8.05976 42.4315 8.02229C42.4181 7.98483 42.4127 7.9447 42.3994 7.90723L42.3673 7.79217L42.3352 7.67443L42.303 7.55937L42.2709 7.44431L42.2388 7.32657L42.2067 7.21151L42.1746 7.09645L42.1425 6.98139L42.1104 6.86365L42.0783 6.74857C42.0649 6.71111 42.0569 6.67097 42.0462 6.63351C42.0354 6.59605 42.0247 6.55591 42.014 6.51845C42.0033 6.48099 41.9926 6.43817 41.9819 6.40071C41.9712 6.36325 41.9605 6.32311 41.9498 6.28565C41.9391 6.24819 41.9284 6.20805 41.915 6.17059C41.9017 6.13313 41.8963 6.09299 41.8829 6.05285C41.8695 6.01271 41.8642 5.97525 41.8508 5.93779C41.8374 5.90032 41.8321 5.86019 41.8187 5.82273C41.8053 5.78526 41.8 5.74513 41.7866 5.70767C41.7732 5.6702 41.7679 5.62739 41.7545 5.58993C41.7411 5.55246 41.7358 5.51233 41.7224 5.47486C41.709 5.4374 41.7036 5.39727 41.6903 5.3598C41.6769 5.32234 41.6715 5.2822 41.6582 5.24206C41.6448 5.20193 41.6394 5.16445 41.626 5.12699C41.6127 5.08952 41.6073 5.04939 41.5939 5.01193C41.5805 4.97446 41.5752 4.93433 41.5618 4.89686C41.5484 4.8594 41.5431 4.81659 41.5297 4.77913C41.5163 4.74166 41.511 4.70153 41.4976 4.66406L41.4655 4.549L41.4334 4.43126L41.4013 4.3162L41.3692 4.20114L41.3371 4.08608L41.3049 3.96834L41.2728 3.85328C40.9492 2.74383 40.2752 1.76892 39.3515 1.07436C38.4279 0.379792 37.3042 0.00289025 36.1485 0H11.8782C10.7226 0.00289025 9.59887 0.379792 8.6752 1.07436C7.75153 1.76892 7.07751 2.74383 6.75392 3.85328C6.74054 3.89074 6.73251 3.93088 6.72181 3.96834C6.71111 4.0058 6.7004 4.04594 6.6897 4.08608C6.679 4.12622 6.66829 4.161 6.65759 4.20114C6.64689 4.24128 6.63619 4.27874 6.62548 4.3162C6.61478 4.35366 6.60407 4.3938 6.59069 4.43126C6.57731 4.46873 6.57196 4.50886 6.55858 4.549C6.54521 4.58914 6.53985 4.6266 6.52647 4.66406C6.51309 4.70153 6.50774 4.74166 6.49436 4.77913C6.48098 4.81659 6.47563 4.85672 6.46225 4.89419L6.43014 5.01193L6.39803 5.12699L6.36592 5.24206L6.3338 5.3598L6.30169 5.47486L6.26958 5.58993L6.23748 5.70767L6.20537 5.82273L6.17326 5.93779L6.14114 6.05285L6.10903 6.17059C6.09565 6.20805 6.08762 6.24819 6.07692 6.28565C6.06622 6.32311 6.05551 6.36325 6.04481 6.40071C6.03411 6.43817 6.02341 6.47831 6.0127 6.51845C6.002 6.55859 5.9913 6.59337 5.98059 6.63351C5.96989 6.67365 5.95919 6.71111 5.94848 6.74857C5.93778 6.78603 5.92707 6.82619 5.91637 6.86365C5.90566 6.90111 5.89496 6.94125 5.88426 6.98139C5.87355 7.02153 5.86285 7.05899 5.85215 7.09645C5.84144 7.13391 5.83074 7.17405 5.82004 7.21151C5.80933 7.24897 5.79863 7.28911 5.78793 7.32657C5.77723 7.36403 5.76652 7.40417 5.75582 7.44431C5.74512 7.48445 5.73441 7.52191 5.7237 7.55937C5.713 7.59683 5.7023 7.63697 5.68892 7.67443C5.67554 7.7119 5.67018 7.75203 5.65681 7.79217C5.64343 7.83231 5.63808 7.86977 5.6247 7.90723C5.61132 7.9447 5.60597 7.98483 5.59259 8.02229C5.57921 8.05976 5.57386 8.09989 5.56048 8.13736L5.52837 8.2551L5.49626 8.37017L5.46414 8.48523L5.43203 8.60297L5.39992 8.71803L5.36781 8.8331L5.3357 8.94816L5.30359 9.0659L5.27148 9.18096L5.23937 9.29602L5.20726 9.41376C5.19388 9.45122 5.18585 9.49136 5.17515 9.52882C5.16445 9.56628 5.15374 9.60642 5.14304 9.64388C5.13234 9.68134 5.12163 9.72148 5.11093 9.75894C5.10023 9.7964 5.08952 9.83654 5.07882 9.87668C5.06812 9.91682 5.05741 9.9543 5.0467 9.99176C5.036 10.0292 5.0253 10.0694 5.01459 10.1068C5.00389 10.1443 4.99319 10.1844 4.98249 10.2246C4.97178 10.2647 4.96108 10.2995 4.95038 10.3396C4.93967 10.3798 4.92897 10.4172 4.91827 10.4547C4.90756 10.4921 4.89686 10.5323 4.88616 10.5697C4.87545 10.6072 4.86474 10.6473 4.85404 10.6875C4.84334 10.7276 4.83263 10.7651 4.82193 10.8025C4.81123 10.84 4.80052 10.8801 4.78982 10.9176C4.77912 10.9551 4.76841 10.9952 4.75503 11.0353C4.74165 11.0755 4.7363 11.1103 4.72292 11.1504C4.70954 11.1905 4.70419 11.228 4.69081 11.2655C4.67744 11.3029 4.67208 11.3431 4.65871 11.3805C4.64533 11.418 4.63998 11.4581 4.6266 11.4983L4.59448 11.6133L4.56237 11.7284L4.53026 11.8461L4.49815 11.9612L4.46604 12.0763L4.43393 12.1913L4.40181 12.3091L4.36971 12.4241L4.3376 12.5392L4.30549 12.6543C4.29211 12.6944 4.28408 12.7319 4.27338 12.772C4.26267 12.8121 4.25197 12.8496 4.24127 12.8871C4.23056 12.9245 4.21986 12.9647 4.20916 13.0021C4.19846 13.0396 4.18775 13.0797 4.17704 13.1199C4.16634 13.16 4.15564 13.1975 4.14493 13.2349C4.13423 13.2724 4.12353 13.3125 4.11282 13.35C4.10212 13.3875 4.09142 13.4276 4.08071 13.4677C4.07001 13.5079 4.05931 13.5427 4.0486 13.5828C4.0379 13.6229 4.0272 13.6604 4.01649 13.6979C4.00579 13.7353 3.99508 13.7754 3.98438 13.8129C3.97367 13.8504 3.96297 13.8905 3.95227 13.9307C3.94156 13.9708 3.93086 14.0083 3.92016 14.0457C3.90946 14.0832 3.89875 14.1233 3.88805 14.1608C3.87735 14.1982 3.86664 14.2384 3.85326 14.2785C3.83988 14.3187 3.83453 14.3534 3.82115 14.3936C3.80777 14.4337 3.80242 14.4712 3.78904 14.5086C3.77566 14.5461 3.77031 14.5863 3.75693 14.6237C3.74355 14.6612 3.7382 14.7013 3.72482 14.7415L3.69271 14.8565L3.6606 14.9716L3.62849 15.0893L3.59638 15.2044L3.56427 15.3194L3.53215 15.4345L3.50004 15.5522L3.46793 15.6673L3.43582 15.7824L3.40372 15.8974C3.39034 15.9376 3.38231 15.975 3.37161 16.0152C3.3609 16.0553 3.3502 16.0928 3.3395 16.1302C3.32879 16.1677 3.31808 16.2078 3.30738 16.2453C3.29668 16.2828 3.28597 16.3229 3.27527 16.363C3.26457 16.4032 3.25386 16.4406 3.24316 16.4781C3.23246 16.5156 3.22175 16.5557 3.21105 16.5932C3.20035 16.6306 3.18965 16.6708 3.17894 16.7082C3.16824 16.7457 3.15754 16.7858 3.14683 16.826C3.13613 16.8661 3.12542 16.9036 3.11472 16.941C3.10401 16.9785 3.09331 17.0186 3.08261 17.0561C3.0719 17.0935 3.0612 17.1337 3.0505 17.1738C3.03979 17.214 3.02909 17.2514 3.01839 17.2889C3.00768 17.3263 2.99698 17.3665 2.98628 17.4039C2.97557 17.4414 2.96487 17.4815 2.95149 17.519C2.93811 17.5565 2.93276 17.5966 2.91938 17.6367C2.906 17.6769 2.90065 17.7144 2.88727 17.7518C2.87389 17.7893 2.86853 17.8294 2.85515 17.8669C2.84177 17.9043 2.83642 17.9445 2.82304 17.9846L2.79094 18.0997L2.75883 18.2147L2.72672 18.3298L2.69461 18.4475L2.66249 18.5626L2.63038 18.6777L2.59827 18.7954L2.56616 18.9105L2.53405 19.0255L2.50194 19.1406C2.50194 19.1807 2.48054 19.2182 2.46983 19.2583C2.45913 19.2985 2.44842 19.3359 2.43772 19.3734C2.42701 19.4109 2.41631 19.451 2.40561 19.4885C2.3949 19.5259 2.3842 19.5661 2.3735 19.6062C2.36279 19.6463 2.35209 19.6811 2.34139 19.7213C2.33069 19.7614 2.31998 19.7989 2.30928 19.8363C2.29858 19.8738 2.28787 19.9139 2.27717 19.9514C2.26647 19.9889 2.25576 20.029 2.24505 20.0691C2.23435 20.1093 2.22365 20.1467 2.21294 20.1842C2.20224 20.2217 2.19154 20.2618 2.18083 20.2993C2.17013 20.3367 2.15943 20.3769 2.14873 20.4143C2.13802 20.4518 2.12732 20.4919 2.11662 20.5321C2.10591 20.5722 2.09521 20.6097 2.08451 20.6471C2.0738 20.6846 2.0631 20.7247 2.04972 20.7622C2.03634 20.7997 2.03099 20.8398 2.01761 20.8799C2.00423 20.9201 1.99887 20.9575 1.98549 20.995C1.97211 21.0325 1.96676 21.0726 1.95338 21.1101C1.94 21.1475 1.93465 21.1877 1.92127 21.2278L1.88916 21.3429L1.85705 21.4579L1.82495 21.573L1.79283 21.6907L1.76072 21.8058L1.72861 21.9208L1.6965 22.0386L1.66439 22.1536L1.63228 22.2687L1.60017 22.3838L1.56805 22.5015C1.55468 22.539 1.54665 22.5791 1.53595 22.6166C1.52524 22.654 1.51454 22.6942 1.50384 22.7316C1.49313 22.7691 1.48243 22.8092 1.47173 22.8494C1.46102 22.8895 1.45032 22.9243 1.43962 22.9644C1.42891 23.0046 1.41821 23.042 1.40751 23.0795C1.3968 23.117 1.38609 23.1571 1.37539 23.1946C1.36469 23.232 1.35398 23.2722 1.34328 23.3123C1.33258 23.3524 1.32188 23.3899 1.31117 23.4274C1.30047 23.4648 1.28977 23.505 1.27906 23.5424C1.26836 23.5799 1.25766 23.62 1.24695 23.6575C1.23625 23.6949 1.22555 23.7351 1.21484 23.7752C1.20414 23.8154 1.19343 23.8528 1.18273 23.8903C1.17202 23.9278 1.16133 23.9679 1.14795 24.0054C1.13457 24.0428 1.12921 24.083 1.11583 24.1231C1.10245 24.1632 1.0971 24.198 1.08372 24.2382C1.07034 24.2783 1.06499 24.3158 1.05161 24.3532C1.03823 24.3907 1.03288 24.4308 1.0195 24.4683L0.987392 24.586L0.955283 24.7011L0.923166 24.8161L0.891056 24.9339L0.858947 25.0489L0.826838 25.1533L0.794728 25.2684L0.762619 25.3861L0.73051 25.5012L0.698392 25.6162L0.666283 25.734C0.652903 25.7714 0.644877 25.8116 0.634174 25.849C0.62347 25.8865 0.612768 25.9266 0.602064 25.9641C0.591361 26.0016 0.580659 26.0417 0.569955 26.0792C0.559251 26.1166 0.548549 26.1568 0.537846 26.1969C0.527142 26.237 0.516432 26.2745 0.505728 26.312C0.495025 26.3494 0.484322 26.3896 0.473619 26.427C0.462915 26.4645 0.452213 26.5046 0.44151 26.5448C0.430806 26.5849 0.420104 26.6197 0.4094 26.6598C0.398697 26.7 0.387995 26.7374 0.377291 26.7749C0.366587 26.8124 0.355885 26.8525 0.345182 26.89C0.334478 26.9274 0.323768 26.9676 0.313064 27.0077C0.148887 27.5271 0.0649695 28.0685 0.064209 28.6132V28.8808C0.064209 30.3002 0.628058 31.6614 1.63171 32.6651C2.63536 33.6687 3.9966 34.2326 5.41598 34.2326H42.6081C44.0275 34.2326 45.3887 33.6687 46.3924 32.6651C47.396 31.6614 47.9599 30.3002 47.9599 28.8808V28.6132C47.9537 28.0742 47.8662 27.5393 47.7003 27.0264Z" fill="#1F157C"/>
<path d="M42.6482 23.5933H5.35177C2.39607 23.5933 0 25.9893 0 28.945V29.2126C0 32.1683 2.39607 34.5644 5.35177 34.5644H42.6482C45.6039 34.5644 48 32.1683 48 29.2126V28.945C48 25.9893 45.6039 23.5933 42.6482 23.5933Z" fill="#DEE4F3"/>
<path d="M13.8477 30.7566C14.7048 30.7566 15.3997 30.0618 15.3997 29.2046C15.3997 28.3474 14.7048 27.6526 13.8477 27.6526C12.9905 27.6526 12.2957 28.3474 12.2957 29.2046C12.2957 30.0618 12.9905 30.7566 13.8477 30.7566Z" fill="#1F157C"/>
<path d="M7.5326 30.7566C8.38975 30.7566 9.08461 30.0618 9.08461 29.2046C9.08461 28.3474 8.38975 27.6526 7.5326 27.6526C6.67545 27.6526 5.98059 28.3474 5.98059 29.2046C5.98059 30.0618 6.67545 30.7566 7.5326 30.7566Z" fill="#1F157C"/>
<path d="M40.4273 31.6932C41.8017 31.6932 42.9159 30.579 42.9159 29.2046C42.9159 27.8302 41.8017 26.7161 40.4273 26.7161C39.0529 26.7161 37.9387 27.8302 37.9387 29.2046C37.9387 30.579 39.0529 31.6932 40.4273 31.6932Z" fill="#1F157C"/>
<path d="M25.7634 7.73584V8.69649C25.7634 10.9781 25.7634 13.2607 25.7634 15.5441C25.7793 15.9281 25.7559 16.3127 25.6938 16.692C25.4476 17.8614 24.7091 18.6534 23.6254 19.1431C23.303 19.2798 22.9723 19.396 22.6353 19.491C22.4346 19.5526 22.3195 19.475 22.2741 19.2689C22.2598 19.1913 22.2536 19.1124 22.2553 19.0334C22.2553 16.9998 22.2553 14.9688 22.2553 12.9351C22.2468 12.362 22.3637 11.7939 22.5978 11.2707C23.0967 10.1204 23.8432 9.09441 24.784 8.26568C25.054 8.00023 25.3935 7.81654 25.7634 7.73584Z" fill="#DEE4F3"/>
<path d="M22.2339 5.59253L22.2633 10.2673C23.1436 9.09998 24.3662 8.23655 25.7607 7.79746V5.59253H22.2339Z" fill="#FDAF17"/>
</svg>
