<svg width="48" height="37" viewBox="0 0 48 37" fill="none" xmlns="http://www.w3.org/2000/svg">
<path d="M37.2897 36.678H10.7017C10.3244 36.678 9.96251 36.5281 9.69569 36.2613C9.42888 35.9945 9.27899 35.6326 9.27899 35.2552C9.27899 34.8779 9.42888 34.516 9.69569 34.2492C9.96251 33.9824 10.3244 33.8325 10.7017 33.8325H37.2897C37.667 33.8325 38.0289 33.9824 38.2957 34.2492C38.5625 34.516 38.7124 34.8779 38.7124 35.2552C38.7124 35.6326 38.5625 35.9945 38.2957 36.2613C38.0289 36.5281 37.667 36.678 37.2897 36.678Z" fill="#1F157C"/>
<path d="M48 6.31691V27.2652C48 27.6388 47.9264 28.0088 47.7834 28.3541C47.6404 28.6993 47.4308 29.013 47.1666 29.2772C46.9024 29.5414 46.5887 29.751 46.2435 29.894C45.8982 30.037 45.5282 30.1106 45.1545 30.1106H2.84546V32.1593C2.84546 32.5367 2.69556 32.8986 2.42875 33.1654C2.16193 33.4322 1.80006 33.5821 1.42273 33.5821C1.0454 33.5821 0.683524 33.4322 0.416711 33.1654C0.149897 32.8986 0 32.5367 0 32.1593V1.42273C0 1.0454 0.149897 0.683521 0.416711 0.416707C0.683524 0.149894 1.0454 0 1.42273 0C1.80006 0 2.16193 0.149894 2.42875 0.416707C2.69556 0.683521 2.84546 1.0454 2.84546 1.42273V3.47146H45.1545C45.9092 3.47146 46.633 3.77125 47.1666 4.30487C47.7002 4.8385 48 5.56225 48 6.31691Z" fill="#1F157C"/>
<path d="M25.4185 3.47144V9.10544C25.4185 9.48277 25.2686 9.84465 25.0017 10.1115C24.7349 10.3783 24.3731 10.5282 23.9957 10.5282C23.6184 10.5282 23.2565 10.3783 22.9897 10.1115C22.7229 9.84465 22.573 9.48277 22.573 9.10544V3.47144H25.4185Z" fill="#FDAF17"/>
<path d="M25.4185 24.5504V30.1104H22.573V24.5504C22.573 24.1731 22.7229 23.8112 22.9897 23.5444C23.2565 23.2776 23.6184 23.1277 23.9957 23.1277C24.3731 23.1277 24.7349 23.2776 25.0017 23.5444C25.2686 23.8112 25.4185 24.1731 25.4185 24.5504Z" fill="#FDAF17"/>
<path d="M12.5029 8.5249C7.79084 8.5249 4.21979 12.1216 4.23117 16.8621C4.27138 19.0304 5.16099 21.0964 6.70866 22.6157C8.25634 24.1349 10.3384 24.9861 12.5072 24.9861C14.6759 24.9861 16.758 24.1349 18.3057 22.6157C19.8534 21.0964 20.743 19.0304 20.7832 16.8621C20.8003 12.1273 17.2235 8.52775 12.5029 8.5249ZM12.6623 22.1091C9.53225 22.1603 7.19044 19.9295 7.12784 16.8479C7.11682 16.1416 7.24501 15.4401 7.50509 14.7834C7.76517 14.1267 8.15205 13.5277 8.64364 13.0205C9.13523 12.5133 9.7219 12.1079 10.3702 11.8275C11.0184 11.5471 11.7156 11.397 12.4218 11.386C13.1281 11.375 13.8295 11.5032 14.4862 11.7633C15.1429 12.0233 15.742 12.4102 16.2492 12.9018C16.7563 13.3934 17.1617 13.9801 17.4422 14.6283C17.7226 15.2766 17.8726 15.9737 17.8837 16.68C17.9061 17.3816 17.7879 18.0805 17.536 18.7357C17.2842 19.3909 16.9038 19.9891 16.4172 20.495C15.9306 21.0009 15.3478 21.4044 14.7029 21.6816C14.058 21.9588 13.3642 22.1042 12.6623 22.1091Z" fill="#DEE4F3"/>
<path d="M35.48 8.5249C30.7679 8.5249 27.1968 12.1216 27.2082 16.8621C27.2484 19.0304 28.138 21.0964 29.6857 22.6157C31.2334 24.1349 33.3155 24.9861 35.4842 24.9861C37.653 24.9861 39.7351 24.1349 41.2827 22.6157C42.8304 21.0964 43.72 19.0304 43.7602 16.8621C43.7773 12.1273 40.2006 8.52775 35.48 8.5249ZM35.6393 22.1091C32.5093 22.1603 30.1675 19.9295 30.1049 16.8479C30.0826 15.4216 30.6279 14.0448 31.6207 13.0205C32.6135 11.9962 33.9726 11.4083 35.3989 11.386C36.8252 11.3637 38.2019 11.909 39.2262 12.9018C40.2505 13.8946 40.8385 15.2537 40.8607 16.68C40.8831 17.3816 40.7649 18.0805 40.5131 18.7357C40.2612 19.3909 39.8808 19.9891 39.3943 20.495C38.9077 21.0009 38.3248 21.4044 37.6799 21.6816C37.0351 21.9588 36.3412 22.1042 35.6393 22.1091Z" fill="#DEE4F3"/>
<path d="M13.9114 14.2244H11.1001C10.4605 14.2244 9.94202 14.7429 9.94202 15.3825V18.1938C9.94202 18.8334 10.4605 19.3519 11.1001 19.3519H13.9114C14.551 19.3519 15.0695 18.8334 15.0695 18.1938V15.3825C15.0695 14.7429 14.551 14.2244 13.9114 14.2244Z" fill="#DEE4F3"/>
<path d="M36.8885 14.2244H34.0772C33.4376 14.2244 32.9191 14.7429 32.9191 15.3825V18.1938C32.9191 18.8334 33.4376 19.3519 34.0772 19.3519H36.8885C37.5281 19.3519 38.0466 18.8334 38.0466 18.1938V15.3825C38.0466 14.7429 37.5281 14.2244 36.8885 14.2244Z" fill="#DEE4F3"/>
</svg>
