<svg width="96" height="128" viewBox="0 0 96 128" fill="none" xmlns="http://www.w3.org/2000/svg">
<rect width="96" height="96" rx="48" fill="#F4F6F8"/>
<path d="M61.2897 66.678H34.7017C34.3244 66.678 33.9625 66.5281 33.6957 66.2613C33.4289 65.9945 33.279 65.6326 33.279 65.2552C33.279 64.8779 33.4289 64.516 33.6957 64.2492C33.9625 63.9824 34.3244 63.8325 34.7017 63.8325H61.2897C61.667 63.8325 62.0289 63.9824 62.2957 64.2492C62.5625 64.516 62.7124 64.8779 62.7124 65.2552C62.7124 65.6326 62.5625 65.9945 62.2957 66.2613C62.0289 66.5281 61.667 66.678 61.2897 66.678Z" fill="#1F157C"/>
<path d="M72 36.3169V57.2652C72 57.6388 71.9264 58.0088 71.7834 58.3541C71.6404 58.6993 71.4308 59.013 71.1666 59.2772C70.9024 59.5414 70.5887 59.751 70.2435 59.894C69.8982 60.037 69.5282 60.1106 69.1545 60.1106H26.8455V62.1593C26.8455 62.5367 26.6956 62.8986 26.4287 63.1654C26.1619 63.4322 25.8001 63.5821 25.4227 63.5821C25.0454 63.5821 24.6835 63.4322 24.4167 63.1654C24.1499 62.8986 24 62.5367 24 62.1593V31.4227C24 31.0454 24.1499 30.6835 24.4167 30.4167C24.6835 30.1499 25.0454 30 25.4227 30C25.8001 30 26.1619 30.1499 26.4287 30.4167C26.6956 30.6835 26.8455 31.0454 26.8455 31.4227V33.4715H69.1545C69.9092 33.4715 70.633 33.7712 71.1666 34.3049C71.7002 34.8385 72 35.5623 72 36.3169Z" fill="#1F157C"/>
<path d="M49.4185 33.4714V39.1054C49.4185 39.4828 49.2686 39.8446 49.0017 40.1115C48.7349 40.3783 48.3731 40.5282 47.9957 40.5282C47.6184 40.5282 47.2565 40.3783 46.9897 40.1115C46.7229 39.8446 46.573 39.4828 46.573 39.1054V33.4714H49.4185Z" fill="#FDAF17"/>
<path d="M49.4185 54.5504V60.1104H46.573V54.5504C46.573 54.1731 46.7229 53.8112 46.9897 53.5444C47.2565 53.2776 47.6184 53.1277 47.9957 53.1277C48.3731 53.1277 48.7349 53.2776 49.0017 53.5444C49.2686 53.8112 49.4185 54.1731 49.4185 54.5504Z" fill="#FDAF17"/>
<path d="M36.5029 38.5249C31.7908 38.5249 28.2198 42.1216 28.2312 46.8621C28.2714 49.0304 29.161 51.0964 30.7087 52.6157C32.2563 54.1349 34.3384 54.9861 36.5072 54.9861C38.6759 54.9861 40.758 54.1349 42.3057 52.6157C43.8534 51.0964 44.743 49.0304 44.7832 46.8621C44.8003 42.1273 41.2235 38.5277 36.5029 38.5249ZM36.6623 52.1091C33.5323 52.1603 31.1904 49.9295 31.1278 46.8479C31.1168 46.1416 31.245 45.4401 31.5051 44.7834C31.7652 44.1267 32.152 43.5277 32.6436 43.0205C33.1352 42.5133 33.7219 42.1079 34.3702 41.8275C35.0184 41.5471 35.7156 41.397 36.4218 41.386C37.1281 41.375 37.8295 41.5032 38.4862 41.7633C39.1429 42.0233 39.742 42.4102 40.2492 42.9018C40.7563 43.3934 41.1617 43.9801 41.4422 44.6283C41.7226 45.2766 41.8726 45.9737 41.8837 46.68C41.9061 47.3816 41.7879 48.0805 41.536 48.7357C41.2842 49.3909 40.9038 49.9891 40.4172 50.495C39.9306 51.0009 39.3478 51.4044 38.7029 51.6816C38.058 51.9588 37.3642 52.1042 36.6623 52.1091Z" fill="#DEE4F3"/>
<path d="M59.48 38.5249C54.7679 38.5249 51.1968 42.1216 51.2082 46.8621C51.2484 49.0304 52.138 51.0964 53.6857 52.6157C55.2334 54.1349 57.3155 54.9861 59.4842 54.9861C61.653 54.9861 63.7351 54.1349 65.2827 52.6157C66.8304 51.0964 67.72 49.0304 67.7602 46.8621C67.7773 42.1273 64.2006 38.5277 59.48 38.5249ZM59.6393 52.1091C56.5093 52.1603 54.1675 49.9295 54.1049 46.8479C54.0826 45.4216 54.6279 44.0448 55.6207 43.0205C56.6135 41.9962 57.9726 41.4083 59.3989 41.386C60.8252 41.3637 62.2019 41.909 63.2262 42.9018C64.2505 43.8946 64.8385 45.2537 64.8607 46.68C64.8831 47.3816 64.7649 48.0805 64.5131 48.7357C64.2612 49.3909 63.8808 49.9891 63.3943 50.495C62.9077 51.0009 62.3248 51.4044 61.6799 51.6816C61.0351 51.9588 60.3412 52.1042 59.6393 52.1091Z" fill="#DEE4F3"/>
<path d="M37.9114 44.2244H35.1001C34.4605 44.2244 33.942 44.7429 33.942 45.3825V48.1938C33.942 48.8334 34.4605 49.3519 35.1001 49.3519H37.9114C38.551 49.3519 39.0695 48.8334 39.0695 48.1938V45.3825C39.0695 44.7429 38.551 44.2244 37.9114 44.2244Z" fill="#DEE4F3"/>
<path d="M60.8885 44.2244H58.0772C57.4376 44.2244 56.9191 44.7429 56.9191 45.3825V48.1938C56.9191 48.8334 57.4376 49.3519 58.0772 49.3519H60.8885C61.5281 49.3519 62.0466 48.8334 62.0466 48.1938V45.3825C62.0466 44.7429 61.5281 44.2244 60.8885 44.2244Z" fill="#DEE4F3"/>
<path d="M22.834 114.004L19.376 124H17.458L14 114.004H15.834L17.85 120.122C17.9153 120.29 17.9807 120.509 18.046 120.78C18.1207 121.041 18.1907 121.312 18.256 121.592C18.3307 121.863 18.3867 122.105 18.424 122.32C18.452 122.105 18.4987 121.863 18.564 121.592C18.6387 121.312 18.7133 121.041 18.788 120.78C18.8627 120.509 18.928 120.29 18.984 120.122L21 114.004H22.834ZM27.9873 118.512H31.7673V123.594C31.2353 123.771 30.6893 123.907 30.1293 124C29.5693 124.093 28.9346 124.14 28.2253 124.14C27.2173 124.14 26.3633 123.939 25.6633 123.538C24.9633 123.137 24.4313 122.553 24.0673 121.788C23.7033 121.023 23.5213 120.089 23.5213 118.988C23.5213 117.943 23.7266 117.037 24.1373 116.272C24.548 115.507 25.136 114.914 25.9013 114.494C26.676 114.074 27.6186 113.864 28.7293 113.864C29.2706 113.864 29.7933 113.92 30.2973 114.032C30.8106 114.135 31.2773 114.279 31.6973 114.466L31.0813 115.936C30.764 115.777 30.3953 115.647 29.9753 115.544C29.5646 115.432 29.1353 115.376 28.6873 115.376C28.006 115.376 27.418 115.525 26.9233 115.824C26.4286 116.123 26.046 116.547 25.7753 117.098C25.514 117.639 25.3833 118.279 25.3833 119.016C25.3833 119.725 25.486 120.355 25.6913 120.906C25.8966 121.447 26.2233 121.872 26.6713 122.18C27.1193 122.479 27.7026 122.628 28.4213 122.628C28.776 122.628 29.0746 122.614 29.3173 122.586C29.5693 122.549 29.798 122.502 30.0033 122.446V120.038H27.9873V118.512ZM39.9655 121.27C39.9655 121.858 39.8208 122.367 39.5315 122.796C39.2422 123.225 38.8222 123.557 38.2715 123.79C37.7302 124.023 37.0815 124.14 36.3255 124.14C35.9615 124.14 35.6115 124.117 35.2755 124.07C34.9488 124.033 34.6362 123.972 34.3375 123.888C34.0482 123.804 33.7775 123.701 33.5255 123.58V121.9C33.9455 122.087 34.4075 122.259 34.9115 122.418C35.4155 122.567 35.9288 122.642 36.4515 122.642C36.8528 122.642 37.1795 122.591 37.4315 122.488C37.6928 122.376 37.8842 122.227 38.0055 122.04C38.1268 121.844 38.1875 121.62 38.1875 121.368C38.1875 121.088 38.1082 120.85 37.9495 120.654C37.7908 120.458 37.5575 120.276 37.2495 120.108C36.9415 119.94 36.5588 119.763 36.1015 119.576C35.7935 119.445 35.4902 119.301 35.1915 119.142C34.9022 118.974 34.6408 118.773 34.4075 118.54C34.1742 118.307 33.9875 118.031 33.8475 117.714C33.7075 117.397 33.6375 117.023 33.6375 116.594C33.6375 116.025 33.7728 115.535 34.0435 115.124C34.3235 114.713 34.7108 114.401 35.2055 114.186C35.7095 113.971 36.2928 113.864 36.9555 113.864C37.4875 113.864 37.9868 113.92 38.4535 114.032C38.9202 114.144 39.3822 114.303 39.8395 114.508L39.2655 115.95C38.8548 115.773 38.4582 115.633 38.0755 115.53C37.6928 115.427 37.3008 115.376 36.8995 115.376C36.5822 115.376 36.3115 115.427 36.0875 115.53C35.8635 115.623 35.6955 115.759 35.5835 115.936C35.4715 116.113 35.4155 116.319 35.4155 116.552C35.4155 116.823 35.4855 117.051 35.6255 117.238C35.7655 117.425 35.9802 117.602 36.2695 117.77C36.5682 117.929 36.9508 118.111 37.4175 118.316C37.9588 118.549 38.4162 118.792 38.7895 119.044C39.1628 119.296 39.4522 119.599 39.6575 119.954C39.8628 120.309 39.9655 120.747 39.9655 121.27ZM49.7455 115.376C49.2882 115.376 48.8822 115.46 48.5275 115.628C48.1728 115.796 47.8695 116.039 47.6175 116.356C47.3748 116.673 47.1882 117.056 47.0575 117.504C46.9362 117.952 46.8755 118.456 46.8755 119.016C46.8755 119.772 46.9782 120.421 47.1835 120.962C47.3888 121.494 47.7015 121.905 48.1215 122.194C48.5508 122.483 49.0875 122.628 49.7315 122.628C50.1608 122.628 50.5715 122.586 50.9635 122.502C51.3648 122.409 51.7848 122.287 52.2235 122.138V123.664C51.8128 123.832 51.3975 123.953 50.9775 124.028C50.5668 124.103 50.0908 124.14 49.5495 124.14C48.5228 124.14 47.6735 123.93 47.0015 123.51C46.3295 123.081 45.8302 122.483 45.5035 121.718C45.1768 120.943 45.0135 120.038 45.0135 119.002C45.0135 118.246 45.1162 117.555 45.3215 116.93C45.5362 116.305 45.8395 115.763 46.2315 115.306C46.6328 114.849 47.1275 114.494 47.7155 114.242C48.3035 113.99 48.9802 113.864 49.7455 113.864C50.2495 113.864 50.7442 113.925 51.2295 114.046C51.7242 114.158 52.1862 114.317 52.6155 114.522L51.9995 115.992C51.6448 115.833 51.2762 115.693 50.8935 115.572C50.5202 115.441 50.1375 115.376 49.7455 115.376ZM60.5502 124L59.6402 121.354H55.8742L54.9782 124H53.0742L56.7422 113.962H58.7862L62.4542 124H60.5502ZM58.3102 117.238C58.2729 117.107 58.2169 116.93 58.1422 116.706C58.0676 116.482 57.9929 116.253 57.9182 116.02C57.8529 115.777 57.8016 115.577 57.7642 115.418C57.7176 115.605 57.6569 115.819 57.5822 116.062C57.5169 116.305 57.4516 116.533 57.3862 116.748C57.3302 116.963 57.2836 117.126 57.2462 117.238L56.3642 119.814H59.1782L58.3102 117.238ZM66.6108 114.004C67.4881 114.004 68.2115 114.111 68.7808 114.326C69.3501 114.541 69.7748 114.867 70.0548 115.306C70.3348 115.735 70.4748 116.281 70.4748 116.944C70.4748 117.429 70.3815 117.845 70.1948 118.19C70.0175 118.535 69.7841 118.825 69.4948 119.058C69.2055 119.282 68.8928 119.464 68.5568 119.604L71.4268 124H69.4108L67.0168 120.052H65.5608V124H63.7688V114.004H66.6108ZM66.4988 115.502H65.5608V118.582H66.5548C67.2921 118.582 67.8241 118.451 68.1508 118.19C68.4868 117.919 68.6548 117.523 68.6548 117C68.6548 116.636 68.5755 116.347 68.4168 116.132C68.2581 115.908 68.0201 115.749 67.7028 115.656C67.3948 115.553 66.9935 115.502 66.4988 115.502ZM80.9956 118.904C80.9956 120.024 80.7809 120.962 80.3516 121.718C79.9316 122.474 79.3202 123.043 78.5176 123.426C77.7242 123.809 76.7629 124 75.6336 124H72.8196V114.004H75.9276C76.9636 114.004 77.8596 114.191 78.6156 114.564C79.3716 114.937 79.9549 115.488 80.3656 116.216C80.7856 116.935 80.9956 117.831 80.9956 118.904ZM79.1196 118.96C79.1196 118.167 78.9982 117.513 78.7556 117C78.5129 116.487 78.1536 116.109 77.6776 115.866C77.2016 115.614 76.6182 115.488 75.9276 115.488H74.6116V122.502H75.6896C76.8469 122.502 77.7056 122.208 78.2656 121.62C78.8349 121.023 79.1196 120.136 79.1196 118.96Z" fill="#221690"/>
</svg>
