<svg width="160" height="40" viewBox="0 0 160 40" fill="none" xmlns="http://www.w3.org/2000/svg">
<path d="M16.4171 25.2287L12.9472 21.3572C12.4247 20.7742 12.4247 19.8325 12.9472 19.2495C13.4697 18.6665 14.3137 18.6665 14.8362 19.2495L17.3684 22.0597L25.2461 13.2702C25.7686 12.6873 26.6127 12.6873 27.1352 13.2702C27.6577 13.8532 27.6577 14.7949 27.1352 15.3779L18.3062 25.2287C17.7971 25.8117 16.9397 25.8117 16.4171 25.2287Z" fill="#221690"/>
<path d="M20.0411 40C19.819 40 19.601 39.9822 19.3871 39.9465C19.1733 39.9109 18.9661 39.8574 18.7657 39.7861C14.2552 38.182 10.6667 35.3378 8.00003 31.2534C5.33334 27.1691 4 22.7619 4 18.0319V8.39896C4 7.58652 4.23359 6.85533 4.70079 6.20538C5.16798 5.55542 5.77209 5.08422 6.51312 4.79177L18.688 0.246767C19.1459 0.0822552 19.5969 0 20.0411 0C20.4853 0 20.9364 0.0822552 21.3943 0.246767L33.5692 4.79177C34.3102 5.08422 34.9143 5.55542 35.3815 6.20538C35.8487 6.85533 36.0823 7.58652 36.0823 8.39896V18.0319C36.0823 22.7619 34.7489 27.1691 32.0822 31.2534C29.4156 35.3378 25.8271 38.182 21.3166 39.7861C21.1162 39.8574 20.909 39.9109 20.6951 39.9465C20.4813 39.9822 20.2633 40 20.0411 40ZM20.0411 36.8535C23.7484 35.6772 26.8141 33.3245 29.2381 29.7954C31.6621 26.2663 32.8741 22.3452 32.8741 18.0319V8.37837C32.8741 8.24127 32.8364 8.11788 32.761 8.00819C32.6856 7.89847 32.5793 7.8162 32.4422 7.76137L20.2674 3.21637C20.1988 3.18895 20.1234 3.17525 20.0411 3.17525C19.9589 3.17525 19.8835 3.18895 19.8149 3.21637L7.64012 7.76137C7.50299 7.8162 7.39672 7.89847 7.32133 8.00819C7.2459 8.11788 7.20819 8.24127 7.20819 8.37837V18.0319C7.20819 22.3452 8.42019 26.2663 10.8442 29.7954C13.2682 33.3245 16.3338 35.6772 20.0411 36.8535Z" fill="#221690"/>
<path d="M57.604 15V12.184C57.604 11.512 57.7427 11.0053 58.02 10.664C58.2973 10.3227 58.676 10.088 59.156 9.96L59.172 9.896L57.444 9.256V8.792C57.444 8.30133 57.5933 7.848 57.892 7.432C58.2013 7.016 58.644 6.68 59.22 6.424C59.796 6.168 60.4947 6.04 61.316 6.04C62.0627 6.04 62.724 6.15733 63.3 6.392C63.876 6.62667 64.3293 6.984 64.66 7.464C64.9907 7.93333 65.156 8.54133 65.156 9.288V15H63.124V9.432C63.124 8.824 62.9533 8.38133 62.612 8.104C62.2707 7.82667 61.8227 7.688 61.268 7.688C60.7133 7.688 60.2867 7.80533 59.988 8.04C59.7 8.264 59.5453 8.54667 59.524 8.888L61.076 9.624L60.916 10.568C60.5213 10.5787 60.2067 10.7173 59.972 10.984C59.748 11.24 59.636 11.608 59.636 12.088V15H57.604ZM69.9118 15V9.048C69.9118 8.568 69.7998 8.22133 69.5758 8.008C69.3624 7.784 68.9998 7.672 68.4878 7.672C68.1251 7.672 67.7891 7.72533 67.4798 7.832C67.1704 7.928 66.8771 8.05067 66.5998 8.2V6.52C66.8238 6.41333 67.1438 6.30667 67.5598 6.2C67.9758 6.09333 68.4664 6.04 69.0318 6.04C69.6078 6.04 70.1144 6.12533 70.5518 6.296C70.9891 6.456 71.3304 6.73333 71.5758 7.128C71.8211 7.512 71.9438 8.03467 71.9438 8.696V15H69.9118ZM77.109 15.192C76.4797 15.192 75.8663 15.128 75.269 15C74.6717 14.8613 74.149 14.68 73.701 14.456L74.277 12.84C74.501 12.9467 74.757 13.0587 75.045 13.176C75.3437 13.2827 75.6637 13.3733 76.005 13.448C76.357 13.5227 76.709 13.56 77.061 13.56C77.541 13.56 77.9197 13.4853 78.197 13.336C78.4743 13.176 78.613 12.9413 78.613 12.632C78.613 12.4187 78.5437 12.2427 78.405 12.104C78.2663 11.9547 78.0583 11.816 77.781 11.688C77.5037 11.56 77.1623 11.432 76.757 11.304C76.149 11.1013 75.6317 10.8827 75.205 10.648C74.7783 10.4027 74.453 10.1147 74.229 9.784C74.005 9.44267 73.893 9.016 73.893 8.504C73.893 7.97067 74.0263 7.52267 74.293 7.16C74.5703 6.79733 74.9757 6.52 75.509 6.328C76.0423 6.136 76.6823 6.04 77.429 6.04C77.9943 6.04 78.5117 6.088 78.981 6.184C79.4503 6.28 79.8183 6.40267 80.085 6.552V8.184C79.9037 8.09867 79.669 8.01333 79.381 7.928C79.093 7.84267 78.7837 7.77333 78.453 7.72C78.1223 7.656 77.797 7.624 77.477 7.624C76.9437 7.624 76.549 7.704 76.293 7.864C76.0477 8.01333 75.925 8.21067 75.925 8.456C75.925 8.648 75.9943 8.81333 76.133 8.952C76.2823 9.08 76.5117 9.20267 76.821 9.32C77.1303 9.43733 77.5197 9.58133 77.989 9.752C78.5223 9.93333 78.9863 10.1413 79.381 10.376C79.7863 10.6 80.0957 10.8827 80.309 11.224C80.533 11.5653 80.645 11.992 80.645 12.504C80.645 12.9733 80.533 13.4107 80.309 13.816C80.0957 14.2213 79.733 14.552 79.221 14.808C78.709 15.064 78.005 15.192 77.109 15.192ZM85.2184 15.192C84.589 15.192 83.9757 15.128 83.3784 15C82.781 14.8613 82.2584 14.68 81.8104 14.456L82.3864 12.84C82.6104 12.9467 82.8664 13.0587 83.1544 13.176C83.453 13.2827 83.773 13.3733 84.1144 13.448C84.4664 13.5227 84.8184 13.56 85.1704 13.56C85.6504 13.56 86.029 13.4853 86.3064 13.336C86.5837 13.176 86.7224 12.9413 86.7224 12.632C86.7224 12.4187 86.653 12.2427 86.5144 12.104C86.3757 11.9547 86.1677 11.816 85.8904 11.688C85.613 11.56 85.2717 11.432 84.8664 11.304C84.2584 11.1013 83.741 10.8827 83.3144 10.648C82.8877 10.4027 82.5624 10.1147 82.3384 9.784C82.1144 9.44267 82.0024 9.016 82.0024 8.504C82.0024 7.97067 82.1357 7.52267 82.4024 7.16C82.6797 6.79733 83.085 6.52 83.6184 6.328C84.1517 6.136 84.7917 6.04 85.5384 6.04C86.1037 6.04 86.621 6.088 87.0904 6.184C87.5597 6.28 87.9277 6.40267 88.1944 6.552V8.184C88.013 8.09867 87.7784 8.01333 87.4904 7.928C87.2024 7.84267 86.893 7.77333 86.5624 7.72C86.2317 7.656 85.9064 7.624 85.5864 7.624C85.053 7.624 84.6584 7.704 84.4024 7.864C84.157 8.01333 84.0344 8.21067 84.0344 8.456C84.0344 8.648 84.1037 8.81333 84.2424 8.952C84.3917 9.08 84.621 9.20267 84.9304 9.32C85.2397 9.43733 85.629 9.58133 86.0984 9.752C86.6317 9.93333 87.0957 10.1413 87.4904 10.376C87.8957 10.6 88.205 10.8827 88.4184 11.224C88.6424 11.5653 88.7544 11.992 88.7544 12.504C88.7544 12.9733 88.6424 13.4107 88.4184 13.816C88.205 14.2213 87.8424 14.552 87.3304 14.808C86.8184 15.064 86.1144 15.192 85.2184 15.192ZM86.198 4.952C85.718 4.952 85.3393 4.88267 85.062 4.744C84.7847 4.59467 84.5873 4.41333 84.47 4.2C84.342 3.976 84.278 3.74133 84.278 3.496C84.278 3.32533 84.3047 3.144 84.358 2.952C84.4007 2.74933 84.47 2.568 84.566 2.408L86.102 2.632C86.0807 2.68533 86.0647 2.76 86.054 2.856C86.0327 2.94133 86.022 3.02133 86.022 3.096C86.022 3.23467 86.07 3.352 86.166 3.448C86.2513 3.53333 86.3953 3.576 86.598 3.576H90.278V4.952H86.198ZM94.3198 15.192C92.9758 15.192 92.0051 14.8827 91.4078 14.264C90.8211 13.6453 90.5278 12.7493 90.5278 11.576V6.232H92.5598V11.672C92.5598 12.2907 92.7038 12.76 92.9918 13.08C93.2798 13.3893 93.7224 13.544 94.3198 13.544C94.9278 13.544 95.3758 13.3893 95.6638 13.08C95.9518 12.76 96.0958 12.2907 96.0958 11.672V6.232H98.1278V11.576C98.1278 12.7493 97.8291 13.6453 97.2318 14.264C96.6344 14.8827 95.6638 15.192 94.3198 15.192ZM104.289 15.192C102.945 15.192 101.974 14.8827 101.377 14.264C100.79 13.6453 100.497 12.7493 100.497 11.576V6.232H102.529V11.672C102.529 12.2907 102.673 12.76 102.961 13.08C103.249 13.3893 103.691 13.544 104.289 13.544C104.897 13.544 105.345 13.3893 105.633 13.08C105.921 12.76 106.065 12.2907 106.065 11.672V3.08H108.097V11.576C108.097 12.7493 107.798 13.6453 107.201 14.264C106.603 14.8827 105.633 15.192 104.289 15.192ZM113.281 15.192C112.652 15.192 112.038 15.128 111.441 15C110.844 14.8613 110.321 14.68 109.873 14.456L110.449 12.84C110.673 12.9467 110.929 13.0587 111.217 13.176C111.516 13.2827 111.836 13.3733 112.177 13.448C112.529 13.5227 112.881 13.56 113.233 13.56C113.713 13.56 114.092 13.4853 114.369 13.336C114.646 13.176 114.785 12.9413 114.785 12.632C114.785 12.4187 114.716 12.2427 114.577 12.104C114.438 11.9547 114.23 11.816 113.953 11.688C113.676 11.56 113.334 11.432 112.929 11.304C112.321 11.1013 111.804 10.8827 111.377 10.648C110.95 10.4027 110.625 10.1147 110.401 9.784C110.177 9.44267 110.065 9.016 110.065 8.504C110.065 7.97067 110.198 7.52267 110.465 7.16C110.742 6.79733 111.148 6.52 111.681 6.328C112.214 6.136 112.854 6.04 113.601 6.04C114.166 6.04 114.684 6.088 115.153 6.184C115.622 6.28 115.99 6.40267 116.257 6.552V8.184C116.076 8.09867 115.841 8.01333 115.553 7.928C115.265 7.84267 114.956 7.77333 114.625 7.72C114.294 7.656 113.969 7.624 113.649 7.624C113.116 7.624 112.721 7.704 112.465 7.864C112.22 8.01333 112.097 8.21067 112.097 8.456C112.097 8.648 112.166 8.81333 112.305 8.952C112.454 9.08 112.684 9.20267 112.993 9.32C113.302 9.43733 113.692 9.58133 114.161 9.752C114.694 9.93333 115.158 10.1413 115.553 10.376C115.958 10.6 116.268 10.8827 116.481 11.224C116.705 11.5653 116.817 11.992 116.817 12.504C116.817 12.9733 116.705 13.4107 116.481 13.816C116.268 14.2213 115.905 14.552 115.393 14.808C114.881 15.064 114.177 15.192 113.281 15.192ZM119.966 9.704C119.497 9.704 119.118 9.63467 118.83 9.496C118.553 9.34667 118.35 9.15467 118.222 8.92C118.105 8.68533 118.046 8.44 118.046 8.184C118.046 8.00267 118.068 7.82133 118.11 7.64C118.164 7.448 118.238 7.272 118.334 7.112L119.87 7.32C119.849 7.39467 119.828 7.47467 119.806 7.56C119.796 7.64533 119.79 7.736 119.79 7.832C119.79 7.97067 119.828 8.08267 119.902 8.168C119.988 8.25333 120.132 8.296 120.334 8.296H122.334V9.704H119.966ZM119.966 14.184C119.497 14.184 119.118 14.1147 118.83 13.976C118.553 13.8267 118.35 13.6347 118.222 13.4C118.105 13.1653 118.046 12.92 118.046 12.664C118.046 12.4827 118.068 12.3013 118.11 12.12C118.164 11.928 118.238 11.752 118.334 11.592L119.87 11.8C119.849 11.8747 119.828 11.9547 119.806 12.04C119.796 12.1253 119.79 12.216 119.79 12.312C119.79 12.4507 119.828 12.5627 119.902 12.648C119.988 12.7333 120.132 12.776 120.334 12.776H122.334V14.184H119.966ZM124.104 15V12.184C124.104 11.512 124.243 11.0053 124.52 10.664C124.797 10.3227 125.176 10.088 125.656 9.96L125.672 9.896L123.944 9.256V8.792C123.944 8.30133 124.093 7.848 124.392 7.432C124.701 7.016 125.144 6.68 125.72 6.424C126.296 6.168 126.995 6.04 127.816 6.04C128.563 6.04 129.224 6.15733 129.8 6.392C130.376 6.62667 130.829 6.984 131.16 7.464C131.491 7.93333 131.656 8.54133 131.656 9.288V15H129.624V9.432C129.624 8.824 129.453 8.38133 129.112 8.104C128.771 7.82667 128.323 7.688 127.768 7.688C127.213 7.688 126.787 7.80533 126.488 8.04C126.2 8.264 126.045 8.54667 126.024 8.888L127.576 9.624L127.416 10.568C127.021 10.5787 126.707 10.7173 126.472 10.984C126.248 11.24 126.136 11.608 126.136 12.088V15H124.104ZM129.214 4.952C128.734 4.952 128.355 4.88267 128.078 4.744C127.8 4.59467 127.603 4.41333 127.486 4.2C127.358 3.976 127.294 3.74133 127.294 3.496C127.294 3.32533 127.32 3.144 127.374 2.952C127.416 2.74933 127.486 2.568 127.582 2.408L129.118 2.632C129.096 2.68533 129.08 2.76 129.07 2.856C129.048 2.94133 129.038 3.02133 129.038 3.096C129.038 3.23467 129.086 3.352 129.182 3.448C129.267 3.53333 129.411 3.576 129.614 3.576H133.294V4.952H129.214ZM137.036 15.16C136.396 15.16 135.852 15.0427 135.404 14.808C134.956 14.5627 134.614 14.2 134.38 13.72C134.145 13.24 134.028 12.6373 134.028 11.912V6.232H136.06V11.624C136.06 12.232 136.193 12.6853 136.46 12.984C136.737 13.272 137.132 13.416 137.644 13.416C138.273 13.416 138.758 13.192 139.1 12.744C139.452 12.2853 139.628 11.624 139.628 10.76V6.232H141.66V15H140.076L139.9 13.672H139.772C139.59 14.0987 139.27 14.456 138.812 14.744C138.364 15.0213 137.772 15.16 137.036 15.16ZM62.74 35V29.256C62.74 28.6693 62.5907 28.2533 62.292 28.008C62.004 27.752 61.54 27.624 60.9 27.624C60.356 27.624 59.828 27.704 59.316 27.864C58.804 28.024 58.3453 28.2213 57.94 28.456V26.712C58.2493 26.5627 58.676 26.4133 59.22 26.264C59.7747 26.1147 60.4093 26.04 61.124 26.04C61.6893 26.04 62.1853 26.1093 62.612 26.248C63.0493 26.376 63.3693 26.632 63.572 27.016C63.988 27.1653 64.2813 27.4373 64.452 27.832C64.6333 28.216 64.724 28.696 64.724 29.272V35H62.74ZM60.068 35.16C59.14 35.16 58.4253 34.9413 57.924 34.504C57.4333 34.0667 57.188 33.4533 57.188 32.664C57.188 31.7893 57.4973 31.1067 58.116 30.616C58.7453 30.1147 59.748 29.816 61.124 29.72L63.076 29.576V31.096L61.364 31.24C60.5533 31.3147 59.9933 31.464 59.684 31.688C59.3747 31.9013 59.22 32.2053 59.22 32.6C59.22 32.9733 59.3373 33.256 59.572 33.448C59.8173 33.6293 60.148 33.72 60.564 33.72C60.7133 33.72 60.852 33.7093 60.98 33.688C61.1187 33.656 61.2467 33.624 61.364 33.592L61.588 34.92C61.3853 34.9947 61.1507 35.0533 60.884 35.096C60.6173 35.1387 60.3453 35.16 60.068 35.16ZM63.524 27.784L62.404 26.808C62.7347 26.712 63.012 26.5733 63.236 26.392C63.4707 26.2 63.588 25.9547 63.588 25.656H65.428C65.428 25.9867 65.3533 26.296 65.204 26.584C65.0653 26.8613 64.852 27.1067 64.564 27.32C64.2867 27.5227 63.94 27.6773 63.524 27.784ZM57.5989 24.952V24.088L59.0389 23.48H64.7189V24.952H57.5989ZM70.1451 35.16C69.5051 35.16 68.9611 35.0427 68.5131 34.808C68.0651 34.5627 67.7238 34.2 67.4891 33.72C67.2545 33.24 67.1371 32.6373 67.1371 31.912V26.232H69.1691V31.624C69.1691 32.232 69.3025 32.6853 69.5691 32.984C69.8465 33.272 70.2411 33.416 70.7531 33.416C71.3825 33.416 71.8678 33.192 72.2091 32.744C72.5611 32.2853 72.7371 31.624 72.7371 30.76V26.232H74.7691V35H73.1851L73.0091 33.672H72.8811C72.6998 34.0987 72.3798 34.456 71.9211 34.744C71.4731 35.0213 70.8811 35.16 70.1451 35.16ZM77.2778 35V29.656C77.2778 28.4827 77.5871 27.5867 78.2057 26.968C78.8351 26.3493 79.8271 26.04 81.1818 26.04C82.5364 26.04 83.5178 26.3493 84.1258 26.968C84.7444 27.5867 85.0538 28.4827 85.0538 29.656V35H83.0218V29.624C83.0218 29.0053 82.8671 28.5307 82.5578 28.2C82.2591 27.8587 81.7898 27.688 81.1498 27.688C80.5098 27.688 80.0404 27.8587 79.7418 28.2C79.4431 28.5307 79.2938 29.0053 79.2938 29.624V31.16L79.3418 31.176C79.5551 30.76 79.8111 30.488 80.1098 30.36C80.4191 30.2213 80.8458 30.152 81.3898 30.152H81.8058V31.72H81.3898C80.8138 31.72 80.3711 31.8107 80.0618 31.992C79.7631 32.1733 79.5604 32.4133 79.4538 32.712C79.3471 33 79.2938 33.3253 79.2938 33.688V35H77.2778ZM80.1402 24.952V24.2C80.3109 24.1573 80.4976 24.0987 80.7002 24.024C80.8922 23.9387 81.0629 23.832 81.2122 23.704C81.3509 23.576 81.4202 23.416 81.4202 23.224C81.4202 23.0853 81.3776 22.9733 81.2922 22.888C81.2069 22.792 81.0949 22.744 80.9562 22.744C80.8602 22.744 80.7642 22.7653 80.6682 22.808C80.5616 22.84 80.4709 22.872 80.3962 22.904L80.0762 21.912C80.2896 21.7307 80.5456 21.6133 80.8442 21.56C81.1322 21.496 81.3776 21.464 81.5802 21.464C82.0389 21.464 82.3962 21.5813 82.6522 21.816C82.9082 22.04 83.0362 22.36 83.0362 22.776C83.0362 23.032 82.9722 23.2667 82.8442 23.48C82.7056 23.6827 82.5189 23.848 82.2842 23.976L82.1882 23.576H85.2602V24.952H80.1402ZM89.8024 35V29.048C89.8024 28.568 89.6904 28.2213 89.4664 28.008C89.253 27.784 88.8904 27.672 88.3784 27.672C88.0157 27.672 87.6797 27.7253 87.3704 27.832C87.061 27.928 86.7677 28.0507 86.4904 28.2V26.52C86.7144 26.4133 87.0344 26.3067 87.4504 26.2C87.8664 26.0933 88.357 26.04 88.9224 26.04C89.4984 26.04 90.005 26.1253 90.4424 26.296C90.8797 26.456 91.221 26.7333 91.4664 27.128C91.7117 27.512 91.8344 28.0347 91.8344 28.696V35H89.8024ZM96.4876 35.16C96.0823 35.16 95.725 35.096 95.4156 34.968C95.1063 34.84 94.8663 34.6373 94.6956 34.36C94.525 34.072 94.4396 33.704 94.4396 33.256V26.232H96.4716V33C96.4716 33.224 96.5196 33.3893 96.6156 33.496C96.7116 33.592 96.8663 33.64 97.0796 33.64C97.165 33.64 97.2556 33.6293 97.3516 33.608C97.4583 33.5867 97.5543 33.56 97.6396 33.528L97.8636 34.872C97.661 34.9787 97.4423 35.0533 97.2076 35.096C96.973 35.1387 96.733 35.16 96.4876 35.16ZM101.128 35.16C100.722 35.16 100.365 35.096 100.056 34.968C99.7463 34.84 99.5063 34.6373 99.3356 34.36C99.165 34.072 99.0796 33.704 99.0796 33.256V26.232H101.112V33C101.112 33.224 101.16 33.3893 101.256 33.496C101.352 33.592 101.506 33.64 101.72 33.64C101.805 33.64 101.896 33.6293 101.992 33.608C102.098 33.5867 102.194 33.56 102.28 33.528L102.504 34.872C102.301 34.9787 102.082 35.0533 101.848 35.096C101.613 35.1387 101.373 35.16 101.128 35.16ZM104.124 35V26.232H105.596L105.884 27.608H105.996C106.177 27.16 106.497 26.792 106.956 26.504C107.414 26.216 107.996 26.072 108.7 26.072C109.361 26.072 109.916 26.1893 110.364 26.424C110.822 26.648 111.169 27 111.404 27.48C111.638 27.9493 111.756 28.5467 111.756 29.272V35H109.724V29.608C109.724 28.9893 109.585 28.536 109.308 28.248C109.041 27.96 108.646 27.816 108.124 27.816C107.697 27.816 107.334 27.928 107.036 28.152C106.748 28.3653 106.529 28.6693 106.38 29.064C106.23 29.448 106.156 29.9173 106.156 30.472V35H104.124ZM106.765 24.952V24.2C106.936 24.1573 107.123 24.0987 107.325 24.024C107.517 23.9387 107.688 23.832 107.837 23.704C107.976 23.576 108.045 23.416 108.045 23.224C108.045 23.0853 108.003 22.9733 107.917 22.888C107.832 22.792 107.72 22.744 107.581 22.744C107.485 22.744 107.389 22.7653 107.293 22.808C107.187 22.84 107.096 22.872 107.021 22.904L106.701 21.912C106.915 21.7307 107.171 21.6133 107.469 21.56C107.757 21.496 108.003 21.464 108.205 21.464C108.664 21.464 109.021 21.5813 109.277 21.816C109.533 22.04 109.661 22.36 109.661 22.776C109.661 23.032 109.597 23.2667 109.469 23.48C109.331 23.6827 109.144 23.848 108.909 23.976L108.813 23.576H111.885V24.952H106.765ZM123.35 35H121.334V27.88C121.334 27.6453 121.334 27.4053 121.334 27.16C121.344 26.9147 121.355 26.6693 121.366 26.424C121.376 26.168 121.387 25.9333 121.398 25.72C121.291 25.8267 121.158 25.9547 120.998 26.104C120.838 26.2427 120.672 26.3867 120.502 26.536L119.222 27.56L118.214 26.312L121.67 23.576H123.35V35ZM134.73 29.288C134.73 30.2053 134.661 31.0267 134.522 31.752C134.383 32.4773 134.159 33.096 133.85 33.608C133.541 34.1093 133.135 34.4933 132.634 34.76C132.133 35.0267 131.525 35.16 130.81 35.16C129.914 35.16 129.178 34.9253 128.602 34.456C128.026 33.9867 127.599 33.3147 127.322 32.44C127.045 31.5653 126.906 30.5147 126.906 29.288C126.906 28.0507 127.034 26.9947 127.29 26.12C127.546 25.2453 127.957 24.5733 128.522 24.104C129.098 23.6347 129.861 23.4 130.81 23.4C131.706 23.4 132.442 23.6347 133.018 24.104C133.594 24.5627 134.021 25.2347 134.298 26.12C134.586 26.9947 134.73 28.0507 134.73 29.288ZM128.938 29.288C128.938 30.216 128.997 30.9947 129.114 31.624C129.231 32.2427 129.423 32.712 129.69 33.032C129.967 33.3413 130.341 33.496 130.81 33.496C131.279 33.496 131.647 33.3413 131.914 33.032C132.191 32.7227 132.389 32.2587 132.506 31.64C132.634 31.0107 132.698 30.2267 132.698 29.288C132.698 28.3493 132.634 27.5707 132.506 26.952C132.389 26.3227 132.191 25.8533 131.914 25.544C131.647 25.224 131.279 25.064 130.81 25.064C130.341 25.064 129.967 25.224 129.69 25.544C129.423 25.8533 129.231 26.3227 129.114 26.952C128.997 27.5707 128.938 28.3493 128.938 29.288ZM143.886 29.288C143.886 30.2053 143.817 31.0267 143.678 31.752C143.54 32.4773 143.316 33.096 143.006 33.608C142.697 34.1093 142.292 34.4933 141.79 34.76C141.289 35.0267 140.681 35.16 139.966 35.16C139.07 35.16 138.334 34.9253 137.758 34.456C137.182 33.9867 136.756 33.3147 136.478 32.44C136.201 31.5653 136.062 30.5147 136.062 29.288C136.062 28.0507 136.19 26.9947 136.446 26.12C136.702 25.2453 137.113 24.5733 137.678 24.104C138.254 23.6347 139.017 23.4 139.966 23.4C140.862 23.4 141.598 23.6347 142.174 24.104C142.75 24.5627 143.177 25.2347 143.454 26.12C143.742 26.9947 143.886 28.0507 143.886 29.288ZM138.094 29.288C138.094 30.216 138.153 30.9947 138.27 31.624C138.388 32.2427 138.58 32.712 138.846 33.032C139.124 33.3413 139.497 33.496 139.966 33.496C140.436 33.496 140.804 33.3413 141.07 33.032C141.348 32.7227 141.545 32.2587 141.662 31.64C141.79 31.0107 141.854 30.2267 141.854 29.288C141.854 28.3493 141.79 27.5707 141.662 26.952C141.545 26.3227 141.348 25.8533 141.07 25.544C140.804 25.224 140.436 25.064 139.966 25.064C139.497 25.064 139.124 25.224 138.846 25.544C138.58 25.8533 138.388 26.3227 138.27 26.952C138.153 27.5707 138.094 28.3493 138.094 29.288ZM147.715 23.416C148.579 23.416 149.229 23.7307 149.667 24.36C150.115 24.9787 150.339 25.8533 150.339 26.984C150.339 28.1147 150.125 29 149.699 29.64C149.283 30.2693 148.621 30.584 147.715 30.584C146.893 30.584 146.264 30.2693 145.827 29.64C145.389 29 145.171 28.1147 145.171 26.984C145.171 25.8533 145.373 24.9787 145.779 24.36C146.184 23.7307 146.829 23.416 147.715 23.416ZM147.731 24.808C147.421 24.808 147.192 24.9893 147.043 25.352C146.904 25.7147 146.835 26.264 146.835 27C146.835 27.7253 146.904 28.2747 147.043 28.648C147.192 29.0107 147.421 29.192 147.731 29.192C148.051 29.192 148.285 29.0107 148.435 28.648C148.584 28.2853 148.659 27.736 148.659 27C148.659 26.264 148.584 25.7147 148.435 25.352C148.285 24.9893 148.051 24.808 147.731 24.808ZM155.539 23.576L149.203 35H147.571L153.907 23.576H155.539ZM155.347 27.976C156.2 27.976 156.845 28.2907 157.283 28.92C157.731 29.5387 157.955 30.4133 157.955 31.544C157.955 32.6747 157.741 33.56 157.315 34.2C156.899 34.8293 156.243 35.144 155.347 35.144C154.515 35.144 153.88 34.8293 153.443 34.2C153.005 33.56 152.786 32.6747 152.786 31.544C152.786 30.4133 152.989 29.5387 153.395 28.92C153.8 28.2907 154.451 27.976 155.347 27.976ZM155.347 29.384C155.037 29.384 154.808 29.5653 154.659 29.928C154.52 30.28 154.451 30.824 154.451 31.56C154.451 32.296 154.52 32.8507 154.659 33.224C154.808 33.5867 155.037 33.768 155.347 33.768C155.667 33.768 155.901 33.5867 156.051 33.224C156.211 32.8613 156.291 32.3067 156.291 31.56C156.291 30.824 156.211 30.28 156.051 29.928C155.901 29.5653 155.667 29.384 155.347 29.384Z" fill="#221690"/>
</svg>
