<svg width="182" height="56" viewBox="0 0 182 56" fill="none" xmlns="http://www.w3.org/2000/svg">
<path d="M19.3578 44.0164V28.9115L6.1329 21.2532V35.9919C6.1329 36.1004 6.16004 36.2021 6.21432 36.2971C6.26856 36.3921 6.34993 36.4734 6.45845 36.5413L19.3578 44.0164ZM22.5317 44.0164L35.4311 36.5413C35.5396 36.4734 35.621 36.3921 35.6752 36.2971C35.7295 36.2021 35.7567 36.1004 35.7567 35.9919V21.2532L22.5317 28.9115V44.0164ZM19.0323 47.4791L4.87151 39.3286C4.26927 38.9814 3.79996 38.5175 3.46359 37.9369C3.12719 37.3564 2.95898 36.7189 2.95898 36.0244V19.9756C2.95898 19.2811 3.12719 18.6436 3.46359 18.0631C3.79996 17.4825 4.26927 17.0186 4.87151 16.6714L19.0323 8.52085C19.6345 8.17362 20.272 8 20.9448 8C21.6176 8 22.2551 8.17362 22.8573 8.52085L37.018 16.6714C37.6203 17.0186 38.0896 17.4825 38.426 18.0631C38.7624 18.6436 38.9306 19.2811 38.9306 19.9756V36.0244C38.9306 36.7189 38.7624 37.3564 38.426 37.9369C38.0896 38.5175 37.6203 38.9814 37.018 39.3286L22.8573 47.4791C22.2551 47.8264 21.6176 48 20.9448 48C20.272 48 19.6345 47.8264 19.0323 47.4791ZM29.1035 21.4405L34.011 18.6246L21.2703 11.2553C21.1618 11.1875 21.0533 11.1536 20.9448 11.1536C20.8363 11.1536 20.7278 11.1875 20.6192 11.2553L16.0251 13.9003L29.1035 21.4405ZM20.9448 26.177L25.8645 23.3286L12.7982 15.7761L7.87854 18.6246L20.9448 26.177Z" fill="#221690"/>
<path d="M61.172 15.192C60.0413 15.192 59.1773 14.936 58.58 14.424C57.9827 13.9013 57.684 13.1387 57.684 12.136V11.384C57.684 10.904 57.7427 10.52 57.86 10.232C57.9773 9.93333 58.1213 9.66667 58.292 9.432C58.4733 9.19733 58.6227 8.98933 58.74 8.808C58.8573 8.616 58.916 8.408 58.916 8.184C58.916 7.98133 58.868 7.83733 58.772 7.752C58.676 7.66667 58.548 7.624 58.388 7.624C58.2707 7.624 58.148 7.64533 58.02 7.688C57.9027 7.72 57.7747 7.768 57.636 7.832L57.268 6.504C57.5347 6.35467 57.828 6.25333 58.148 6.2C58.468 6.14667 58.7507 6.12 58.996 6.12C59.444 6.12 59.8013 6.19467 60.068 6.344C60.3347 6.48267 60.5267 6.68533 60.644 6.952C60.7613 7.208 60.82 7.51733 60.82 7.88C60.82 8.232 60.7613 8.536 60.644 8.792C60.5373 9.048 60.404 9.304 60.244 9.56C60.0947 9.816 59.9667 10.056 59.86 10.28C59.7533 10.504 59.7 10.8187 59.7 11.224V11.96C59.7 12.3547 59.7587 12.6747 59.876 12.92C60.004 13.1547 60.18 13.3253 60.404 13.432C60.628 13.528 60.884 13.576 61.172 13.576C61.6627 13.576 62.02 13.4533 62.244 13.208C62.4787 12.952 62.596 12.5947 62.596 12.136V10.328C62.596 9.976 62.516 9.704 62.356 9.512C62.196 9.32 61.9347 9.224 61.572 9.224H61.492V8.088H61.588C61.9613 8.088 62.228 7.992 62.388 7.8C62.5587 7.608 62.6653 7.37333 62.708 7.096C62.7507 6.808 62.772 6.52 62.772 6.232H64.804C64.804 6.85067 64.724 7.368 64.564 7.784C64.404 8.2 64.1 8.488 63.652 8.648V8.712C63.9187 8.78667 64.1213 8.904 64.26 9.064C64.3987 9.224 64.4893 9.416 64.532 9.64C64.5853 9.85333 64.612 10.0773 64.612 10.312V12.2C64.612 13.1707 64.324 13.912 63.748 14.424C63.172 14.936 62.3133 15.192 61.172 15.192ZM60.109 4.952V4.2C60.2797 4.15733 60.4663 4.09867 60.669 4.024C60.861 3.93867 61.0317 3.832 61.181 3.704C61.3197 3.576 61.389 3.416 61.389 3.224C61.389 3.08533 61.3463 2.97333 61.261 2.888C61.1757 2.792 61.0637 2.744 60.925 2.744C60.829 2.744 60.733 2.76533 60.637 2.808C60.5303 2.84 60.4397 2.872 60.365 2.904L60.045 1.912C60.2583 1.73067 60.5143 1.61333 60.813 1.56C61.101 1.496 61.3463 1.464 61.549 1.464C62.0077 1.464 62.365 1.58133 62.621 1.816C62.877 2.04 63.005 2.36 63.005 2.776C63.005 3.032 62.941 3.26667 62.813 3.48C62.6743 3.68267 62.4877 3.848 62.253 3.976L62.157 3.576H65.229V4.952H60.109ZM70.3249 15.192C69.0769 15.192 68.1489 14.8827 67.5409 14.264C66.9435 13.6347 66.6449 12.6907 66.6449 11.432C66.6449 11.2187 66.6502 10.968 66.6609 10.68C66.6822 10.392 66.7035 10.1307 66.7249 9.896H70.3889V11.272H68.6449V11.528C68.6449 12.0507 68.7035 12.4667 68.8209 12.776C68.9489 13.0853 69.1355 13.3093 69.3809 13.448C69.6262 13.5867 69.9355 13.656 70.3089 13.656C70.7142 13.656 71.0609 13.5707 71.3489 13.4C71.6369 13.2293 71.8555 12.936 72.0049 12.52C72.1649 12.0933 72.2449 11.5013 72.2449 10.744C72.2449 10.0613 72.1649 9.496 72.0049 9.048C71.8555 8.58933 71.6049 8.248 71.2529 8.024C70.9009 7.8 70.4155 7.688 69.7969 7.688C69.4662 7.688 69.1355 7.72 68.8049 7.784C68.4742 7.848 68.1542 7.93333 67.8449 8.04C67.5462 8.14667 67.2742 8.27467 67.0289 8.424V6.68C67.2529 6.552 67.5302 6.44533 67.8609 6.36C68.1915 6.264 68.5542 6.18933 68.9489 6.136C69.3435 6.072 69.7382 6.04 70.1329 6.04C71.1355 6.04 71.9409 6.232 72.5489 6.616C73.1675 6.98933 73.6155 7.52267 73.8929 8.216C74.1809 8.90933 74.3249 9.72533 74.3249 10.664C74.3249 11.624 74.1915 12.4453 73.9249 13.128C73.6582 13.8 73.2315 14.312 72.6449 14.664C72.0582 15.016 71.2849 15.192 70.3249 15.192ZM80.1479 15.192C78.8039 15.192 77.8332 14.8827 77.2359 14.264C76.6492 13.6453 76.3559 12.7493 76.3559 11.576V6.232H78.3879V11.672C78.3879 12.2907 78.5319 12.76 78.8199 13.08C79.1079 13.3893 79.5505 13.544 80.1479 13.544C80.7559 13.544 81.2039 13.3893 81.4919 13.08C81.7799 12.76 81.9239 12.2907 81.9239 11.672V3.08H83.9559V11.576C83.9559 12.7493 83.6572 13.6453 83.0599 14.264C82.4625 14.8827 81.4919 15.192 80.1479 15.192ZM86.3403 15V9.656C86.3403 8.48267 86.6496 7.58667 87.2682 6.968C87.8976 6.34933 88.8896 6.04 90.2443 6.04C91.5989 6.04 92.5803 6.34933 93.1883 6.968C93.8069 7.58667 94.1163 8.48267 94.1163 9.656V15H92.0843V9.624C92.0843 9.00533 91.9296 8.53067 91.6203 8.2C91.3216 7.85867 90.8523 7.688 90.2123 7.688C89.5723 7.688 89.1029 7.85867 88.8043 8.2C88.5056 8.53067 88.3563 9.00533 88.3563 9.624V11.16L88.4043 11.176C88.6176 10.76 88.8736 10.488 89.1723 10.36C89.4816 10.2213 89.9083 10.152 90.4523 10.152H90.8683V11.72H90.4523C89.8763 11.72 89.4336 11.8107 89.1243 11.992C88.8256 12.1733 88.6229 12.4133 88.5163 12.712C88.4096 13 88.3563 13.3253 88.3563 13.688V15H86.3403ZM99.2809 15.192C98.6515 15.192 98.0382 15.128 97.4409 15C96.8435 14.8613 96.3209 14.68 95.8729 14.456L96.4489 12.84C96.6729 12.9467 96.9289 13.0587 97.2169 13.176C97.5155 13.2827 97.8355 13.3733 98.1769 13.448C98.5289 13.5227 98.8809 13.56 99.2329 13.56C99.7129 13.56 100.092 13.4853 100.369 13.336C100.646 13.176 100.785 12.9413 100.785 12.632C100.785 12.4187 100.716 12.2427 100.577 12.104C100.438 11.9547 100.23 11.816 99.9529 11.688C99.6755 11.56 99.3342 11.432 98.9289 11.304C98.3209 11.1013 97.8035 10.8827 97.3769 10.648C96.9502 10.4027 96.6249 10.1147 96.4009 9.784C96.1769 9.44267 96.0649 9.016 96.0649 8.504C96.0649 7.97067 96.1982 7.52267 96.4649 7.16C96.7422 6.79733 97.1475 6.52 97.6809 6.328C98.2142 6.136 98.8542 6.04 99.6009 6.04C100.166 6.04 100.684 6.088 101.153 6.184C101.622 6.28 101.99 6.40267 102.257 6.552V8.184C102.076 8.09867 101.841 8.01333 101.553 7.928C101.265 7.84267 100.956 7.77333 100.625 7.72C100.294 7.656 99.9689 7.624 99.6489 7.624C99.1155 7.624 98.7209 7.704 98.4649 7.864C98.2195 8.01333 98.0969 8.21067 98.0969 8.456C98.0969 8.648 98.1662 8.81333 98.3049 8.952C98.4542 9.08 98.6835 9.20267 98.9929 9.32C99.3022 9.43733 99.6915 9.58133 100.161 9.752C100.694 9.93333 101.158 10.1413 101.553 10.376C101.958 10.6 102.268 10.8827 102.481 11.224C102.705 11.5653 102.817 11.992 102.817 12.504C102.817 12.9733 102.705 13.4107 102.481 13.816C102.268 14.2213 101.905 14.552 101.393 14.808C100.881 15.064 100.177 15.192 99.2809 15.192ZM108.382 15.192C107.038 15.192 106.068 14.8827 105.47 14.264C104.884 13.6453 104.59 12.7493 104.59 11.576V6.232H106.622V11.672C106.622 12.2907 106.766 12.76 107.054 13.08C107.342 13.3893 107.785 13.544 108.382 13.544C108.99 13.544 109.438 13.3893 109.726 13.08C110.014 12.76 110.158 12.2907 110.158 11.672V6.232H112.19V11.576C112.19 12.7493 111.892 13.6453 111.294 14.264C110.697 14.8827 109.726 15.192 108.382 15.192ZM122.187 7.816C122.913 7.816 123.553 7.94933 124.107 8.216C124.662 8.48267 125.094 8.872 125.403 9.384C125.723 9.88533 125.883 10.504 125.883 11.24C125.883 12.0507 125.713 12.7493 125.371 13.336C125.03 13.9227 124.529 14.376 123.867 14.696C123.206 15.0053 122.395 15.16 121.435 15.16C120.838 15.16 120.278 15.1067 119.755 15C119.233 14.8933 118.779 14.7387 118.395 14.536V12.744C118.79 12.9573 119.265 13.1333 119.819 13.272C120.374 13.4107 120.897 13.48 121.387 13.48C121.899 13.48 122.337 13.4107 122.699 13.272C123.062 13.1227 123.339 12.8987 123.531 12.6C123.723 12.2907 123.819 11.9013 123.819 11.432C123.819 10.792 123.617 10.3067 123.211 9.976C122.806 9.64533 122.177 9.48 121.323 9.48C121.025 9.48 120.699 9.50667 120.347 9.56C120.006 9.61333 119.723 9.66667 119.499 9.72L118.635 9.24L119.067 3.576H125.083V5.336H120.843L120.603 7.976C120.785 7.944 120.998 7.912 121.243 7.88C121.499 7.83733 121.814 7.816 122.187 7.816ZM135.168 9.288C135.168 10.2053 135.098 11.0267 134.96 11.752C134.821 12.4773 134.597 13.096 134.288 13.608C133.978 14.1093 133.573 14.4933 133.072 14.76C132.57 15.0267 131.962 15.16 131.248 15.16C130.352 15.16 129.616 14.9253 129.039 14.456C128.464 13.9867 128.037 13.3147 127.76 12.44C127.482 11.5653 127.344 10.5147 127.344 9.288C127.344 8.05067 127.472 6.99467 127.728 6.12C127.984 5.24533 128.394 4.57333 128.96 4.104C129.536 3.63467 130.298 3.4 131.248 3.4C132.144 3.4 132.88 3.63467 133.456 4.104C134.032 4.56267 134.458 5.23467 134.736 6.12C135.024 6.99467 135.168 8.05067 135.168 9.288ZM129.376 9.288C129.376 10.216 129.434 10.9947 129.552 11.624C129.669 12.2427 129.861 12.712 130.128 13.032C130.405 13.3413 130.778 13.496 131.248 13.496C131.717 13.496 132.085 13.3413 132.352 13.032C132.629 12.7227 132.826 12.2587 132.944 11.64C133.072 11.0107 133.136 10.2267 133.136 9.288C133.136 8.34933 133.072 7.57067 132.944 6.952C132.826 6.32267 132.629 5.85333 132.352 5.544C132.085 5.224 131.717 5.064 131.248 5.064C130.778 5.064 130.405 5.224 130.128 5.544C129.861 5.85333 129.669 6.32267 129.552 6.952C129.434 7.57067 129.376 8.34933 129.376 9.288ZM144.324 9.288C144.324 10.2053 144.254 11.0267 144.116 11.752C143.977 12.4773 143.753 13.096 143.444 13.608C143.134 14.1093 142.729 14.4933 142.228 14.76C141.726 15.0267 141.118 15.16 140.404 15.16C139.508 15.16 138.772 14.9253 138.196 14.456C137.62 13.9867 137.193 13.3147 136.916 12.44C136.638 11.5653 136.5 10.5147 136.5 9.288C136.5 8.05067 136.628 6.99467 136.884 6.12C137.14 5.24533 137.55 4.57333 138.116 4.104C138.692 3.63467 139.454 3.4 140.404 3.4C141.3 3.4 142.036 3.63467 142.612 4.104C143.188 4.56267 143.614 5.23467 143.892 6.12C144.18 6.99467 144.324 8.05067 144.324 9.288ZM138.532 9.288C138.532 10.216 138.59 10.9947 138.708 11.624C138.825 12.2427 139.017 12.712 139.284 13.032C139.561 13.3413 139.934 13.496 140.404 13.496C140.873 13.496 141.241 13.3413 141.508 13.032C141.785 12.7227 141.982 12.2587 142.1 11.64C142.228 11.0107 142.292 10.2267 142.292 9.288C142.292 8.34933 142.228 7.57067 142.1 6.952C141.982 6.32267 141.785 5.85333 141.508 5.544C141.241 5.224 140.873 5.064 140.404 5.064C139.934 5.064 139.561 5.224 139.284 5.544C139.017 5.85333 138.825 6.32267 138.708 6.952C138.59 7.57067 138.532 8.34933 138.532 9.288ZM154.132 15.192C152.788 15.192 151.818 14.8827 151.22 14.264C150.634 13.6453 150.34 12.7493 150.34 11.576V6.232H152.372V11.672C152.372 12.2907 152.516 12.76 152.804 13.08C153.092 13.3893 153.535 13.544 154.132 13.544C154.74 13.544 155.188 13.3893 155.476 13.08C155.764 12.76 155.908 12.2907 155.908 11.672V6.232H157.94V11.576C157.94 12.7493 157.642 13.6453 157.044 14.264C156.447 14.8827 155.476 15.192 154.132 15.192ZM162.693 15V9.048C162.693 8.568 162.581 8.22133 162.357 8.008C162.144 7.784 161.781 7.672 161.269 7.672C160.906 7.672 160.57 7.72533 160.261 7.832C159.952 7.928 159.658 8.05067 159.381 8.2V6.52C159.605 6.41333 159.925 6.30667 160.341 6.2C160.757 6.09333 161.248 6.04 161.813 6.04C162.389 6.04 162.896 6.12533 163.333 6.296C163.77 6.456 164.112 6.73333 164.357 7.128C164.602 7.512 164.725 8.03467 164.725 8.696V15H162.693ZM167.186 15V6.232H168.658L168.946 7.608H169.058C169.24 7.16 169.56 6.792 170.018 6.504C170.477 6.216 171.058 6.072 171.762 6.072C172.424 6.072 172.978 6.18933 173.426 6.424C173.885 6.648 174.232 7 174.466 7.48C174.701 7.94933 174.818 8.54667 174.818 9.272V15H172.786V9.608C172.786 8.98933 172.648 8.536 172.37 8.248C172.104 7.96 171.709 7.816 171.186 7.816C170.76 7.816 170.397 7.928 170.098 8.152C169.81 8.36533 169.592 8.66933 169.442 9.064C169.293 9.448 169.218 9.91733 169.218 10.472V15H167.186ZM58.532 35V31.24H57.508V29.896H60.388V33.432H60.532C60.9373 33.432 61.2787 33.3307 61.556 33.128C61.8333 32.9253 62.0413 32.616 62.18 32.2C62.3187 31.784 62.388 31.2507 62.388 30.6C62.388 29.8853 62.2973 29.3147 62.116 28.888C61.9347 28.4613 61.6573 28.152 61.284 27.96C60.9107 27.768 60.436 27.672 59.86 27.672C59.316 27.672 58.8147 27.7467 58.356 27.896C57.908 28.0453 57.4973 28.2373 57.124 28.472V26.728C57.4547 26.536 57.8867 26.376 58.42 26.248C58.9533 26.1093 59.5507 26.04 60.212 26.04C61.2147 26.04 62.0253 26.2107 62.644 26.552C63.2733 26.8933 63.732 27.4 64.02 28.072C64.308 28.744 64.452 29.576 64.452 30.568C64.452 31.5067 64.3133 32.312 64.036 32.984C63.7693 33.6453 63.332 34.1467 62.724 34.488C62.1267 34.8293 61.3213 35 60.308 35H58.532ZM61.8386 24.952C61.3586 24.952 60.98 24.8827 60.7026 24.744C60.4253 24.5947 60.228 24.4133 60.1106 24.2C59.9826 23.976 59.9186 23.7413 59.9186 23.496C59.9186 23.3253 59.9453 23.144 59.9986 22.952C60.0413 22.7493 60.1106 22.568 60.2066 22.408L61.7426 22.632C61.7213 22.6853 61.7053 22.76 61.6946 22.856C61.6733 22.9413 61.6626 23.0213 61.6626 23.096C61.6626 23.2347 61.7106 23.352 61.8066 23.448C61.892 23.5333 62.036 23.576 62.2386 23.576H65.9186V24.952H61.8386ZM69.5533 35.16C68.6999 35.16 68.0226 34.968 67.5213 34.584C67.0199 34.1893 66.6626 33.656 66.4493 32.984C66.2359 32.312 66.1293 31.5547 66.1293 30.712C66.1293 29.7947 66.2253 29.032 66.4173 28.424C66.6199 27.816 66.9026 27.3413 67.2653 27C67.6386 26.648 68.0813 26.4027 68.5933 26.264C69.1053 26.1147 69.6706 26.04 70.2893 26.04C71.2066 26.04 71.9426 26.1733 72.4973 26.44C73.0626 26.696 73.4733 27.064 73.7292 27.544C73.9959 28.024 74.1293 28.5893 74.1293 29.24V35H72.0973V29.4C72.0973 28.8453 71.9586 28.424 71.6813 28.136C71.4146 27.8373 70.9559 27.688 70.3053 27.688C69.8893 27.688 69.5159 27.7733 69.1853 27.944C68.8653 28.104 68.6146 28.3973 68.4333 28.824C68.2626 29.2507 68.1773 29.8747 68.1773 30.696C68.1773 31.24 68.2306 31.7253 68.3373 32.152C68.4439 32.5787 68.6199 32.9147 68.8653 33.16C69.1213 33.3947 69.4679 33.512 69.9053 33.512C70.0439 33.512 70.1719 33.5067 70.2893 33.496C70.4173 33.4747 70.5293 33.448 70.6253 33.416L70.8173 34.952C70.6466 35.0267 70.4439 35.08 70.2093 35.112C69.9853 35.144 69.7666 35.16 69.5533 35.16ZM81.5525 35V29.256C81.5525 28.6693 81.4032 28.2533 81.1045 28.008C80.8165 27.752 80.3525 27.624 79.7125 27.624C79.1685 27.624 78.6405 27.704 78.1285 27.864C77.6165 28.024 77.1578 28.2213 76.7525 28.456V26.712C77.0618 26.5627 77.4885 26.4133 78.0325 26.264C78.5872 26.1147 79.2218 26.04 79.9365 26.04C80.5018 26.04 80.9978 26.1093 81.4245 26.248C81.8618 26.376 82.1818 26.632 82.3845 27.016C82.8005 27.1653 83.0938 27.4373 83.2645 27.832C83.4458 28.216 83.5365 28.696 83.5365 29.272V35H81.5525ZM78.8805 35.16C77.9525 35.16 77.2378 34.9413 76.7365 34.504C76.2458 34.0667 76.0005 33.4533 76.0005 32.664C76.0005 31.7893 76.3098 31.1067 76.9285 30.616C77.5578 30.1147 78.5605 29.816 79.9365 29.72L81.8885 29.576V31.096L80.1765 31.24C79.3658 31.3147 78.8058 31.464 78.4965 31.688C78.1872 31.9013 78.0325 32.2053 78.0325 32.6C78.0325 32.9733 78.1498 33.256 78.3845 33.448C78.6298 33.6293 78.9605 33.72 79.3765 33.72C79.5258 33.72 79.6645 33.7093 79.7925 33.688C79.9312 33.656 80.0592 33.624 80.1765 33.592L80.4005 34.92C80.1978 34.9947 79.9632 35.0533 79.6965 35.096C79.4298 35.1387 79.1578 35.16 78.8805 35.16ZM82.3365 27.784L81.2165 26.808C81.5472 26.712 81.8245 26.5733 82.0485 26.392C82.2832 26.2 82.4005 25.9547 82.4005 25.656H84.2405C84.2405 25.9867 84.1658 26.296 84.0165 26.584C83.8778 26.8613 83.6645 27.1067 83.3765 27.32C83.0992 27.5227 82.7525 27.6773 82.3365 27.784ZM81.5634 24.952V21.416H83.4674V24.952H81.5634ZM87.4376 35L84.8136 26.232H86.8616L88.9576 33.336H89.1016C89.3043 33.336 89.4963 33.2827 89.6776 33.176C89.859 33.0693 90.019 32.9307 90.1576 32.76C90.403 32.44 90.5843 32.0507 90.7016 31.592C90.8296 31.1333 90.8936 30.6747 90.8936 30.216C90.8936 29.4373 90.7336 28.8347 90.4136 28.408C90.0936 27.9813 89.651 27.768 89.0856 27.768C88.979 27.768 88.8723 27.7787 88.7656 27.8C88.6696 27.8107 88.5843 27.832 88.5096 27.864L88.1096 26.28C88.3443 26.216 88.563 26.1733 88.7656 26.152C88.979 26.1307 89.1603 26.12 89.3096 26.12C89.8643 26.12 90.3496 26.2 90.7656 26.36C91.1816 26.5093 91.539 26.7333 91.8376 27.032C92.211 27.3947 92.4883 27.848 92.6696 28.392C92.8616 28.936 92.9576 29.544 92.9576 30.216C92.9576 31.0693 92.8243 31.8213 92.5576 32.472C92.291 33.112 91.9656 33.6187 91.5816 33.992C91.2616 34.3013 90.867 34.5467 90.3976 34.728C89.9283 34.9093 89.299 35 88.5096 35H87.4376ZM95.7515 35L94.2475 26.232H96.2475L96.7115 29.592C96.7328 29.7093 96.7542 29.912 96.7755 30.2C96.8075 30.488 96.8448 30.8187 96.8875 31.192C96.9302 31.5653 96.9675 31.9387 96.9995 32.312H97.0635C97.1275 31.992 97.1968 31.6773 97.2715 31.368C97.3462 31.0587 97.4208 30.7493 97.4955 30.44C97.5808 30.1307 97.6662 29.832 97.7515 29.544L98.6955 26.232H100.04L100.984 29.544C101.069 29.832 101.149 30.1307 101.224 30.44C101.298 30.7493 101.373 31.0587 101.448 31.368C101.522 31.6773 101.597 31.992 101.672 32.312H101.72C101.752 31.9067 101.784 31.5333 101.816 31.192C101.858 30.8507 101.89 30.5467 101.911 30.28C101.944 30.0027 101.965 29.7733 101.976 29.592L102.792 23.08H104.76L103 35H101L99.8155 30.984C99.7195 30.6427 99.6395 30.3067 99.5755 29.976C99.5222 29.6347 99.4635 29.2613 99.3995 28.856H99.3355C99.2928 29.1333 99.2502 29.384 99.2075 29.608C99.1648 29.832 99.1168 30.056 99.0635 30.28C99.0102 30.4933 98.9515 30.728 98.8875 30.984L97.6875 35H95.7515ZM108.937 35.192C108.308 35.192 107.694 35.128 107.097 35C106.5 34.8613 105.977 34.68 105.529 34.456L106.105 32.84C106.329 32.9467 106.585 33.0587 106.873 33.176C107.172 33.2827 107.492 33.3733 107.833 33.448C108.185 33.5227 108.537 33.56 108.889 33.56C109.369 33.56 109.748 33.4853 110.025 33.336C110.302 33.176 110.441 32.9413 110.441 32.632C110.441 32.4187 110.372 32.2427 110.233 32.104C110.094 31.9547 109.886 31.816 109.609 31.688C109.332 31.56 108.99 31.432 108.585 31.304C107.977 31.1013 107.46 30.8827 107.033 30.648C106.606 30.4027 106.281 30.1147 106.057 29.784C105.833 29.4427 105.721 29.016 105.721 28.504C105.721 27.9707 105.854 27.5227 106.121 27.16C106.398 26.7973 106.804 26.52 107.337 26.328C107.87 26.136 108.51 26.04 109.257 26.04C109.822 26.04 110.34 26.088 110.809 26.184C111.278 26.28 111.646 26.4027 111.913 26.552V28.184C111.732 28.0987 111.497 28.0133 111.209 27.928C110.921 27.8427 110.612 27.7733 110.281 27.72C109.95 27.656 109.625 27.624 109.305 27.624C108.772 27.624 108.377 27.704 108.121 27.864C107.876 28.0133 107.753 28.2107 107.753 28.456C107.753 28.648 107.822 28.8133 107.961 28.952C108.11 29.08 108.34 29.2027 108.649 29.32C108.958 29.4373 109.348 29.5813 109.817 29.752C110.35 29.9333 110.814 30.1413 111.209 30.376C111.614 30.6 111.924 30.8827 112.137 31.224C112.361 31.5653 112.473 31.992 112.473 32.504C112.473 32.9733 112.361 33.4107 112.137 33.816C111.924 34.2213 111.561 34.552 111.049 34.808C110.537 35.064 109.833 35.192 108.937 35.192ZM105.005 24.952V24.088L106.445 23.48H112.125V24.952H105.005ZM110.349 24.104V22.296H112.141V24.104H110.349ZM114.343 35V26.232H115.815L116.103 27.608H116.215C116.396 27.16 116.716 26.792 117.174 26.504C117.633 26.216 118.215 26.072 118.919 26.072C119.58 26.072 120.135 26.1893 120.583 26.424C121.041 26.648 121.388 27 121.623 27.48C121.857 27.9493 121.975 28.5467 121.975 29.272V35H119.943V29.608C119.943 28.9893 119.804 28.536 119.527 28.248C119.26 27.96 118.865 27.816 118.343 27.816C117.916 27.816 117.553 27.928 117.255 28.152C116.967 28.3653 116.748 28.6693 116.599 29.064C116.449 29.448 116.375 29.9173 116.375 30.472V35H114.343ZM119.448 24.952C118.968 24.952 118.589 24.8827 118.312 24.744C118.035 24.5947 117.837 24.4133 117.72 24.2C117.592 23.976 117.528 23.7413 117.528 23.496C117.528 23.3253 117.555 23.144 117.608 22.952C117.651 22.7493 117.72 22.568 117.816 22.408L119.352 22.632C119.331 22.6853 119.315 22.76 119.304 22.856C119.283 22.9413 119.272 23.0213 119.272 23.096C119.272 23.2347 119.32 23.352 119.416 23.448C119.501 23.5333 119.645 23.576 119.848 23.576H123.528V24.952H119.448ZM120.177 22.416V19.584H121.985V22.416H120.177ZM126.468 35.192C125.967 35.192 125.492 35.1387 125.044 35.032C124.607 34.9253 124.175 34.7547 123.748 34.52L124.308 33.032C124.543 33.1707 124.82 33.2933 125.14 33.4C125.46 33.496 125.796 33.544 126.148 33.544C126.81 33.544 127.332 33.2933 127.716 32.792C128.111 32.2907 128.308 31.5493 128.308 30.568C128.308 29.6293 128.111 28.9147 127.716 28.424C127.332 27.9333 126.73 27.688 125.908 27.688C125.556 27.688 125.199 27.736 124.836 27.832C124.474 27.9173 124.164 28.0347 123.908 28.184V26.504C124.228 26.3547 124.586 26.2427 124.98 26.168C125.386 26.0827 125.802 26.04 126.228 26.04C127.21 26.04 128.004 26.2267 128.612 26.6C129.22 26.9627 129.663 27.4853 129.94 28.168C130.228 28.84 130.372 29.64 130.372 30.568C130.372 32.0507 130.036 33.192 129.364 33.992C128.703 34.792 127.738 35.192 126.468 35.192ZM136.226 35.192C134.882 35.192 133.911 34.8827 133.314 34.264C132.727 33.6453 132.434 32.7493 132.434 31.576V26.232H134.466V31.672C134.466 32.2907 134.61 32.76 134.898 33.08C135.186 33.3893 135.629 33.544 136.226 33.544C136.834 33.544 137.282 33.3893 137.57 33.08C137.858 32.76 138.002 32.2907 138.002 31.672V23.08H140.034V31.576C140.034 32.7493 139.735 33.6453 139.138 34.264C138.541 34.8827 137.57 35.192 136.226 35.192ZM145.218 35.192C144.589 35.192 143.976 35.128 143.378 35C142.781 34.8613 142.258 34.68 141.81 34.456L142.386 32.84C142.61 32.9467 142.866 33.0587 143.154 33.176C143.453 33.2827 143.773 33.3733 144.114 33.448C144.466 33.5227 144.818 33.56 145.17 33.56C145.65 33.56 146.029 33.4853 146.306 33.336C146.584 33.176 146.722 32.9413 146.722 32.632C146.722 32.4187 146.653 32.2427 146.514 32.104C146.376 31.9547 146.168 31.816 145.89 31.688C145.613 31.56 145.272 31.432 144.866 31.304C144.258 31.1013 143.741 30.8827 143.314 30.648C142.888 30.4027 142.562 30.1147 142.338 29.784C142.114 29.4427 142.002 29.016 142.002 28.504C142.002 27.9707 142.136 27.5227 142.402 27.16C142.68 26.7973 143.085 26.52 143.618 26.328C144.152 26.136 144.792 26.04 145.538 26.04C146.104 26.04 146.621 26.088 147.09 26.184C147.56 26.28 147.928 26.4027 148.194 26.552V28.184C148.013 28.0987 147.778 28.0133 147.49 27.928C147.202 27.8427 146.893 27.7733 146.562 27.72C146.232 27.656 145.906 27.624 145.586 27.624C145.053 27.624 144.658 27.704 144.402 27.864C144.157 28.0133 144.034 28.2107 144.034 28.456C144.034 28.648 144.104 28.8133 144.242 28.952C144.392 29.08 144.621 29.2027 144.93 29.32C145.24 29.4373 145.629 29.5813 146.098 29.752C146.632 29.9333 147.096 30.1413 147.49 30.376C147.896 30.6 148.205 30.8827 148.418 31.224C148.642 31.5653 148.754 31.992 148.754 32.504C148.754 32.9733 148.642 33.4107 148.418 33.816C148.205 34.2213 147.842 34.552 147.33 34.808C146.818 35.064 146.114 35.192 145.218 35.192ZM151.904 29.704C151.434 29.704 151.056 29.6347 150.768 29.496C150.49 29.3467 150.288 29.1547 150.16 28.92C150.042 28.6853 149.984 28.44 149.984 28.184C149.984 28.0027 150.005 27.8213 150.048 27.64C150.101 27.448 150.176 27.272 150.272 27.112L151.808 27.32C151.786 27.3947 151.765 27.4747 151.744 27.56C151.733 27.6453 151.728 27.736 151.728 27.832C151.728 27.9707 151.765 28.0827 151.84 28.168C151.925 28.2533 152.069 28.296 152.272 28.296H154.272V29.704H151.904ZM151.904 34.184C151.434 34.184 151.056 34.1147 150.768 33.976C150.49 33.8267 150.288 33.6347 150.16 33.4C150.042 33.1653 149.984 32.92 149.984 32.664C149.984 32.4827 150.005 32.3013 150.048 32.12C150.101 31.928 150.176 31.752 150.272 31.592L151.808 31.8C151.786 31.8747 151.765 31.9547 151.744 32.04C151.733 32.1253 151.728 32.216 151.728 32.312C151.728 32.4507 151.765 32.5627 151.84 32.648C151.925 32.7333 152.069 32.776 152.272 32.776H154.272V34.184H151.904ZM158.41 35.16C158.004 35.16 157.647 35.096 157.338 34.968C157.028 34.84 156.788 34.6373 156.618 34.36C156.447 34.072 156.362 33.704 156.362 33.256V26.232H158.394V33C158.394 33.224 158.442 33.3893 158.538 33.496C158.634 33.592 158.788 33.64 159.002 33.64C159.087 33.64 159.178 33.6293 159.274 33.608C159.38 33.5867 159.476 33.56 159.562 33.528L159.786 34.872C159.583 34.9787 159.364 35.0533 159.13 35.096C158.895 35.1387 158.655 35.16 158.41 35.16ZM161.405 35V26.232H162.877L163.165 27.608H163.277C163.458 27.16 163.778 26.792 164.237 26.504C164.696 26.216 165.277 26.072 165.981 26.072C166.642 26.072 167.197 26.1893 167.645 26.424C168.104 26.648 168.45 27 168.685 27.48C168.92 27.9493 169.037 28.5467 169.037 29.272V35H167.005V29.608C167.005 28.9893 166.866 28.536 166.589 28.248C166.322 27.96 165.928 27.816 165.405 27.816C164.978 27.816 164.616 27.928 164.317 28.152C164.029 28.3653 163.81 28.6693 163.661 29.064C163.512 29.448 163.437 29.9173 163.437 30.472V35H161.405ZM171.403 35V29.656C171.403 28.4827 171.712 27.5867 172.331 26.968C172.96 26.3493 173.952 26.04 175.307 26.04C175.915 26.04 176.443 26.12 176.891 26.28C177.349 26.44 177.701 26.712 177.947 27.096C178.405 27.288 178.725 27.608 178.907 28.056C179.088 28.504 179.179 29.0373 179.179 29.656V35H177.163V29.624C177.163 29.0053 177.008 28.5307 176.699 28.2C176.4 27.8587 175.936 27.688 175.307 27.688C174.667 27.688 174.192 27.8587 173.883 28.2C173.584 28.5307 173.435 29.0053 173.435 29.624V31.16L173.483 31.176C173.707 30.76 173.968 30.488 174.267 30.36C174.565 30.2213 174.981 30.152 175.515 30.152H175.963V31.72H175.515C174.949 31.72 174.512 31.8107 174.203 31.992C173.904 32.1733 173.701 32.4133 173.595 32.712C173.488 33 173.435 33.3253 173.435 33.688V35H171.403ZM177.995 27.784L176.875 26.808C177.216 26.712 177.499 26.5733 177.723 26.392C177.947 26.2 178.059 25.9547 178.059 25.656H179.899C179.899 25.9867 179.824 26.296 179.675 26.584C179.536 26.8613 179.323 27.1067 179.035 27.32C178.757 27.5227 178.411 27.6773 177.995 27.784Z" fill="#221690"/>
<path d="M59.81 45.4L59.61 47.25L61.46 46.72L61.62 47.84L59.89 47.97L61.02 49.47L60 50.01L59.21 48.4L58.5 50.01L57.45 49.47L58.56 47.97L56.85 47.83L57.02 46.72L58.84 47.25L58.64 45.4H59.81ZM63.2388 53V50.65H62.5988V49.81H64.3988V52.02H64.4888C64.7421 52.02 64.9554 51.9567 65.1288 51.83C65.3021 51.7033 65.4321 51.51 65.5188 51.25C65.6054 50.99 65.6488 50.6567 65.6488 50.25C65.6488 49.8033 65.5921 49.4467 65.4788 49.18C65.3654 48.9133 65.1921 48.72 64.9588 48.6C64.7254 48.48 64.4288 48.42 64.0688 48.42C63.7288 48.42 63.4154 48.4667 63.1288 48.56C62.8488 48.6533 62.5921 48.7733 62.3588 48.92V47.83C62.5654 47.71 62.8354 47.61 63.1688 47.53C63.5021 47.4433 63.8754 47.4 64.2888 47.4C64.9154 47.4 65.4221 47.5067 65.8088 47.72C66.2021 47.9333 66.4888 48.25 66.6688 48.67C66.8488 49.09 66.9388 49.61 66.9388 50.23C66.9388 50.8167 66.8521 51.32 66.6788 51.74C66.5121 52.1533 66.2388 52.4667 65.8588 52.68C65.4854 52.8933 64.9821 53 64.3488 53H63.2388ZM65.3054 46.72C65.0054 46.72 64.7687 46.6767 64.5954 46.59C64.4221 46.4967 64.2987 46.3833 64.2254 46.25C64.1454 46.11 64.1054 45.9633 64.1054 45.81C64.1054 45.7033 64.1221 45.59 64.1554 45.47C64.1821 45.3433 64.2254 45.23 64.2854 45.13L65.2454 45.27C65.2321 45.3033 65.2221 45.35 65.2154 45.41C65.2021 45.4633 65.1954 45.5133 65.1954 45.56C65.1954 45.6467 65.2254 45.72 65.2854 45.78C65.3387 45.8333 65.4287 45.86 65.5554 45.86H67.8554V46.72H65.3054ZM70.127 53.1C69.5937 53.1 69.1704 52.98 68.857 52.74C68.5437 52.4933 68.3204 52.16 68.187 51.74C68.0537 51.32 67.987 50.8467 67.987 50.32C67.987 49.7467 68.047 49.27 68.167 48.89C68.2937 48.51 68.4704 48.2133 68.697 48C68.9304 47.78 69.207 47.6267 69.527 47.54C69.847 47.4467 70.2004 47.4 70.587 47.4C71.1604 47.4 71.6204 47.4833 71.967 47.65C72.3204 47.81 72.577 48.04 72.737 48.34C72.9037 48.64 72.987 48.9933 72.987 49.4V53H71.717V49.5C71.717 49.1533 71.6304 48.89 71.457 48.71C71.2904 48.5233 71.0037 48.43 70.597 48.43C70.337 48.43 70.1037 48.4833 69.897 48.59C69.697 48.69 69.5404 48.8733 69.427 49.14C69.3204 49.4067 69.267 49.7967 69.267 50.31C69.267 50.65 69.3004 50.9533 69.367 51.22C69.4337 51.4867 69.5437 51.6967 69.697 51.85C69.857 51.9967 70.0737 52.07 70.347 52.07C70.4337 52.07 70.5137 52.0667 70.587 52.06C70.667 52.0467 70.737 52.03 70.797 52.01L70.917 52.97C70.8104 53.0167 70.6837 53.05 70.537 53.07C70.397 53.09 70.2604 53.1 70.127 53.1ZM77.6266 53V49.41C77.6266 49.0433 77.5332 48.7833 77.3466 48.63C77.1666 48.47 76.8766 48.39 76.4766 48.39C76.1366 48.39 75.8066 48.44 75.4866 48.54C75.1666 48.64 74.8799 48.7633 74.6266 48.91V47.82C74.8199 47.7267 75.0866 47.6333 75.4266 47.54C75.7732 47.4467 76.1699 47.4 76.6166 47.4C76.9699 47.4 77.2799 47.4433 77.5466 47.53C77.8199 47.61 78.0199 47.77 78.1466 48.01C78.4066 48.1033 78.5899 48.2733 78.6966 48.52C78.8099 48.76 78.8666 49.06 78.8666 49.42V53H77.6266ZM75.9566 53.1C75.3766 53.1 74.9299 52.9633 74.6166 52.69C74.3099 52.4167 74.1566 52.0333 74.1566 51.54C74.1566 50.9933 74.3499 50.5667 74.7366 50.26C75.1299 49.9467 75.7566 49.76 76.6166 49.7L77.8366 49.61V50.56L76.7666 50.65C76.2599 50.6967 75.9099 50.79 75.7166 50.93C75.5232 51.0633 75.4266 51.2533 75.4266 51.5C75.4266 51.7333 75.4999 51.91 75.6466 52.03C75.7999 52.1433 76.0066 52.2 76.2666 52.2C76.3599 52.2 76.4466 52.1933 76.5266 52.18C76.6132 52.16 76.6932 52.14 76.7666 52.12L76.9066 52.95C76.7799 52.9967 76.6332 53.0333 76.4666 53.06C76.2999 53.0867 76.1299 53.1 75.9566 53.1ZM78.1166 48.49L77.4166 47.88C77.6232 47.82 77.7966 47.7333 77.9366 47.62C78.0832 47.5 78.1566 47.3467 78.1566 47.16H79.3066C79.3066 47.3667 79.2599 47.56 79.1666 47.74C79.0799 47.9133 78.9466 48.0667 78.7666 48.2C78.5932 48.3267 78.3766 48.4233 78.1166 48.49ZM77.6334 46.72V44.51H78.8234V46.72H77.6334ZM81.3048 53L79.6648 47.52H80.9448L82.2548 51.96H82.3448C82.4714 51.96 82.5914 51.9267 82.7048 51.86C82.8181 51.7933 82.9181 51.7067 83.0048 51.6C83.1581 51.4 83.2714 51.1567 83.3448 50.87C83.4248 50.5833 83.4648 50.2967 83.4648 50.01C83.4648 49.5233 83.3648 49.1467 83.1648 48.88C82.9648 48.6133 82.6881 48.48 82.3348 48.48C82.2681 48.48 82.2014 48.4867 82.1348 48.5C82.0748 48.5067 82.0214 48.52 81.9748 48.54L81.7248 47.55C81.8714 47.51 82.0081 47.4833 82.1348 47.47C82.2681 47.4567 82.3814 47.45 82.4748 47.45C82.8214 47.45 83.1248 47.5 83.3848 47.6C83.6448 47.6933 83.8681 47.8333 84.0548 48.02C84.2881 48.2467 84.4614 48.53 84.5748 48.87C84.6948 49.21 84.7548 49.59 84.7548 50.01C84.7548 50.5433 84.6714 51.0133 84.5048 51.42C84.3381 51.82 84.1348 52.1367 83.8948 52.37C83.6948 52.5633 83.4481 52.7167 83.1548 52.83C82.8614 52.9433 82.4681 53 81.9748 53H81.3048ZM87.8809 53.1C87.3476 53.1 86.9243 52.98 86.6109 52.74C86.2976 52.4933 86.0743 52.16 85.9409 51.74C85.8076 51.32 85.7409 50.8467 85.7409 50.32C85.7409 49.7467 85.8009 49.27 85.9209 48.89C86.0476 48.51 86.2243 48.2133 86.4509 48C86.6843 47.78 86.9609 47.6267 87.2809 47.54C87.6009 47.4467 87.9543 47.4 88.3409 47.4C88.9143 47.4 89.3743 47.4833 89.7209 47.65C90.0743 47.81 90.3309 48.04 90.4909 48.34C90.6576 48.64 90.7409 48.9933 90.7409 49.4V53H89.4709V49.5C89.4709 49.1533 89.3843 48.89 89.2109 48.71C89.0443 48.5233 88.7576 48.43 88.3509 48.43C88.0909 48.43 87.8576 48.4833 87.6509 48.59C87.4509 48.69 87.2943 48.8733 87.1809 49.14C87.0743 49.4067 87.0209 49.7967 87.0209 50.31C87.0209 50.65 87.0543 50.9533 87.1209 51.22C87.1876 51.4867 87.2976 51.6967 87.4509 51.85C87.6109 51.9967 87.8276 52.07 88.1009 52.07C88.1876 52.07 88.2676 52.0667 88.3409 52.06C88.4209 52.0467 88.4909 52.03 88.5509 52.01L88.6709 52.97C88.5643 53.0167 88.4376 53.05 88.2909 53.07C88.1509 53.09 88.0143 53.1 87.8809 53.1ZM87.6521 46.72V46.25C87.7588 46.2233 87.8754 46.1867 88.0021 46.14C88.1221 46.0867 88.2288 46.02 88.3221 45.94C88.4088 45.86 88.4521 45.76 88.4521 45.64C88.4521 45.5533 88.4254 45.4833 88.3721 45.43C88.3188 45.37 88.2488 45.34 88.1621 45.34C88.1021 45.34 88.0421 45.3533 87.9821 45.38C87.9154 45.4 87.8588 45.42 87.8121 45.44L87.6121 44.82C87.7454 44.7067 87.9054 44.6333 88.0921 44.6C88.2721 44.56 88.4254 44.54 88.5521 44.54C88.8388 44.54 89.0621 44.6133 89.2221 44.76C89.3821 44.9 89.4621 45.1 89.4621 45.36C89.4621 45.52 89.4221 45.6667 89.3421 45.8C89.2554 45.9267 89.1388 46.03 88.9921 46.11L88.9321 45.86H90.8521V46.72H87.6521ZM93.5505 53.12C93.2371 53.12 92.9405 53.0867 92.6605 53.02C92.3871 52.9533 92.1171 52.8467 91.8505 52.7L92.2005 51.77C92.3471 51.8567 92.5205 51.9333 92.7205 52C92.9205 52.06 93.1305 52.09 93.3505 52.09C93.7638 52.09 94.0905 51.9333 94.3305 51.62C94.5771 51.3067 94.7005 50.8433 94.7005 50.23C94.7005 49.6433 94.5771 49.1967 94.3305 48.89C94.0905 48.5833 93.7138 48.43 93.2005 48.43C92.9805 48.43 92.7571 48.46 92.5305 48.52C92.3038 48.5733 92.1105 48.6467 91.9505 48.74V47.69C92.1505 47.5967 92.3738 47.5267 92.6205 47.48C92.8738 47.4267 93.1338 47.4 93.4005 47.4C94.0138 47.4 94.5105 47.5167 94.8905 47.75C95.2705 47.9767 95.5471 48.3033 95.7205 48.73C95.9005 49.15 95.9905 49.65 95.9905 50.23C95.9905 51.1567 95.7805 51.87 95.3605 52.37C94.9471 52.87 94.3438 53.12 93.5505 53.12ZM99.5191 53.11C98.9457 53.11 98.4857 53.04 98.1391 52.9C97.7924 52.76 97.5391 52.5633 97.3791 52.31C97.2257 52.05 97.1491 51.7467 97.1491 51.4C97.1491 51.1 97.1924 50.86 97.2791 50.68C97.3724 50.5 97.4891 50.3633 97.6291 50.27C97.7691 50.1767 97.9124 50.1167 98.0591 50.09V50.03C97.9124 49.9833 97.7691 49.9133 97.6291 49.82C97.4891 49.7267 97.3724 49.6 97.2791 49.44C97.1857 49.2733 97.1391 49.07 97.1391 48.83C97.1391 48.5833 97.1957 48.3567 97.3091 48.15C97.4224 47.9367 97.6057 47.7667 97.8591 47.64C98.1124 47.5067 98.4457 47.44 98.8591 47.44C99.0457 47.44 99.2324 47.4533 99.4191 47.48C99.6057 47.5067 99.7491 47.5467 99.8491 47.6L99.6491 48.49C99.5824 48.47 99.4991 48.45 99.3991 48.43C99.2991 48.41 99.1991 48.4 99.0991 48.4C98.8591 48.4 98.6824 48.4567 98.5691 48.57C98.4624 48.6767 98.4091 48.82 98.4091 49C98.4091 49.1867 98.4557 49.33 98.5491 49.43C98.6491 49.53 98.7757 49.6 98.9291 49.64C99.0824 49.6733 99.2424 49.69 99.4091 49.69H99.6191V50.51H99.4091C99.0824 50.51 98.8391 50.57 98.6791 50.69C98.5191 50.8033 98.4391 50.9933 98.4391 51.26C98.4391 51.4067 98.4691 51.5467 98.5291 51.68C98.5957 51.8133 98.7091 51.9233 98.8691 52.01C99.0291 52.09 99.2524 52.13 99.5391 52.13C99.8191 52.13 100.039 52.09 100.199 52.01C100.359 51.93 100.472 51.82 100.539 51.68C100.606 51.5333 100.639 51.3633 100.639 51.17V47.52H101.909V51.12C101.909 51.8133 101.716 52.32 101.329 52.64C100.949 52.9533 100.346 53.11 99.5191 53.11ZM105.762 53.12C104.922 53.12 104.316 52.9267 103.942 52.54C103.576 52.1533 103.392 51.5933 103.392 50.86V47.52H104.662V50.92C104.662 51.3067 104.752 51.6 104.932 51.8C105.112 51.9933 105.389 52.09 105.762 52.09C106.142 52.09 106.422 51.9933 106.602 51.8C106.782 51.6 106.872 51.3067 106.872 50.92V47.52H108.142V50.86C108.142 51.5933 107.956 52.1533 107.582 52.54C107.209 52.9267 106.602 53.12 105.762 53.12ZM111.373 53.12C110.979 53.12 110.596 53.08 110.223 53C109.849 52.9133 109.523 52.8 109.243 52.66L109.603 51.65C109.743 51.7167 109.903 51.7867 110.083 51.86C110.269 51.9267 110.469 51.9833 110.683 52.03C110.903 52.0767 111.123 52.1 111.343 52.1C111.643 52.1 111.879 52.0533 112.053 51.96C112.226 51.86 112.313 51.7133 112.313 51.52C112.313 51.3867 112.269 51.2767 112.183 51.19C112.096 51.0967 111.966 51.01 111.793 50.93C111.619 50.85 111.406 50.77 111.153 50.69C110.773 50.5633 110.449 50.4267 110.183 50.28C109.916 50.1267 109.713 49.9467 109.573 49.74C109.433 49.5267 109.363 49.26 109.363 48.94C109.363 48.6067 109.446 48.3267 109.613 48.1C109.786 47.8733 110.039 47.7 110.373 47.58C110.706 47.46 111.106 47.4 111.573 47.4C111.926 47.4 112.249 47.43 112.543 47.49C112.836 47.55 113.066 47.6267 113.233 47.72V48.74C113.119 48.6867 112.973 48.6333 112.793 48.58C112.613 48.5267 112.419 48.4833 112.213 48.45C112.006 48.41 111.803 48.39 111.603 48.39C111.269 48.39 111.023 48.44 110.863 48.54C110.709 48.6333 110.633 48.7567 110.633 48.91C110.633 49.03 110.676 49.1333 110.763 49.22C110.856 49.3 110.999 49.3767 111.193 49.45C111.386 49.5233 111.629 49.6133 111.923 49.72C112.256 49.8333 112.546 49.9633 112.793 50.11C113.046 50.25 113.239 50.4267 113.373 50.64C113.513 50.8533 113.583 51.12 113.583 51.44C113.583 51.7333 113.513 52.0067 113.373 52.26C113.239 52.5133 113.013 52.72 112.693 52.88C112.373 53.04 111.933 53.12 111.373 53.12ZM108.925 46.72V46.18L109.825 45.8H113.375V46.72H108.925ZM117.151 53.12C116.565 53.12 116.091 53.0333 115.731 52.86C115.371 52.68 115.108 52.42 114.941 52.08C114.775 51.74 114.691 51.3233 114.691 50.83V47.52H115.961V50.89C115.961 51.29 116.055 51.5933 116.241 51.8C116.428 52 116.735 52.1 117.161 52.1C117.575 52.1 117.871 52.0033 118.051 51.81C118.238 51.61 118.331 51.3033 118.331 50.89V47.52H119.591V50.83C119.591 51.3233 119.508 51.74 119.341 52.08C119.181 52.42 118.921 52.68 118.561 52.86C118.208 53.0333 117.738 53.12 117.151 53.12ZM117.771 50.79C117.471 50.79 117.235 50.7433 117.061 50.65C116.888 50.55 116.765 50.4267 116.691 50.28C116.618 50.1267 116.581 49.97 116.581 49.81C116.581 49.6967 116.598 49.58 116.631 49.46C116.665 49.3333 116.708 49.23 116.761 49.15L117.591 49.31C117.571 49.35 117.555 49.3967 117.541 49.45C117.535 49.4967 117.531 49.5467 117.531 49.6C117.531 49.6867 117.558 49.7633 117.611 49.83C117.665 49.8967 117.745 49.93 117.851 49.93H120.201V50.79H117.771ZM118.216 46.72C117.916 46.72 117.679 46.6767 117.506 46.59C117.332 46.4967 117.209 46.3833 117.136 46.25C117.056 46.11 117.016 45.9633 117.016 45.81C117.016 45.7033 117.032 45.59 117.066 45.47C117.092 45.3433 117.136 45.23 117.196 45.13L118.156 45.27C118.142 45.3033 118.132 45.35 118.126 45.41C118.112 45.4633 118.106 45.5133 118.106 45.56C118.106 45.6467 118.136 45.72 118.196 45.78C118.249 45.8333 118.339 45.86 118.466 45.86H120.766V46.72H118.216ZM121.372 53V47.52H122.292L122.472 48.38H122.542C122.656 48.1 122.856 47.87 123.142 47.69C123.429 47.51 123.792 47.42 124.232 47.42C124.646 47.42 124.992 47.4933 125.272 47.64C125.559 47.78 125.776 48 125.922 48.3C126.069 48.5933 126.142 48.9667 126.142 49.42V53H124.872V49.63C124.872 49.2433 124.786 48.96 124.612 48.78C124.446 48.6 124.199 48.51 123.872 48.51C123.606 48.51 123.379 48.58 123.192 48.72C123.012 48.8533 122.876 49.0433 122.782 49.29C122.689 49.53 122.642 49.8233 122.642 50.17V53H121.372ZM129.751 53.12C129.051 53.12 128.518 52.96 128.151 52.64C127.784 52.3133 127.601 51.8367 127.601 51.21V50.73C127.601 50.4367 127.641 50.2 127.721 50.02C127.801 49.8333 127.894 49.6667 128.001 49.52C128.114 49.3733 128.208 49.2433 128.281 49.13C128.354 49.01 128.391 48.88 128.391 48.74C128.391 48.6133 128.361 48.5233 128.301 48.47C128.241 48.4167 128.161 48.39 128.061 48.39C127.988 48.39 127.911 48.4033 127.831 48.43C127.758 48.45 127.678 48.48 127.591 48.52L127.361 47.69C127.528 47.5967 127.711 47.5333 127.911 47.5C128.111 47.4667 128.288 47.45 128.441 47.45C128.721 47.45 128.944 47.4967 129.111 47.59C129.278 47.6767 129.398 47.8033 129.471 47.97C129.544 48.13 129.581 48.3233 129.581 48.55C129.581 48.77 129.544 48.96 129.471 49.12C129.404 49.28 129.321 49.44 129.221 49.6C129.128 49.76 129.044 49.91 128.971 50.05C128.898 50.19 128.861 50.3867 128.861 50.64V51.11C128.861 51.3567 128.901 51.5533 128.981 51.7C129.061 51.8467 129.168 51.9533 129.301 52.02C129.434 52.08 129.588 52.11 129.761 52.11C130.048 52.11 130.264 52.0367 130.411 51.89C130.558 51.7367 130.631 51.51 130.631 51.21V47.52H131.891V51.25C131.891 51.8567 131.708 52.32 131.341 52.64C130.981 52.96 130.451 53.12 129.751 53.12ZM135.253 53.1C134.853 53.1 134.513 53.0267 134.233 52.88C133.953 52.7267 133.739 52.5 133.593 52.2C133.446 51.9 133.373 51.5233 133.373 51.07V47.52H134.643V50.89C134.643 51.27 134.726 51.5533 134.893 51.74C135.066 51.92 135.313 52.01 135.633 52.01C136.026 52.01 136.329 51.87 136.543 51.59C136.763 51.3033 136.873 50.89 136.873 50.35V47.52H138.143V53H137.153L137.043 52.17H136.963C136.849 52.4367 136.649 52.66 136.363 52.84C136.083 53.0133 135.713 53.1 135.253 53.1ZM142.871 53V49.41C142.871 49.0433 142.777 48.7833 142.591 48.63C142.411 48.47 142.121 48.39 141.721 48.39C141.381 48.39 141.051 48.44 140.731 48.54C140.411 48.64 140.124 48.7633 139.871 48.91V47.82C140.064 47.7267 140.331 47.6333 140.671 47.54C141.017 47.4467 141.414 47.4 141.861 47.4C142.214 47.4 142.524 47.4433 142.791 47.53C143.064 47.61 143.264 47.77 143.391 48.01C143.651 48.1033 143.834 48.2733 143.941 48.52C144.054 48.76 144.111 49.06 144.111 49.42V53H142.871ZM141.201 53.1C140.621 53.1 140.174 52.9633 139.861 52.69C139.554 52.4167 139.401 52.0333 139.401 51.54C139.401 50.9933 139.594 50.5667 139.981 50.26C140.374 49.9467 141.001 49.76 141.861 49.7L143.081 49.61V50.56L142.011 50.65C141.504 50.6967 141.154 50.79 140.961 50.93C140.767 51.0633 140.671 51.2533 140.671 51.5C140.671 51.7333 140.744 51.91 140.891 52.03C141.044 52.1433 141.251 52.2 141.511 52.2C141.604 52.2 141.691 52.1933 141.771 52.18C141.857 52.16 141.937 52.14 142.011 52.12L142.151 52.95C142.024 52.9967 141.877 53.0333 141.711 53.06C141.544 53.0867 141.374 53.1 141.201 53.1ZM143.361 48.49L142.661 47.88C142.867 47.82 143.041 47.7333 143.181 47.62C143.327 47.5 143.401 47.3467 143.401 47.16H144.551C144.551 47.3667 144.504 47.56 144.411 47.74C144.324 47.9133 144.191 48.0667 144.011 48.2C143.837 48.3267 143.621 48.4233 143.361 48.49ZM142.877 46.72V44.51H144.067V46.72H142.877ZM146.549 53L144.909 47.52H146.189L147.499 51.96H147.589C147.716 51.96 147.836 51.9267 147.949 51.86C148.062 51.7933 148.162 51.7067 148.249 51.6C148.402 51.4 148.516 51.1567 148.589 50.87C148.669 50.5833 148.709 50.2967 148.709 50.01C148.709 49.5233 148.609 49.1467 148.409 48.88C148.209 48.6133 147.932 48.48 147.579 48.48C147.512 48.48 147.446 48.4867 147.379 48.5C147.319 48.5067 147.266 48.52 147.219 48.54L146.969 47.55C147.116 47.51 147.252 47.4833 147.379 47.47C147.512 47.4567 147.626 47.45 147.719 47.45C148.066 47.45 148.369 47.5 148.629 47.6C148.889 47.6933 149.112 47.8333 149.299 48.02C149.532 48.2467 149.706 48.53 149.819 48.87C149.939 49.21 149.999 49.59 149.999 50.01C149.999 50.5433 149.916 51.0133 149.749 51.42C149.582 51.82 149.379 52.1367 149.139 52.37C148.939 52.5633 148.692 52.7167 148.399 52.83C148.106 52.9433 147.712 53 147.219 53H146.549ZM152.625 53.1C152.372 53.1 152.148 53.06 151.955 52.98C151.762 52.9 151.612 52.7733 151.505 52.6C151.398 52.42 151.345 52.19 151.345 51.91V47.52H152.615V51.75C152.615 51.89 152.645 51.9933 152.705 52.06C152.765 52.12 152.862 52.15 152.995 52.15C153.048 52.15 153.105 52.1433 153.165 52.13C153.232 52.1167 153.292 52.1 153.345 52.08L153.485 52.92C153.358 52.9867 153.222 53.0333 153.075 53.06C152.928 53.0867 152.778 53.1 152.625 53.1ZM156.469 53.12C155.689 53.12 155.109 52.9267 154.729 52.54C154.355 52.1467 154.169 51.5567 154.169 50.77C154.169 50.6367 154.172 50.48 154.179 50.3C154.192 50.12 154.205 49.9567 154.219 49.81H156.509V50.67H155.419V50.83C155.419 51.1567 155.455 51.4167 155.529 51.61C155.609 51.8033 155.725 51.9433 155.879 52.03C156.032 52.1167 156.225 52.16 156.459 52.16C156.712 52.16 156.929 52.1067 157.109 52C157.289 51.8933 157.425 51.71 157.519 51.45C157.619 51.1833 157.669 50.8133 157.669 50.34C157.669 49.9133 157.619 49.56 157.519 49.28C157.425 48.9933 157.269 48.78 157.049 48.64C156.829 48.5 156.525 48.43 156.139 48.43C155.932 48.43 155.725 48.45 155.519 48.49C155.312 48.53 155.112 48.5833 154.919 48.65C154.732 48.7167 154.562 48.7967 154.409 48.89V47.8C154.549 47.72 154.722 47.6533 154.929 47.6C155.135 47.54 155.362 47.4933 155.609 47.46C155.855 47.42 156.102 47.4 156.349 47.4C156.975 47.4 157.479 47.52 157.859 47.76C158.245 47.9933 158.525 48.3267 158.699 48.76C158.879 49.1933 158.969 49.7033 158.969 50.29C158.969 50.89 158.885 51.4033 158.719 51.83C158.552 52.25 158.285 52.57 157.919 52.79C157.552 53.01 157.069 53.12 156.469 53.12ZM160.188 53V51.24C160.188 50.82 160.275 50.5033 160.448 50.29C160.621 50.0767 160.858 49.93 161.158 49.85L161.168 49.81L160.088 49.41V49.12C160.088 48.8133 160.181 48.53 160.368 48.27C160.561 48.01 160.838 47.8 161.198 47.64C161.558 47.48 161.995 47.4 162.508 47.4C162.975 47.4 163.388 47.4733 163.748 47.62C164.108 47.7667 164.391 47.99 164.598 48.29C164.805 48.5833 164.908 48.9633 164.908 49.43V53H163.638V49.52C163.638 49.14 163.531 48.8633 163.318 48.69C163.105 48.5167 162.825 48.43 162.478 48.43C162.131 48.43 161.865 48.5033 161.678 48.65C161.498 48.79 161.401 48.9667 161.388 49.18L162.358 49.64L162.258 50.23C162.011 50.2367 161.815 50.3233 161.668 50.49C161.528 50.65 161.458 50.88 161.458 51.18V53H160.188ZM168.57 53.12C167.864 53.12 167.324 52.96 166.95 52.64C166.577 52.3133 166.39 51.8367 166.39 51.21V50.74C166.39 50.44 166.427 50.2 166.5 50.02C166.574 49.8333 166.664 49.6667 166.77 49.52C166.884 49.3733 166.977 49.2433 167.05 49.13C167.124 49.01 167.16 48.88 167.16 48.74C167.16 48.6133 167.13 48.5233 167.07 48.47C167.01 48.4167 166.93 48.39 166.83 48.39C166.757 48.39 166.68 48.4033 166.6 48.43C166.527 48.45 166.447 48.48 166.36 48.52L166.13 47.69C166.297 47.5967 166.48 47.5333 166.68 47.5C166.88 47.4667 167.057 47.45 167.21 47.45C167.49 47.45 167.714 47.4967 167.88 47.59C168.047 47.6767 168.167 47.8033 168.24 47.97C168.314 48.13 168.35 48.3233 168.35 48.55C168.35 48.77 168.314 48.96 168.24 49.12C168.174 49.28 168.09 49.44 167.99 49.6C167.897 49.76 167.817 49.91 167.75 50.05C167.684 50.19 167.65 50.3867 167.65 50.64V51.1C167.65 51.3467 167.687 51.5467 167.76 51.7C167.84 51.8467 167.95 51.9533 168.09 52.02C168.23 52.08 168.39 52.11 168.57 52.11C168.877 52.11 169.1 52.0333 169.24 51.88C169.387 51.72 169.46 51.4967 169.46 51.21V50.08C169.46 49.86 169.41 49.69 169.31 49.57C169.21 49.45 169.047 49.39 168.82 49.39H168.77V48.68H168.83C169.064 48.68 169.23 48.62 169.33 48.5C169.437 48.38 169.504 48.2333 169.53 48.06C169.557 47.88 169.57 47.7 169.57 47.52H170.84C170.84 47.9067 170.79 48.23 170.69 48.49C170.59 48.75 170.4 48.93 170.12 49.03V49.07C170.287 49.1167 170.414 49.19 170.5 49.29C170.587 49.39 170.644 49.51 170.67 49.65C170.704 49.7833 170.72 49.9233 170.72 50.07V51.25C170.72 51.8567 170.54 52.32 170.18 52.64C169.82 52.96 169.284 53.12 168.57 53.12ZM174.081 53.1C173.681 53.1 173.341 53.0267 173.061 52.88C172.781 52.7267 172.568 52.5 172.421 52.2C172.274 51.9 172.201 51.5233 172.201 51.07V47.52H173.471V50.89C173.471 51.27 173.554 51.5533 173.721 51.74C173.894 51.92 174.141 52.01 174.461 52.01C174.854 52.01 175.158 51.87 175.371 51.59C175.591 51.3033 175.701 50.89 175.701 50.35V47.52H176.971V53H175.981L175.871 52.17H175.791C175.678 52.4367 175.478 52.66 175.191 52.84C174.911 53.0133 174.541 53.1 174.081 53.1Z" fill="#221690"/>
</svg>
