<svg width="281" height="56" viewBox="0 0 281 56" fill="none" xmlns="http://www.w3.org/2000/svg">
<path d="M32.3323 40.5C31.0136 40.5 29.8939 40.0377 28.9733 39.1132C28.0528 38.1887 27.5925 37.066 27.5925 35.7452H26.2604C25.8277 35.7452 25.465 35.5985 25.1723 35.3052C24.8796 35.0118 24.7333 34.6483 24.7333 34.2146V18.0613C24.7333 17.2059 25.0289 16.4818 25.6203 15.8891C26.2116 15.2964 26.934 15 27.7874 15H47.7369C48.5768 15 49.2958 15.2998 49.8939 15.8993C50.492 16.4988 50.791 17.2195 50.791 18.0613V21.4483H53.7477C54.2313 21.4483 54.6894 21.5567 55.122 21.7736C55.5547 21.9904 55.911 22.2902 56.191 22.6728L60.4279 28.3591C60.5296 28.4867 60.606 28.627 60.6569 28.78C60.7078 28.9331 60.7333 29.0989 60.7333 29.2775V34.2146C60.7333 34.6483 60.5869 35.0118 60.2943 35.3052C60.0016 35.5985 59.6389 35.7452 59.2062 35.7452H57.6791C57.6791 37.066 57.2176 38.1887 56.2944 39.1132C55.3713 40.0377 54.2504 40.5 52.9316 40.5C51.6129 40.5 50.4933 40.0377 49.5727 39.1132C48.6521 38.1887 48.1918 37.066 48.1918 35.7452H37.0798C37.0798 37.0696 36.6182 38.1932 35.6951 39.1159C34.772 40.0386 33.6511 40.5 32.3323 40.5ZM32.3361 37.9598C32.9556 37.9598 33.4787 37.746 33.9055 37.3183C34.3322 36.8905 34.5455 36.3662 34.5455 35.7452C34.5455 35.1243 34.3322 34.5999 33.9055 34.1722C33.4787 33.7445 32.9556 33.5306 32.3361 33.5306C31.7166 33.5306 31.1935 33.7445 30.7668 34.1722C30.3401 34.5999 30.1267 35.1243 30.1267 35.7452C30.1267 36.3662 30.3401 36.8905 30.7668 37.3183C31.1935 37.746 31.7166 37.9598 32.3361 37.9598ZM27.2675 33.2051H28.4892C28.8487 32.5776 29.368 32.0516 30.0471 31.6271C30.7262 31.2027 31.4892 30.9904 32.3361 30.9904C33.1614 30.9904 33.919 31.2 34.6089 31.619C35.2988 32.038 35.8235 32.5667 36.1831 33.2051H48.2568V18.0613C48.2568 17.9093 48.208 17.7845 48.1106 17.6868C48.0131 17.5891 47.8885 17.5402 47.7369 17.5402H27.7874C27.6575 17.5402 27.5383 17.5945 27.43 17.703C27.3217 17.8116 27.2675 17.931 27.2675 18.0613V33.2051ZM52.9355 37.9598C53.555 37.9598 54.0781 37.746 54.5048 37.3183C54.9315 36.8905 55.1449 36.3662 55.1449 35.7452C55.1449 35.1243 54.9315 34.5999 54.5048 34.1722C54.0781 33.7445 53.555 33.5306 52.9355 33.5306C52.316 33.5306 51.7928 33.7445 51.3661 34.1722C50.9394 34.5999 50.726 35.1243 50.726 35.7452C50.726 36.3662 50.9394 36.8905 51.3661 37.3183C51.7928 37.746 52.316 37.9598 52.9355 37.9598ZM50.791 29.8181H58.3615L54.1376 24.2002C54.0834 24.135 54.0212 24.0835 53.9508 24.0455C53.8804 24.0075 53.8019 23.9885 53.7152 23.9885H50.791V29.8181Z" fill="#221690"/>
<rect x="12.5" y="20.25" width="10.5" height="3" rx="1.5" fill="#221690"/>
<rect x="9.5" y="26.25" width="12" height="3" rx="1.5" fill="#221690"/>
<rect x="5" y="32.25" width="15" height="3" rx="1.5" fill="#221690"/>
<path d="M85.172 15.192C84.0413 15.192 83.1773 14.936 82.58 14.424C81.9827 13.9013 81.684 13.1387 81.684 12.136V11.384C81.684 10.904 81.7427 10.52 81.86 10.232C81.9773 9.93333 82.1213 9.66667 82.292 9.432C82.4733 9.19733 82.6227 8.98933 82.74 8.808C82.8573 8.616 82.916 8.408 82.916 8.184C82.916 7.98133 82.868 7.83733 82.772 7.752C82.676 7.66667 82.548 7.624 82.388 7.624C82.2707 7.624 82.148 7.64533 82.02 7.688C81.9027 7.72 81.7747 7.768 81.636 7.832L81.268 6.504C81.5347 6.35467 81.828 6.25333 82.148 6.2C82.468 6.14667 82.7507 6.12 82.996 6.12C83.444 6.12 83.8013 6.19467 84.068 6.344C84.3347 6.48267 84.5267 6.68533 84.644 6.952C84.7613 7.208 84.82 7.51733 84.82 7.88C84.82 8.232 84.7613 8.536 84.644 8.792C84.5373 9.048 84.404 9.304 84.244 9.56C84.0947 9.816 83.9667 10.056 83.86 10.28C83.7533 10.504 83.7 10.8187 83.7 11.224V11.96C83.7 12.3547 83.7587 12.6747 83.876 12.92C84.004 13.1547 84.18 13.3253 84.404 13.432C84.628 13.528 84.884 13.576 85.172 13.576C85.6627 13.576 86.02 13.4533 86.244 13.208C86.4787 12.952 86.596 12.5947 86.596 12.136V10.328C86.596 9.976 86.516 9.704 86.356 9.512C86.196 9.32 85.9347 9.224 85.572 9.224H85.492V8.088H85.588C85.9613 8.088 86.228 7.992 86.388 7.8C86.5587 7.608 86.6653 7.37333 86.708 7.096C86.7507 6.808 86.772 6.52 86.772 6.232H88.804C88.804 6.85067 88.724 7.368 88.564 7.784C88.404 8.2 88.1 8.488 87.652 8.648V8.712C87.9187 8.78667 88.1213 8.904 88.26 9.064C88.3987 9.224 88.4893 9.416 88.532 9.64C88.5853 9.85333 88.612 10.0773 88.612 10.312V12.2C88.612 13.1707 88.324 13.912 87.748 14.424C87.172 14.936 86.3133 15.192 85.172 15.192ZM84.109 4.952V4.2C84.2797 4.15733 84.4663 4.09867 84.669 4.024C84.861 3.93867 85.0317 3.832 85.181 3.704C85.3197 3.576 85.389 3.416 85.389 3.224C85.389 3.08533 85.3463 2.97333 85.261 2.888C85.1757 2.792 85.0637 2.744 84.925 2.744C84.829 2.744 84.733 2.76533 84.637 2.808C84.5303 2.84 84.4397 2.872 84.365 2.904L84.045 1.912C84.2583 1.73067 84.5143 1.61333 84.813 1.56C85.101 1.496 85.3463 1.464 85.549 1.464C86.0077 1.464 86.365 1.58133 86.621 1.816C86.877 2.04 87.005 2.36 87.005 2.776C87.005 3.032 86.941 3.26667 86.813 3.48C86.6743 3.68267 86.4877 3.848 86.253 3.976L86.157 3.576H89.229V4.952H84.109ZM94.3249 15.192C93.0769 15.192 92.1489 14.8827 91.5409 14.264C90.9435 13.6347 90.6449 12.6907 90.6449 11.432C90.6449 11.2187 90.6502 10.968 90.6609 10.68C90.6822 10.392 90.7035 10.1307 90.7249 9.896H94.3889V11.272H92.6449V11.528C92.6449 12.0507 92.7035 12.4667 92.8209 12.776C92.9489 13.0853 93.1355 13.3093 93.3809 13.448C93.6262 13.5867 93.9355 13.656 94.3089 13.656C94.7142 13.656 95.0609 13.5707 95.3489 13.4C95.6369 13.2293 95.8555 12.936 96.0049 12.52C96.1649 12.0933 96.2449 11.5013 96.2449 10.744C96.2449 10.0613 96.1649 9.496 96.0049 9.048C95.8555 8.58933 95.6049 8.248 95.2529 8.024C94.9009 7.8 94.4155 7.688 93.7969 7.688C93.4662 7.688 93.1355 7.72 92.8049 7.784C92.4742 7.848 92.1542 7.93333 91.8449 8.04C91.5462 8.14667 91.2742 8.27467 91.0289 8.424V6.68C91.2529 6.552 91.5302 6.44533 91.8609 6.36C92.1915 6.264 92.5542 6.18933 92.9489 6.136C93.3435 6.072 93.7382 6.04 94.1329 6.04C95.1355 6.04 95.9409 6.232 96.5489 6.616C97.1675 6.98933 97.6155 7.52267 97.8929 8.216C98.1809 8.90933 98.3249 9.72533 98.3249 10.664C98.3249 11.624 98.1915 12.4453 97.9249 13.128C97.6582 13.8 97.2315 14.312 96.6449 14.664C96.0582 15.016 95.2849 15.192 94.3249 15.192ZM104.148 15.192C102.804 15.192 101.833 14.8827 101.236 14.264C100.649 13.6453 100.356 12.7493 100.356 11.576V6.232H102.388V11.672C102.388 12.2907 102.532 12.76 102.82 13.08C103.108 13.3893 103.551 13.544 104.148 13.544C104.756 13.544 105.204 13.3893 105.492 13.08C105.78 12.76 105.924 12.2907 105.924 11.672V3.08H107.956V11.576C107.956 12.7493 107.657 13.6453 107.06 14.264C106.463 14.8827 105.492 15.192 104.148 15.192ZM110.34 15V9.656C110.34 8.48267 110.65 7.58667 111.268 6.968C111.898 6.34933 112.89 6.04 114.244 6.04C115.599 6.04 116.58 6.34933 117.188 6.968C117.807 7.58667 118.116 8.48267 118.116 9.656V15H116.084V9.624C116.084 9.00533 115.93 8.53067 115.62 8.2C115.322 7.85867 114.852 7.688 114.212 7.688C113.572 7.688 113.103 7.85867 112.804 8.2C112.506 8.53067 112.356 9.00533 112.356 9.624V11.16L112.404 11.176C112.618 10.76 112.874 10.488 113.172 10.36C113.482 10.2213 113.908 10.152 114.452 10.152H114.868V11.72H114.452C113.876 11.72 113.434 11.8107 113.124 11.992C112.826 12.1733 112.623 12.4133 112.516 12.712C112.41 13 112.356 13.3253 112.356 13.688V15H110.34ZM123.281 15.192C122.652 15.192 122.038 15.128 121.441 15C120.844 14.8613 120.321 14.68 119.873 14.456L120.449 12.84C120.673 12.9467 120.929 13.0587 121.217 13.176C121.516 13.2827 121.836 13.3733 122.177 13.448C122.529 13.5227 122.881 13.56 123.233 13.56C123.713 13.56 124.092 13.4853 124.369 13.336C124.646 13.176 124.785 12.9413 124.785 12.632C124.785 12.4187 124.716 12.2427 124.577 12.104C124.438 11.9547 124.23 11.816 123.953 11.688C123.676 11.56 123.334 11.432 122.929 11.304C122.321 11.1013 121.804 10.8827 121.377 10.648C120.95 10.4027 120.625 10.1147 120.401 9.784C120.177 9.44267 120.065 9.016 120.065 8.504C120.065 7.97067 120.198 7.52267 120.465 7.16C120.742 6.79733 121.148 6.52 121.681 6.328C122.214 6.136 122.854 6.04 123.601 6.04C124.166 6.04 124.684 6.088 125.153 6.184C125.622 6.28 125.99 6.40267 126.257 6.552V8.184C126.076 8.09867 125.841 8.01333 125.553 7.928C125.265 7.84267 124.956 7.77333 124.625 7.72C124.294 7.656 123.969 7.624 123.649 7.624C123.116 7.624 122.721 7.704 122.465 7.864C122.22 8.01333 122.097 8.21067 122.097 8.456C122.097 8.648 122.166 8.81333 122.305 8.952C122.454 9.08 122.684 9.20267 122.993 9.32C123.302 9.43733 123.692 9.58133 124.161 9.752C124.694 9.93333 125.158 10.1413 125.553 10.376C125.958 10.6 126.268 10.8827 126.481 11.224C126.705 11.5653 126.817 11.992 126.817 12.504C126.817 12.9733 126.705 13.4107 126.481 13.816C126.268 14.2213 125.905 14.552 125.393 14.808C124.881 15.064 124.177 15.192 123.281 15.192ZM132.382 15.192C131.038 15.192 130.068 14.8827 129.47 14.264C128.884 13.6453 128.59 12.7493 128.59 11.576V6.232H130.622V11.672C130.622 12.2907 130.766 12.76 131.054 13.08C131.342 13.3893 131.785 13.544 132.382 13.544C132.99 13.544 133.438 13.3893 133.726 13.08C134.014 12.76 134.158 12.2907 134.158 11.672V6.232H136.19V11.576C136.19 12.7493 135.892 13.6453 135.294 14.264C134.697 14.8827 133.726 15.192 132.382 15.192ZM149.595 6.184C149.595 6.696 149.489 7.144 149.275 7.528C149.073 7.912 148.79 8.22667 148.427 8.472C148.065 8.70667 147.643 8.87733 147.163 8.984V9.032C148.081 9.13867 148.774 9.42133 149.243 9.88C149.713 10.3387 149.947 10.9467 149.947 11.704C149.947 12.3653 149.787 12.9573 149.467 13.48C149.147 14.0027 148.651 14.4133 147.979 14.712C147.318 15.0107 146.465 15.16 145.419 15.16C144.801 15.16 144.225 15.1067 143.691 15C143.158 14.904 142.657 14.7493 142.187 14.536V12.76C142.667 13.0053 143.179 13.192 143.723 13.32C144.267 13.448 144.779 13.512 145.259 13.512C146.187 13.512 146.843 13.3467 147.227 13.016C147.611 12.6747 147.803 12.2053 147.803 11.608C147.803 11.224 147.707 10.9093 147.515 10.664C147.323 10.4187 147.009 10.2373 146.571 10.12C146.145 9.992 145.585 9.928 144.891 9.928H143.931V8.312H144.907C145.579 8.312 146.107 8.23733 146.491 8.088C146.886 7.93867 147.163 7.73067 147.323 7.464C147.494 7.19733 147.579 6.888 147.579 6.536C147.579 6.07733 147.43 5.72 147.131 5.464C146.833 5.208 146.385 5.08 145.787 5.08C145.403 5.08 145.057 5.12267 144.747 5.208C144.438 5.29333 144.155 5.40533 143.899 5.544C143.643 5.672 143.403 5.81067 143.179 5.96L142.219 4.568C142.646 4.248 143.158 3.976 143.755 3.752C144.363 3.528 145.073 3.416 145.883 3.416C147.067 3.416 147.979 3.66667 148.619 4.168C149.27 4.65867 149.595 5.33067 149.595 6.184ZM154.08 13.32C153.984 13.6933 153.861 14.0987 153.712 14.536C153.562 14.9627 153.402 15.3893 153.232 15.816C153.061 16.2533 152.885 16.6693 152.704 17.064H151.248C151.354 16.648 151.456 16.2053 151.552 15.736C151.648 15.2773 151.738 14.824 151.824 14.376C151.909 13.9173 151.978 13.5067 152.032 13.144H153.968L154.08 13.32ZM163.636 9.288C163.636 10.2053 163.567 11.0267 163.428 11.752C163.29 12.4773 163.066 13.096 162.756 13.608C162.447 14.1093 162.042 14.4933 161.54 14.76C161.039 15.0267 160.431 15.16 159.716 15.16C158.82 15.16 158.084 14.9253 157.508 14.456C156.932 13.9867 156.506 13.3147 156.228 12.44C155.951 11.5653 155.812 10.5147 155.812 9.288C155.812 8.05067 155.94 6.99467 156.196 6.12C156.452 5.24533 156.863 4.57333 157.428 4.104C158.004 3.63467 158.767 3.4 159.716 3.4C160.612 3.4 161.348 3.63467 161.924 4.104C162.5 4.56267 162.927 5.23467 163.204 6.12C163.492 6.99467 163.636 8.05067 163.636 9.288ZM157.844 9.288C157.844 10.216 157.903 10.9947 158.02 11.624C158.138 12.2427 158.33 12.712 158.596 13.032C158.874 13.3413 159.247 13.496 159.716 13.496C160.186 13.496 160.554 13.3413 160.82 13.032C161.098 12.7227 161.295 12.2587 161.412 11.64C161.54 11.0107 161.604 10.2267 161.604 9.288C161.604 8.34933 161.54 7.57067 161.412 6.952C161.295 6.32267 161.098 5.85333 160.82 5.544C160.554 5.224 160.186 5.064 159.716 5.064C159.247 5.064 158.874 5.224 158.596 5.544C158.33 5.85333 158.138 6.32267 158.02 6.952C157.903 7.57067 157.844 8.34933 157.844 9.288ZM172.793 9.288C172.793 10.2053 172.723 11.0267 172.585 11.752C172.446 12.4773 172.222 13.096 171.913 13.608C171.603 14.1093 171.198 14.4933 170.697 14.76C170.195 15.0267 169.587 15.16 168.873 15.16C167.977 15.16 167.241 14.9253 166.664 14.456C166.089 13.9867 165.662 13.3147 165.385 12.44C165.107 11.5653 164.969 10.5147 164.969 9.288C164.969 8.05067 165.097 6.99467 165.353 6.12C165.609 5.24533 166.019 4.57333 166.585 4.104C167.161 3.63467 167.923 3.4 168.873 3.4C169.769 3.4 170.505 3.63467 171.081 4.104C171.657 4.56267 172.083 5.23467 172.361 6.12C172.649 6.99467 172.793 8.05067 172.793 9.288ZM167.001 9.288C167.001 10.216 167.059 10.9947 167.177 11.624C167.294 12.2427 167.486 12.712 167.753 13.032C168.03 13.3413 168.403 13.496 168.873 13.496C169.342 13.496 169.71 13.3413 169.977 13.032C170.254 12.7227 170.451 12.2587 170.569 11.64C170.697 11.0107 170.761 10.2267 170.761 9.288C170.761 8.34933 170.697 7.57067 170.569 6.952C170.451 6.32267 170.254 5.85333 169.977 5.544C169.71 5.224 169.342 5.064 168.873 5.064C168.403 5.064 168.03 5.224 167.753 5.544C167.486 5.85333 167.294 6.32267 167.177 6.952C167.059 7.57067 167.001 8.34933 167.001 9.288ZM181.949 9.288C181.949 10.2053 181.879 11.0267 181.741 11.752C181.602 12.4773 181.378 13.096 181.069 13.608C180.759 14.1093 180.354 14.4933 179.853 14.76C179.351 15.0267 178.743 15.16 178.029 15.16C177.133 15.16 176.397 14.9253 175.821 14.456C175.245 13.9867 174.818 13.3147 174.541 12.44C174.263 11.5653 174.125 10.5147 174.125 9.288C174.125 8.05067 174.253 6.99467 174.509 6.12C174.765 5.24533 175.175 4.57333 175.741 4.104C176.317 3.63467 177.079 3.4 178.029 3.4C178.925 3.4 179.661 3.63467 180.237 4.104C180.813 4.56267 181.239 5.23467 181.517 6.12C181.805 6.99467 181.949 8.05067 181.949 9.288ZM176.157 9.288C176.157 10.216 176.215 10.9947 176.333 11.624C176.45 12.2427 176.642 12.712 176.909 13.032C177.186 13.3413 177.559 13.496 178.029 13.496C178.498 13.496 178.866 13.3413 179.133 13.032C179.41 12.7227 179.607 12.2587 179.725 11.64C179.853 11.0107 179.917 10.2267 179.917 9.288C179.917 8.34933 179.853 7.57067 179.725 6.952C179.607 6.32267 179.41 5.85333 179.133 5.544C178.866 5.224 178.498 5.064 178.029 5.064C177.559 5.064 177.186 5.224 176.909 5.544C176.642 5.85333 176.45 6.32267 176.333 6.952C176.215 7.57067 176.157 8.34933 176.157 9.288ZM191.757 15.192C190.413 15.192 189.443 14.8827 188.845 14.264C188.259 13.6453 187.965 12.7493 187.965 11.576V6.232H189.997V11.672C189.997 12.2907 190.141 12.76 190.429 13.08C190.717 13.3893 191.16 13.544 191.757 13.544C192.365 13.544 192.813 13.3893 193.101 13.08C193.389 12.76 193.533 12.2907 193.533 11.672V6.232H195.565V11.576C195.565 12.7493 195.267 13.6453 194.669 14.264C194.072 14.8827 193.101 15.192 191.757 15.192ZM200.318 15V9.048C200.318 8.568 200.206 8.22133 199.982 8.008C199.769 7.784 199.406 7.672 198.894 7.672C198.531 7.672 198.195 7.72533 197.886 7.832C197.577 7.928 197.283 8.05067 197.006 8.2V6.52C197.23 6.41333 197.55 6.30667 197.966 6.2C198.382 6.09333 198.873 6.04 199.438 6.04C200.014 6.04 200.521 6.12533 200.958 6.296C201.395 6.456 201.737 6.73333 201.982 7.128C202.227 7.512 202.35 8.03467 202.35 8.696V15H200.318ZM204.811 15V6.232H206.283L206.571 7.608H206.683C206.865 7.16 207.185 6.792 207.643 6.504C208.102 6.216 208.683 6.072 209.387 6.072C210.049 6.072 210.603 6.18933 211.051 6.424C211.51 6.648 211.857 7 212.091 7.48C212.326 7.94933 212.443 8.54667 212.443 9.272V15H210.411V9.608C210.411 8.98933 210.273 8.536 209.995 8.248C209.729 7.96 209.334 7.816 208.811 7.816C208.385 7.816 208.022 7.928 207.723 8.152C207.435 8.36533 207.217 8.66933 207.067 9.064C206.918 9.448 206.843 9.91733 206.843 10.472V15H204.811ZM86.74 35V29.256C86.74 28.6693 86.5907 28.2533 86.292 28.008C86.004 27.752 85.54 27.624 84.9 27.624C84.356 27.624 83.828 27.704 83.316 27.864C82.804 28.024 82.3453 28.2213 81.94 28.456V26.712C82.2493 26.5627 82.676 26.4133 83.22 26.264C83.7747 26.1147 84.4093 26.04 85.124 26.04C85.6893 26.04 86.1853 26.1093 86.612 26.248C87.0493 26.376 87.3693 26.632 87.572 27.016C87.988 27.1653 88.2813 27.4373 88.452 27.832C88.6333 28.216 88.724 28.696 88.724 29.272V35H86.74ZM84.068 35.16C83.14 35.16 82.4253 34.9413 81.924 34.504C81.4333 34.0667 81.188 33.4533 81.188 32.664C81.188 31.7893 81.4973 31.1067 82.116 30.616C82.7453 30.1147 83.748 29.816 85.124 29.72L87.076 29.576V31.096L85.364 31.24C84.5533 31.3147 83.9933 31.464 83.684 31.688C83.3747 31.9013 83.22 32.2053 83.22 32.6C83.22 32.9733 83.3373 33.256 83.572 33.448C83.8173 33.6293 84.148 33.72 84.564 33.72C84.7133 33.72 84.852 33.7093 84.98 33.688C85.1187 33.656 85.2467 33.624 85.364 33.592L85.588 34.92C85.3853 34.9947 85.1507 35.0533 84.884 35.096C84.6173 35.1387 84.3453 35.16 84.068 35.16ZM87.524 27.784L86.404 26.808C86.7347 26.712 87.012 26.5733 87.236 26.392C87.4707 26.2 87.588 25.9547 87.588 25.656H89.428C89.428 25.9867 89.3533 26.296 89.204 26.584C89.0653 26.8613 88.852 27.1067 88.564 27.32C88.2867 27.5227 87.94 27.6773 87.524 27.784ZM86.7509 24.952V21.416H88.6549V24.952H86.7509ZM92.6251 35L90.0011 26.232H92.0491L94.1451 33.336H94.2891C94.4918 33.336 94.6838 33.2827 94.8651 33.176C95.0465 33.0693 95.2065 32.9307 95.3451 32.76C95.5905 32.44 95.7718 32.0507 95.8891 31.592C96.0171 31.1333 96.0811 30.6747 96.0811 30.216C96.0811 29.4373 95.9211 28.8347 95.6011 28.408C95.2811 27.9813 94.8385 27.768 94.2731 27.768C94.1665 27.768 94.0598 27.7787 93.9531 27.8C93.8571 27.8107 93.7718 27.832 93.6971 27.864L93.2971 26.28C93.5318 26.216 93.7505 26.1733 93.9531 26.152C94.1665 26.1307 94.3478 26.12 94.4971 26.12C95.0518 26.12 95.5371 26.2 95.9531 26.36C96.3691 26.5093 96.7265 26.7333 97.0251 27.032C97.3985 27.3947 97.6758 27.848 97.8571 28.392C98.0491 28.936 98.1451 29.544 98.1451 30.216C98.1451 31.0693 98.0118 31.8213 97.7451 32.472C97.4785 33.112 97.1531 33.6187 96.7691 33.992C96.4491 34.3013 96.0545 34.5467 95.5851 34.728C95.1158 34.9093 94.4865 35 93.6971 35H92.6251ZM100.939 35L99.435 26.232H101.435L101.899 29.592C101.92 29.7093 101.942 29.912 101.963 30.2C101.995 30.488 102.032 30.8187 102.075 31.192C102.118 31.5653 102.155 31.9387 102.187 32.312H102.251C102.315 31.992 102.384 31.6773 102.459 31.368C102.534 31.0587 102.608 30.7493 102.683 30.44C102.768 30.1307 102.854 29.832 102.939 29.544L103.883 26.232H105.227L106.171 29.544C106.256 29.832 106.336 30.1307 106.411 30.44C106.486 30.7493 106.56 31.0587 106.635 31.368C106.71 31.6773 106.784 31.992 106.859 32.312H106.907C106.939 31.9067 106.971 31.5333 107.003 31.192C107.046 30.8507 107.078 30.5467 107.099 30.28C107.131 30.0027 107.152 29.7733 107.163 29.592L107.979 23.08H109.947L108.187 35H106.187L105.003 30.984C104.907 30.6427 104.827 30.3067 104.763 29.976C104.71 29.6347 104.651 29.2613 104.587 28.856H104.523C104.48 29.1333 104.438 29.384 104.395 29.608C104.352 29.832 104.304 30.056 104.251 30.28C104.198 30.4933 104.139 30.728 104.075 30.984L102.875 35H100.939ZM114.125 35.192C113.495 35.192 112.882 35.128 112.285 35C111.687 34.8613 111.165 34.68 110.717 34.456L111.293 32.84C111.517 32.9467 111.773 33.0587 112.061 33.176C112.359 33.2827 112.679 33.3733 113.021 33.448C113.373 33.5227 113.725 33.56 114.077 33.56C114.557 33.56 114.935 33.4853 115.213 33.336C115.49 33.176 115.629 32.9413 115.629 32.632C115.629 32.4187 115.559 32.2427 115.421 32.104C115.282 31.9547 115.074 31.816 114.797 31.688C114.519 31.56 114.178 31.432 113.773 31.304C113.165 31.1013 112.647 30.8827 112.221 30.648C111.794 30.4027 111.469 30.1147 111.245 29.784C111.021 29.4427 110.909 29.016 110.909 28.504C110.909 27.9707 111.042 27.5227 111.309 27.16C111.586 26.7973 111.991 26.52 112.525 26.328C113.058 26.136 113.698 26.04 114.445 26.04C115.01 26.04 115.527 26.088 115.997 26.184C116.466 26.28 116.834 26.4027 117.101 26.552V28.184C116.919 28.0987 116.685 28.0133 116.397 27.928C116.109 27.8427 115.799 27.7733 115.469 27.72C115.138 27.656 114.813 27.624 114.493 27.624C113.959 27.624 113.565 27.704 113.309 27.864C113.063 28.0133 112.941 28.2107 112.941 28.456C112.941 28.648 113.01 28.8133 113.149 28.952C113.298 29.08 113.527 29.2027 113.837 29.32C114.146 29.4373 114.535 29.5813 115.005 29.752C115.538 29.9333 116.002 30.1413 116.397 30.376C116.802 30.6 117.111 30.8827 117.325 31.224C117.549 31.5653 117.661 31.992 117.661 32.504C117.661 32.9733 117.549 33.4107 117.325 33.816C117.111 34.2213 116.749 34.552 116.237 34.808C115.725 35.064 115.021 35.192 114.125 35.192ZM110.193 24.952V24.088L111.633 23.48H117.313V24.952H110.193ZM115.537 24.104V22.296H117.329V24.104H115.537ZM119.914 35.16C119.658 35.16 119.418 35.1333 119.194 35.08C118.97 35.0373 118.767 34.9627 118.586 34.856L118.778 33.656C118.853 33.6773 118.927 33.6987 119.002 33.72C119.087 33.7307 119.167 33.736 119.242 33.736C119.423 33.736 119.551 33.688 119.626 33.592C119.701 33.496 119.738 33.3467 119.738 33.144V31.864C119.738 31.288 119.85 30.856 120.074 30.568C120.309 30.2693 120.645 30.0667 121.082 29.96L121.098 29.896L119.322 29.256V28.792C119.322 28.3013 119.466 27.848 119.754 27.432C120.053 27.016 120.49 26.68 121.066 26.424C121.642 26.168 122.346 26.04 123.178 26.04C123.935 26.04 124.602 26.1573 125.178 26.392C125.765 26.6267 126.223 26.984 126.554 27.464C126.885 27.9333 127.05 28.5413 127.05 29.288V35H125.018V29.432C125.018 28.824 124.847 28.3813 124.506 28.104C124.165 27.8267 123.711 27.688 123.146 27.688C122.591 27.688 122.165 27.8053 121.866 28.04C121.567 28.264 121.413 28.5467 121.402 28.888L122.954 29.608L122.81 30.552C122.469 30.552 122.202 30.664 122.01 30.888C121.829 31.1013 121.738 31.448 121.738 31.928V33.352C121.738 34.024 121.562 34.4933 121.21 34.76C120.869 35.0267 120.437 35.16 119.914 35.16ZM131.802 35V29.048C131.802 28.568 131.69 28.2213 131.466 28.008C131.253 27.784 130.89 27.672 130.378 27.672C130.016 27.672 129.68 27.7253 129.37 27.832C129.061 27.928 128.768 28.0507 128.49 28.2V26.52C128.714 26.4133 129.034 26.3067 129.45 26.2C129.866 26.0933 130.357 26.04 130.922 26.04C131.498 26.04 132.005 26.1253 132.442 26.296C132.88 26.456 133.221 26.7333 133.466 27.128C133.712 27.512 133.834 28.0347 133.834 28.696V35H131.802ZM139.784 35.176C138.866 35.176 138.13 35.064 137.576 34.84C137.021 34.616 136.616 34.3013 136.36 33.896C136.114 33.48 135.992 32.9947 135.992 32.44C135.992 31.96 136.061 31.576 136.2 31.288C136.349 31 136.536 30.7813 136.76 30.632C136.984 30.4827 137.213 30.3867 137.448 30.344V30.248C137.213 30.1733 136.984 30.0613 136.76 29.912C136.536 29.7627 136.349 29.56 136.2 29.304C136.05 29.0373 135.976 28.712 135.976 28.328C135.976 27.9333 136.066 27.5707 136.248 27.24C136.429 26.8987 136.722 26.6267 137.128 26.424C137.533 26.2107 138.066 26.104 138.728 26.104C139.026 26.104 139.325 26.1253 139.624 26.168C139.922 26.2107 140.152 26.2747 140.312 26.36L139.992 27.784C139.885 27.752 139.752 27.72 139.592 27.688C139.432 27.656 139.272 27.64 139.112 27.64C138.728 27.64 138.445 27.7307 138.264 27.912C138.093 28.0827 138.008 28.312 138.008 28.6C138.008 28.8987 138.082 29.128 138.232 29.288C138.392 29.448 138.594 29.56 138.84 29.624C139.085 29.6773 139.341 29.704 139.608 29.704H139.944V31.016H139.608C139.085 31.016 138.696 31.112 138.44 31.304C138.184 31.4853 138.056 31.7893 138.056 32.216C138.056 32.4507 138.104 32.6747 138.2 32.888C138.306 33.1013 138.488 33.2773 138.744 33.416C139 33.544 139.357 33.608 139.816 33.608C140.264 33.608 140.616 33.544 140.872 33.416C141.128 33.288 141.309 33.112 141.416 32.888C141.522 32.6533 141.576 32.3813 141.576 32.072V26.232H143.608V31.992C143.608 33.1013 143.298 33.912 142.68 34.424C142.072 34.9253 141.106 35.176 139.784 35.176ZM148.205 35.16C147.8 35.16 147.442 35.096 147.133 34.968C146.824 34.84 146.584 34.6373 146.413 34.36C146.242 34.072 146.157 33.704 146.157 33.256V27.208C146.157 26.92 146.178 26.6853 146.221 26.504C146.274 26.3227 146.354 26.1467 146.461 25.976C146.578 25.7947 146.738 25.5813 146.941 25.336C147.176 25.0587 147.362 24.824 147.501 24.632C147.64 24.44 147.709 24.2213 147.709 23.976C147.709 23.7093 147.618 23.5013 147.437 23.352C147.256 23.2027 146.973 23.128 146.589 23.128C146.29 23.128 146.018 23.1707 145.773 23.256C145.528 23.3307 145.314 23.4267 145.133 23.544V21.976C145.282 21.8907 145.533 21.8 145.885 21.704C146.248 21.5973 146.685 21.544 147.197 21.544C147.986 21.544 148.616 21.7147 149.085 22.056C149.554 22.3973 149.789 22.9093 149.789 23.592C149.789 24.0187 149.704 24.392 149.533 24.712C149.373 25.032 149.197 25.3147 149.005 25.56C148.824 25.7947 148.669 25.992 148.541 26.152C148.424 26.3013 148.333 26.456 148.269 26.616C148.216 26.776 148.189 26.9893 148.189 27.256V33C148.189 33.224 148.237 33.3893 148.333 33.496C148.44 33.592 148.589 33.64 148.781 33.64C148.877 33.64 148.978 33.6293 149.085 33.608C149.192 33.5867 149.288 33.56 149.373 33.528L149.581 34.872C149.378 34.9787 149.16 35.0533 148.925 35.096C148.701 35.1387 148.461 35.16 148.205 35.16ZM154.02 35.16C153.38 35.16 152.836 35.0427 152.388 34.808C151.94 34.5627 151.599 34.2 151.364 33.72C151.129 33.24 151.012 32.6373 151.012 31.912V26.232H153.044V31.624C153.044 32.232 153.177 32.6853 153.444 32.984C153.721 33.272 154.116 33.416 154.628 33.416C155.257 33.416 155.743 33.192 156.084 32.744C156.436 32.2853 156.612 31.624 156.612 30.76V26.232H158.644V35H157.06L156.884 33.672H156.756C156.575 34.0987 156.255 34.456 155.796 34.744C155.348 35.0213 154.756 35.16 154.02 35.16ZM172.189 26.184C172.189 26.696 172.082 27.144 171.869 27.528C171.666 27.912 171.384 28.2267 171.021 28.472C170.658 28.7067 170.237 28.8773 169.757 28.984V29.032C170.674 29.1387 171.368 29.4213 171.837 29.88C172.306 30.3387 172.541 30.9467 172.541 31.704C172.541 32.3653 172.381 32.9573 172.061 33.48C171.741 34.0027 171.245 34.4133 170.573 34.712C169.912 35.0107 169.058 35.16 168.013 35.16C167.394 35.16 166.818 35.1067 166.285 35C165.752 34.904 165.25 34.7493 164.781 34.536V32.76C165.261 33.0053 165.773 33.192 166.317 33.32C166.861 33.448 167.373 33.512 167.853 33.512C168.781 33.512 169.437 33.3467 169.821 33.016C170.205 32.6747 170.397 32.2053 170.397 31.608C170.397 31.224 170.301 30.9093 170.109 30.664C169.917 30.4187 169.602 30.2373 169.165 30.12C168.738 29.992 168.178 29.928 167.485 29.928H166.525V28.312H167.501C168.173 28.312 168.701 28.2373 169.085 28.088C169.48 27.9387 169.757 27.7307 169.917 27.464C170.088 27.1973 170.173 26.888 170.173 26.536C170.173 26.0773 170.024 25.72 169.725 25.464C169.426 25.208 168.978 25.08 168.381 25.08C167.997 25.08 167.65 25.1227 167.341 25.208C167.032 25.2933 166.749 25.4053 166.493 25.544C166.237 25.672 165.997 25.8107 165.773 25.96L164.813 24.568C165.24 24.248 165.752 23.976 166.349 23.752C166.957 23.528 167.666 23.416 168.477 23.416C169.661 23.416 170.573 23.6667 171.213 24.168C171.864 24.6587 172.189 25.3307 172.189 26.184ZM182.11 35.192C180.979 35.192 180.115 34.936 179.518 34.424C178.92 33.9013 178.622 33.1387 178.622 32.136V31.384C178.622 30.904 178.68 30.52 178.798 30.232C178.915 29.9333 179.059 29.6667 179.23 29.432C179.411 29.1973 179.56 28.9893 179.678 28.808C179.795 28.616 179.854 28.408 179.854 28.184C179.854 27.9813 179.806 27.8373 179.71 27.752C179.614 27.6667 179.486 27.624 179.326 27.624C179.208 27.624 179.086 27.6453 178.958 27.688C178.84 27.72 178.712 27.768 178.574 27.832L178.206 26.504C178.472 26.3547 178.766 26.2533 179.086 26.2C179.406 26.1467 179.688 26.12 179.934 26.12C180.382 26.12 180.739 26.1947 181.006 26.344C181.272 26.4827 181.464 26.6853 181.582 26.952C181.699 27.208 181.758 27.5173 181.758 27.88C181.758 28.232 181.699 28.536 181.582 28.792C181.475 29.048 181.342 29.304 181.182 29.56C181.032 29.816 180.904 30.056 180.798 30.28C180.691 30.504 180.638 30.8187 180.638 31.224V31.96C180.638 32.3547 180.696 32.6747 180.814 32.92C180.942 33.1547 181.118 33.3253 181.342 33.432C181.566 33.528 181.822 33.576 182.11 33.576C182.6 33.576 182.958 33.4533 183.182 33.208C183.416 32.952 183.534 32.5947 183.534 32.136V30.328C183.534 29.976 183.454 29.704 183.294 29.512C183.134 29.32 182.872 29.224 182.51 29.224H182.43V28.088H182.526C182.899 28.088 183.166 27.992 183.326 27.8C183.496 27.608 183.603 27.3733 183.646 27.096C183.688 26.808 183.71 26.52 183.71 26.232H185.742C185.742 26.8507 185.662 27.368 185.502 27.784C185.342 28.2 185.038 28.488 184.59 28.648V28.712C184.856 28.7867 185.059 28.904 185.198 29.064C185.336 29.224 185.427 29.416 185.47 29.64C185.523 29.8533 185.55 30.0773 185.55 30.312V32.2C185.55 33.1707 185.262 33.912 184.686 34.424C184.11 34.936 183.251 35.192 182.11 35.192ZM183.51 24.952C183.03 24.952 182.652 24.8827 182.374 24.744C182.097 24.5947 181.9 24.4133 181.782 24.2C181.654 23.976 181.59 23.7413 181.59 23.496C181.59 23.3253 181.617 23.144 181.67 22.952C181.713 22.7493 181.782 22.568 181.878 22.408L183.414 22.632C183.393 22.6853 183.377 22.76 183.366 22.856C183.345 22.9413 183.334 23.0213 183.334 23.096C183.334 23.2347 183.382 23.352 183.478 23.448C183.564 23.5333 183.708 23.576 183.91 23.576H187.59V24.952H183.51ZM184.239 22.416V19.584H186.047V22.416H184.239ZM190.046 35.192C189.545 35.192 189.07 35.1387 188.622 35.032C188.185 34.9253 187.753 34.7547 187.326 34.52L187.886 33.032C188.121 33.1707 188.398 33.2933 188.718 33.4C189.038 33.496 189.374 33.544 189.726 33.544C190.388 33.544 190.91 33.2933 191.294 32.792C191.689 32.2907 191.886 31.5493 191.886 30.568C191.886 29.6293 191.689 28.9147 191.294 28.424C190.91 27.9333 190.308 27.688 189.486 27.688C189.134 27.688 188.777 27.736 188.414 27.832C188.052 27.9173 187.742 28.0347 187.486 28.184V26.504C187.806 26.3547 188.164 26.2427 188.558 26.168C188.964 26.0827 189.38 26.04 189.806 26.04C190.788 26.04 191.582 26.2267 192.19 26.6C192.798 26.9627 193.241 27.4853 193.518 28.168C193.806 28.84 193.95 29.64 193.95 30.568C193.95 32.0507 193.614 33.192 192.942 33.992C192.281 34.792 191.316 35.192 190.046 35.192ZM196.524 27.832V25.032C196.524 24.392 196.391 23.9333 196.124 23.656C195.868 23.3787 195.505 23.24 195.036 23.24V22.408L196.492 21.736H200.652V23.24H197.756L197.74 23.304C197.996 23.464 198.193 23.7093 198.332 24.04C198.481 24.36 198.556 24.7813 198.556 25.304V27.832H196.524ZM198.572 35.16C198.167 35.16 197.809 35.096 197.5 34.968C197.191 34.84 196.951 34.6373 196.78 34.36C196.609 34.072 196.524 33.704 196.524 33.256V26.232H198.556V33C198.556 33.224 198.604 33.3893 198.7 33.496C198.796 33.592 198.951 33.64 199.164 33.64C199.249 33.64 199.34 33.6293 199.436 33.608C199.543 33.5867 199.639 33.56 199.724 33.528L199.948 34.872C199.745 34.9787 199.527 35.0533 199.292 35.096C199.057 35.1387 198.817 35.16 198.572 35.16ZM206.172 35.16C205.447 35.16 204.844 35.0213 204.364 34.744C203.884 34.456 203.553 34.0827 203.372 33.624H203.26L203.068 35H201.5V26.232H203.532V30.76C203.532 31.336 203.607 31.8213 203.756 32.216C203.916 32.6107 204.145 32.9093 204.444 33.112C204.753 33.3147 205.116 33.416 205.532 33.416C206.055 33.416 206.444 33.272 206.7 32.984C206.967 32.6853 207.1 32.232 207.1 31.624V26.232H209.132V31.992C209.132 32.696 209.015 33.2827 208.78 33.752C208.556 34.2107 208.225 34.5627 207.788 34.808C207.351 35.0427 206.812 35.16 206.172 35.16ZM212.985 35L210.361 26.232H212.409L214.505 33.336H214.649C214.851 33.336 215.043 33.2827 215.225 33.176C215.406 33.0693 215.566 32.9307 215.705 32.76C215.95 32.44 216.131 32.0507 216.249 31.592C216.377 31.1333 216.441 30.6747 216.441 30.216C216.441 29.4373 216.281 28.8347 215.961 28.408C215.641 27.9813 215.198 27.768 214.633 27.768C214.526 27.768 214.419 27.7787 214.312 27.8C214.217 27.8107 214.131 27.832 214.057 27.864L213.657 26.28C213.891 26.216 214.11 26.1733 214.312 26.152C214.526 26.1307 214.707 26.12 214.857 26.12C215.411 26.12 215.897 26.2 216.313 26.36C216.729 26.5093 217.086 26.7333 217.385 27.032C217.758 27.3947 218.035 27.848 218.217 28.392C218.409 28.936 218.505 29.544 218.505 30.216C218.505 31.0693 218.371 31.8213 218.105 32.472C217.838 33.112 217.513 33.6187 217.129 33.992C216.809 34.3013 216.414 34.5467 215.945 34.728C215.475 34.9093 214.846 35 214.057 35H212.985Z" fill="#221690"/>
<path d="M83.81 45.4L83.61 47.25L85.46 46.72L85.62 47.84L83.89 47.97L85.02 49.47L84 50.01L83.21 48.4L82.5 50.01L81.45 49.47L82.56 47.97L80.85 47.83L81.02 46.72L82.84 47.25L82.64 45.4H83.81ZM88.1388 53.1C87.8854 53.1 87.6621 53.06 87.4688 52.98C87.2754 52.9 87.1254 52.7733 87.0188 52.6C86.9121 52.42 86.8588 52.19 86.8588 51.91V47.52H88.1288V51.75C88.1288 51.89 88.1588 51.9933 88.2188 52.06C88.2788 52.12 88.3754 52.15 88.5088 52.15C88.5621 52.15 88.6188 52.1433 88.6788 52.13C88.7454 52.1167 88.8054 52.1 88.8588 52.08L88.9988 52.92C88.8721 52.9867 88.7354 53.0333 88.5888 53.06C88.4421 53.0867 88.2921 53.1 88.1388 53.1ZM91.663 53.1C91.2897 53.1 90.9697 53.04 90.703 52.92C90.443 52.7933 90.243 52.6 90.103 52.34C89.963 52.0733 89.893 51.73 89.893 51.31V49.87H91.123V51.01C91.123 51.3433 91.203 51.5933 91.363 51.76C91.523 51.9267 91.753 52.01 92.053 52.01C92.433 52.01 92.7297 51.8867 92.943 51.64C93.163 51.3933 93.273 51.0567 93.273 50.63V49.8C93.273 49.4467 93.213 49.17 93.093 48.97C92.9797 48.77 92.8164 48.63 92.603 48.55C92.3897 48.4633 92.1297 48.42 91.823 48.42C91.483 48.42 91.1597 48.4667 90.853 48.56C90.5464 48.6467 90.2664 48.7667 90.013 48.92V47.83C90.2197 47.7167 90.5064 47.6167 90.873 47.53C91.2464 47.4433 91.6464 47.4 92.073 47.4C92.6597 47.4 93.133 47.49 93.493 47.67C93.853 47.85 94.1164 48.1167 94.283 48.47C94.4564 48.8167 94.543 49.2467 94.543 49.76V53H93.553L93.433 52.19H93.373C93.253 52.4433 93.0497 52.66 92.763 52.84C92.4764 53.0133 92.1097 53.1 91.663 53.1ZM96.5952 53L95.6352 47.52H96.8852L97.2052 49.62C97.2252 49.7933 97.2518 50.0233 97.2852 50.31C97.3185 50.5967 97.3518 50.9333 97.3852 51.32H97.4152C97.4752 51.06 97.5285 50.8233 97.5752 50.61C97.6285 50.3967 97.6785 50.2067 97.7252 50.04C97.7718 49.8667 97.8118 49.7167 97.8452 49.59L98.4352 47.52H99.2752L99.8652 49.59C99.9052 49.7167 99.9485 49.8667 99.9952 50.04C100.042 50.2067 100.088 50.3967 100.135 50.61C100.188 50.8233 100.245 51.06 100.305 51.32H100.335C100.368 50.9333 100.398 50.5967 100.425 50.31C100.458 50.0233 100.488 49.7933 100.515 49.62L100.845 47.52H102.085L101.125 53H99.8852L99.1452 50.49C99.0852 50.2633 99.0352 50.05 98.9952 49.85C98.9552 49.6433 98.9185 49.4133 98.8852 49.16H98.8452C98.8185 49.3333 98.7918 49.49 98.7652 49.63C98.7385 49.77 98.7085 49.91 98.6752 50.05C98.6418 50.1833 98.6018 50.33 98.5552 50.49L97.8152 53H96.5952ZM104.664 53V49.28C104.664 48.98 104.594 48.7633 104.454 48.63C104.32 48.49 104.094 48.42 103.774 48.42C103.547 48.42 103.337 48.4533 103.144 48.52C102.95 48.58 102.767 48.6567 102.594 48.75V47.7C102.734 47.6333 102.934 47.5667 103.194 47.5C103.454 47.4333 103.76 47.4 104.114 47.4C104.474 47.4 104.79 47.4533 105.064 47.56C105.337 47.66 105.55 47.8333 105.704 48.08C105.857 48.32 105.934 48.6467 105.934 49.06V53H104.664ZM108.272 49.69C107.979 49.69 107.742 49.6467 107.562 49.56C107.389 49.4667 107.262 49.3467 107.182 49.2C107.109 49.0533 107.072 48.9 107.072 48.74C107.072 48.6267 107.085 48.5133 107.112 48.4C107.145 48.28 107.192 48.17 107.252 48.07L108.212 48.2C108.199 48.2467 108.185 48.2967 108.172 48.35C108.165 48.4033 108.162 48.46 108.162 48.52C108.162 48.6067 108.185 48.6767 108.232 48.73C108.285 48.7833 108.375 48.81 108.502 48.81H109.752V49.69H108.272ZM108.272 52.49C107.979 52.49 107.742 52.4467 107.562 52.36C107.389 52.2667 107.262 52.1467 107.182 52C107.109 51.8533 107.072 51.7 107.072 51.54C107.072 51.4267 107.085 51.3133 107.112 51.2C107.145 51.08 107.192 50.97 107.252 50.87L108.212 51C108.199 51.0467 108.185 51.0967 108.172 51.15C108.165 51.2033 108.162 51.26 108.162 51.32C108.162 51.4067 108.185 51.4767 108.232 51.53C108.285 51.5833 108.375 51.61 108.502 51.61H109.752V52.49H108.272ZM110.858 53V51.24C110.858 50.82 110.945 50.5033 111.118 50.29C111.291 50.0767 111.528 49.93 111.828 49.85L111.838 49.81L110.758 49.41V49.12C110.758 48.8133 110.851 48.53 111.038 48.27C111.231 48.01 111.508 47.8 111.868 47.64C112.228 47.48 112.665 47.4 113.178 47.4C113.645 47.4 114.058 47.4733 114.418 47.62C114.778 47.7667 115.061 47.99 115.268 48.29C115.475 48.5833 115.578 48.9633 115.578 49.43V53H114.308V49.52C114.308 49.14 114.201 48.8633 113.988 48.69C113.775 48.5167 113.495 48.43 113.148 48.43C112.801 48.43 112.535 48.5033 112.348 48.65C112.168 48.79 112.071 48.9667 112.058 49.18L113.028 49.64L112.928 50.23C112.681 50.2367 112.485 50.3233 112.338 50.49C112.198 50.65 112.128 50.88 112.128 51.18V53H110.858ZM118.81 53.12C118.417 53.12 118.034 53.08 117.66 53C117.287 52.9133 116.96 52.8 116.68 52.66L117.04 51.65C117.18 51.7167 117.34 51.7867 117.52 51.86C117.707 51.9267 117.907 51.9833 118.12 52.03C118.34 52.0767 118.56 52.1 118.78 52.1C119.08 52.1 119.317 52.0533 119.49 51.96C119.664 51.86 119.75 51.7133 119.75 51.52C119.75 51.3867 119.707 51.2767 119.62 51.19C119.534 51.0967 119.404 51.01 119.23 50.93C119.057 50.85 118.844 50.77 118.59 50.69C118.21 50.5633 117.887 50.4267 117.62 50.28C117.354 50.1267 117.15 49.9467 117.01 49.74C116.87 49.5267 116.8 49.26 116.8 48.94C116.8 48.6067 116.884 48.3267 117.05 48.1C117.224 47.8733 117.477 47.7 117.81 47.58C118.144 47.46 118.544 47.4 119.01 47.4C119.364 47.4 119.687 47.43 119.98 47.49C120.274 47.55 120.504 47.6267 120.67 47.72V48.74C120.557 48.6867 120.41 48.6333 120.23 48.58C120.05 48.5267 119.857 48.4833 119.65 48.45C119.444 48.41 119.24 48.39 119.04 48.39C118.707 48.39 118.46 48.44 118.3 48.54C118.147 48.6333 118.07 48.7567 118.07 48.91C118.07 49.03 118.114 49.1333 118.2 49.22C118.294 49.3 118.437 49.3767 118.63 49.45C118.824 49.5233 119.067 49.6133 119.36 49.72C119.694 49.8333 119.984 49.9633 120.23 50.11C120.484 50.25 120.677 50.4267 120.81 50.64C120.95 50.8533 121.02 51.12 121.02 51.44C121.02 51.7333 120.95 52.0067 120.81 52.26C120.677 52.5133 120.45 52.72 120.13 52.88C119.81 53.04 119.37 53.12 118.81 53.12ZM119.4 55.61V54.66C119.4 54.4933 119.327 54.41 119.18 54.41C119.147 54.41 119.113 54.4133 119.08 54.42C119.047 54.4267 119.013 54.4367 118.98 54.45L118.91 53.77C119.003 53.7367 119.123 53.7067 119.27 53.68C119.417 53.6533 119.557 53.64 119.69 53.64C119.977 53.64 120.183 53.7 120.31 53.82C120.437 53.9467 120.5 54.1167 120.5 54.33V55.61H119.4ZM123.059 53L121.419 47.52H122.699L124.009 51.96H124.099C124.225 51.96 124.345 51.9267 124.459 51.86C124.572 51.7933 124.672 51.7067 124.759 51.6C124.912 51.4 125.025 51.1567 125.099 50.87C125.179 50.5833 125.219 50.2967 125.219 50.01C125.219 49.5233 125.119 49.1467 124.919 48.88C124.719 48.6133 124.442 48.48 124.089 48.48C124.022 48.48 123.955 48.4867 123.889 48.5C123.829 48.5067 123.775 48.52 123.729 48.54L123.479 47.55C123.625 47.51 123.762 47.4833 123.889 47.47C124.022 47.4567 124.135 47.45 124.229 47.45C124.575 47.45 124.879 47.5 125.139 47.6C125.399 47.6933 125.622 47.8333 125.809 48.02C126.042 48.2467 126.215 48.53 126.329 48.87C126.449 49.21 126.509 49.59 126.509 50.01C126.509 50.5433 126.425 51.0133 126.259 51.42C126.092 51.82 125.889 52.1367 125.649 52.37C125.449 52.5633 125.202 52.7167 124.909 52.83C124.615 52.9433 124.222 53 123.729 53H123.059ZM129.135 53.1C128.882 53.1 128.658 53.06 128.465 52.98C128.272 52.9 128.122 52.7733 128.015 52.6C127.908 52.42 127.855 52.19 127.855 51.91V47.52H129.125V51.75C129.125 51.89 129.155 51.9933 129.215 52.06C129.275 52.12 129.372 52.15 129.505 52.15C129.558 52.15 129.615 52.1433 129.675 52.13C129.742 52.1167 129.802 52.1 129.855 52.08L129.995 52.92C129.868 52.9867 129.732 53.0333 129.585 53.06C129.438 53.0867 129.288 53.1 129.135 53.1ZM131.007 53V47.52H131.927L132.107 48.38H132.177C132.29 48.1 132.49 47.87 132.777 47.69C133.064 47.51 133.427 47.42 133.867 47.42C134.28 47.42 134.627 47.4933 134.907 47.64C135.194 47.78 135.41 48 135.557 48.3C135.704 48.5933 135.777 48.9667 135.777 49.42V53H134.507V49.63C134.507 49.2433 134.42 48.96 134.247 48.78C134.08 48.6 133.834 48.51 133.507 48.51C133.24 48.51 133.014 48.58 132.827 48.72C132.647 48.8533 132.51 49.0433 132.417 49.29C132.324 49.53 132.277 49.8233 132.277 50.17V53H131.007ZM137.826 53L136.866 47.52H138.116L138.436 49.62C138.456 49.7933 138.482 50.0233 138.516 50.31C138.549 50.5967 138.582 50.9333 138.616 51.32H138.646C138.706 51.06 138.759 50.8233 138.806 50.61C138.859 50.3967 138.909 50.2067 138.956 50.04C139.002 49.8667 139.042 49.7167 139.076 49.59L139.666 47.52H140.506L141.096 49.59C141.136 49.7167 141.179 49.8667 141.226 50.04C141.272 50.2067 141.319 50.3967 141.366 50.61C141.419 50.8233 141.476 51.06 141.536 51.32H141.566C141.599 50.9333 141.629 50.5967 141.656 50.31C141.689 50.0233 141.719 49.7933 141.746 49.62L142.076 47.52H143.316L142.356 53H141.116L140.376 50.49C140.316 50.2633 140.266 50.05 140.226 49.85C140.186 49.6433 140.149 49.4133 140.116 49.16H140.076C140.049 49.3333 140.022 49.49 139.996 49.63C139.969 49.77 139.939 49.91 139.906 50.05C139.872 50.1833 139.832 50.33 139.786 50.49L139.046 53H137.826ZM145.834 53.1C145.581 53.1 145.357 53.06 145.164 52.98C144.971 52.9 144.821 52.7733 144.714 52.6C144.607 52.42 144.554 52.19 144.554 51.91V47.52H145.824V51.75C145.824 51.89 145.854 51.9933 145.914 52.06C145.974 52.12 146.071 52.15 146.204 52.15C146.257 52.15 146.314 52.1433 146.374 52.13C146.441 52.1167 146.501 52.1 146.554 52.08L146.694 52.92C146.567 52.9867 146.431 53.0333 146.284 53.06C146.137 53.0867 145.987 53.1 145.834 53.1ZM148.734 53.1C148.481 53.1 148.257 53.06 148.064 52.98C147.871 52.9 147.721 52.7733 147.614 52.6C147.507 52.42 147.454 52.19 147.454 51.91V47.52H148.724V51.75C148.724 51.89 148.754 51.9933 148.814 52.06C148.874 52.12 148.971 52.15 149.104 52.15C149.157 52.15 149.214 52.1433 149.274 52.13C149.341 52.1167 149.401 52.1 149.454 52.08L149.594 52.92C149.467 52.9867 149.331 53.0333 149.184 53.06C149.037 53.0867 148.887 53.1 148.734 53.1ZM153.648 53V49.41C153.648 49.0433 153.555 48.7833 153.368 48.63C153.188 48.47 152.898 48.39 152.498 48.39C152.158 48.39 151.828 48.44 151.508 48.54C151.188 48.64 150.901 48.7633 150.648 48.91V47.82C150.841 47.7267 151.108 47.6333 151.448 47.54C151.795 47.4467 152.191 47.4 152.638 47.4C152.985 47.4 153.295 47.4367 153.568 47.51C153.848 47.5833 154.085 47.7 154.278 47.86C154.478 48.02 154.628 48.23 154.728 48.49C154.835 48.7433 154.888 49.0533 154.888 49.42V53H153.648ZM151.978 53.1C151.398 53.1 150.951 52.9633 150.638 52.69C150.331 52.4167 150.178 52.0333 150.178 51.54C150.178 50.9933 150.371 50.5667 150.758 50.26C151.151 49.9467 151.778 49.76 152.638 49.7L153.858 49.61V50.56L152.788 50.65C152.281 50.6967 151.931 50.79 151.738 50.93C151.545 51.0633 151.448 51.2533 151.448 51.5C151.448 51.7333 151.521 51.91 151.668 52.03C151.821 52.1433 152.028 52.2 152.288 52.2C152.381 52.2 152.468 52.1933 152.548 52.18C152.635 52.16 152.715 52.14 152.788 52.12L152.928 52.95C152.801 52.9967 152.655 53.0333 152.488 53.06C152.321 53.0867 152.151 53.1 151.978 53.1ZM157.227 49.69C156.934 49.69 156.697 49.6467 156.517 49.56C156.344 49.4667 156.217 49.3467 156.137 49.2C156.064 49.0533 156.027 48.9 156.027 48.74C156.027 48.6267 156.04 48.5133 156.067 48.4C156.1 48.28 156.147 48.17 156.207 48.07L157.167 48.2C157.154 48.2467 157.14 48.2967 157.127 48.35C157.12 48.4033 157.117 48.46 157.117 48.52C157.117 48.6067 157.14 48.6767 157.187 48.73C157.24 48.7833 157.33 48.81 157.457 48.81H158.707V49.69H157.227ZM157.227 52.49C156.934 52.49 156.697 52.4467 156.517 52.36C156.344 52.2667 156.217 52.1467 156.137 52C156.064 51.8533 156.027 51.7 156.027 51.54C156.027 51.4267 156.04 51.3133 156.067 51.2C156.1 51.08 156.147 50.97 156.207 50.87L157.167 51C157.154 51.0467 157.14 51.0967 157.127 51.15C157.12 51.2033 157.117 51.26 157.117 51.32C157.117 51.4067 157.14 51.4767 157.187 51.53C157.24 51.5833 157.33 51.61 157.457 51.61H158.707V52.49H157.227ZM162.233 53.12C161.393 53.12 160.786 52.9267 160.413 52.54C160.046 52.1533 159.863 51.5933 159.863 50.86V47.52H161.133V50.92C161.133 51.3067 161.223 51.6 161.403 51.8C161.583 51.9933 161.86 52.09 162.233 52.09C162.613 52.09 162.893 51.9933 163.073 51.8C163.253 51.6 163.343 51.3067 163.343 50.92V45.55H164.613V50.86C164.613 51.5933 164.426 52.1533 164.053 52.54C163.68 52.9267 163.073 53.12 162.233 53.12ZM167.853 53.12C167.46 53.12 167.077 53.08 166.703 53C166.33 52.9133 166.003 52.8 165.723 52.66L166.083 51.65C166.223 51.7167 166.383 51.7867 166.563 51.86C166.75 51.9267 166.95 51.9833 167.163 52.03C167.383 52.0767 167.603 52.1 167.823 52.1C168.123 52.1 168.36 52.0533 168.533 51.96C168.707 51.86 168.793 51.7133 168.793 51.52C168.793 51.3867 168.75 51.2767 168.663 51.19C168.577 51.0967 168.447 51.01 168.273 50.93C168.1 50.85 167.887 50.77 167.633 50.69C167.253 50.5633 166.93 50.4267 166.663 50.28C166.397 50.1267 166.193 49.9467 166.053 49.74C165.913 49.5267 165.843 49.26 165.843 48.94C165.843 48.6067 165.927 48.3267 166.093 48.1C166.267 47.8733 166.52 47.7 166.853 47.58C167.187 47.46 167.587 47.4 168.053 47.4C168.407 47.4 168.73 47.43 169.023 47.49C169.317 47.55 169.547 47.6267 169.713 47.72V48.74C169.6 48.6867 169.453 48.6333 169.273 48.58C169.093 48.5267 168.9 48.4833 168.693 48.45C168.487 48.41 168.283 48.39 168.083 48.39C167.75 48.39 167.503 48.44 167.343 48.54C167.19 48.6333 167.113 48.7567 167.113 48.91C167.113 49.03 167.157 49.1333 167.243 49.22C167.337 49.3 167.48 49.3767 167.673 49.45C167.867 49.5233 168.11 49.6133 168.403 49.72C168.737 49.8333 169.027 49.9633 169.273 50.11C169.527 50.25 169.72 50.4267 169.853 50.64C169.993 50.8533 170.063 51.12 170.063 51.44C170.063 51.7333 169.993 52.0067 169.853 52.26C169.72 52.5133 169.493 52.72 169.173 52.88C168.853 53.04 168.413 53.12 167.853 53.12ZM165.406 46.72V46.18L166.306 45.8H169.856V46.72H165.406ZM174.182 53.1C173.728 53.1 173.352 53.0133 173.052 52.84C172.752 52.66 172.545 52.4267 172.432 52.14H172.362L172.242 53H171.262V47.52H172.532V50.35C172.532 50.71 172.578 51.0133 172.672 51.26C172.772 51.5067 172.915 51.6933 173.102 51.82C173.295 51.9467 173.522 52.01 173.782 52.01C174.108 52.01 174.352 51.92 174.512 51.74C174.678 51.5533 174.762 51.27 174.762 50.89V47.52H176.032V51.12C176.032 51.56 175.958 51.9267 175.812 52.22C175.672 52.5067 175.465 52.7267 175.192 52.88C174.918 53.0267 174.582 53.1 174.182 53.1ZM178.78 53.1C178.533 53.1 178.313 53.06 178.12 52.98C177.926 52.9 177.773 52.7733 177.66 52.6C177.546 52.42 177.49 52.19 177.49 51.91V51.14C177.49 50.7333 177.576 50.4367 177.75 50.25C177.93 50.0633 178.166 49.93 178.46 49.85L178.47 49.81L177.36 49.41V49.12C177.36 48.8 177.453 48.51 177.64 48.25C177.826 47.99 178.093 47.7833 178.44 47.63C178.793 47.4767 179.213 47.4 179.7 47.4C180.146 47.4 180.543 47.47 180.89 47.61C181.236 47.75 181.51 47.9633 181.71 48.25C181.91 48.5367 182.01 48.9067 182.01 49.36V51.02C182.01 51.3667 182.086 51.62 182.24 51.78C182.4 51.9333 182.6 52.01 182.84 52.01C183.06 52.01 183.25 51.95 183.41 51.83C183.576 51.71 183.706 51.5433 183.8 51.33C183.893 51.11 183.94 50.8567 183.94 50.57V47.52H185.21V53H184.21L184.09 52.14H184.02C183.9 52.4267 183.7 52.66 183.42 52.84C183.146 53.0133 182.816 53.1 182.43 53.1C181.903 53.1 181.493 52.9567 181.2 52.67C180.906 52.3833 180.76 51.9233 180.76 51.29V49.46C180.76 49.2 180.71 48.9933 180.61 48.84C180.516 48.6867 180.386 48.58 180.22 48.52C180.06 48.4533 179.883 48.42 179.69 48.42C179.396 48.42 179.153 48.4833 178.96 48.61C178.773 48.73 178.673 48.9167 178.66 49.17L179.64 49.63L179.54 50.22C179.293 50.22 179.096 50.2833 178.95 50.41C178.81 50.5367 178.74 50.7533 178.74 51.06V51.77C178.74 51.9167 178.77 52.0233 178.83 52.09C178.896 52.15 179 52.18 179.14 52.18C179.206 52.18 179.27 52.1767 179.33 52.17C179.396 52.1567 179.453 52.14 179.5 52.12L179.64 52.92C179.513 52.9867 179.376 53.0333 179.23 53.06C179.09 53.0867 178.94 53.1 178.78 53.1ZM186.917 53V50.88C186.917 50.6467 186.927 50.4433 186.947 50.27C186.967 50.09 187.011 49.9233 187.077 49.77C187.144 49.6167 187.241 49.4633 187.367 49.31C187.481 49.1767 187.564 49.0767 187.617 49.01C187.677 48.9433 187.717 48.89 187.737 48.85C187.764 48.8033 187.781 48.75 187.787 48.69L187.757 48.68C187.684 48.72 187.607 48.7533 187.527 48.78C187.447 48.8067 187.361 48.82 187.267 48.82C187.027 48.82 186.827 48.7333 186.667 48.56C186.514 48.3867 186.437 48.14 186.437 47.82V47.52H187.377C187.377 47.7133 187.401 47.8533 187.447 47.94C187.494 48.02 187.574 48.06 187.687 48.06C187.741 48.06 187.797 48.05 187.857 48.03C187.917 48.01 187.974 47.97 188.027 47.91L188.197 47.52H188.827V48.26H188.867C189.047 47.9667 189.261 47.7533 189.507 47.62C189.761 47.4867 190.037 47.42 190.337 47.42C190.804 47.42 191.147 47.5467 191.367 47.8C191.587 48.0467 191.697 48.38 191.697 48.8V53H190.427V49.25C190.427 48.99 190.381 48.7967 190.287 48.67C190.194 48.5433 190.051 48.48 189.857 48.48C189.671 48.48 189.487 48.5467 189.307 48.68C189.127 48.8133 188.924 49.03 188.697 49.33C188.571 49.49 188.471 49.64 188.397 49.78C188.324 49.92 188.271 50.0767 188.237 50.25C188.204 50.4167 188.187 50.63 188.187 50.89V53H186.917ZM196.334 53V49.41C196.334 49.0433 196.24 48.7833 196.054 48.63C195.874 48.47 195.584 48.39 195.184 48.39C194.844 48.39 194.514 48.44 194.194 48.54C193.874 48.64 193.587 48.7633 193.334 48.91V47.82C193.527 47.7267 193.794 47.6333 194.134 47.54C194.48 47.4467 194.877 47.4 195.324 47.4C195.67 47.4 195.98 47.4367 196.254 47.51C196.534 47.5833 196.77 47.7 196.964 47.86C197.164 48.02 197.314 48.23 197.414 48.49C197.52 48.7433 197.574 49.0533 197.574 49.42V53H196.334ZM194.664 53.1C194.084 53.1 193.637 52.9633 193.324 52.69C193.017 52.4167 192.864 52.0333 192.864 51.54C192.864 50.9933 193.057 50.5667 193.444 50.26C193.837 49.9467 194.464 49.76 195.324 49.7L196.544 49.61V50.56L195.474 50.65C194.967 50.6967 194.617 50.79 194.424 50.93C194.23 51.0633 194.134 51.2533 194.134 51.5C194.134 51.7333 194.207 51.91 194.354 52.03C194.507 52.1433 194.714 52.2 194.974 52.2C195.067 52.2 195.154 52.1933 195.234 52.18C195.32 52.16 195.4 52.14 195.474 52.12L195.614 52.95C195.487 52.9967 195.34 53.0333 195.174 53.06C195.007 53.0867 194.837 53.1 194.664 53.1ZM203.04 53.1C202.787 53.1 202.563 53.06 202.37 52.98C202.177 52.9 202.027 52.7733 201.92 52.6C201.813 52.42 201.76 52.19 201.76 51.91V48.13C201.76 47.95 201.773 47.8033 201.8 47.69C201.833 47.5767 201.883 47.4667 201.95 47.36C202.023 47.2467 202.123 47.1133 202.25 46.96C202.397 46.7867 202.513 46.64 202.6 46.52C202.687 46.4 202.73 46.2633 202.73 46.11C202.73 45.9433 202.673 45.8133 202.56 45.72C202.447 45.6267 202.27 45.58 202.03 45.58C201.843 45.58 201.673 45.6067 201.52 45.66C201.367 45.7067 201.233 45.7667 201.12 45.84V44.86C201.213 44.8067 201.37 44.75 201.59 44.69C201.817 44.6233 202.09 44.59 202.41 44.59C202.903 44.59 203.297 44.6967 203.59 44.91C203.883 45.1233 204.03 45.4433 204.03 45.87C204.03 46.1367 203.977 46.37 203.87 46.57C203.77 46.77 203.66 46.9467 203.54 47.1C203.427 47.2467 203.33 47.37 203.25 47.47C203.177 47.5633 203.12 47.66 203.08 47.76C203.047 47.86 203.03 47.9933 203.03 48.16V51.75C203.03 51.89 203.06 51.9933 203.12 52.06C203.187 52.12 203.28 52.15 203.4 52.15C203.46 52.15 203.523 52.1433 203.59 52.13C203.657 52.1167 203.717 52.1 203.77 52.08L203.9 52.92C203.773 52.9867 203.637 53.0333 203.49 53.06C203.35 53.0867 203.2 53.1 203.04 53.1ZM206.675 53.1C206.275 53.1 205.935 53.0267 205.655 52.88C205.375 52.7267 205.161 52.5 205.015 52.2C204.868 51.9 204.795 51.5233 204.795 51.07V47.52H206.065V50.89C206.065 51.27 206.148 51.5533 206.315 51.74C206.488 51.92 206.735 52.01 207.055 52.01C207.448 52.01 207.751 51.87 207.965 51.59C208.185 51.3033 208.295 50.89 208.295 50.35V47.52H209.565V53H208.575L208.465 52.17H208.385C208.271 52.4367 208.071 52.66 207.785 52.84C207.505 53.0133 207.135 53.1 206.675 53.1ZM212.563 53.1C212.309 53.1 212.086 53.06 211.893 52.98C211.699 52.9 211.549 52.7733 211.443 52.6C211.336 52.42 211.283 52.19 211.283 51.91V47.52H212.553V51.75C212.553 51.89 212.583 51.9933 212.643 52.06C212.703 52.12 212.799 52.15 212.933 52.15C212.986 52.15 213.043 52.1433 213.103 52.13C213.169 52.1167 213.229 52.1 213.283 52.08L213.423 52.92C213.296 52.9867 213.159 53.0333 213.013 53.06C212.866 53.0867 212.716 53.1 212.563 53.1ZM216.261 53.12C215.561 53.12 215.027 52.96 214.661 52.64C214.294 52.3133 214.111 51.8367 214.111 51.21V50.73C214.111 50.4367 214.151 50.2 214.231 50.02C214.311 49.8333 214.404 49.6667 214.511 49.52C214.624 49.3733 214.717 49.2433 214.791 49.13C214.864 49.01 214.901 48.88 214.901 48.74C214.901 48.6133 214.871 48.5233 214.811 48.47C214.751 48.4167 214.671 48.39 214.571 48.39C214.497 48.39 214.421 48.4033 214.341 48.43C214.267 48.45 214.187 48.48 214.101 48.52L213.871 47.69C214.037 47.5967 214.221 47.5333 214.421 47.5C214.621 47.4667 214.797 47.45 214.951 47.45C215.231 47.45 215.454 47.4967 215.621 47.59C215.787 47.6767 215.907 47.8033 215.981 47.97C216.054 48.13 216.091 48.3233 216.091 48.55C216.091 48.77 216.054 48.96 215.981 49.12C215.914 49.28 215.831 49.44 215.731 49.6C215.637 49.76 215.554 49.91 215.481 50.05C215.407 50.19 215.371 50.3867 215.371 50.64V51.11C215.371 51.3567 215.411 51.5533 215.491 51.7C215.571 51.8467 215.677 51.9533 215.811 52.02C215.944 52.08 216.097 52.11 216.271 52.11C216.557 52.11 216.774 52.0367 216.921 51.89C217.067 51.7367 217.141 51.51 217.141 51.21V47.52H218.401V51.25C218.401 51.8567 218.217 52.32 217.851 52.64C217.491 52.96 216.961 53.12 216.261 53.12ZM221.913 53.1C221.333 53.1 220.883 52.9767 220.563 52.73C220.243 52.4767 220.019 52.1333 219.893 51.7C219.766 51.26 219.703 50.75 219.703 50.17C219.703 49.5233 219.766 49 219.893 48.6C220.019 48.1933 220.206 47.8967 220.453 47.71C220.706 47.5167 221.013 47.42 221.373 47.42C221.606 47.42 221.809 47.4633 221.983 47.55C222.156 47.6367 222.289 47.79 222.383 48.01H222.423C222.503 47.7833 222.643 47.63 222.843 47.55C223.043 47.4633 223.263 47.42 223.503 47.42C223.949 47.42 224.289 47.54 224.523 47.78C224.756 48.02 224.873 48.3767 224.873 48.85V53H223.603V49.03C223.603 48.8033 223.559 48.65 223.473 48.57C223.393 48.49 223.283 48.45 223.143 48.45C222.996 48.45 222.886 48.49 222.813 48.57C222.739 48.65 222.693 48.7833 222.673 48.97H222.093C222.066 48.7633 222.006 48.6267 221.913 48.56C221.826 48.4867 221.726 48.45 221.613 48.45C221.406 48.45 221.249 48.5833 221.143 48.85C221.036 49.1167 220.983 49.56 220.983 50.18C220.983 50.5867 221.013 50.9367 221.073 51.23C221.139 51.5167 221.253 51.7367 221.413 51.89C221.573 52.0367 221.803 52.11 222.103 52.11C222.203 52.11 222.289 52.1067 222.363 52.1C222.436 52.0867 222.503 52.07 222.563 52.05L222.693 52.97C222.586 53.0167 222.466 53.05 222.333 53.07C222.206 53.09 222.066 53.1 221.913 53.1ZM226.927 53L225.967 47.52H227.217L227.537 49.62C227.557 49.7933 227.584 50.0233 227.617 50.31C227.651 50.5967 227.684 50.9333 227.717 51.32H227.747C227.807 51.06 227.861 50.8233 227.907 50.61C227.961 50.3967 228.011 50.2067 228.057 50.04C228.104 49.8667 228.144 49.7167 228.177 49.59L228.767 47.52H229.607L230.197 49.59C230.237 49.7167 230.281 49.8667 230.327 50.04C230.374 50.2067 230.421 50.3967 230.467 50.61C230.521 50.8233 230.577 51.06 230.637 51.32H230.667C230.701 50.9333 230.731 50.5967 230.757 50.31C230.791 50.0233 230.821 49.7933 230.847 49.62L231.177 47.52H232.417L231.457 53H230.217L229.477 50.49C229.417 50.2633 229.367 50.05 229.327 49.85C229.287 49.6433 229.251 49.4133 229.217 49.16H229.177C229.151 49.3333 229.124 49.49 229.097 49.63C229.071 49.77 229.041 49.91 229.007 50.05C228.974 50.1833 228.934 50.33 228.887 50.49L228.147 53H226.927ZM227.554 46.72V46.18L228.464 45.8H232.014V46.72H227.554ZM229.644 46.19V45.06H230.514V46.19H229.644ZM231.154 46.19V45.06H232.014V46.19H231.154ZM229.647 44.51V44.12C229.727 44.1 229.817 44.07 229.917 44.03C230.01 43.99 230.094 43.94 230.167 43.88C230.24 43.8133 230.277 43.73 230.277 43.63C230.277 43.5567 230.257 43.5 230.217 43.46C230.17 43.4133 230.114 43.39 230.047 43.39C230 43.39 229.95 43.4 229.897 43.42C229.837 43.4333 229.784 43.4567 229.737 43.49L229.557 42.95C229.677 42.8633 229.82 42.8067 229.987 42.78C230.154 42.7533 230.294 42.74 230.407 42.74C230.634 42.74 230.824 42.79 230.977 42.89C231.124 42.9833 231.197 43.1433 231.197 43.37C231.197 43.4633 231.177 43.5667 231.137 43.68C231.09 43.7867 231.004 43.8733 230.877 43.94L230.817 43.73H232.317V44.51H229.647ZM235.386 53.1C234.986 53.1 234.646 53.0267 234.366 52.88C234.086 52.7267 233.872 52.5 233.726 52.2C233.579 51.9 233.506 51.5233 233.506 51.07V47.52H234.776V50.89C234.776 51.27 234.859 51.5533 235.026 51.74C235.199 51.92 235.446 52.01 235.766 52.01C236.159 52.01 236.462 51.87 236.676 51.59C236.896 51.3033 237.006 50.89 237.006 50.35V47.52H238.276V53H237.286L237.176 52.17H237.096C236.982 52.4367 236.782 52.66 236.496 52.84C236.216 53.0133 235.846 53.1 235.386 53.1ZM239.904 53V47.52H240.824L241.004 48.38H241.074C241.187 48.1 241.387 47.87 241.674 47.69C241.96 47.51 242.324 47.42 242.764 47.42C243.177 47.42 243.524 47.4933 243.804 47.64C244.09 47.78 244.307 48 244.454 48.3C244.6 48.5933 244.674 48.9667 244.674 49.42V53H243.404V49.63C243.404 49.2433 243.317 48.96 243.144 48.78C242.977 48.6 242.73 48.51 242.404 48.51C242.137 48.51 241.91 48.58 241.724 48.72C241.544 48.8533 241.407 49.0433 241.314 49.29C241.22 49.53 241.174 49.8233 241.174 50.17V53H239.904ZM240.025 46.72V46.18L240.925 45.8H244.475V46.72H240.025ZM243.365 46.19V45.06H244.485V46.19H243.365ZM243.355 44.51V42.74H244.485V44.51H243.355ZM246.102 53V51.24C246.102 50.82 246.189 50.5033 246.362 50.29C246.535 50.0767 246.772 49.93 247.072 49.85L247.082 49.81L246.002 49.41V49.12C246.002 48.8133 246.095 48.53 246.282 48.27C246.475 48.01 246.752 47.8 247.112 47.64C247.472 47.48 247.909 47.4 248.422 47.4C248.889 47.4 249.302 47.4733 249.662 47.62C250.022 47.7667 250.305 47.99 250.512 48.29C250.719 48.5833 250.822 48.9633 250.822 49.43V53H249.552V49.52C249.552 49.14 249.445 48.8633 249.232 48.69C249.019 48.5167 248.739 48.43 248.392 48.43C248.045 48.43 247.779 48.5033 247.592 48.65C247.412 48.79 247.315 48.9667 247.302 49.18L248.272 49.64L248.172 50.23C247.925 50.2367 247.729 50.3233 247.582 50.49C247.442 50.65 247.372 50.88 247.372 51.18V53H246.102ZM249.786 46.95C249.426 46.95 249.139 46.8667 248.926 46.7C248.706 46.5267 248.596 46.29 248.596 45.99C248.596 45.6833 248.706 45.4467 248.926 45.28C249.139 45.1133 249.426 45.03 249.786 45.03C250.146 45.03 250.436 45.1133 250.656 45.28C250.876 45.4467 250.986 45.6833 250.986 45.99C250.986 46.29 250.876 46.5267 250.656 46.7C250.436 46.8667 250.146 46.95 249.786 46.95ZM249.786 46.41C249.939 46.41 250.056 46.3733 250.136 46.3C250.216 46.22 250.256 46.1167 250.256 45.99C250.256 45.8633 250.216 45.7633 250.136 45.69C250.056 45.61 249.939 45.57 249.786 45.57C249.639 45.57 249.526 45.61 249.446 45.69C249.366 45.7633 249.326 45.8633 249.326 45.99C249.326 46.1167 249.366 46.22 249.446 46.3C249.526 46.3733 249.639 46.41 249.786 46.41ZM253.794 53V49.28C253.794 48.98 253.724 48.7633 253.584 48.63C253.451 48.49 253.224 48.42 252.904 48.42C252.678 48.42 252.468 48.4533 252.274 48.52C252.081 48.58 251.898 48.6567 251.724 48.75V47.7C251.864 47.6333 252.064 47.5667 252.324 47.5C252.584 47.4333 252.891 47.4 253.244 47.4C253.604 47.4 253.921 47.4533 254.194 47.56C254.468 47.66 254.681 47.8333 254.834 48.08C254.988 48.32 255.064 48.6467 255.064 49.06V53H253.794ZM256.633 53V47.52H257.893V49.69H257.923L259.843 47.52H261.263V47.56L257.893 51.18V53H256.633ZM260.003 53V51.14C260.003 50.7733 259.893 50.5 259.673 50.32C259.459 50.14 259.126 50.05 258.673 50.05L259.423 49.16C259.829 49.16 260.169 49.24 260.443 49.4C260.716 49.5533 260.923 49.7667 261.063 50.04C261.203 50.3133 261.273 50.63 261.273 50.99V53H260.003ZM264.516 53.1C264.116 53.1 263.776 53.0267 263.496 52.88C263.216 52.7267 263.003 52.5 262.856 52.2C262.71 51.9 262.636 51.5233 262.636 51.07V47.52H263.906V50.89C263.906 51.27 263.99 51.5533 264.156 51.74C264.33 51.92 264.576 52.01 264.896 52.01C265.29 52.01 265.593 51.87 265.806 51.59C266.026 51.3033 266.136 50.89 266.136 50.35V47.52H267.406V53H266.416L266.306 52.17H266.226C266.113 52.4367 265.913 52.66 265.626 52.84C265.346 53.0133 264.976 53.1 264.516 53.1ZM270.904 53.1C270.371 53.1 269.948 52.98 269.634 52.74C269.321 52.4933 269.098 52.16 268.964 51.74C268.831 51.32 268.764 50.8467 268.764 50.32C268.764 49.7467 268.824 49.27 268.944 48.89C269.071 48.51 269.248 48.2133 269.474 48C269.708 47.78 269.984 47.6267 270.304 47.54C270.624 47.4467 270.978 47.4 271.364 47.4C271.938 47.4 272.398 47.4833 272.744 47.65C273.098 47.81 273.354 48.04 273.514 48.34C273.681 48.64 273.764 48.9933 273.764 49.4V53H272.494V49.5C272.494 49.1533 272.408 48.89 272.234 48.71C272.068 48.5233 271.781 48.43 271.374 48.43C271.114 48.43 270.881 48.4833 270.674 48.59C270.474 48.69 270.318 48.8733 270.204 49.14C270.098 49.4067 270.044 49.7967 270.044 50.31C270.044 50.65 270.078 50.9533 270.144 51.22C270.211 51.4867 270.321 51.6967 270.474 51.85C270.634 51.9967 270.851 52.07 271.124 52.07C271.211 52.07 271.291 52.0667 271.364 52.06C271.444 52.0467 271.514 52.03 271.574 52.01L271.694 52.97C271.588 53.0167 271.461 53.05 271.314 53.07C271.174 53.09 271.038 53.1 270.904 53.1ZM277.734 53V49.75L278.064 49.71C278.051 50.07 277.901 50.35 277.614 50.55C277.327 50.75 276.961 50.85 276.514 50.85C276.167 50.85 275.854 50.7833 275.574 50.65C275.294 50.5167 275.071 50.32 274.904 50.06C274.737 49.7933 274.654 49.46 274.654 49.06C274.654 48.5467 274.797 48.1467 275.084 47.86C275.371 47.5667 275.764 47.42 276.264 47.42C276.357 47.42 276.464 47.4267 276.584 47.44C276.711 47.4533 276.841 47.4867 276.974 47.54L276.864 48.38C276.791 48.36 276.724 48.3467 276.664 48.34C276.611 48.3333 276.567 48.33 276.534 48.33C276.347 48.33 276.187 48.39 276.054 48.51C275.927 48.6233 275.864 48.8067 275.864 49.06C275.864 49.3133 275.941 49.5133 276.094 49.66C276.254 49.8 276.481 49.87 276.774 49.87C277.107 49.87 277.351 49.7867 277.504 49.62C277.657 49.4467 277.734 49.1733 277.734 48.8V47.52H279.004V53H277.734Z" fill="#221690"/>
</svg>
