<svg width="218" height="40" viewBox="0 0 218 40" fill="none" xmlns="http://www.w3.org/2000/svg">
<path d="M40.1636 14.872V36.5569C40.1636 37.519 39.8303 38.3334 39.1636 39.0001C38.4969 39.6668 37.6825 40.0001 36.7204 40.0001H7.41639C6.45423 40.0001 5.63982 39.6668 4.97315 39.0001C4.30648 38.3334 3.97314 37.519 3.97314 36.5569V14.872C3.97314 13.9098 4.30648 13.0954 4.97315 12.4287C5.63982 11.762 6.45423 11.4287 7.41639 11.4287H36.7204C37.6825 11.4287 38.4969 11.762 39.1636 12.4287C39.8303 13.0954 40.1636 13.9098 40.1636 14.872ZM6.83025 18.8646H37.3065V14.872C37.3065 14.7254 37.2455 14.5911 37.1234 14.469C37.0012 14.3469 36.8669 14.2858 36.7204 14.2858H7.41639C7.26985 14.2858 7.13552 14.3469 7.01339 14.469C6.89129 14.5911 6.83025 14.7254 6.83025 14.872V18.8646ZM6.83025 24.9451V36.5569C6.83025 36.7034 6.89129 36.8377 7.01339 36.9599C7.13552 37.082 7.26985 37.143 7.41639 37.143H36.7204C36.8669 37.143 37.0012 37.082 37.1234 36.9599C37.2455 36.8377 37.3065 36.7034 37.3065 36.5569V24.9451H6.83025Z" fill="#221690"/>
<path d="M53.6284 0C54.7228 0 55.6597 0.395798 56.439 1.18652C57.2181 1.97724 57.6079 2.92782 57.6079 4.03809V20.9619C57.6079 22.0722 57.2181 23.0228 56.439 23.8135C55.6597 24.6042 54.7228 25 53.6284 25H42.1636V21.6494H50.3267C50.3267 20.5355 50.7164 19.5838 51.4956 18.7949C52.2749 18.0061 53.2119 17.6113 54.3062 17.6113V7.38867C53.2083 7.38867 52.2702 6.99287 51.4927 6.20215C50.7152 5.41143 50.3267 4.46086 50.3267 3.35059H27.8892C27.8891 4.46452 27.4995 5.41616 26.7202 6.20508C25.9409 6.99388 25.0039 7.38867 23.9097 7.38867V9.42871H20.6079V4.03809C20.6079 2.92782 20.9977 1.97724 21.7769 1.18652C22.5562 0.395798 23.4931 0 24.5874 0H53.6284ZM39.1079 6.91602C40.646 6.91602 41.9478 7.4562 43.0132 8.53711C44.0786 9.61814 44.6108 10.9393 44.6108 12.5C44.6108 14.0607 44.0786 15.3819 43.0132 16.4629C42.7452 16.7348 42.4615 16.9713 42.1636 17.1748V14.8721C42.1636 13.3917 41.6279 12.0649 40.5776 11.0146C39.5274 9.96438 38.2006 9.42871 36.7202 9.42871H34.481C34.6858 9.11558 34.9259 8.81788 35.2026 8.53711C36.268 7.45618 37.5699 6.91602 39.1079 6.91602Z" fill="#221690"/>
<path d="M81.172 15.192C80.0413 15.192 79.1773 14.936 78.58 14.424C77.9827 13.9013 77.684 13.1387 77.684 12.136V11.384C77.684 10.904 77.7427 10.52 77.86 10.232C77.9773 9.93333 78.1213 9.66667 78.292 9.432C78.4733 9.19733 78.6227 8.98933 78.74 8.808C78.8573 8.616 78.916 8.408 78.916 8.184C78.916 7.98133 78.868 7.83733 78.772 7.752C78.676 7.66667 78.548 7.624 78.388 7.624C78.2707 7.624 78.148 7.64533 78.02 7.688C77.9027 7.72 77.7747 7.768 77.636 7.832L77.268 6.504C77.5347 6.35467 77.828 6.25333 78.148 6.2C78.468 6.14667 78.7507 6.12 78.996 6.12C79.444 6.12 79.8013 6.19467 80.068 6.344C80.3347 6.48267 80.5267 6.68533 80.644 6.952C80.7613 7.208 80.82 7.51733 80.82 7.88C80.82 8.232 80.7613 8.536 80.644 8.792C80.5373 9.048 80.404 9.304 80.244 9.56C80.0947 9.816 79.9667 10.056 79.86 10.28C79.7533 10.504 79.7 10.8187 79.7 11.224V11.96C79.7 12.3547 79.7587 12.6747 79.876 12.92C80.004 13.1547 80.18 13.3253 80.404 13.432C80.628 13.528 80.884 13.576 81.172 13.576C81.6627 13.576 82.02 13.4533 82.244 13.208C82.4787 12.952 82.596 12.5947 82.596 12.136V10.328C82.596 9.976 82.516 9.704 82.356 9.512C82.196 9.32 81.9347 9.224 81.572 9.224H81.492V8.088H81.588C81.9613 8.088 82.228 7.992 82.388 7.8C82.5587 7.608 82.6653 7.37333 82.708 7.096C82.7507 6.808 82.772 6.52 82.772 6.232H84.804C84.804 6.85067 84.724 7.368 84.564 7.784C84.404 8.2 84.1 8.488 83.652 8.648V8.712C83.9187 8.78667 84.1213 8.904 84.26 9.064C84.3987 9.224 84.4893 9.416 84.532 9.64C84.5853 9.85333 84.612 10.0773 84.612 10.312V12.2C84.612 13.1707 84.324 13.912 83.748 14.424C83.172 14.936 82.3133 15.192 81.172 15.192ZM83.357 5.32C82.781 5.32 82.3223 5.18667 81.981 4.92C81.629 4.64267 81.453 4.264 81.453 3.784C81.453 3.29333 81.629 2.91467 81.981 2.648C82.3223 2.38133 82.781 2.248 83.357 2.248C83.933 2.248 84.397 2.38133 84.749 2.648C85.101 2.91467 85.277 3.29333 85.277 3.784C85.277 4.264 85.101 4.64267 84.749 4.92C84.397 5.18667 83.933 5.32 83.357 5.32ZM83.357 4.456C83.6023 4.456 83.789 4.39733 83.917 4.28C84.045 4.152 84.109 3.98667 84.109 3.784C84.109 3.58133 84.045 3.42133 83.917 3.304C83.789 3.176 83.6023 3.112 83.357 3.112C83.1223 3.112 82.941 3.176 82.813 3.304C82.685 3.42133 82.621 3.58133 82.621 3.784C82.621 3.98667 82.685 4.152 82.813 4.28C82.941 4.39733 83.1223 4.456 83.357 4.456ZM89.3649 15V9.048C89.3649 8.568 89.2529 8.22133 89.0289 8.008C88.8155 7.784 88.4529 7.672 87.9409 7.672C87.5782 7.672 87.2422 7.72533 86.9329 7.832C86.6235 7.928 86.3302 8.05067 86.0529 8.2V6.52C86.2769 6.41333 86.5969 6.30667 87.0129 6.2C87.4289 6.09333 87.9195 6.04 88.4849 6.04C89.0609 6.04 89.5675 6.12533 90.0049 6.296C90.4422 6.456 90.7835 6.73333 91.0289 7.128C91.2742 7.512 91.3969 8.03467 91.3969 8.696V15H89.3649ZM96.5621 15.192C95.9328 15.192 95.3195 15.128 94.7221 15C94.1248 14.8613 93.6021 14.68 93.1541 14.456L93.7301 12.84C93.9541 12.9467 94.2101 13.0587 94.4981 13.176C94.7968 13.2827 95.1168 13.3733 95.4581 13.448C95.8101 13.5227 96.1621 13.56 96.5141 13.56C96.9941 13.56 97.3728 13.4853 97.6501 13.336C97.9275 13.176 98.0661 12.9413 98.0661 12.632C98.0661 12.4187 97.9968 12.2427 97.8581 12.104C97.7195 11.9547 97.5115 11.816 97.2341 11.688C96.9568 11.56 96.6155 11.432 96.2101 11.304C95.6021 11.1013 95.0848 10.8827 94.6581 10.648C94.2315 10.4027 93.9061 10.1147 93.6821 9.784C93.4581 9.44267 93.3461 9.016 93.3461 8.504C93.3461 7.97067 93.4795 7.52267 93.7461 7.16C94.0235 6.79733 94.4288 6.52 94.9621 6.328C95.4955 6.136 96.1355 6.04 96.8821 6.04C97.4475 6.04 97.9648 6.088 98.4341 6.184C98.9035 6.28 99.2715 6.40267 99.5381 6.552V8.184C99.3568 8.09867 99.1221 8.01333 98.8341 7.928C98.5461 7.84267 98.2368 7.77333 97.9061 7.72C97.5755 7.656 97.2501 7.624 96.9301 7.624C96.3968 7.624 96.0021 7.704 95.7461 7.864C95.5008 8.01333 95.3781 8.21067 95.3781 8.456C95.3781 8.648 95.4475 8.81333 95.5861 8.952C95.7355 9.08 95.9648 9.20267 96.2741 9.32C96.5835 9.43733 96.9728 9.58133 97.4421 9.752C97.9755 9.93333 98.4395 10.1413 98.8341 10.376C99.2395 10.6 99.5488 10.8827 99.7621 11.224C99.9861 11.5653 100.098 11.992 100.098 12.504C100.098 12.9733 99.9861 13.4107 99.7621 13.816C99.5488 14.2213 99.1861 14.552 98.6741 14.808C98.1621 15.064 97.4581 15.192 96.5621 15.192ZM103.248 9.704C102.778 9.704 102.4 9.63467 102.112 9.496C101.834 9.34667 101.632 9.15467 101.504 8.92C101.386 8.68533 101.328 8.44 101.328 8.184C101.328 8.00267 101.349 7.82133 101.392 7.64C101.445 7.448 101.52 7.272 101.616 7.112L103.152 7.32C103.13 7.39467 103.109 7.47467 103.088 7.56C103.077 7.64533 103.072 7.736 103.072 7.832C103.072 7.97067 103.109 8.08267 103.184 8.168C103.269 8.25333 103.413 8.296 103.616 8.296H105.616V9.704H103.248ZM103.248 14.184C102.778 14.184 102.4 14.1147 102.112 13.976C101.834 13.8267 101.632 13.6347 101.504 13.4C101.386 13.1653 101.328 12.92 101.328 12.664C101.328 12.4827 101.349 12.3013 101.392 12.12C101.445 11.928 101.52 11.752 101.616 11.592L103.152 11.8C103.13 11.8747 103.109 11.9547 103.088 12.04C103.077 12.1253 103.072 12.216 103.072 12.312C103.072 12.4507 103.109 12.5627 103.184 12.648C103.269 12.7333 103.413 12.776 103.616 12.776H105.616V14.184H103.248ZM109.753 15.16C109.348 15.16 108.991 15.096 108.681 14.968C108.372 14.84 108.132 14.6373 107.961 14.36C107.791 14.072 107.705 13.704 107.705 13.256V6.232H109.737V13C109.737 13.224 109.785 13.3893 109.881 13.496C109.977 13.592 110.132 13.64 110.345 13.64C110.431 13.64 110.521 13.6293 110.617 13.608C110.724 13.5867 110.82 13.56 110.905 13.528L111.129 14.872C110.927 14.9787 110.708 15.0533 110.473 15.096C110.239 15.1387 109.999 15.16 109.753 15.16ZM113.61 15L110.986 6.232H113.034L115.13 13.336H115.274C115.476 13.336 115.668 13.2827 115.85 13.176C116.031 13.0693 116.191 12.9307 116.33 12.76C116.575 12.44 116.756 12.0507 116.874 11.592C117.002 11.1333 117.066 10.6747 117.066 10.216C117.066 9.43733 116.906 8.83467 116.586 8.408C116.266 7.98133 115.823 7.768 115.258 7.768C115.151 7.768 115.044 7.77867 114.938 7.8C114.842 7.81067 114.756 7.832 114.682 7.864L114.282 6.28C114.516 6.216 114.735 6.17333 114.938 6.152C115.151 6.13067 115.332 6.12 115.482 6.12C116.036 6.12 116.522 6.2 116.938 6.36C117.354 6.50933 117.711 6.73333 118.01 7.032C118.383 7.39467 118.66 7.848 118.842 8.392C119.034 8.936 119.13 9.544 119.13 10.216C119.13 11.0693 118.996 11.8213 118.73 12.472C118.463 13.112 118.138 13.6187 117.754 13.992C117.434 14.3013 117.039 14.5467 116.57 14.728C116.1 14.9093 115.471 15 114.682 15H113.61ZM111.224 4.952V4.088L112.664 3.48H118.344V4.952H111.224ZM124.051 15.16C123.411 15.16 122.867 15.0427 122.419 14.808C121.971 14.5627 121.63 14.2 121.395 13.72C121.161 13.24 121.043 12.6373 121.043 11.912V6.232H123.075V11.624C123.075 12.232 123.209 12.6853 123.475 12.984C123.753 13.272 124.147 13.416 124.659 13.416C125.289 13.416 125.774 13.192 126.115 12.744C126.467 12.2853 126.643 11.624 126.643 10.76V6.232H128.675V15H127.091L126.915 13.672H126.787C126.606 14.0987 126.286 14.456 125.827 14.744C125.379 15.0213 124.787 15.16 124.051 15.16ZM136.24 15V9.256C136.24 8.66933 136.091 8.25333 135.792 8.008C135.504 7.752 135.04 7.624 134.4 7.624C133.856 7.624 133.328 7.704 132.816 7.864C132.304 8.024 131.845 8.22133 131.44 8.456V6.712C131.749 6.56267 132.176 6.41333 132.72 6.264C133.275 6.11467 133.909 6.04 134.624 6.04C135.189 6.04 135.685 6.10933 136.112 6.248C136.549 6.376 136.869 6.632 137.072 7.016C137.488 7.16533 137.781 7.43733 137.952 7.832C138.133 8.216 138.224 8.696 138.224 9.272V15H136.24ZM133.568 15.16C132.64 15.16 131.925 14.9413 131.424 14.504C130.933 14.0667 130.688 13.4533 130.688 12.664C130.688 11.7893 130.997 11.1067 131.616 10.616C132.245 10.1147 133.248 9.816 134.624 9.72L136.576 9.576V11.096L134.864 11.24C134.053 11.3147 133.493 11.464 133.184 11.688C132.875 11.9013 132.72 12.2053 132.72 12.6C132.72 12.9733 132.837 13.256 133.072 13.448C133.317 13.6293 133.648 13.72 134.064 13.72C134.213 13.72 134.352 13.7093 134.48 13.688C134.619 13.656 134.747 13.624 134.864 13.592L135.088 14.92C134.885 14.9947 134.651 15.0533 134.384 15.096C134.117 15.1387 133.845 15.16 133.568 15.16ZM137.024 7.784L135.904 6.808C136.235 6.712 136.512 6.57333 136.736 6.392C136.971 6.2 137.088 5.95467 137.088 5.656H138.928C138.928 5.98667 138.853 6.296 138.704 6.584C138.565 6.86133 138.352 7.10667 138.064 7.32C137.787 7.52267 137.44 7.67733 137.024 7.784ZM131.099 4.952V4.088L132.539 3.48H138.219V4.952H131.099ZM143.645 15.16C143.005 15.16 142.461 15.0427 142.013 14.808C141.565 14.5627 141.224 14.2 140.989 13.72C140.754 13.24 140.637 12.6373 140.637 11.912V6.232H142.669V11.624C142.669 12.232 142.802 12.6853 143.069 12.984C143.346 13.272 143.741 13.416 144.253 13.416C144.882 13.416 145.368 13.192 145.709 12.744C146.061 12.2853 146.237 11.624 146.237 10.76V6.232H148.269V15H146.685L146.509 13.672H146.381C146.2 14.0987 145.88 14.456 145.421 14.744C144.973 15.0213 144.381 15.16 143.645 15.16ZM150.778 15V9.656C150.778 8.48267 151.087 7.58667 151.706 6.968C152.335 6.34933 153.327 6.04 154.682 6.04C156.036 6.04 157.018 6.34933 157.626 6.968C158.244 7.58667 158.554 8.48267 158.554 9.656V15H156.522V9.624C156.522 9.00533 156.367 8.53067 156.058 8.2C155.759 7.85867 155.29 7.688 154.65 7.688C154.01 7.688 153.54 7.85867 153.242 8.2C152.943 8.53067 152.794 9.00533 152.794 9.624V11.16L152.842 11.176C153.055 10.76 153.311 10.488 153.61 10.36C153.919 10.2213 154.346 10.152 154.89 10.152H155.306V11.72H154.89C154.314 11.72 153.871 11.8107 153.562 11.992C153.263 12.1733 153.06 12.4133 152.954 12.712C152.847 13 152.794 13.3253 152.794 13.688V15H150.778ZM153.64 4.952V4.2C153.811 4.15733 153.998 4.09867 154.2 4.024C154.392 3.93867 154.563 3.832 154.712 3.704C154.851 3.576 154.92 3.416 154.92 3.224C154.92 3.08533 154.878 2.97333 154.792 2.888C154.707 2.792 154.595 2.744 154.456 2.744C154.36 2.744 154.264 2.76533 154.168 2.808C154.062 2.84 153.971 2.872 153.896 2.904L153.576 1.912C153.79 1.73067 154.046 1.61333 154.344 1.56C154.632 1.496 154.878 1.464 155.08 1.464C155.539 1.464 155.896 1.58133 156.152 1.816C156.408 2.04 156.536 2.36 156.536 2.776C156.536 3.032 156.472 3.26667 156.344 3.48C156.206 3.68267 156.019 3.848 155.784 3.976L155.688 3.576H158.76V4.952H153.64ZM163.302 15V9.048C163.302 8.568 163.19 8.22133 162.966 8.008C162.753 7.784 162.39 7.672 161.878 7.672C161.516 7.672 161.18 7.72533 160.87 7.832C160.561 7.928 160.268 8.05067 159.99 8.2V6.52C160.214 6.41333 160.534 6.30667 160.95 6.2C161.366 6.09333 161.857 6.04 162.422 6.04C162.998 6.04 163.505 6.12533 163.942 6.296C164.38 6.456 164.721 6.73333 164.966 7.128C165.212 7.512 165.334 8.03467 165.334 8.696V15H163.302ZM78.212 27.832V25.304C78.212 24.8987 78.2493 24.5733 78.324 24.328C78.3987 24.072 78.5 23.864 78.628 23.704C78.756 23.544 78.8893 23.4107 79.028 23.304L79.012 23.24H76.42L76.836 21.736H81.716V23.24C81.3213 23.24 80.9747 23.368 80.676 23.624C80.388 23.88 80.244 24.3493 80.244 25.032V27.832H78.212ZM80.26 35.16C79.844 35.16 79.4813 35.096 79.172 34.968C78.8733 34.84 78.6387 34.6373 78.468 34.36C78.2973 34.072 78.212 33.704 78.212 33.256V26.232H80.244V33C80.244 33.224 80.292 33.3893 80.388 33.496C80.484 33.592 80.6387 33.64 80.852 33.64C80.9373 33.64 81.028 33.6293 81.124 33.608C81.2307 33.5867 81.3267 33.56 81.412 33.528L81.62 34.872C81.4173 34.9787 81.1987 35.0533 80.964 35.096C80.74 35.1387 80.5053 35.16 80.26 35.16ZM85.9126 35.16C85.0593 35.16 84.382 34.968 83.8806 34.584C83.3793 34.1893 83.022 33.656 82.8086 32.984C82.5953 32.312 82.4886 31.5547 82.4886 30.712C82.4886 29.7947 82.5846 29.032 82.7766 28.424C82.9793 27.816 83.262 27.3413 83.6246 27C83.998 26.648 84.4406 26.4027 84.9526 26.264C85.4646 26.1147 86.03 26.04 86.6486 26.04C87.566 26.04 88.302 26.1733 88.8566 26.44C89.422 26.696 89.8326 27.064 90.0886 27.544C90.3553 28.024 90.4886 28.5893 90.4886 29.24V35H88.4566V29.4C88.4566 28.8453 88.318 28.424 88.0406 28.136C87.774 27.8373 87.3153 27.688 86.6646 27.688C86.2486 27.688 85.8753 27.7733 85.5446 27.944C85.2246 28.104 84.974 28.3973 84.7926 28.824C84.622 29.2507 84.5366 29.8747 84.5366 30.696C84.5366 31.24 84.59 31.7253 84.6966 32.152C84.8033 32.5787 84.9793 32.9147 85.2246 33.16C85.4806 33.3947 85.8273 33.512 86.2646 33.512C86.4033 33.512 86.5313 33.5067 86.6486 33.496C86.7766 33.4747 86.8886 33.448 86.9846 33.416L87.1766 34.952C87.006 35.0267 86.8033 35.08 86.5686 35.112C86.3446 35.144 86.126 35.16 85.9126 35.16ZM85.5465 24.952V24.2C85.7172 24.1573 85.9038 24.0987 86.1065 24.024C86.2985 23.9387 86.4692 23.832 86.6185 23.704C86.7572 23.576 86.8265 23.416 86.8265 23.224C86.8265 23.0853 86.7838 22.9733 86.6985 22.888C86.6132 22.792 86.5012 22.744 86.3625 22.744C86.2665 22.744 86.1705 22.7653 86.0745 22.808C85.9678 22.84 85.8772 22.872 85.8025 22.904L85.4825 21.912C85.6958 21.7307 85.9518 21.6133 86.2505 21.56C86.5385 21.496 86.7838 21.464 86.9865 21.464C87.4452 21.464 87.8025 21.5813 88.0585 21.816C88.3145 22.04 88.4425 22.36 88.4425 22.776C88.4425 23.032 88.3785 23.2667 88.2505 23.48C88.1118 23.6827 87.9252 23.848 87.6905 23.976L87.5945 23.576H90.6665V24.952H85.5465ZM92.9999 35V26.232H95.0159V29.704H95.0639L98.1359 26.232H100.408V26.296L95.0159 32.088V35H92.9999ZM98.3919 35V32.024C98.3919 31.4373 98.2159 31 97.8639 30.712C97.5225 30.424 96.9892 30.28 96.2639 30.28L97.4639 28.856C98.1145 28.856 98.6585 28.984 99.0959 29.24C99.5332 29.4853 99.8639 29.8267 100.088 30.264C100.312 30.7013 100.424 31.208 100.424 31.784V35H98.3919ZM107.662 35V29.256C107.662 28.6693 107.513 28.2533 107.214 28.008C106.926 27.752 106.462 27.624 105.822 27.624C105.278 27.624 104.75 27.704 104.238 27.864C103.726 28.024 103.267 28.2213 102.862 28.456V26.712C103.171 26.5627 103.598 26.4133 104.142 26.264C104.697 26.1147 105.331 26.04 106.046 26.04C106.601 26.04 107.097 26.0987 107.534 26.216C107.982 26.3333 108.361 26.52 108.67 26.776C108.99 27.032 109.23 27.368 109.39 27.784C109.561 28.1893 109.646 28.6853 109.646 29.272V35H107.662ZM104.99 35.16C104.062 35.16 103.347 34.9413 102.846 34.504C102.355 34.0667 102.11 33.4533 102.11 32.664C102.11 31.7893 102.419 31.1067 103.038 30.616C103.667 30.1147 104.67 29.816 106.046 29.72L107.998 29.576V31.096L106.286 31.24C105.475 31.3147 104.915 31.464 104.606 31.688C104.297 31.9013 104.142 32.2053 104.142 32.6C104.142 32.9733 104.259 33.256 104.494 33.448C104.739 33.6293 105.07 33.72 105.486 33.72C105.635 33.72 105.774 33.7093 105.902 33.688C106.041 33.656 106.169 33.624 106.286 33.592L106.51 34.92C106.307 34.9947 106.073 35.0533 105.806 35.096C105.539 35.1387 105.267 35.16 104.99 35.16ZM114.396 35V29.048C114.396 28.568 114.284 28.2213 114.06 28.008C113.847 27.784 113.484 27.672 112.972 27.672C112.609 27.672 112.273 27.7253 111.964 27.832C111.655 27.928 111.361 28.0507 111.084 28.2V26.52C111.308 26.4133 111.628 26.3067 112.044 26.2C112.46 26.0933 112.951 26.04 113.516 26.04C114.092 26.04 114.599 26.1253 115.036 26.296C115.473 26.456 115.815 26.7333 116.06 27.128C116.305 27.512 116.428 28.0347 116.428 28.696V35H114.396ZM118.713 35V32.184C118.713 31.512 118.852 31.0053 119.129 30.664C119.407 30.3227 119.785 30.088 120.265 29.96L120.281 29.896L118.553 29.256V28.792C118.553 28.3013 118.703 27.848 119.001 27.432C119.311 27.016 119.753 26.68 120.329 26.424C120.905 26.168 121.604 26.04 122.425 26.04C123.172 26.04 123.833 26.1573 124.409 26.392C124.985 26.6267 125.439 26.984 125.769 27.464C126.1 27.9333 126.265 28.5413 126.265 29.288V35H124.233V29.432C124.233 28.824 124.063 28.3813 123.721 28.104C123.38 27.8267 122.932 27.688 122.377 27.688C121.823 27.688 121.396 27.8053 121.097 28.04C120.809 28.264 120.655 28.5467 120.633 28.888L122.185 29.624L122.025 30.568C121.631 30.5787 121.316 30.7173 121.081 30.984C120.857 31.24 120.745 31.608 120.745 32.088V35H118.713ZM128.781 35V26.232H130.797V29.704H130.845L133.917 26.232H136.189V26.296L130.797 32.088V35H128.781ZM134.173 35V32.024C134.173 31.4373 133.997 31 133.645 30.712C133.304 30.424 132.77 30.28 132.045 30.28L133.245 28.856C133.896 28.856 134.44 28.984 134.877 29.24C135.314 29.4853 135.645 29.8267 135.869 30.264C136.093 30.7013 136.205 31.208 136.205 31.784V35H134.173ZM143.443 35V29.256C143.443 28.6693 143.294 28.2533 142.995 28.008C142.707 27.752 142.243 27.624 141.603 27.624C141.059 27.624 140.531 27.704 140.019 27.864C139.507 28.024 139.048 28.2213 138.643 28.456V26.712C138.952 26.5627 139.379 26.4133 139.923 26.264C140.478 26.1147 141.112 26.04 141.827 26.04C142.382 26.04 142.878 26.0987 143.315 26.216C143.763 26.3333 144.142 26.52 144.451 26.776C144.771 27.032 145.011 27.368 145.171 27.784C145.342 28.1893 145.427 28.6853 145.427 29.272V35H143.443ZM140.771 35.16C139.843 35.16 139.128 34.9413 138.627 34.504C138.136 34.0667 137.891 33.4533 137.891 32.664C137.891 31.7893 138.2 31.1067 138.819 30.616C139.448 30.1147 140.451 29.816 141.827 29.72L143.779 29.576V31.096L142.067 31.24C141.256 31.3147 140.696 31.464 140.387 31.688C140.078 31.9013 139.923 32.2053 139.923 32.6C139.923 32.9733 140.04 33.256 140.275 33.448C140.52 33.6293 140.851 33.72 141.267 33.72C141.416 33.72 141.555 33.7093 141.683 33.688C141.822 33.656 141.95 33.624 142.067 33.592L142.291 34.92C142.088 34.9947 141.854 35.0533 141.587 35.096C141.32 35.1387 141.048 35.16 140.771 35.16ZM150.177 35V29.048C150.177 28.568 150.065 28.2213 149.841 28.008C149.628 27.784 149.265 27.672 148.753 27.672C148.391 27.672 148.055 27.7253 147.745 27.832C147.436 27.928 147.143 28.0507 146.865 28.2V26.52C147.089 26.4133 147.409 26.3067 147.825 26.2C148.241 26.0933 148.732 26.04 149.297 26.04C149.873 26.04 150.38 26.1253 150.817 26.296C151.255 26.456 151.596 26.7333 151.841 27.128C152.087 27.512 152.209 28.0347 152.209 28.696V35H150.177ZM158.159 35.176C157.241 35.176 156.505 35.064 155.951 34.84C155.396 34.616 154.991 34.3013 154.735 33.896C154.489 33.48 154.367 32.9947 154.367 32.44C154.367 31.96 154.436 31.576 154.575 31.288C154.724 31 154.911 30.7813 155.135 30.632C155.359 30.4827 155.588 30.3867 155.823 30.344V30.248C155.588 30.1733 155.359 30.0613 155.135 29.912C154.911 29.7627 154.724 29.56 154.575 29.304C154.425 29.0373 154.351 28.712 154.351 28.328C154.351 27.9333 154.441 27.5707 154.623 27.24C154.804 26.8987 155.097 26.6267 155.503 26.424C155.908 26.2107 156.441 26.104 157.103 26.104C157.401 26.104 157.7 26.1253 157.999 26.168C158.297 26.2107 158.527 26.2747 158.687 26.36L158.367 27.784C158.26 27.752 158.127 27.72 157.967 27.688C157.807 27.656 157.647 27.64 157.487 27.64C157.103 27.64 156.82 27.7307 156.639 27.912C156.468 28.0827 156.383 28.312 156.383 28.6C156.383 28.8987 156.457 29.128 156.607 29.288C156.767 29.448 156.969 29.56 157.215 29.624C157.46 29.6773 157.716 29.704 157.983 29.704H158.319V31.016H157.983C157.46 31.016 157.071 31.112 156.815 31.304C156.559 31.4853 156.431 31.7893 156.431 32.216C156.431 32.4507 156.479 32.6747 156.575 32.888C156.681 33.1013 156.863 33.2773 157.119 33.416C157.375 33.544 157.732 33.608 158.191 33.608C158.639 33.608 158.991 33.544 159.247 33.416C159.503 33.288 159.684 33.112 159.791 32.888C159.897 32.6533 159.951 32.3813 159.951 32.072V26.232H161.983V31.992C161.983 33.1013 161.673 33.912 161.055 34.424C160.447 34.9253 159.481 35.176 158.159 35.176ZM167.844 35.192C166.713 35.192 165.849 34.936 165.252 34.424C164.655 33.9013 164.356 33.1387 164.356 32.136V31.384C164.356 30.904 164.415 30.52 164.532 30.232C164.649 29.9333 164.793 29.6667 164.964 29.432C165.145 29.1973 165.295 28.9893 165.412 28.808C165.529 28.616 165.588 28.408 165.588 28.184C165.588 27.9813 165.54 27.8373 165.444 27.752C165.348 27.6667 165.22 27.624 165.06 27.624C164.943 27.624 164.82 27.6453 164.692 27.688C164.575 27.72 164.447 27.768 164.308 27.832L163.94 26.504C164.207 26.3547 164.5 26.2533 164.82 26.2C165.14 26.1467 165.423 26.12 165.668 26.12C166.116 26.12 166.473 26.1947 166.74 26.344C167.007 26.4827 167.199 26.6853 167.316 26.952C167.433 27.208 167.492 27.5173 167.492 27.88C167.492 28.232 167.433 28.536 167.316 28.792C167.209 29.048 167.076 29.304 166.916 29.56C166.767 29.816 166.639 30.056 166.532 30.28C166.425 30.504 166.372 30.8187 166.372 31.224V31.96C166.372 32.3547 166.431 32.6747 166.548 32.92C166.676 33.1547 166.852 33.3253 167.076 33.432C167.3 33.528 167.556 33.576 167.844 33.576C168.335 33.576 168.692 33.4533 168.916 33.208C169.151 32.952 169.268 32.5947 169.268 32.136V30.328C169.268 29.976 169.188 29.704 169.028 29.512C168.868 29.32 168.607 29.224 168.244 29.224H168.164V28.088H168.26C168.633 28.088 168.9 27.992 169.06 27.8C169.231 27.608 169.337 27.3733 169.38 27.096C169.423 26.808 169.444 26.52 169.444 26.232H171.476C171.476 26.8507 171.396 27.368 171.236 27.784C171.076 28.2 170.772 28.488 170.324 28.648V28.712C170.591 28.7867 170.793 28.904 170.932 29.064C171.071 29.224 171.161 29.416 171.204 29.64C171.257 29.8533 171.284 30.0773 171.284 30.312V32.2C171.284 33.1707 170.996 33.912 170.42 34.424C169.844 34.936 168.985 35.192 167.844 35.192ZM169.501 24.952V21.416H171.405V24.952H169.501ZM176.997 35.192C175.749 35.192 174.821 34.8827 174.213 34.264C173.615 33.6347 173.317 32.6907 173.317 31.432C173.317 31.2187 173.322 30.968 173.333 30.68C173.354 30.392 173.375 30.1307 173.397 29.896H177.061V31.272H175.317V31.528C175.317 32.0507 175.375 32.4667 175.493 32.776C175.621 33.0853 175.807 33.3093 176.053 33.448C176.298 33.5867 176.607 33.656 176.981 33.656C177.386 33.656 177.733 33.5707 178.021 33.4C178.309 33.2293 178.527 32.936 178.677 32.52C178.837 32.0933 178.917 31.5013 178.917 30.744C178.917 30.0613 178.837 29.496 178.677 29.048C178.527 28.5893 178.277 28.248 177.925 28.024C177.573 27.8 177.087 27.688 176.469 27.688C176.138 27.688 175.807 27.72 175.477 27.784C175.146 27.848 174.826 27.9333 174.517 28.04C174.218 28.1467 173.946 28.2747 173.701 28.424V26.68C173.925 26.552 174.202 26.4453 174.533 26.36C174.863 26.264 175.226 26.1893 175.621 26.136C176.015 26.072 176.41 26.04 176.805 26.04C177.807 26.04 178.613 26.232 179.221 26.616C179.839 26.9893 180.287 27.5227 180.565 28.216C180.853 28.9093 180.997 29.7253 180.997 30.664C180.997 31.624 180.863 32.4453 180.597 33.128C180.33 33.8 179.903 34.312 179.317 34.664C178.73 35.016 177.957 35.192 176.997 35.192ZM184.516 35L181.892 26.232H183.94L186.036 33.336H186.18C186.382 33.336 186.574 33.2827 186.756 33.176C186.937 33.0693 187.097 32.9307 187.236 32.76C187.481 32.44 187.662 32.0507 187.78 31.592C187.908 31.1333 187.972 30.6747 187.972 30.216C187.972 29.4373 187.812 28.8347 187.492 28.408C187.172 27.9813 186.729 27.768 186.164 27.768C186.057 27.768 185.95 27.7787 185.844 27.8C185.748 27.8107 185.662 27.832 185.588 27.864L185.188 26.28C185.422 26.216 185.641 26.1733 185.844 26.152C186.057 26.1307 186.238 26.12 186.388 26.12C186.942 26.12 187.428 26.2 187.844 26.36C188.26 26.5093 188.617 26.7333 188.916 27.032C189.289 27.3947 189.566 27.848 189.748 28.392C189.94 28.936 190.036 29.544 190.036 30.216C190.036 31.0693 189.902 31.8213 189.636 32.472C189.369 33.112 189.044 33.6187 188.66 33.992C188.34 34.3013 187.945 34.5467 187.476 34.728C187.006 34.9093 186.377 35 185.588 35H184.516ZM192.046 35V26.232H193.518L193.806 27.608H193.918C194.099 27.16 194.419 26.792 194.878 26.504C195.336 26.216 195.918 26.072 196.622 26.072C197.283 26.072 197.838 26.1893 198.286 26.424C198.744 26.648 199.091 27 199.326 27.48C199.56 27.9493 199.678 28.5467 199.678 29.272V35H197.646V29.608C197.646 28.9893 197.507 28.536 197.23 28.248C196.963 27.96 196.568 27.816 196.046 27.816C195.619 27.816 195.256 27.928 194.958 28.152C194.67 28.3653 194.451 28.6693 194.302 29.064C194.152 29.448 194.078 29.9173 194.078 30.472V35H192.046ZM204.427 35V29.048C204.427 28.568 204.315 28.2213 204.091 28.008C203.878 27.784 203.515 27.672 203.003 27.672C202.641 27.672 202.305 27.7253 201.995 27.832C201.686 27.928 201.393 28.0507 201.115 28.2V26.52C201.339 26.4133 201.659 26.3067 202.075 26.2C202.491 26.0933 202.982 26.04 203.547 26.04C204.123 26.04 204.63 26.1253 205.067 26.296C205.505 26.456 205.846 26.7333 206.091 27.128C206.337 27.512 206.459 28.0347 206.459 28.696V35H204.427ZM210.313 35L207.689 26.232H209.737L211.833 33.336H211.977C212.179 33.336 212.371 33.2827 212.553 33.176C212.734 33.0693 212.894 32.9307 213.033 32.76C213.278 32.44 213.459 32.0507 213.577 31.592C213.705 31.1333 213.769 30.6747 213.769 30.216C213.769 29.4373 213.609 28.8347 213.289 28.408C212.969 27.9813 212.526 27.768 211.961 27.768C211.854 27.768 211.747 27.7787 211.641 27.8C211.545 27.8107 211.459 27.832 211.385 27.864L210.985 26.28C211.219 26.216 211.438 26.1733 211.641 26.152C211.854 26.1307 212.035 26.12 212.185 26.12C212.739 26.12 213.225 26.2 213.641 26.36C214.057 26.5093 214.414 26.7333 214.713 27.032C215.086 27.3947 215.363 27.848 215.545 28.392C215.737 28.936 215.833 29.544 215.833 30.216C215.833 31.0693 215.699 31.8213 215.433 32.472C215.166 33.112 214.841 33.6187 214.457 33.992C214.137 34.3013 213.742 34.5467 213.273 34.728C212.803 34.9093 212.174 35 211.385 35H210.313Z" fill="#221690"/>
</svg>
