<svg width="97" height="128" viewBox="0 0 97 128" fill="none" xmlns="http://www.w3.org/2000/svg">
<rect x="0.5" width="96" height="96" rx="48" fill="#F4F6F8"/>
<path d="M66.3873 24H30.6127C27.2368 24 24.5 26.7368 24.5 30.1127V65.8873C24.5 69.2633 27.2368 72 30.6127 72H66.3873C69.7633 72 72.5 69.2633 72.5 65.8873V30.1127C72.5 26.7368 69.7633 24 66.3873 24Z" fill="#1F157C"/>
<mask id="mask0_1_2042" style="mask-type:luminance" maskUnits="userSpaceOnUse" x="31" y="31" width="35" height="34">
<path d="M48.4986 64.9031C57.8331 64.9031 65.4002 57.336 65.4002 48.0015C65.4002 38.667 57.8331 31.0999 48.4986 31.0999C39.164 31.0999 31.5969 38.667 31.5969 48.0015C31.5969 57.336 39.164 64.9031 48.4986 64.9031Z" fill="white"/>
</mask>
<g mask="url(#mask0_1_2042)">
<path d="M48.4986 48.4905L48.4924 48.5058V48.4844L48.4986 48.4905Z" fill="url(#paint0_linear_1_2042)"/>
<path d="M48.85 48.3621V48.8358L48.8164 48.7991C48.8164 48.6494 48.8347 48.4935 48.8409 48.3621H48.85Z" fill="url(#paint1_linear_1_2042)"/>
<path d="M50.8733 54.5452C50.877 56.8417 49.9946 59.0512 48.4099 60.7134C46.8253 62.3756 44.6605 63.3625 42.3664 63.4684C40.0723 63.5744 37.8257 62.7913 36.0946 61.2822C34.3634 59.7732 33.2811 57.6545 33.0731 55.3674C33.1048 55.3857 33.1345 55.4072 33.1618 55.4315C33.2765 55.5356 33.3991 55.6306 33.5285 55.7158C33.8179 55.9429 34.1245 56.1472 34.4454 56.327C34.5616 56.4004 34.6838 56.4554 34.7969 56.5227C34.91 56.5899 35.0414 56.651 35.1637 56.7091L35.5518 56.8802C35.8055 56.978 36.0653 57.0758 36.3251 57.1553C36.3251 57.1553 36.3251 57.1553 36.3434 57.1553L36.7255 57.2684C36.8141 57.2837 36.8966 57.3081 36.97 57.3265L37.3337 57.4059L37.7096 57.4793C37.896 57.5037 38.0825 57.5282 38.2689 57.5465C38.4554 57.5649 38.5959 57.571 38.7488 57.5771C38.9016 57.5832 39.0544 57.5954 39.2317 57.5954C40.4917 57.599 41.7399 57.3526 42.9041 56.8705C44.0682 56.3884 45.1252 55.6801 46.0137 54.7866C46.1543 54.6491 46.2827 54.5116 46.4141 54.3649C46.6623 54.0892 46.893 53.7983 47.1048 53.4938C47.1874 53.3716 47.2668 53.2585 47.3402 53.1454C47.57 52.7937 47.7742 52.426 47.9514 52.0451C48.0645 51.7945 48.1807 51.5408 48.2571 51.281C48.306 51.1526 48.3549 51.012 48.3946 50.8837C48.4343 50.7553 48.4771 50.6147 48.5077 50.4833C48.5383 50.3519 48.5749 50.2174 48.6055 50.0768C48.6361 49.9362 48.6636 49.8017 48.688 49.6703C48.7369 49.3952 48.7705 49.1171 48.795 48.842C48.9234 48.9887 49.0456 49.1477 49.1587 49.3035C49.2259 49.3952 49.2901 49.4839 49.3482 49.5725C49.4704 49.7437 49.5744 49.924 49.6813 50.1104C49.749 50.2183 49.8112 50.3295 49.8678 50.4436C50.1137 50.9213 50.3182 51.4193 50.479 51.932C50.5188 52.0787 50.5585 52.2163 50.5921 52.363C50.6257 52.5097 50.6563 52.6411 50.6899 52.7878C50.7235 52.9345 50.7388 53.0537 50.7541 53.1851C50.801 53.4888 50.8305 53.795 50.8427 54.102C50.8427 54.1601 50.8427 54.209 50.8427 54.264C50.8427 54.319 50.8733 54.4566 50.8733 54.5452Z" fill="#1F157C"/>
<path d="M49.2779 48.3467H48.8378V48.362C48.8386 48.509 48.8304 48.656 48.8134 48.8021L48.847 48.8327V48.362C49.009 48.362 49.1526 48.362 49.3177 48.3773C49.3062 48.3649 49.2928 48.3546 49.2779 48.3467ZM48.9723 48.0135C48.9376 47.9618 48.8965 47.9145 48.85 47.873V48.0197C48.8546 48.0654 48.8546 48.1115 48.85 48.1572C48.8931 48.1188 48.9339 48.078 48.9723 48.0349H48.9937L48.9723 48.0135ZM48.6514 47.6743H48.5138C48.5626 47.6697 48.6117 47.6697 48.6605 47.6743H48.6514ZM48.5047 47.5276L48.4802 47.5673C48.4833 47.5601 48.4879 47.5537 48.4937 47.5484C48.4995 47.5431 48.5064 47.5392 48.5138 47.5368L48.5047 47.5276ZM48.3671 47.6651C48.302 47.6697 48.2366 47.6697 48.1715 47.6651H48.5047C48.4636 47.6647 48.4227 47.6606 48.3824 47.6529L48.3671 47.6651ZM48.3671 48.3497H48.5047C48.4555 48.3508 48.4063 48.3467 48.358 48.3375L48.3671 48.3497ZM48.1715 48.7807V48.8449L48.5047 48.5209V48.4965C48.3971 48.595 48.2827 48.6859 48.1624 48.7685L48.1715 48.7807ZM48.1715 48.1694V48.3559C48.2003 48.3224 48.2332 48.2926 48.2693 48.2672L48.1715 48.1694Z" fill="url(#paint2_linear_1_2042)"/>
<path d="M48.9937 48.0198H48.9601C48.9194 48.0167 48.8785 48.0167 48.8378 48.0198V47.873L48.9693 48.0014L48.9937 48.0198Z" fill="url(#paint3_linear_1_2042)"/>
<path d="M49.336 47.705C49.2198 47.7997 49.1037 47.9036 48.9937 48.0106L49.2993 47.705C49.3113 47.7019 49.3239 47.7019 49.336 47.705Z" fill="url(#paint4_linear_1_2042)"/>
<path d="M63.9698 54.548C63.9684 56.7725 63.1361 58.9161 61.636 60.5586C60.136 62.2011 58.0765 63.2241 55.8613 63.4268C55.8886 63.3975 55.9131 63.3658 55.9347 63.332C56.0233 63.2281 56.1058 63.1272 56.1883 63.0264C56.8368 62.1614 57.3349 61.1932 57.6615 60.1626C57.7043 60.025 57.744 59.8936 57.7776 59.7591C57.799 59.6766 57.8204 59.5941 57.8388 59.5177C57.875 59.3965 57.9025 59.2729 57.9213 59.1479C57.9488 59.0164 57.9702 58.8881 57.9916 58.7567C58.0191 58.5733 58.0466 58.396 58.0588 58.2096C58.071 58.0231 58.0863 57.9039 58.0924 57.7358C58.0985 57.5677 58.1077 57.4149 58.1077 57.256C58.1098 55.9953 57.8627 54.7466 57.3807 53.5816C56.8986 52.4167 56.1912 51.3585 55.2989 50.4678C55.1828 50.3517 55.0666 50.2417 54.9505 50.1408C54.8344 50.0399 54.7091 49.9269 54.5868 49.8352C54.4645 49.7435 54.3453 49.6365 54.2231 49.5295C54.1008 49.4226 53.9175 49.3247 53.7769 49.2239C53.6363 49.123 53.5446 49.0711 53.4285 49.0038C53.2668 48.9007 53.0994 48.8069 52.9272 48.7226C52.805 48.6554 52.6735 48.5943 52.5513 48.5393C51.7682 48.1728 50.9382 47.9167 50.0848 47.7782C49.99 47.758 49.8941 47.7437 49.7975 47.7354C49.6862 47.7162 49.574 47.7029 49.4613 47.6957C49.4206 47.6927 49.3797 47.6927 49.3391 47.6957C49.9616 47.1687 50.6563 46.7333 51.4021 46.4029C51.5946 46.3142 51.7994 46.2317 52.0134 46.1553L52.1356 46.1156C52.2456 46.0789 52.3496 46.0392 52.4596 46.0117C52.6858 45.9444 52.918 45.8802 53.1503 45.8344C53.2557 45.8064 53.3629 45.786 53.4712 45.7733C53.6383 45.7354 53.8078 45.7099 53.9786 45.6969C54.0764 45.6969 54.1711 45.6694 54.2659 45.6632C54.3606 45.6571 54.5012 45.6418 54.6235 45.6418C54.7457 45.6418 54.9291 45.6418 55.0697 45.6418C57.43 45.6459 59.6923 46.5857 61.3607 48.2552C63.0291 49.9248 63.9674 52.1878 63.9698 54.548Z" fill="#1F157C"/>
<path d="M49.3421 47.6957C49.3828 47.6913 49.4238 47.6913 49.4644 47.6957C49.4238 47.6908 49.3827 47.6908 49.3421 47.6957ZM49.2932 47.6957L48.9876 48.0014C49.0915 47.9036 49.2138 47.7966 49.3299 47.6957C49.3198 47.6942 49.3095 47.6942 49.2993 47.6957H49.2932ZM49.009 48.0197L48.9937 48.0044L48.8653 47.873V48.0197C48.8699 48.0654 48.8699 48.1115 48.8653 48.1572C48.9084 48.1188 48.9492 48.078 48.9876 48.035H48.9937C49.0976 48.142 49.1893 48.2551 49.2779 48.362H49.3269L49.009 48.0197ZM48.5139 47.6743C48.5627 47.6698 48.6118 47.6698 48.6606 47.6743C48.6916 47.7024 48.7212 47.7319 48.7492 47.763C48.7756 47.7295 48.8053 47.6988 48.8378 47.6713L48.5139 47.6743ZM49.2779 48.359H48.8378V48.3743C48.9998 48.3743 49.1435 48.3743 49.3085 48.3895C49.3009 48.3736 49.2906 48.3591 49.2779 48.3467V48.359ZM48.3672 47.6652H48.5047C48.4637 47.6647 48.4227 47.6606 48.3824 47.653L48.3672 47.6652ZM48.3672 48.3498H48.5047C48.4555 48.3508 48.4063 48.3467 48.358 48.3376L48.3672 48.3498ZM48.1715 48.1634V48.3498C48.2004 48.3163 48.2332 48.2866 48.2694 48.2612L48.1715 48.1634ZM48.0493 48.0075L48.1899 48.145C48.1291 48.1019 48.0737 48.0516 48.0248 47.9953L48.0493 48.0075ZM48.9112 47.1945C49.0182 47.1028 49.1221 47.0142 49.2382 46.9255C49.0976 47.0019 48.9937 47.0936 48.8867 47.1823L48.9112 47.1945Z" fill="url(#paint5_linear_1_2042)"/>
<path d="M48.1287 48.8083C48.1287 48.9427 48.1012 49.0742 48.0829 49.2056C48.0645 49.337 48.0493 49.4562 48.0218 49.5876C47.9943 49.719 47.9729 49.8413 47.9454 49.9636C47.8844 50.247 47.8068 50.5266 47.7131 50.801C47.6856 50.8896 47.6489 50.9844 47.6153 51.073C47.4864 51.4334 47.3312 51.7838 47.1507 52.1213C47.0957 52.2253 47.0407 52.3292 46.9795 52.427C46.8756 52.6134 46.7656 52.7907 46.6495 52.9618C46.5761 53.078 46.4936 53.188 46.4111 53.298C46.3285 53.4081 46.301 53.4478 46.2399 53.5181C46.1788 53.5884 46.136 53.6526 46.0749 53.7229C45.9037 53.9276 45.7264 54.1202 45.54 54.3036C43.9151 55.9122 41.7341 56.8349 39.4481 56.8806C37.1621 56.9264 34.9459 56.0918 33.258 54.5495C31.57 53.0072 30.5394 50.8751 30.3793 48.5942C30.2191 46.3134 30.9418 44.0582 32.3977 42.2952C32.4252 42.5764 32.4588 42.8514 32.5077 43.1234C32.5261 43.2335 32.5475 43.3435 32.5688 43.4535C32.5688 43.5147 32.5964 43.5758 32.6086 43.6461C32.6208 43.7164 32.6575 43.8447 32.685 43.9517C32.7522 44.2211 32.8349 44.4864 32.9326 44.7464C32.9937 44.9236 33.0609 45.0948 33.1373 45.269C33.1778 45.3732 33.2237 45.4752 33.2749 45.5746C33.3818 45.813 33.5071 46.0392 33.6355 46.2745C33.7058 46.3907 33.7792 46.5068 33.8495 46.6169C33.9198 46.7269 33.9931 46.8338 34.0695 46.9439C34.1459 47.0539 34.1857 47.1089 34.2468 47.1914C34.3079 47.274 34.4027 47.4023 34.4852 47.4971C34.7052 47.763 34.9314 48.0167 35.1698 48.2581C36.0623 49.1487 37.122 49.8543 38.2879 50.3342C39.4539 50.8141 40.7032 51.059 41.9641 51.0547C42.1261 51.0547 42.285 51.0547 42.4439 51.0394C42.6028 51.0241 42.7648 51.021 42.9207 51.0058C43.0766 50.9905 43.3058 50.966 43.4984 50.9294L43.8529 50.8682C43.9629 50.8479 44.073 50.8234 44.183 50.7949C44.2777 50.7735 44.3755 50.7521 44.4642 50.7246C44.6017 50.691 44.7301 50.6482 44.8676 50.6084C46.066 50.2356 47.1771 49.6255 48.1348 48.8144C48.1348 48.8144 48.1287 48.8144 48.1287 48.8083Z" fill="#DEE4F3"/>
<path d="M48.1624 48.3406H48.1501V48.3467H48.1624V48.3406Z" fill="url(#paint6_linear_1_2042)"/>
<path d="M48.4924 48.4844V48.5058L48.1654 48.8359V48.7717C48.2795 48.6818 48.3886 48.5859 48.4924 48.4844Z" fill="url(#paint7_linear_1_2042)"/>
<path d="M48.4986 48.3469H48.3549C48.4028 48.3499 48.4507 48.3499 48.4986 48.3469Z" fill="url(#paint8_linear_1_2042)"/>
<path d="M48.52 47.5002V47.5155L48.4955 47.5553C48.4986 47.5481 48.5032 47.5416 48.509 47.5363C48.5148 47.5311 48.5217 47.5271 48.5291 47.5247C48.6361 47.4208 48.7431 47.323 48.8562 47.2191V47.1763L48.52 47.5002ZM48.52 47.6622C48.5688 47.6577 48.6179 47.6577 48.6667 47.6622C48.6977 47.6902 48.7273 47.7198 48.7553 47.7509C48.7817 47.7174 48.8114 47.6867 48.844 47.6592V47.6745L48.52 47.6622ZM48.3733 47.6531H48.5108C48.4681 47.657 48.4251 47.657 48.3824 47.6531H48.3733ZM48.3733 48.3377H48.5108C48.46 48.3432 48.4088 48.3432 48.358 48.3377H48.3733ZM48.1777 48.7686V48.8328L48.5108 48.5088V48.4844C48.4017 48.5874 48.2852 48.6824 48.1624 48.7686H48.1777ZM48.1777 48.1574V48.3438C48.2065 48.3103 48.2393 48.2806 48.2755 48.2552L48.1777 48.1574ZM48.0554 47.9984V48.0137L48.196 48.1512C48.1327 48.1066 48.0752 48.0542 48.0248 47.9954L48.0554 47.9984ZM48.1532 48.8206C48.1487 48.8857 48.1487 48.9511 48.1532 49.0162C48.1532 48.952 48.1532 48.8787 48.1777 48.8114C48.1318 48.8175 48.1318 48.8175 48.1226 48.8175L48.1532 48.8206Z" fill="url(#paint9_linear_1_2042)"/>
<path d="M57.4201 57.2623C57.4184 58.9563 56.9347 60.6149 56.0253 62.0442C55.116 63.4735 53.8186 64.6145 52.2848 65.3338C50.751 66.0531 49.0442 66.321 47.3638 66.1062C45.6835 65.8914 44.0989 65.2027 42.7954 64.1207C43.0705 64.0871 43.3547 64.0535 43.6328 64.0046C43.7698 63.986 43.9055 63.9595 44.0393 63.9251C44.1769 63.9007 44.3144 63.867 44.455 63.8273C44.7222 63.7607 44.9855 63.679 45.2436 63.5828C45.9072 63.3368 46.5425 63.0202 47.1385 62.6384L47.4441 62.4275C47.548 62.3541 47.655 62.2716 47.7498 62.1983C48.0954 61.9317 48.4241 61.6438 48.7339 61.3364C49.6271 60.4459 50.3349 59.3872 50.8165 58.2216C51.298 57.0559 51.5438 55.8064 51.5396 54.5452C51.5396 54.3893 51.5396 54.2395 51.5244 54.0653V53.9675C51.5244 53.8453 51.5091 53.723 51.4907 53.5916C51.4755 53.4143 51.451 53.2279 51.4265 53.0384C51.4021 52.91 51.3868 52.7878 51.3532 52.6655C51.3299 52.5229 51.2972 52.382 51.2554 52.2437C51.214 52.0419 51.1599 51.8428 51.0934 51.6477C51.0537 51.5194 51.0109 51.388 50.962 51.2596L50.8153 50.8684C50.7022 50.6147 50.5891 50.3702 50.4669 50.1196C50.4516 50.0859 50.4332 50.0615 50.418 50.0309C50.3446 49.8903 50.2621 49.762 50.1826 49.6244C50.1032 49.4869 50.0206 49.3555 49.9289 49.2241C49.8372 49.0926 49.7578 48.9734 49.6691 48.8512C49.5549 48.6872 49.4325 48.5291 49.3024 48.3774C49.3452 48.3774 49.3941 48.3774 49.4338 48.3958L49.8067 48.4447L50.2376 48.518C50.3843 48.5486 50.5158 48.5822 50.6625 48.6158C50.9467 48.6861 51.2157 48.7687 51.4907 48.8573L51.558 48.8817C51.775 48.9643 51.995 49.0529 52.2059 49.1507C52.848 49.4464 53.4523 49.8178 54.0061 50.2571C54.0795 50.306 54.1436 50.3702 54.2078 50.4191C54.3389 50.5267 54.4644 50.6409 54.5838 50.7614C54.6571 50.8195 54.7213 50.8837 54.7947 50.9478C55.6267 51.7755 56.287 52.7594 56.7376 53.843C57.1881 54.9267 57.4201 56.0887 57.4201 57.2623Z" fill="#DEE4F3"/>
<path d="M47.6581 48.307C47.6413 48.325 47.6229 48.3413 47.6031 48.3559C47.493 48.4506 47.3769 48.5393 47.2607 48.6218L46.8971 48.8755C46.7809 48.958 46.6556 49.0344 46.5333 49.1077C46.4111 49.1811 46.2797 49.2575 46.1513 49.3278C46.0229 49.3981 45.8976 49.4562 45.7662 49.5204C45.4762 49.656 45.1794 49.7764 44.8768 49.881C44.7668 49.9177 44.6629 49.9574 44.5528 49.9849C44.3267 50.0522 44.0944 50.1163 43.8682 50.1622C43.746 50.1897 43.6298 50.2111 43.5045 50.2325C43.1383 50.3014 42.7674 50.3422 42.395 50.3547C42.2453 50.3547 42.0894 50.37 41.9519 50.37C39.6559 50.3721 37.4475 49.4886 35.7865 47.9035C34.1255 46.3183 33.1398 44.1536 33.0347 41.86C32.9295 39.5664 33.713 37.3206 35.222 35.5902C36.731 33.8597 38.8493 32.7778 41.1358 32.5698L41.0686 32.6615C40.9647 32.7777 40.8699 32.8999 40.7782 33.0222V33.0374C40.5023 33.4148 40.2531 33.8111 40.0325 34.2233C40.0185 34.2541 40.0022 34.2837 39.9836 34.3119C39.8613 34.5565 39.7421 34.804 39.6352 35.0577C39.5282 35.3114 39.4365 35.5773 39.354 35.8401C39.3112 35.9746 39.2714 36.106 39.2378 36.2436C39.2164 36.3261 39.195 36.4086 39.1736 36.482C39.1402 36.6036 39.1137 36.7271 39.0942 36.8518C39.0667 36.9832 39.0453 37.1146 39.0239 37.243C38.9964 37.4203 38.9689 37.6067 38.9566 37.784C38.9444 37.9612 38.9291 38.0896 38.92 38.2577C38.9108 38.4258 38.92 38.5786 38.92 38.7375C38.913 39.9976 39.1549 41.2467 39.6316 42.4131C40.1084 43.5795 40.8106 44.6404 41.6982 45.5349L41.8082 45.6388C42.0017 45.8342 42.2058 46.0189 42.4195 46.192C42.5203 46.2806 42.6304 46.3631 42.7404 46.4457C42.8504 46.5282 42.9605 46.6107 43.0766 46.6841C43.9771 47.3077 44.9808 47.7671 46.0413 48.0411C46.2888 48.1022 46.5364 48.1572 46.7901 48.2061C47.0771 48.2573 47.367 48.291 47.6581 48.307Z" fill="#1F157C"/>
<path d="M48.1563 48.1358L48.0218 47.9983H48.0432C48.0779 48.0465 48.1156 48.0925 48.1563 48.1358Z" fill="url(#paint10_linear_1_2042)"/>
<path d="M48.2602 48.246C48.2265 48.2735 48.1929 48.3071 48.1654 48.3346V48.1482L48.2602 48.246Z" fill="url(#paint11_linear_1_2042)"/>
<path d="M48.8562 47.8731V48.0198C48.8607 48.0656 48.8607 48.1116 48.8562 48.1574C48.8992 48.119 48.94 48.0781 48.9784 48.0351L48.8562 47.8731ZM48.5138 47.6622C48.5626 47.6577 48.6118 47.6577 48.6606 47.6622C48.6916 47.6903 48.7212 47.7198 48.7492 47.7509C48.7756 47.7174 48.8053 47.6867 48.8378 47.6592L48.5138 47.6622ZM48.3671 47.6622C48.302 47.6668 48.2367 47.6668 48.1715 47.6622H48.5047C48.4637 47.6628 48.4228 47.6597 48.3824 47.6531L48.3671 47.6622ZM48.3671 48.3469H48.5047C48.4556 48.3489 48.4064 48.3458 48.358 48.3377L48.3671 48.3469ZM48.1715 48.1604V48.3469C48.2004 48.3134 48.2332 48.2836 48.2693 48.2582L48.1715 48.1604ZM48.0493 48.0015C47.9515 47.9037 47.8567 47.7876 47.7589 47.6745H47.71L48.0432 48.0015L48.1838 48.139C48.1254 48.0974 48.0721 48.0492 48.0248 47.9954L48.0493 48.0015Z" fill="url(#paint12_linear_1_2042)"/>
<path d="M48.0218 47.98H48.0065L47.6764 47.6743H47.7253C47.8231 47.7782 47.9178 47.8883 48.0218 47.98Z" fill="url(#paint13_linear_1_2042)"/>
<path d="M54.2078 31.8853C53.9266 31.9067 53.6454 31.9464 53.3704 31.9953C53.2328 32.0167 53.0953 32.0442 52.9608 32.0778C52.8263 32.1115 52.6919 32.139 52.5543 32.1726C52.4168 32.2062 52.2884 32.249 52.157 32.2918C52.0222 32.3293 51.8895 32.3741 51.7597 32.4263C51.4987 32.5144 51.2426 32.6165 50.9925 32.7319C50.6138 32.9096 50.2482 33.1138 49.8984 33.3432C49.7822 33.4165 49.663 33.4929 49.556 33.5754C49.4491 33.658 49.3421 33.7252 49.2504 33.8016C48.9022 34.0639 48.5743 34.352 48.2693 34.6635C47.3744 35.5531 46.6648 36.6114 46.1816 37.7771C45.6984 38.9429 45.4513 40.1928 45.4544 41.4547C45.4544 41.6106 45.4544 41.7604 45.4544 41.9315C45.4544 42.1027 45.4697 42.2371 45.488 42.3991C45.5064 42.5611 45.5308 42.7628 45.5583 42.9401C45.5858 43.1174 45.5981 43.1999 45.6256 43.3313C45.6502 43.4747 45.6829 43.6165 45.7234 43.7562C45.8059 44.0893 45.9068 44.4194 46.029 44.7403C46.1329 45.0154 46.2491 45.2813 46.3713 45.5441C46.4539 45.7214 46.5425 45.8925 46.6403 46.0637C46.6922 46.1676 46.7473 46.2624 46.8023 46.3693C46.8573 46.4763 46.9734 46.6444 47.0651 46.7819C47.1568 46.9195 47.2363 47.0356 47.331 47.164C47.4258 47.2924 47.5694 47.4696 47.7008 47.6316C47.5633 47.6316 47.4349 47.6041 47.3035 47.5827L46.9215 47.5216L46.5425 47.4482C46.2888 47.3932 46.0443 47.3229 45.7967 47.2496C45.536 47.1609 45.2799 47.0589 45.0296 46.9439C44.9134 46.8981 44.7973 46.8492 44.6873 46.7942C44.5533 46.7353 44.4227 46.669 44.2961 46.5955C44.1677 46.5344 44.0424 46.458 43.9201 46.3846C43.2908 46.0052 42.7108 45.5494 42.1933 45.0276L42.1047 44.9451C40.5165 43.3057 39.617 41.1201 39.5914 38.8377C39.5657 36.5554 40.4158 34.35 41.9667 32.6754C43.5176 31.0008 45.6514 29.9843 47.9289 29.835C50.2065 29.6858 52.4547 30.4151 54.2109 31.8731L54.2078 31.8853Z" fill="#DEE4F3"/>
<path d="M47.6917 47.6224C47.5603 47.604 47.4319 47.5979 47.3005 47.5796L47.7009 47.6285C47.7009 47.6285 47.6917 47.6285 47.6917 47.6224ZM49.009 48.0197L48.9937 48.0044L48.8653 47.873V48.0197C48.8699 48.0654 48.8699 48.1115 48.8653 48.1572C48.9084 48.1188 48.9492 48.078 48.9876 48.035H48.9937C49.0976 48.142 49.1893 48.2551 49.2779 48.362H49.3268L49.009 48.0197ZM48.5138 47.6743C48.5626 47.6698 48.6118 47.6698 48.6606 47.6743H48.5138ZM48.5138 47.5368L48.4894 47.5765C48.4925 47.5693 48.4971 47.5629 48.5029 47.5576C48.5087 47.5524 48.5156 47.5484 48.523 47.546L48.5138 47.5368ZM48.2082 47.1884C48.2082 47.1884 48.2082 47.219 48.2082 47.2281L48.5138 47.5338C48.4069 47.3932 48.303 47.2801 48.2052 47.167L48.2082 47.1884ZM48.3702 47.6743C48.3051 47.6789 48.2397 47.6789 48.1746 47.6743H48.5077C48.4654 47.6711 48.4235 47.6639 48.3824 47.653L48.3702 47.6743ZM48.1654 48.1725V48.359C48.1942 48.3255 48.2271 48.2957 48.2632 48.2703L48.1654 48.1725ZM48.0279 48.0136C47.9301 47.9158 47.8353 47.7997 47.7375 47.6866H47.6886L48.0218 48.0136L48.1624 48.1511C48.1109 48.1045 48.0647 48.0522 48.0248 47.9953L48.0279 48.0136Z" fill="url(#paint14_linear_1_2042)"/>
<path d="M48.5077 47.6743H48.1715C48.2326 47.6743 48.2938 47.6743 48.3641 47.6743C48.4119 47.6776 48.4599 47.6776 48.5077 47.6743Z" fill="url(#paint15_linear_1_2042)"/>
<path d="M48.52 47.4972V47.5339C48.5047 47.5339 48.4925 47.5491 48.4863 47.5614L48.5139 47.5277L48.2082 47.2221C48.2053 47.207 48.2053 47.1914 48.2082 47.1763C48.303 47.2924 48.4069 47.4086 48.5139 47.5247L48.52 47.4972Z" fill="url(#paint16_linear_1_2042)"/>
<path d="M63.927 40.6448L63.8384 40.5745C63.7223 40.4737 63.5969 40.3759 63.4747 40.2872C63.2149 40.0947 62.9551 39.9235 62.6861 39.7585C62.5517 39.679 62.4141 39.6026 62.2766 39.5262C62.0015 39.3826 61.7204 39.245 61.4331 39.1289C61.2894 39.0678 61.1457 39.0128 60.996 38.9639C60.8462 38.915 60.7545 38.8752 60.6384 38.8416C60.5223 38.808 60.3847 38.7652 60.2564 38.7316L60.0149 38.6704L59.6451 38.5879C59.5167 38.5604 59.3853 38.539 59.2539 38.5207C59.1224 38.5023 58.8932 38.4657 58.7129 38.4504C58.5326 38.4351 58.4073 38.4229 58.2422 38.4168C58.0772 38.4107 57.9182 38.4168 57.7624 38.4168C56.5004 38.4136 55.2504 38.6614 54.085 39.1457C52.9197 39.63 51.8623 40.3411 50.9742 41.2378C50.5737 41.6357 50.2105 42.0695 49.8892 42.5337L49.6569 42.8821C49.5836 42.9982 49.5072 43.1144 49.4399 43.2397C49.2989 43.4763 49.1703 43.7201 49.0548 43.9702C48.9326 44.233 48.8225 44.505 48.7186 44.7923C48.6697 44.936 48.6239 45.098 48.575 45.2324C48.5261 45.3669 48.4863 45.5381 48.4527 45.6848C48.4099 45.8356 48.3752 45.9886 48.3488 46.1432C48.3192 46.2785 48.2968 46.4152 48.2816 46.5528C48.2471 46.7253 48.2236 46.8999 48.2113 47.0754C48.2081 47.112 48.2081 47.1488 48.2113 47.1854C48.1026 47.0563 48.0006 46.9216 47.9056 46.782C47.727 46.5522 47.5646 46.3101 47.4197 46.0576C47.3433 45.9323 47.2669 45.804 47.1996 45.6725C47.0628 45.4194 46.9394 45.1592 46.8298 44.8932C46.6565 44.4802 46.5165 44.054 46.4111 43.6187C46.3775 43.5087 46.3561 43.3925 46.3286 43.2764C46.2827 43.0502 46.246 42.8149 46.2185 42.5826C46.2185 42.4817 46.191 42.3778 46.1849 42.2769C46.1788 42.1761 46.1635 42.0508 46.1635 41.9346C46.1635 41.8185 46.1635 41.629 46.1635 41.4915C46.23 39.2463 47.1413 37.1088 48.7152 35.5063C50.2892 33.9038 52.4098 32.9542 54.6535 32.8473C56.8971 32.7403 59.0985 33.484 60.8177 34.9295C62.5369 36.3751 63.6473 38.4162 63.927 40.6448Z" fill="#1F157C"/>
<path d="M48.5016 47.6621C48.5504 47.6576 48.5995 47.6576 48.6483 47.6621C48.6793 47.6902 48.7089 47.7197 48.7369 47.7508C48.7633 47.7173 48.793 47.6866 48.8256 47.6591L48.5016 47.6621ZM48.8347 47.8669V48.0045C48.8303 47.9608 48.8303 47.9167 48.8347 47.873V47.8669ZM48.8347 48.1512V48.0136C48.8403 48.0593 48.8413 48.1053 48.8378 48.1512H48.8347ZM48.8347 48.3468V48.3621C48.8355 48.5091 48.8273 48.6561 48.8103 48.8022L48.8439 48.8327V48.3468H48.8347ZM48.5169 47.5002V47.5154L48.4924 47.5552C48.4955 47.548 48.5001 47.5415 48.5059 47.5363C48.5117 47.531 48.5186 47.527 48.5261 47.5246C48.633 47.4207 48.74 47.3229 48.8531 47.219V47.1762L48.5169 47.5002ZM48.1929 47.1945L48.4985 47.5002C48.4007 47.3779 48.2968 47.2648 48.1929 47.1517C48.196 47.1731 48.196 47.1976 48.196 47.2068L48.1929 47.1945ZM48.3641 47.6408C48.2989 47.6453 48.2336 47.6453 48.1685 47.6408H48.5016C48.4623 47.6483 48.4224 47.6523 48.3824 47.653L48.3641 47.6408ZM48.3641 48.3254H48.5016C48.4543 48.3343 48.4061 48.3384 48.358 48.3376L48.3641 48.3254ZM63.9698 41.5861C63.8964 41.5219 63.8139 41.4394 63.7406 41.3813C63.8384 41.473 63.9362 41.5617 64.0279 41.6595L63.9698 41.5861Z" fill="url(#paint17_linear_1_2042)"/>
<path d="M48.85 47.1763V47.2191C48.7339 47.3138 48.63 47.4086 48.52 47.5247V47.5094L48.85 47.1763Z" fill="url(#paint18_linear_1_2042)"/>
<path d="M48.8623 47.6743C48.8286 47.7018 48.8011 47.7354 48.7645 47.7629C48.7365 47.7308 48.7069 47.7002 48.6758 47.6712C48.628 47.6682 48.58 47.6682 48.5322 47.6712L48.8623 47.6743Z" fill="url(#paint19_linear_1_2042)"/>
<path d="M66.6808 48.0046C66.6886 50.0917 65.9554 52.1138 64.6116 53.7108C64.5841 53.4296 64.5505 53.1515 64.5016 52.8764C64.4833 52.7664 64.4619 52.6502 64.4405 52.5463C64.4069 52.3843 64.3641 52.2193 64.3243 52.0542C64.2846 51.8892 64.2479 51.7883 64.2082 51.6569C64.1685 51.5255 64.1257 51.3971 64.0768 51.2657C64.0279 51.1343 63.982 51.0059 63.927 50.8745C63.872 50.7431 63.8048 50.5872 63.7345 50.4496C63.5273 50.0072 63.285 49.5821 63.0101 49.1782C62.9337 49.059 62.8512 48.952 62.7687 48.842C62.6861 48.732 62.6586 48.6892 62.5975 48.6158L62.4141 48.3897C62.2338 48.1696 62.0351 47.9648 61.8365 47.7601C60.9488 46.8631 59.8914 46.152 58.7259 45.6682C57.5604 45.1844 56.3102 44.9375 55.0483 44.9421C54.8833 44.9421 54.7274 44.9421 54.5685 44.9574C54.4095 44.9727 54.2475 44.9788 54.0886 44.991C53.9297 45.0032 53.7127 45.0338 53.5293 45.0613C53.404 45.0796 53.2817 45.1072 53.1595 45.1285L52.7897 45.2111L52.5482 45.2722C52.4198 45.3058 52.2945 45.3394 52.1662 45.3822C52.0378 45.425 51.9308 45.4586 51.8086 45.5045C51.6863 45.5503 51.5029 45.6084 51.3715 45.6695C51.0826 45.7872 50.8009 45.9219 50.528 46.073C50.4331 46.1179 50.3412 46.1689 50.2529 46.2258C50.1581 46.2777 50.0603 46.3327 49.9656 46.3969C49.8708 46.4611 49.7669 46.5253 49.66 46.5864C49.553 46.6476 49.4796 46.7117 49.391 46.779L49.2015 46.9226L48.8714 47.1916C48.8685 47.1621 48.8685 47.1324 48.8714 47.1029C48.8714 46.9654 48.8989 46.8309 48.9203 46.6934C48.9417 46.5559 48.9692 46.3878 48.9967 46.2625C49.0242 46.1371 49.0517 45.9996 49.0854 45.8712C49.119 45.7429 49.1618 45.5656 49.2076 45.4189C49.2445 45.2792 49.2883 45.1415 49.339 45.0063C49.3941 44.8565 49.4552 44.7007 49.5224 44.5478C49.5897 44.395 49.6202 44.3217 49.6752 44.2055C49.9606 43.5955 50.3165 43.021 50.7358 42.494C50.7863 42.4222 50.8414 42.3538 50.9008 42.2892C51.0659 42.0905 51.2431 41.8919 51.4265 41.7054C52.6144 40.5177 54.1131 39.689 55.7506 39.3144C57.3881 38.9397 59.0981 39.0344 60.6842 39.5874C60.8187 39.6363 60.9501 39.6852 61.0815 39.7402C61.213 39.7952 61.3413 39.8502 61.4697 39.9114C61.6012 39.9657 61.7297 40.0269 61.8548 40.0947C62.0046 40.1711 62.1604 40.2537 62.3071 40.3484C62.5581 40.4958 62.7999 40.6581 63.0315 40.8344C63.1751 40.9383 63.3219 41.0483 63.4563 41.1645C63.5908 41.2806 63.6367 41.3081 63.7192 41.3906C63.8017 41.4731 63.8689 41.5282 63.9423 41.5954L64.0065 41.6657L64.0401 41.6993C64.8777 42.5217 65.5426 43.503 65.9961 44.5857C66.4495 45.6684 66.6823 46.8307 66.6808 48.0046Z" fill="#DEE4F3"/>
<path d="M53.3826 48.0015C53.3835 48.5133 53.303 49.0219 53.1442 49.5083C53.0907 49.6807 53.0254 49.8492 52.9486 50.0126C52.4914 51.0223 51.7047 51.8467 50.7175 52.3507C50.5547 52.4317 50.3873 52.5032 50.2162 52.5647C49.6625 52.7692 49.0766 52.8727 48.4863 52.8703C47.9729 52.8702 47.4626 52.7908 46.9734 52.635C46.8037 52.5783 46.6374 52.5119 46.4753 52.4363C45.4622 51.978 44.6369 51.1862 44.1371 50.1929C44.0534 50.0367 43.9819 49.8742 43.9232 49.707C43.5314 48.6711 43.5045 47.5327 43.8468 46.4795C43.9003 46.3061 43.9656 46.1365 44.0424 45.9721C44.4985 44.9601 45.2853 44.1334 46.2735 43.6279C46.4325 43.5515 46.6006 43.4751 46.7656 43.4139C47.8066 43.0198 48.9513 42.995 50.0084 43.3436C50.1756 43.3983 50.3398 43.4615 50.5005 43.5331C51.5114 43.9885 52.3364 44.7758 52.8386 45.7643C52.9207 45.9253 52.9941 46.0906 53.0586 46.2594C53.2712 46.8157 53.381 47.406 53.3826 48.0015Z" fill="#DEE4F3"/>
</g>
<path d="M48.4986 64.9031C57.8331 64.9031 65.4002 57.336 65.4002 48.0015C65.4002 38.667 57.8331 31.0999 48.4986 31.0999C39.164 31.0999 31.5969 38.667 31.5969 48.0015C31.5969 57.336 39.164 64.9031 48.4986 64.9031Z" stroke="#DEE4F3" stroke-width="3" stroke-miterlimit="10"/>
<path d="M67.9063 28.6211V29.1132C67.9063 30.2899 67.9063 31.4635 67.9063 32.6402C67.9156 32.8376 67.9033 33.0354 67.8697 33.2301C67.8116 33.5124 67.6839 33.7758 67.4981 33.9962C67.3124 34.2167 67.0745 34.3872 66.8061 34.4923C66.6396 34.5625 66.4692 34.6227 66.2956 34.6727C66.1948 34.7032 66.1337 34.6727 66.1123 34.5565C66.1076 34.5159 66.1076 34.4749 66.1123 34.4343C66.1123 33.389 66.1123 32.3437 66.1123 31.2954C66.1075 31.0006 66.168 30.7083 66.2895 30.4396C66.5456 29.8474 66.9297 29.3192 67.4143 28.8931C67.5496 28.7582 67.7201 28.6639 67.9063 28.6211Z" fill="url(#paint20_linear_1_2042)"/>
<path d="M66.0909 27.5027L66.1062 29.9111C66.3768 29.55 66.714 29.244 67.0995 29.0095C67.3516 28.8524 67.6228 28.7281 67.9064 28.6396V27.5027H66.0909Z" fill="#FDAF17"/>
<path d="M10.558 115.376C10.1007 115.376 9.69467 115.46 9.34 115.628C8.98533 115.796 8.682 116.039 8.43 116.356C8.18733 116.673 8.00067 117.056 7.87 117.504C7.74867 117.952 7.688 118.456 7.688 119.016C7.688 119.772 7.79067 120.421 7.996 120.962C8.20133 121.494 8.514 121.905 8.934 122.194C9.36333 122.483 9.9 122.628 10.544 122.628C10.9733 122.628 11.384 122.586 11.776 122.502C12.1773 122.409 12.5973 122.287 13.036 122.138V123.664C12.6253 123.832 12.21 123.953 11.79 124.028C11.3793 124.103 10.9033 124.14 10.362 124.14C9.33533 124.14 8.486 123.93 7.814 123.51C7.142 123.081 6.64267 122.483 6.316 121.718C5.98933 120.943 5.826 120.038 5.826 119.002C5.826 118.246 5.92867 117.555 6.134 116.93C6.34867 116.305 6.652 115.763 7.044 115.306C7.44533 114.849 7.94 114.494 8.528 114.242C9.116 113.99 9.79267 113.864 10.558 113.864C11.062 113.864 11.5567 113.925 12.042 114.046C12.5367 114.158 12.9987 114.317 13.428 114.522L12.812 115.992C12.4573 115.833 12.0887 115.693 11.706 115.572C11.3327 115.441 10.95 115.376 10.558 115.376ZM18.1707 114.004C19.4681 114.004 20.4107 114.275 20.9987 114.816C21.5961 115.357 21.8947 116.104 21.8947 117.056C21.8947 117.485 21.8294 117.896 21.6987 118.288C21.5681 118.671 21.3487 119.016 21.0407 119.324C20.7327 119.632 20.3267 119.875 19.8227 120.052C19.3281 120.229 18.7121 120.318 17.9747 120.318H16.9807V124H15.1887V114.004H18.1707ZM18.0587 115.488H16.9807V118.834H17.7927C18.2781 118.834 18.6887 118.778 19.0247 118.666C19.3701 118.545 19.6314 118.358 19.8087 118.106C19.9861 117.854 20.0747 117.527 20.0747 117.126C20.0747 116.575 19.9114 116.165 19.5847 115.894C19.2581 115.623 18.7494 115.488 18.0587 115.488ZM31.7807 120.472C31.7807 121.163 31.6314 121.788 31.3327 122.348C31.0434 122.899 30.6 123.337 30.0027 123.664C29.4054 123.981 28.6494 124.14 27.7347 124.14C26.4374 124.14 25.4527 123.804 24.7807 123.132C24.1087 122.451 23.7727 121.555 23.7727 120.444V114.004H25.5647V120.262C25.5647 121.074 25.7514 121.671 26.1247 122.054C26.498 122.427 27.0534 122.614 27.7907 122.614C28.3134 122.614 28.7334 122.525 29.0507 122.348C29.3774 122.171 29.6154 121.905 29.7647 121.55C29.9234 121.186 30.0027 120.752 30.0027 120.248V114.004H31.7807V120.472ZM42.2084 115.376C41.7511 115.376 41.3451 115.46 40.9904 115.628C40.6357 115.796 40.3324 116.039 40.0804 116.356C39.8377 116.673 39.6511 117.056 39.5204 117.504C39.3991 117.952 39.3384 118.456 39.3384 119.016C39.3384 119.772 39.4411 120.421 39.6464 120.962C39.8517 121.494 40.1644 121.905 40.5844 122.194C41.0137 122.483 41.5504 122.628 42.1944 122.628C42.6237 122.628 43.0344 122.586 43.4264 122.502C43.8277 122.409 44.2477 122.287 44.6864 122.138V123.664C44.2757 123.832 43.8604 123.953 43.4404 124.028C43.0297 124.103 42.5537 124.14 42.0124 124.14C40.9857 124.14 40.1364 123.93 39.4644 123.51C38.7924 123.081 38.2931 122.483 37.9664 121.718C37.6397 120.943 37.4764 120.038 37.4764 119.002C37.4764 118.246 37.5791 117.555 37.7844 116.93C37.9991 116.305 38.3024 115.763 38.6944 115.306C39.0957 114.849 39.5904 114.494 40.1784 114.242C40.7664 113.99 41.4431 113.864 42.2084 113.864C42.7124 113.864 43.2071 113.925 43.6924 114.046C44.1871 114.158 44.6491 114.317 45.0784 114.522L44.4624 115.992C44.1077 115.833 43.7391 115.693 43.3564 115.572C42.9831 115.441 42.6004 115.376 42.2084 115.376ZM55.4977 118.988C55.4977 119.763 55.3997 120.467 55.2037 121.102C55.017 121.727 54.7277 122.269 54.3357 122.726C53.953 123.183 53.463 123.533 52.8657 123.776C52.2777 124.019 51.587 124.14 50.7937 124.14C49.991 124.14 49.291 124.019 48.6937 123.776C48.1057 123.524 47.6203 123.174 47.2377 122.726C46.855 122.269 46.5657 121.723 46.3697 121.088C46.183 120.453 46.0897 119.749 46.0897 118.974C46.0897 117.938 46.2577 117.037 46.5937 116.272C46.939 115.507 47.457 114.914 48.1477 114.494C48.8477 114.065 49.7343 113.85 50.8077 113.85C51.8623 113.85 52.735 114.065 53.4257 114.494C54.1163 114.914 54.6343 115.511 54.9797 116.286C55.325 117.051 55.4977 117.952 55.4977 118.988ZM47.9797 118.988C47.9797 119.744 48.0777 120.393 48.2737 120.934C48.479 121.475 48.787 121.891 49.1977 122.18C49.6177 122.469 50.1497 122.614 50.7937 122.614C51.4563 122.614 51.993 122.469 52.4037 122.18C52.8143 121.891 53.1177 121.475 53.3137 120.934C53.5097 120.393 53.6077 119.744 53.6077 118.988C53.6077 117.859 53.3883 116.972 52.9497 116.328C52.511 115.684 51.797 115.362 50.8077 115.362C50.1543 115.362 49.6177 115.507 49.1977 115.796C48.787 116.085 48.479 116.501 48.2737 117.042C48.0777 117.583 47.9797 118.232 47.9797 118.988ZM66.5582 118.988C66.5582 119.763 66.4602 120.467 66.2642 121.102C66.0776 121.727 65.7882 122.269 65.3962 122.726C65.0136 123.183 64.5236 123.533 63.9262 123.776C63.3382 124.019 62.6476 124.14 61.8542 124.14C61.0516 124.14 60.3516 124.019 59.7542 123.776C59.1662 123.524 58.6809 123.174 58.2982 122.726C57.9156 122.269 57.6262 121.723 57.4302 121.088C57.2436 120.453 57.1502 119.749 57.1502 118.974C57.1502 117.938 57.3182 117.037 57.6542 116.272C57.9996 115.507 58.5176 114.914 59.2082 114.494C59.9082 114.065 60.7949 113.85 61.8682 113.85C62.9229 113.85 63.7956 114.065 64.4862 114.494C65.1769 114.914 65.6949 115.511 66.0402 116.286C66.3856 117.051 66.5582 117.952 66.5582 118.988ZM59.0402 118.988C59.0402 119.744 59.1382 120.393 59.3342 120.934C59.5396 121.475 59.8476 121.891 60.2582 122.18C60.6782 122.469 61.2102 122.614 61.8542 122.614C62.5169 122.614 63.0536 122.469 63.4642 122.18C63.8749 121.891 64.1782 121.475 64.3742 120.934C64.5702 120.393 64.6682 119.744 64.6682 118.988C64.6682 117.859 64.4489 116.972 64.0102 116.328C63.5716 115.684 62.8576 115.362 61.8682 115.362C61.2149 115.362 60.6782 115.507 60.2582 115.796C59.8476 116.085 59.5396 116.501 59.3342 117.042C59.1382 117.583 59.0402 118.232 59.0402 118.988ZM68.6868 124V114.004H70.4788V122.488H74.6508V124H68.6868ZM82.068 124H76.384V114.004H82.068V115.502H78.176V118.05H81.816V119.548H78.176V122.488H82.068V124ZM87.0327 114.004C87.91 114.004 88.6333 114.111 89.2027 114.326C89.772 114.541 90.1967 114.867 90.4767 115.306C90.7567 115.735 90.8967 116.281 90.8967 116.944C90.8967 117.429 90.8033 117.845 90.6167 118.19C90.4393 118.535 90.206 118.825 89.9167 119.058C89.6273 119.282 89.3147 119.464 88.9787 119.604L91.8487 124H89.8327L87.4387 120.052H85.9827V124H84.1907V114.004H87.0327ZM86.9207 115.502H85.9827V118.582H86.9767C87.714 118.582 88.246 118.451 88.5727 118.19C88.9087 117.919 89.0767 117.523 89.0767 117C89.0767 116.636 88.9973 116.347 88.8387 116.132C88.68 115.908 88.442 115.749 88.1247 115.656C87.8167 115.553 87.4153 115.502 86.9207 115.502Z" fill="#221690"/>
<defs>
<linearGradient id="paint0_linear_1_2042" x1="48.4924" y1="48.4966" x2="48.4986" y2="48.4966" gradientUnits="userSpaceOnUse">
<stop stop-color="#0E172B"/>
<stop offset="1" stop-color="#1D284C"/>
</linearGradient>
<linearGradient id="paint1_linear_1_2042" x1="48.8164" y1="48.5974" x2="48.85" y2="48.5974" gradientUnits="userSpaceOnUse">
<stop stop-color="#0E172B"/>
<stop offset="1" stop-color="#1D284C"/>
</linearGradient>
<linearGradient id="paint2_linear_1_2042" x1="48.1471" y1="48.1755" x2="49.3177" y2="48.1755" gradientUnits="userSpaceOnUse">
<stop stop-color="#0E172B"/>
<stop offset="1" stop-color="#1D284C"/>
</linearGradient>
<linearGradient id="paint3_linear_1_2042" x1="48.8501" y1="47.9433" x2="49.0059" y2="47.9433" gradientUnits="userSpaceOnUse">
<stop stop-color="#0E172B"/>
<stop offset="1" stop-color="#1D284C"/>
</linearGradient>
<linearGradient id="paint4_linear_1_2042" x1="48.9937" y1="47.8517" x2="49.336" y2="47.8517" gradientUnits="userSpaceOnUse">
<stop stop-color="#0E172B"/>
<stop offset="1" stop-color="#1D284C"/>
</linearGradient>
<linearGradient id="paint5_linear_1_2042" x1="48.0157" y1="47.6499" x2="49.4583" y2="47.6499" gradientUnits="userSpaceOnUse">
<stop stop-color="#0E172B"/>
<stop offset="1" stop-color="#1D284C"/>
</linearGradient>
<linearGradient id="paint6_linear_1_2042" x1="48.1501" y1="48.3436" x2="48.1654" y2="48.3436" gradientUnits="userSpaceOnUse">
<stop stop-color="white"/>
<stop offset="1" stop-color="#D2D8E9"/>
</linearGradient>
<linearGradient id="paint7_linear_1_2042" x1="48.1654" y1="48.6586" x2="48.4924" y2="48.6586" gradientUnits="userSpaceOnUse">
<stop stop-color="white"/>
<stop offset="1" stop-color="#D2D8E9"/>
</linearGradient>
<linearGradient id="paint8_linear_1_2042" x1="48.3549" y1="48.3439" x2="48.4986" y2="48.3439" gradientUnits="userSpaceOnUse">
<stop stop-color="white"/>
<stop offset="1" stop-color="#D2D8E9"/>
</linearGradient>
<linearGradient id="paint9_linear_1_2042" x1="48.0157" y1="48.0932" x2="48.847" y2="48.0932" gradientUnits="userSpaceOnUse">
<stop stop-color="white"/>
<stop offset="1" stop-color="#D2D8E9"/>
</linearGradient>
<linearGradient id="paint10_linear_1_2042" x1="48.0065" y1="48.0655" x2="48.1563" y2="48.0655" gradientUnits="userSpaceOnUse">
<stop stop-color="#0E172B"/>
<stop offset="1" stop-color="#1D284C"/>
</linearGradient>
<linearGradient id="paint11_linear_1_2042" x1="48.1654" y1="48.2429" x2="48.2602" y2="48.2429" gradientUnits="userSpaceOnUse">
<stop stop-color="#0E172B"/>
<stop offset="1" stop-color="#1D284C"/>
</linearGradient>
<linearGradient id="paint12_linear_1_2042" x1="47.6764" y1="48.0015" x2="48.9845" y2="48.0015" gradientUnits="userSpaceOnUse">
<stop stop-color="#0E172B"/>
<stop offset="1" stop-color="#1D284C"/>
</linearGradient>
<linearGradient id="paint13_linear_1_2042" x1="47.6764" y1="47.8271" x2="48.0218" y2="47.8271" gradientUnits="userSpaceOnUse">
<stop stop-color="white"/>
<stop offset="1" stop-color="#D2D8E9"/>
</linearGradient>
<linearGradient id="paint14_linear_1_2042" x1="47.3005" y1="47.7569" x2="49.3268" y2="47.7569" gradientUnits="userSpaceOnUse">
<stop stop-color="white"/>
<stop offset="1" stop-color="#D2D8E9"/>
</linearGradient>
<linearGradient id="paint15_linear_1_2042" x1="48.1715" y1="47.659" x2="48.5077" y2="47.659" gradientUnits="userSpaceOnUse">
<stop stop-color="#0E172B"/>
<stop offset="1" stop-color="#1D284C"/>
</linearGradient>
<linearGradient id="paint16_linear_1_2042" x1="48.199" y1="47.3566" x2="48.52" y2="47.3566" gradientUnits="userSpaceOnUse">
<stop stop-color="#0E172B"/>
<stop offset="1" stop-color="#1D284C"/>
</linearGradient>
<linearGradient id="paint17_linear_1_2042" x1="48.1623" y1="45.107" x2="64.0279" y2="45.107" gradientUnits="userSpaceOnUse">
<stop stop-color="#0E172B"/>
<stop offset="1" stop-color="#1D284C"/>
</linearGradient>
<linearGradient id="paint18_linear_1_2042" x1="48.52" y1="47.3444" x2="48.85" y2="47.3444" gradientUnits="userSpaceOnUse">
<stop stop-color="white"/>
<stop offset="1" stop-color="#D2D8E9"/>
</linearGradient>
<linearGradient id="paint19_linear_1_2042" x1="48.5138" y1="47.714" x2="48.8623" y2="47.714" gradientUnits="userSpaceOnUse">
<stop stop-color="white"/>
<stop offset="1" stop-color="#D2D8E9"/>
</linearGradient>
<linearGradient id="paint20_linear_1_2042" x1="66.0909" y1="31.6499" x2="67.9063" y2="31.6499" gradientUnits="userSpaceOnUse">
<stop stop-color="white"/>
<stop offset="1" stop-color="#D2D8E9"/>
</linearGradient>
</defs>
</svg>
