<svg width="49" height="48" viewBox="0 0 49 48" fill="none" xmlns="http://www.w3.org/2000/svg">
<path d="M42.3873 0H6.6127C3.23675 0 0.5 2.73675 0.5 6.1127V41.8873C0.5 45.2633 3.23675 48 6.6127 48H42.3873C45.7633 48 48.5 45.2633 48.5 41.8873V6.1127C48.5 2.73675 45.7633 0 42.3873 0Z" fill="#1F157C"/>
<mask id="mask0_8_2052" style="mask-type:luminance" maskUnits="userSpaceOnUse" x="7" y="7" width="35" height="34">
<path d="M24.4986 40.9031C33.8331 40.9031 41.4002 33.336 41.4002 24.0015C41.4002 14.667 33.8331 7.09985 24.4986 7.09985C15.164 7.09985 7.59692 14.667 7.59692 24.0015C7.59692 33.336 15.164 40.9031 24.4986 40.9031Z" fill="white"/>
</mask>
<g mask="url(#mask0_8_2052)">
<path d="M24.4986 24.4905L24.4924 24.5058V24.4844L24.4986 24.4905Z" fill="url(#paint0_linear_8_2052)"/>
<path d="M24.85 24.3621V24.8358L24.8164 24.7991C24.8164 24.6494 24.8347 24.4935 24.8409 24.3621H24.85Z" fill="url(#paint1_linear_8_2052)"/>
<path d="M26.8733 30.5452C26.877 32.8417 25.9946 35.0512 24.4099 36.7134C22.8253 38.3756 20.6605 39.3625 18.3664 39.4684C16.0723 39.5744 13.8257 38.7913 12.0946 37.2822C10.3634 35.7732 9.28115 33.6545 9.07312 31.3674C9.10477 31.3857 9.13447 31.4072 9.16176 31.4315C9.27652 31.5356 9.39914 31.6306 9.52851 31.7158C9.81792 31.9429 10.1245 32.1472 10.4454 32.327C10.5616 32.4004 10.6838 32.4554 10.7969 32.5227C10.91 32.5899 11.0414 32.651 11.1637 32.7091L11.5518 32.8802C11.8055 32.978 12.0653 33.0758 12.3251 33.1553C12.3251 33.1553 12.3251 33.1553 12.3434 33.1553L12.7255 33.2684C12.8141 33.2837 12.8966 33.3081 12.97 33.3265L13.3337 33.4059L13.7096 33.4793C13.896 33.5037 14.0825 33.5282 14.2689 33.5465C14.4554 33.5649 14.5959 33.571 14.7488 33.5771C14.9016 33.5832 15.0544 33.5954 15.2317 33.5954C16.4917 33.599 17.7399 33.3526 18.9041 32.8705C20.0682 32.3884 21.1252 31.6801 22.0137 30.7866C22.1543 30.6491 22.2827 30.5116 22.4141 30.3649C22.6623 30.0892 22.893 29.7983 23.1048 29.4938C23.1874 29.3716 23.2668 29.2585 23.3402 29.1454C23.57 28.7937 23.7742 28.426 23.9514 28.0451C24.0645 27.7945 24.1807 27.5408 24.2571 27.281C24.306 27.1526 24.3549 27.012 24.3946 26.8837C24.4343 26.7553 24.4771 26.6147 24.5077 26.4833C24.5383 26.3519 24.5749 26.2174 24.6055 26.0768C24.6361 25.9362 24.6636 25.8017 24.688 25.6703C24.7369 25.3952 24.7705 25.1171 24.795 24.842C24.9234 24.9887 25.0456 25.1477 25.1587 25.3035C25.2259 25.3952 25.2901 25.4839 25.3482 25.5725C25.4704 25.7437 25.5744 25.924 25.6813 26.1104C25.749 26.2183 25.8112 26.3295 25.8678 26.4436C26.1137 26.9213 26.3182 27.4193 26.479 27.932C26.5188 28.0787 26.5585 28.2163 26.5921 28.363C26.6257 28.5097 26.6563 28.6411 26.6899 28.7878C26.7235 28.9345 26.7388 29.0537 26.7541 29.1851C26.801 29.4888 26.8305 29.795 26.8427 30.102C26.8427 30.1601 26.8427 30.209 26.8427 30.264C26.8427 30.319 26.8733 30.4566 26.8733 30.5452Z" fill="#1F157C"/>
<path d="M25.2779 24.3467H24.8378V24.362C24.8386 24.509 24.8304 24.656 24.8134 24.8021L24.847 24.8327V24.362C25.009 24.362 25.1526 24.362 25.3177 24.3773C25.3062 24.3649 25.2928 24.3546 25.2779 24.3467ZM24.9723 24.0135C24.9376 23.9618 24.8965 23.9145 24.85 23.873V24.0197C24.8546 24.0654 24.8546 24.1115 24.85 24.1572C24.8931 24.1188 24.9339 24.078 24.9723 24.0349H24.9937L24.9723 24.0135ZM24.6514 23.6743H24.5138C24.5626 23.6697 24.6117 23.6697 24.6605 23.6743H24.6514ZM24.5047 23.5276L24.4802 23.5673C24.4833 23.5601 24.4879 23.5537 24.4937 23.5484C24.4995 23.5431 24.5064 23.5392 24.5138 23.5368L24.5047 23.5276ZM24.3671 23.6651C24.302 23.6697 24.2366 23.6697 24.1715 23.6651H24.5047C24.4636 23.6647 24.4227 23.6606 24.3824 23.6529L24.3671 23.6651ZM24.3671 24.3497H24.5047C24.4555 24.3508 24.4063 24.3467 24.358 24.3375L24.3671 24.3497ZM24.1715 24.7807V24.8449L24.5047 24.5209V24.4965C24.3971 24.595 24.2827 24.6859 24.1624 24.7685L24.1715 24.7807ZM24.1715 24.1694V24.3559C24.2003 24.3224 24.2332 24.2926 24.2693 24.2672L24.1715 24.1694Z" fill="url(#paint2_linear_8_2052)"/>
<path d="M24.9937 24.0198H24.9601C24.9194 24.0167 24.8785 24.0167 24.8378 24.0198V23.873L24.9693 24.0014L24.9937 24.0198Z" fill="url(#paint3_linear_8_2052)"/>
<path d="M25.336 23.705C25.2198 23.7997 25.1037 23.9036 24.9937 24.0106L25.2993 23.705C25.3113 23.7019 25.3239 23.7019 25.336 23.705Z" fill="url(#paint4_linear_8_2052)"/>
<path d="M39.9698 30.548C39.9684 32.7725 39.1361 34.9161 37.636 36.5586C36.136 38.2011 34.0765 39.2241 31.8613 39.4268C31.8886 39.3975 31.9131 39.3658 31.9347 39.332C32.0233 39.2281 32.1058 39.1272 32.1883 39.0264C32.8368 38.1614 33.3349 37.1932 33.6615 36.1626C33.7043 36.025 33.744 35.8936 33.7776 35.7591C33.799 35.6766 33.8204 35.5941 33.8388 35.5177C33.875 35.3965 33.9025 35.2729 33.9213 35.1479C33.9488 35.0164 33.9702 34.8881 33.9916 34.7567C34.0191 34.5733 34.0466 34.396 34.0588 34.2096C34.071 34.0231 34.0863 33.9039 34.0924 33.7358C34.0985 33.5677 34.1077 33.4149 34.1077 33.256C34.1098 31.9953 33.8627 30.7466 33.3807 29.5816C32.8986 28.4167 32.1912 27.3585 31.2989 26.4678C31.1828 26.3517 31.0666 26.2417 30.9505 26.1408C30.8344 26.0399 30.7091 25.9269 30.5868 25.8352C30.4645 25.7435 30.3453 25.6365 30.2231 25.5295C30.1008 25.4226 29.9175 25.3247 29.7769 25.2239C29.6363 25.123 29.5446 25.0711 29.4285 25.0038C29.2668 24.9007 29.0994 24.8069 28.9272 24.7226C28.805 24.6554 28.6735 24.5943 28.5513 24.5393C27.7682 24.1728 26.9382 23.9167 26.0848 23.7782C25.99 23.758 25.8941 23.7437 25.7975 23.7354C25.6862 23.7162 25.574 23.7029 25.4613 23.6957C25.4206 23.6927 25.3797 23.6927 25.3391 23.6957C25.9616 23.1687 26.6563 22.7333 27.4021 22.4029C27.5946 22.3142 27.7994 22.2317 28.0134 22.1553L28.1356 22.1156C28.2456 22.0789 28.3496 22.0392 28.4596 22.0117C28.6858 21.9444 28.918 21.8802 29.1503 21.8344C29.2557 21.8064 29.3629 21.786 29.4712 21.7733C29.6383 21.7354 29.8078 21.7099 29.9786 21.6969C30.0764 21.6969 30.1711 21.6694 30.2659 21.6632C30.3606 21.6571 30.5012 21.6418 30.6235 21.6418C30.7457 21.6418 30.9291 21.6418 31.0697 21.6418C33.43 21.6459 35.6923 22.5857 37.3607 24.2552C39.0291 25.9248 39.9674 28.1878 39.9698 30.548Z" fill="#1F157C"/>
<path d="M25.3421 23.6957C25.3828 23.6913 25.4238 23.6913 25.4644 23.6957C25.4238 23.6908 25.3827 23.6908 25.3421 23.6957ZM25.2932 23.6957L24.9876 24.0014C25.0915 23.9036 25.2138 23.7966 25.3299 23.6957C25.3198 23.6942 25.3095 23.6942 25.2993 23.6957H25.2932ZM25.009 24.0197L24.9937 24.0044L24.8653 23.873V24.0197C24.8699 24.0654 24.8699 24.1115 24.8653 24.1572C24.9084 24.1188 24.9492 24.078 24.9876 24.035H24.9937C25.0976 24.142 25.1893 24.2551 25.2779 24.362H25.3269L25.009 24.0197ZM24.5139 23.6743C24.5627 23.6698 24.6118 23.6698 24.6606 23.6743C24.6916 23.7024 24.7212 23.7319 24.7492 23.763C24.7756 23.7295 24.8053 23.6988 24.8378 23.6713L24.5139 23.6743ZM25.2779 24.359H24.8378V24.3743C24.9998 24.3743 25.1435 24.3743 25.3085 24.3895C25.3009 24.3736 25.2906 24.3591 25.2779 24.3467V24.359ZM24.3672 23.6652H24.5047C24.4637 23.6647 24.4227 23.6606 24.3824 23.653L24.3672 23.6652ZM24.3672 24.3498H24.5047C24.4555 24.3508 24.4063 24.3467 24.358 24.3376L24.3672 24.3498ZM24.1715 24.1634V24.3498C24.2004 24.3163 24.2332 24.2866 24.2694 24.2612L24.1715 24.1634ZM24.0493 24.0075L24.1899 24.145C24.1291 24.1019 24.0737 24.0516 24.0248 23.9953L24.0493 24.0075ZM24.9112 23.1945C25.0182 23.1028 25.1221 23.0142 25.2382 22.9255C25.0976 23.0019 24.9937 23.0936 24.8867 23.1823L24.9112 23.1945Z" fill="url(#paint5_linear_8_2052)"/>
<path d="M24.1287 24.8083C24.1287 24.9427 24.1012 25.0742 24.0829 25.2056C24.0645 25.337 24.0493 25.4562 24.0218 25.5876C23.9943 25.719 23.9729 25.8413 23.9454 25.9636C23.8844 26.247 23.8068 26.5266 23.7131 26.801C23.6856 26.8896 23.6489 26.9844 23.6153 27.073C23.4864 27.4334 23.3312 27.7838 23.1507 28.1213C23.0957 28.2253 23.0407 28.3292 22.9795 28.427C22.8756 28.6134 22.7656 28.7907 22.6495 28.9618C22.5761 29.078 22.4936 29.188 22.4111 29.298C22.3285 29.4081 22.301 29.4478 22.2399 29.5181C22.1788 29.5884 22.136 29.6526 22.0749 29.7229C21.9037 29.9276 21.7264 30.1202 21.54 30.3036C19.9151 31.9122 17.7341 32.8349 15.4481 32.8806C13.1621 32.9264 10.9459 32.0918 9.25796 30.5495C7.57 29.0072 6.53938 26.8751 6.37926 24.5942C6.21914 22.3134 6.94177 20.0582 8.39769 18.2952C8.4252 18.5764 8.45881 18.8514 8.50772 19.1234C8.52605 19.2335 8.54745 19.3435 8.56885 19.4535C8.56885 19.5147 8.59635 19.5758 8.60858 19.6461C8.62081 19.7164 8.65748 19.8447 8.68499 19.9517C8.75221 20.2211 8.83487 20.4864 8.93255 20.7464C8.99368 20.9236 9.06091 21.0948 9.13732 21.269C9.17782 21.3732 9.22373 21.4752 9.27486 21.5746C9.38183 21.813 9.50714 22.0392 9.63551 22.2745C9.70581 22.3907 9.77916 22.5068 9.84946 22.6169C9.91975 22.7269 9.99311 22.8338 10.0695 22.9439C10.1459 23.0539 10.1857 23.1089 10.2468 23.1914C10.3079 23.274 10.4027 23.4023 10.4852 23.4971C10.7052 23.763 10.9314 24.0167 11.1698 24.2581C12.0623 25.1487 13.122 25.8543 14.2879 26.3342C15.4539 26.8141 16.7032 27.059 17.9641 27.0547C18.1261 27.0547 18.285 27.0547 18.4439 27.0394C18.6028 27.0241 18.7648 27.021 18.9207 27.0058C19.0766 26.9905 19.3058 26.966 19.4984 26.9294L19.8529 26.8682C19.9629 26.8479 20.073 26.8234 20.183 26.7949C20.2777 26.7735 20.3755 26.7521 20.4642 26.7246C20.6017 26.691 20.7301 26.6482 20.8676 26.6084C22.066 26.2356 23.1771 25.6255 24.1348 24.8144C24.1348 24.8144 24.1287 24.8144 24.1287 24.8083Z" fill="#DEE4F3"/>
<path d="M24.1624 24.3406H24.1501V24.3467H24.1624V24.3406Z" fill="url(#paint6_linear_8_2052)"/>
<path d="M24.4924 24.4844V24.5058L24.1654 24.8359V24.7717C24.2795 24.6818 24.3886 24.5859 24.4924 24.4844Z" fill="url(#paint7_linear_8_2052)"/>
<path d="M24.4986 24.3469H24.3549C24.4028 24.3499 24.4507 24.3499 24.4986 24.3469Z" fill="url(#paint8_linear_8_2052)"/>
<path d="M24.52 23.5002V23.5155L24.4955 23.5553C24.4986 23.5481 24.5032 23.5416 24.509 23.5363C24.5148 23.5311 24.5217 23.5271 24.5291 23.5247C24.6361 23.4208 24.7431 23.323 24.8562 23.2191V23.1763L24.52 23.5002ZM24.52 23.6622C24.5688 23.6577 24.6179 23.6577 24.6667 23.6622C24.6977 23.6902 24.7273 23.7198 24.7553 23.7509C24.7817 23.7174 24.8114 23.6867 24.844 23.6592V23.6745L24.52 23.6622ZM24.3733 23.6531H24.5108C24.4681 23.657 24.4251 23.657 24.3824 23.6531H24.3733ZM24.3733 24.3377H24.5108C24.46 24.3432 24.4088 24.3432 24.358 24.3377H24.3733ZM24.1777 24.7686V24.8328L24.5108 24.5088V24.4844C24.4017 24.5874 24.2852 24.6824 24.1624 24.7686H24.1777ZM24.1777 24.1574V24.3438C24.2065 24.3103 24.2393 24.2806 24.2755 24.2552L24.1777 24.1574ZM24.0554 23.9984V24.0137L24.196 24.1512C24.1327 24.1066 24.0752 24.0542 24.0248 23.9954L24.0554 23.9984ZM24.1532 24.8206C24.1487 24.8857 24.1487 24.9511 24.1532 25.0162C24.1532 24.952 24.1532 24.8787 24.1777 24.8114C24.1318 24.8175 24.1318 24.8175 24.1226 24.8175L24.1532 24.8206Z" fill="url(#paint9_linear_8_2052)"/>
<path d="M33.4201 33.2623C33.4184 34.9563 32.9347 36.6149 32.0253 38.0442C31.116 39.4735 29.8186 40.6145 28.2848 41.3338C26.751 42.0531 25.0442 42.321 23.3638 42.1062C21.6835 41.8914 20.0989 41.2027 18.7954 40.1207C19.0705 40.0871 19.3547 40.0535 19.6328 40.0046C19.7698 39.986 19.9055 39.9595 20.0393 39.9251C20.1769 39.9007 20.3144 39.867 20.455 39.8273C20.7222 39.7607 20.9855 39.679 21.2436 39.5828C21.9072 39.3368 22.5425 39.0202 23.1385 38.6384L23.4441 38.4275C23.548 38.3541 23.655 38.2716 23.7498 38.1983C24.0954 37.9317 24.4241 37.6438 24.7339 37.3364C25.6271 36.4459 26.3349 35.3872 26.8165 34.2216C27.298 33.0559 27.5438 31.8064 27.5396 30.5452C27.5396 30.3893 27.5396 30.2395 27.5244 30.0653V29.9675C27.5244 29.8453 27.5091 29.723 27.4907 29.5916C27.4755 29.4143 27.451 29.2279 27.4265 29.0384C27.4021 28.91 27.3868 28.7878 27.3532 28.6655C27.3299 28.5229 27.2972 28.382 27.2554 28.2437C27.214 28.0419 27.1599 27.8428 27.0934 27.6477C27.0537 27.5194 27.0109 27.388 26.962 27.2596L26.8153 26.8684C26.7022 26.6147 26.5891 26.3702 26.4669 26.1196C26.4516 26.0859 26.4332 26.0615 26.418 26.0309C26.3446 25.8903 26.2621 25.762 26.1826 25.6244C26.1032 25.4869 26.0206 25.3555 25.9289 25.2241C25.8372 25.0926 25.7578 24.9734 25.6691 24.8512C25.5549 24.6872 25.4325 24.5291 25.3024 24.3774C25.3452 24.3774 25.3941 24.3774 25.4338 24.3958L25.8067 24.4447L26.2376 24.518C26.3843 24.5486 26.5158 24.5822 26.6625 24.6158C26.9467 24.6861 27.2157 24.7687 27.4907 24.8573L27.558 24.8817C27.775 24.9643 27.995 25.0529 28.2059 25.1507C28.848 25.4464 29.4523 25.8178 30.0061 26.2571C30.0795 26.306 30.1436 26.3702 30.2078 26.4191C30.3389 26.5267 30.4644 26.6409 30.5838 26.7614C30.6571 26.8195 30.7213 26.8837 30.7947 26.9478C31.6267 27.7755 32.287 28.7594 32.7376 29.843C33.1881 30.9267 33.4201 32.0887 33.4201 33.2623Z" fill="#DEE4F3"/>
<path d="M23.6581 24.307C23.6413 24.325 23.6229 24.3413 23.6031 24.3559C23.493 24.4506 23.3769 24.5393 23.2607 24.6218L22.8971 24.8755C22.7809 24.958 22.6556 25.0344 22.5333 25.1077C22.4111 25.1811 22.2797 25.2575 22.1513 25.3278C22.0229 25.3981 21.8976 25.4562 21.7662 25.5204C21.4762 25.656 21.1794 25.7764 20.8768 25.881C20.7668 25.9177 20.6629 25.9574 20.5528 25.9849C20.3267 26.0522 20.0944 26.1163 19.8682 26.1622C19.746 26.1897 19.6298 26.2111 19.5045 26.2325C19.1383 26.3014 18.7674 26.3422 18.395 26.3547C18.2453 26.3547 18.0894 26.37 17.9519 26.37C15.6559 26.3721 13.4475 25.4886 11.7865 23.9035C10.1255 22.3183 9.13984 20.1536 9.0347 17.86C8.92955 15.5664 9.71301 13.3206 11.222 11.5902C12.731 9.85967 14.8493 8.77783 17.1358 8.56982L17.0686 8.66152C16.9647 8.77766 16.8699 8.89991 16.7782 9.02217V9.03745C16.5023 9.41483 16.2531 9.81109 16.0325 10.2233C16.0185 10.2541 16.0022 10.2837 15.9836 10.3119C15.8613 10.5565 15.7421 10.804 15.6352 11.0577C15.5282 11.3114 15.4365 11.5773 15.354 11.8401C15.3112 11.9746 15.2714 12.106 15.2378 12.2436C15.2164 12.3261 15.195 12.4086 15.1736 12.482C15.1402 12.6036 15.1137 12.7271 15.0942 12.8518C15.0667 12.9832 15.0453 13.1146 15.0239 13.243C14.9964 13.4203 14.9689 13.6067 14.9566 13.784C14.9444 13.9612 14.9291 14.0896 14.92 14.2577C14.9108 14.4258 14.92 14.5786 14.92 14.7375C14.913 15.9976 15.1549 17.2467 15.6316 18.4131C16.1084 19.5795 16.8106 20.6404 17.6982 21.5349L17.8082 21.6388C18.0017 21.8342 18.2058 22.0189 18.4195 22.192C18.5203 22.2806 18.6304 22.3631 18.7404 22.4457C18.8504 22.5282 18.9605 22.6107 19.0766 22.6841C19.9771 23.3077 20.9808 23.7671 22.0413 24.0411C22.2888 24.1022 22.5364 24.1572 22.7901 24.2061C23.0771 24.2573 23.367 24.291 23.6581 24.307Z" fill="#1F157C"/>
<path d="M24.1563 24.1358L24.0218 23.9983H24.0432C24.0779 24.0465 24.1156 24.0925 24.1563 24.1358Z" fill="url(#paint10_linear_8_2052)"/>
<path d="M24.2602 24.246C24.2265 24.2735 24.1929 24.3071 24.1654 24.3346V24.1482L24.2602 24.246Z" fill="url(#paint11_linear_8_2052)"/>
<path d="M24.8562 23.8731V24.0198C24.8607 24.0656 24.8607 24.1116 24.8562 24.1574C24.8992 24.119 24.94 24.0781 24.9784 24.0351L24.8562 23.8731ZM24.5138 23.6622C24.5626 23.6577 24.6118 23.6577 24.6606 23.6622C24.6916 23.6903 24.7212 23.7198 24.7492 23.7509C24.7756 23.7174 24.8053 23.6867 24.8378 23.6592L24.5138 23.6622ZM24.3671 23.6622C24.302 23.6668 24.2367 23.6668 24.1715 23.6622H24.5047C24.4637 23.6628 24.4228 23.6597 24.3824 23.6531L24.3671 23.6622ZM24.3671 24.3469H24.5047C24.4556 24.3489 24.4064 24.3458 24.358 24.3377L24.3671 24.3469ZM24.1715 24.1604V24.3469C24.2004 24.3134 24.2332 24.2836 24.2693 24.2582L24.1715 24.1604ZM24.0493 24.0015C23.9515 23.9037 23.8567 23.7876 23.7589 23.6745H23.71L24.0432 24.0015L24.1838 24.139C24.1254 24.0974 24.0721 24.0492 24.0248 23.9954L24.0493 24.0015Z" fill="url(#paint12_linear_8_2052)"/>
<path d="M24.0218 23.98H24.0065L23.6764 23.6743H23.7253C23.8231 23.7782 23.9178 23.8883 24.0218 23.98Z" fill="url(#paint13_linear_8_2052)"/>
<path d="M30.2078 7.88528C29.9266 7.90668 29.6454 7.94642 29.3704 7.99532C29.2328 8.01671 29.0953 8.04422 28.9608 8.07784C28.8263 8.11146 28.6919 8.13896 28.5543 8.17258C28.4168 8.2062 28.2884 8.249 28.157 8.29178C28.0222 8.32926 27.8895 8.37415 27.7597 8.42626C27.4987 8.51444 27.2426 8.61646 26.9925 8.73189C26.6138 8.90957 26.2482 9.11384 25.8984 9.34316C25.7822 9.41651 25.663 9.49293 25.556 9.57545C25.4491 9.65797 25.3421 9.7252 25.2504 9.80161C24.9022 10.0639 24.5743 10.352 24.2693 10.6635C23.3744 11.5531 22.6648 12.6114 22.1816 13.7771C21.6984 14.9429 21.4513 16.1928 21.4544 17.4547C21.4544 17.6106 21.4544 17.7604 21.4544 17.9315C21.4544 18.1027 21.4697 18.2371 21.488 18.3991C21.5064 18.5611 21.5308 18.7628 21.5583 18.9401C21.5858 19.1174 21.5981 19.1999 21.6256 19.3313C21.6502 19.4747 21.6829 19.6165 21.7234 19.7562C21.8059 20.0893 21.9068 20.4194 22.029 20.7403C22.1329 21.0154 22.2491 21.2813 22.3713 21.5441C22.4539 21.7214 22.5425 21.8925 22.6403 22.0637C22.6922 22.1676 22.7473 22.2624 22.8023 22.3693C22.8573 22.4763 22.9734 22.6444 23.0651 22.7819C23.1568 22.9195 23.2363 23.0356 23.331 23.164C23.4258 23.2924 23.5694 23.4696 23.7008 23.6316C23.5633 23.6316 23.4349 23.6041 23.3035 23.5827L22.9215 23.5216L22.5425 23.4482C22.2888 23.3932 22.0443 23.3229 21.7967 23.2496C21.536 23.1609 21.2799 23.0589 21.0296 22.9439C20.9134 22.8981 20.7973 22.8492 20.6873 22.7942C20.5533 22.7353 20.4227 22.669 20.2961 22.5955C20.1677 22.5344 20.0424 22.458 19.9201 22.3846C19.2908 22.0052 18.7108 21.5494 18.1933 21.0276L18.1047 20.9451C16.5165 19.3057 15.617 17.1201 15.5914 14.8377C15.5657 12.5554 16.4158 10.35 17.9667 8.67541C19.5176 7.00079 21.6514 5.98427 23.9289 5.83503C26.2065 5.68578 28.4547 6.41514 30.2109 7.87306L30.2078 7.88528Z" fill="#DEE4F3"/>
<path d="M23.6917 23.6224C23.5603 23.604 23.4319 23.5979 23.3005 23.5796L23.7009 23.6285C23.7009 23.6285 23.6917 23.6285 23.6917 23.6224ZM25.009 24.0197L24.9937 24.0044L24.8653 23.873V24.0197C24.8699 24.0654 24.8699 24.1115 24.8653 24.1572C24.9084 24.1188 24.9492 24.078 24.9876 24.035H24.9937C25.0976 24.142 25.1893 24.2551 25.2779 24.362H25.3268L25.009 24.0197ZM24.5138 23.6743C24.5626 23.6698 24.6118 23.6698 24.6606 23.6743H24.5138ZM24.5138 23.5368L24.4894 23.5765C24.4925 23.5693 24.4971 23.5629 24.5029 23.5576C24.5087 23.5524 24.5156 23.5484 24.523 23.546L24.5138 23.5368ZM24.2082 23.1884C24.2082 23.1884 24.2082 23.219 24.2082 23.2281L24.5138 23.5338C24.4069 23.3932 24.303 23.2801 24.2052 23.167L24.2082 23.1884ZM24.3702 23.6743C24.3051 23.6789 24.2397 23.6789 24.1746 23.6743H24.5077C24.4654 23.6711 24.4235 23.6639 24.3824 23.653L24.3702 23.6743ZM24.1654 24.1725V24.359C24.1942 24.3255 24.2271 24.2957 24.2632 24.2703L24.1654 24.1725ZM24.0279 24.0136C23.9301 23.9158 23.8353 23.7997 23.7375 23.6866H23.6886L24.0218 24.0136L24.1624 24.1511C24.1109 24.1045 24.0647 24.0522 24.0248 23.9953L24.0279 24.0136Z" fill="url(#paint14_linear_8_2052)"/>
<path d="M24.5077 23.6743H24.1715C24.2326 23.6743 24.2938 23.6743 24.3641 23.6743C24.4119 23.6776 24.4599 23.6776 24.5077 23.6743Z" fill="url(#paint15_linear_8_2052)"/>
<path d="M24.52 23.4972V23.5339C24.5047 23.5339 24.4925 23.5491 24.4863 23.5614L24.5139 23.5277L24.2082 23.2221C24.2053 23.207 24.2053 23.1914 24.2082 23.1763C24.303 23.2924 24.4069 23.4086 24.5139 23.5247L24.52 23.4972Z" fill="url(#paint16_linear_8_2052)"/>
<path d="M39.927 16.6448L39.8384 16.5745C39.7223 16.4737 39.5969 16.3759 39.4747 16.2872C39.2149 16.0947 38.9551 15.9235 38.6861 15.7585C38.5517 15.679 38.4141 15.6026 38.2766 15.5262C38.0015 15.3826 37.7204 15.245 37.4331 15.1289C37.2894 15.0678 37.1457 15.0128 36.996 14.9639C36.8462 14.915 36.7545 14.8752 36.6384 14.8416C36.5223 14.808 36.3847 14.7652 36.2564 14.7316L36.0149 14.6704L35.6451 14.5879C35.5167 14.5604 35.3853 14.539 35.2539 14.5207C35.1224 14.5023 34.8932 14.4657 34.7129 14.4504C34.5326 14.4351 34.4073 14.4229 34.2422 14.4168C34.0772 14.4107 33.9182 14.4168 33.7624 14.4168C32.5004 14.4136 31.2504 14.6614 30.085 15.1457C28.9197 15.63 27.8623 16.3411 26.9742 17.2378C26.5737 17.6357 26.2105 18.0695 25.8892 18.5337L25.6569 18.8821C25.5836 18.9982 25.5072 19.1144 25.4399 19.2397C25.2989 19.4763 25.1703 19.7201 25.0548 19.9702C24.9326 20.233 24.8225 20.505 24.7186 20.7923C24.6697 20.936 24.6239 21.098 24.575 21.2324C24.5261 21.3669 24.4863 21.5381 24.4527 21.6848C24.4099 21.8356 24.3752 21.9886 24.3488 22.1432C24.3192 22.2785 24.2968 22.4152 24.2816 22.5528C24.2471 22.7253 24.2236 22.8999 24.2113 23.0754C24.2081 23.112 24.2081 23.1488 24.2113 23.1854C24.1026 23.0563 24.0006 22.9216 23.9056 22.782C23.727 22.5522 23.5646 22.3101 23.4197 22.0576C23.3433 21.9323 23.2669 21.804 23.1996 21.6725C23.0628 21.4194 22.9394 21.1592 22.8298 20.8932C22.6565 20.4802 22.5165 20.054 22.4111 19.6187C22.3775 19.5087 22.3561 19.3925 22.3286 19.2764C22.2827 19.0502 22.246 18.8149 22.2185 18.5826C22.2185 18.4817 22.191 18.3778 22.1849 18.2769C22.1788 18.1761 22.1635 18.0508 22.1635 17.9346C22.1635 17.8185 22.1635 17.629 22.1635 17.4915C22.23 15.2463 23.1413 13.1088 24.7152 11.5063C26.2892 9.90381 28.4098 8.95421 30.6535 8.84728C32.8971 8.74035 35.0985 9.48396 36.8177 10.9295C38.5369 12.3751 39.6473 14.4162 39.927 16.6448Z" fill="#1F157C"/>
<path d="M24.5016 23.6621C24.5504 23.6576 24.5995 23.6576 24.6483 23.6621C24.6793 23.6902 24.7089 23.7197 24.7369 23.7508C24.7633 23.7173 24.793 23.6866 24.8256 23.6591L24.5016 23.6621ZM24.8347 23.8669V24.0045C24.8303 23.9608 24.8303 23.9167 24.8347 23.873V23.8669ZM24.8347 24.1512V24.0136C24.8403 24.0593 24.8413 24.1053 24.8378 24.1512H24.8347ZM24.8347 24.3468V24.3621C24.8355 24.5091 24.8273 24.6561 24.8103 24.8022L24.8439 24.8327V24.3468H24.8347ZM24.5169 23.5002V23.5154L24.4924 23.5552C24.4955 23.548 24.5001 23.5415 24.5059 23.5363C24.5117 23.531 24.5186 23.527 24.5261 23.5246C24.633 23.4207 24.74 23.3229 24.8531 23.219V23.1762L24.5169 23.5002ZM24.1929 23.1945L24.4985 23.5002C24.4007 23.3779 24.2968 23.2648 24.1929 23.1517C24.196 23.1731 24.196 23.1976 24.196 23.2068L24.1929 23.1945ZM24.3641 23.6408C24.2989 23.6453 24.2336 23.6453 24.1685 23.6408H24.5016C24.4623 23.6483 24.4224 23.6523 24.3824 23.653L24.3641 23.6408ZM24.3641 24.3254H24.5016C24.4543 24.3343 24.4061 24.3384 24.358 24.3376L24.3641 24.3254ZM39.9698 17.5861C39.8964 17.5219 39.8139 17.4394 39.7406 17.3813C39.8384 17.473 39.9362 17.5617 40.0279 17.6595L39.9698 17.5861Z" fill="url(#paint17_linear_8_2052)"/>
<path d="M24.85 23.1763V23.2191C24.7339 23.3138 24.63 23.4086 24.52 23.5247V23.5094L24.85 23.1763Z" fill="url(#paint18_linear_8_2052)"/>
<path d="M24.8623 23.6743C24.8286 23.7018 24.8011 23.7354 24.7645 23.7629C24.7365 23.7308 24.7069 23.7002 24.6758 23.6712C24.628 23.6682 24.58 23.6682 24.5322 23.6712L24.8623 23.6743Z" fill="url(#paint19_linear_8_2052)"/>
<path d="M42.6808 24.0046C42.6886 26.0917 41.9554 28.1138 40.6116 29.7108C40.5841 29.4296 40.5505 29.1515 40.5016 28.8764C40.4833 28.7664 40.4619 28.6502 40.4405 28.5463C40.4069 28.3843 40.3641 28.2193 40.3243 28.0542C40.2846 27.8892 40.2479 27.7883 40.2082 27.6569C40.1685 27.5255 40.1257 27.3971 40.0768 27.2657C40.0279 27.1343 39.982 27.0059 39.927 26.8745C39.872 26.7431 39.8048 26.5872 39.7345 26.4496C39.5273 26.0072 39.285 25.5821 39.0101 25.1782C38.9337 25.059 38.8512 24.952 38.7687 24.842C38.6861 24.732 38.6586 24.6892 38.5975 24.6158L38.4141 24.3897C38.2338 24.1696 38.0351 23.9648 37.8365 23.7601C36.9488 22.8631 35.8914 22.152 34.7259 21.6682C33.5604 21.1844 32.3102 20.9375 31.0483 20.9421C30.8833 20.9421 30.7274 20.9421 30.5685 20.9574C30.4095 20.9727 30.2475 20.9788 30.0886 20.991C29.9297 21.0032 29.7127 21.0338 29.5293 21.0613C29.404 21.0796 29.2817 21.1072 29.1595 21.1285L28.7897 21.2111L28.5482 21.2722C28.4198 21.3058 28.2945 21.3394 28.1662 21.3822C28.0378 21.425 27.9308 21.4586 27.8086 21.5045C27.6863 21.5503 27.5029 21.6084 27.3715 21.6695C27.0826 21.7872 26.8009 21.9219 26.528 22.073C26.4331 22.1179 26.3412 22.1689 26.2529 22.2258C26.1581 22.2777 26.0603 22.3327 25.9656 22.3969C25.8708 22.4611 25.7669 22.5253 25.66 22.5864C25.553 22.6476 25.4796 22.7117 25.391 22.779L25.2015 22.9226L24.8714 23.1916C24.8685 23.1621 24.8685 23.1324 24.8714 23.1029C24.8714 22.9654 24.8989 22.8309 24.9203 22.6934C24.9417 22.5559 24.9692 22.3878 24.9967 22.2625C25.0242 22.1371 25.0517 21.9996 25.0854 21.8712C25.119 21.7429 25.1618 21.5656 25.2076 21.4189C25.2445 21.2792 25.2883 21.1415 25.339 21.0063C25.3941 20.8565 25.4552 20.7007 25.5224 20.5478C25.5897 20.395 25.6202 20.3217 25.6752 20.2055C25.9606 19.5955 26.3165 19.021 26.7358 18.494C26.7863 18.4222 26.8414 18.3538 26.9008 18.2892C27.0659 18.0905 27.2431 17.8919 27.4265 17.7054C28.6144 16.5177 30.1131 15.689 31.7506 15.3144C33.3881 14.9397 35.0981 15.0344 36.6842 15.5874C36.8187 15.6363 36.9501 15.6852 37.0815 15.7402C37.213 15.7952 37.3413 15.8502 37.4697 15.9114C37.6012 15.9657 37.7297 16.0269 37.8548 16.0947C38.0046 16.1711 38.1604 16.2537 38.3071 16.3484C38.5581 16.4958 38.7999 16.6581 39.0315 16.8344C39.1751 16.9383 39.3219 17.0483 39.4563 17.1645C39.5908 17.2806 39.6367 17.3081 39.7192 17.3906C39.8017 17.4731 39.8689 17.5282 39.9423 17.5954L40.0065 17.6657L40.0401 17.6993C40.8777 18.5217 41.5426 19.503 41.9961 20.5857C42.4495 21.6684 42.6823 22.8307 42.6808 24.0046Z" fill="#DEE4F3"/>
<path d="M29.3826 24.0015C29.3835 24.5133 29.303 25.0219 29.1442 25.5083C29.0907 25.6807 29.0254 25.8492 28.9486 26.0126C28.4914 27.0223 27.7047 27.8467 26.7175 28.3507C26.5547 28.4317 26.3873 28.5032 26.2162 28.5647C25.6625 28.7692 25.0766 28.8727 24.4863 28.8703C23.9729 28.8702 23.4626 28.7908 22.9734 28.635C22.8037 28.5783 22.6374 28.5119 22.4753 28.4363C21.4622 27.978 20.6369 27.1862 20.1371 26.1929C20.0534 26.0367 19.9819 25.8742 19.9232 25.707C19.5314 24.6711 19.5045 23.5327 19.8468 22.4795C19.9003 22.3061 19.9656 22.1365 20.0424 21.9721C20.4985 20.9601 21.2853 20.1334 22.2735 19.6279C22.4325 19.5515 22.6006 19.4751 22.7656 19.4139C23.8066 19.0198 24.9513 18.995 26.0084 19.3436C26.1756 19.3983 26.3398 19.4615 26.5005 19.5331C27.5114 19.9885 28.3364 20.7758 28.8386 21.7643C28.9207 21.9253 28.9941 22.0906 29.0586 22.2594C29.2712 22.8157 29.381 23.406 29.3826 24.0015Z" fill="#DEE4F3"/>
</g>
<path d="M24.4986 40.9031C33.8331 40.9031 41.4002 33.336 41.4002 24.0015C41.4002 14.667 33.8331 7.09985 24.4986 7.09985C15.164 7.09985 7.59692 14.667 7.59692 24.0015C7.59692 33.336 15.164 40.9031 24.4986 40.9031Z" stroke="#DEE4F3" stroke-width="3" stroke-miterlimit="10"/>
<path d="M43.9063 4.62109V5.11316C43.9063 6.28986 43.9063 7.4635 43.9063 8.64019C43.9156 8.83757 43.9033 9.03536 43.8697 9.23007C43.8116 9.51243 43.6839 9.7758 43.4981 9.99624C43.3124 10.2167 43.0745 10.3872 42.8061 10.4923C42.6396 10.5625 42.4692 10.6227 42.2956 10.6727C42.1948 10.7032 42.1337 10.6727 42.1123 10.5565C42.1076 10.5159 42.1076 10.4749 42.1123 10.4343C42.1123 9.389 42.1123 8.34373 42.1123 7.2954C42.1075 7.00056 42.168 6.70831 42.2895 6.43962C42.5456 5.84736 42.9297 5.3192 43.4143 4.8931C43.5496 4.75816 43.7201 4.66392 43.9063 4.62109Z" fill="url(#paint20_linear_8_2052)"/>
<path d="M42.0909 3.50269L42.1062 5.91109C42.3768 5.55003 42.714 5.24399 43.0995 5.00946C43.3516 4.85242 43.6228 4.72814 43.9064 4.63965V3.50269H42.0909Z" fill="#FDAF17"/>
<defs>
<linearGradient id="paint0_linear_8_2052" x1="24.4924" y1="24.4966" x2="24.4986" y2="24.4966" gradientUnits="userSpaceOnUse">
<stop stop-color="#0E172B"/>
<stop offset="1" stop-color="#1D284C"/>
</linearGradient>
<linearGradient id="paint1_linear_8_2052" x1="24.8164" y1="24.5974" x2="24.85" y2="24.5974" gradientUnits="userSpaceOnUse">
<stop stop-color="#0E172B"/>
<stop offset="1" stop-color="#1D284C"/>
</linearGradient>
<linearGradient id="paint2_linear_8_2052" x1="24.1471" y1="24.1755" x2="25.3177" y2="24.1755" gradientUnits="userSpaceOnUse">
<stop stop-color="#0E172B"/>
<stop offset="1" stop-color="#1D284C"/>
</linearGradient>
<linearGradient id="paint3_linear_8_2052" x1="24.8501" y1="23.9433" x2="25.0059" y2="23.9433" gradientUnits="userSpaceOnUse">
<stop stop-color="#0E172B"/>
<stop offset="1" stop-color="#1D284C"/>
</linearGradient>
<linearGradient id="paint4_linear_8_2052" x1="24.9937" y1="23.8517" x2="25.336" y2="23.8517" gradientUnits="userSpaceOnUse">
<stop stop-color="#0E172B"/>
<stop offset="1" stop-color="#1D284C"/>
</linearGradient>
<linearGradient id="paint5_linear_8_2052" x1="24.0157" y1="23.6499" x2="25.4583" y2="23.6499" gradientUnits="userSpaceOnUse">
<stop stop-color="#0E172B"/>
<stop offset="1" stop-color="#1D284C"/>
</linearGradient>
<linearGradient id="paint6_linear_8_2052" x1="24.1501" y1="24.3436" x2="24.1654" y2="24.3436" gradientUnits="userSpaceOnUse">
<stop stop-color="white"/>
<stop offset="1" stop-color="#D2D8E9"/>
</linearGradient>
<linearGradient id="paint7_linear_8_2052" x1="24.1654" y1="24.6586" x2="24.4924" y2="24.6586" gradientUnits="userSpaceOnUse">
<stop stop-color="white"/>
<stop offset="1" stop-color="#D2D8E9"/>
</linearGradient>
<linearGradient id="paint8_linear_8_2052" x1="24.3549" y1="24.3439" x2="24.4986" y2="24.3439" gradientUnits="userSpaceOnUse">
<stop stop-color="white"/>
<stop offset="1" stop-color="#D2D8E9"/>
</linearGradient>
<linearGradient id="paint9_linear_8_2052" x1="24.0157" y1="24.0932" x2="24.847" y2="24.0932" gradientUnits="userSpaceOnUse">
<stop stop-color="white"/>
<stop offset="1" stop-color="#D2D8E9"/>
</linearGradient>
<linearGradient id="paint10_linear_8_2052" x1="24.0065" y1="24.0655" x2="24.1563" y2="24.0655" gradientUnits="userSpaceOnUse">
<stop stop-color="#0E172B"/>
<stop offset="1" stop-color="#1D284C"/>
</linearGradient>
<linearGradient id="paint11_linear_8_2052" x1="24.1654" y1="24.2429" x2="24.2602" y2="24.2429" gradientUnits="userSpaceOnUse">
<stop stop-color="#0E172B"/>
<stop offset="1" stop-color="#1D284C"/>
</linearGradient>
<linearGradient id="paint12_linear_8_2052" x1="23.6764" y1="24.0015" x2="24.9845" y2="24.0015" gradientUnits="userSpaceOnUse">
<stop stop-color="#0E172B"/>
<stop offset="1" stop-color="#1D284C"/>
</linearGradient>
<linearGradient id="paint13_linear_8_2052" x1="23.6764" y1="23.8271" x2="24.0218" y2="23.8271" gradientUnits="userSpaceOnUse">
<stop stop-color="white"/>
<stop offset="1" stop-color="#D2D8E9"/>
</linearGradient>
<linearGradient id="paint14_linear_8_2052" x1="23.3005" y1="23.7569" x2="25.3268" y2="23.7569" gradientUnits="userSpaceOnUse">
<stop stop-color="white"/>
<stop offset="1" stop-color="#D2D8E9"/>
</linearGradient>
<linearGradient id="paint15_linear_8_2052" x1="24.1715" y1="23.659" x2="24.5077" y2="23.659" gradientUnits="userSpaceOnUse">
<stop stop-color="#0E172B"/>
<stop offset="1" stop-color="#1D284C"/>
</linearGradient>
<linearGradient id="paint16_linear_8_2052" x1="24.199" y1="23.3566" x2="24.52" y2="23.3566" gradientUnits="userSpaceOnUse">
<stop stop-color="#0E172B"/>
<stop offset="1" stop-color="#1D284C"/>
</linearGradient>
<linearGradient id="paint17_linear_8_2052" x1="24.1623" y1="21.107" x2="40.0279" y2="21.107" gradientUnits="userSpaceOnUse">
<stop stop-color="#0E172B"/>
<stop offset="1" stop-color="#1D284C"/>
</linearGradient>
<linearGradient id="paint18_linear_8_2052" x1="24.52" y1="23.3444" x2="24.85" y2="23.3444" gradientUnits="userSpaceOnUse">
<stop stop-color="white"/>
<stop offset="1" stop-color="#D2D8E9"/>
</linearGradient>
<linearGradient id="paint19_linear_8_2052" x1="24.5138" y1="23.714" x2="24.8623" y2="23.714" gradientUnits="userSpaceOnUse">
<stop stop-color="white"/>
<stop offset="1" stop-color="#D2D8E9"/>
</linearGradient>
<linearGradient id="paint20_linear_8_2052" x1="42.0909" y1="7.64994" x2="43.9063" y2="7.64994" gradientUnits="userSpaceOnUse">
<stop stop-color="white"/>
<stop offset="1" stop-color="#D2D8E9"/>
</linearGradient>
</defs>
</svg>
