<svg width="97" height="128" viewBox="0 0 97 128" fill="none" xmlns="http://www.w3.org/2000/svg">
<rect x="0.5" width="96" height="96" rx="48" fill="#F4F6F8"/>
<path d="M69.7883 35H27.2117C25.7141 35 24.5 36.2141 24.5 37.7117V57.9465C24.5 59.4441 25.7141 60.6582 27.2117 60.6582H69.7883C71.2859 60.6582 72.5 59.4441 72.5 57.9465V37.7117C72.5 36.2141 71.2859 35 69.7883 35Z" fill="#1F157C"/>
<path d="M32.8982 39.3848H29.3377C28.7281 39.3848 28.234 39.8789 28.234 40.4885V44.0489C28.234 44.6585 28.7281 45.1526 29.3377 45.1526H32.8982C33.5077 45.1526 34.0018 44.6585 34.0018 44.0489V40.4885C34.0018 39.8789 33.5077 39.3848 32.8982 39.3848Z" fill="#DEE4F3"/>
<path d="M41.76 39.3848H38.1995C37.59 39.3848 37.0958 39.8789 37.0958 40.4885V44.0489C37.0958 44.6585 37.59 45.1526 38.1995 45.1526H41.76C42.3695 45.1526 42.8636 44.6585 42.8636 44.0489V40.4885C42.8636 39.8789 42.3695 39.3848 41.76 39.3848Z" fill="#DEE4F3"/>
<path d="M32.8982 49.8628H29.3377C28.7281 49.8628 28.234 50.3569 28.234 50.9664V54.5269C28.234 55.1365 28.7281 55.6306 29.3377 55.6306H32.8982C33.5077 55.6306 34.0018 55.1365 34.0018 54.5269V50.9664C34.0018 50.3569 33.5077 49.8628 32.8982 49.8628Z" fill="#DEE4F3"/>
<path d="M50.6219 39.3848H47.0614C46.4519 39.3848 45.9578 39.8789 45.9578 40.4885V44.0489C45.9578 44.6585 46.4519 45.1526 47.0614 45.1526H50.6219C51.2314 45.1526 51.7256 44.6585 51.7256 44.0489V40.4885C51.7256 39.8789 51.2314 39.3848 50.6219 39.3848Z" fill="#DEE4F3"/>
<path d="M59.4865 39.3848H55.9261C55.3165 39.3848 54.8224 39.8789 54.8224 40.4885V44.0489C54.8224 44.6585 55.3165 45.1526 55.9261 45.1526H59.4865C60.0961 45.1526 60.5902 44.6585 60.5902 44.0489V40.4885C60.5902 39.8789 60.0961 39.3848 59.4865 39.3848Z" fill="#DEE4F3"/>
<path d="M68.3483 39.3848H64.7879C64.1783 39.3848 63.6842 39.8789 63.6842 40.4885V44.0489C63.6842 44.6585 64.1783 45.1526 64.7879 45.1526H68.3483C68.9579 45.1526 69.452 44.6585 69.452 44.0489V40.4885C69.452 39.8789 68.9579 39.3848 68.3483 39.3848Z" fill="#DEE4F3"/>
<path d="M68.3483 49.8628H64.7879C64.1783 49.8628 63.6842 50.3569 63.6842 50.9664V54.5269C63.6842 55.1365 64.1783 55.6306 64.7879 55.6306H68.3483C68.9579 55.6306 69.452 55.1365 69.452 54.5269V50.9664C69.452 50.3569 68.9579 49.8628 68.3483 49.8628Z" fill="#DEE4F3"/>
<path d="M57.9001 50.2561H39.7831C38.299 50.2561 37.0958 51.4587 37.0958 52.9421C37.0958 54.4255 38.299 55.628 39.7831 55.628H57.9001C59.3842 55.628 60.5874 54.4255 60.5874 52.9421C60.5874 51.4587 59.3842 50.2561 57.9001 50.2561Z" fill="#FDAF17"/>
<path d="M20.058 124H18L15.032 119.576L14.094 120.318V124H12.302V114.004H14.094V118.708C14.2807 118.475 14.472 118.237 14.668 117.994C14.864 117.751 15.06 117.509 15.256 117.266L17.958 114.004H19.988L16.32 118.4L20.058 124ZM27.0505 124H21.3665V114.004H27.0505V115.502H23.1585V118.05H26.7985V119.548H23.1585V122.488H27.0505V124ZM32.0851 118.414L34.3671 114.004H36.2991L32.9811 120.108V124H31.1891V120.178L27.8711 114.004H29.8171L32.0851 118.414ZM40.605 114.004C41.9023 114.004 42.8823 114.191 43.545 114.564C44.217 114.937 44.553 115.586 44.553 116.51C44.553 116.893 44.4876 117.238 44.357 117.546C44.2263 117.854 44.035 118.106 43.783 118.302C43.5403 118.498 43.237 118.629 42.873 118.694V118.764C43.2463 118.829 43.5776 118.951 43.867 119.128C44.1656 119.296 44.399 119.543 44.567 119.87C44.7443 120.187 44.833 120.607 44.833 121.13C44.833 121.737 44.6883 122.255 44.399 122.684C44.1096 123.113 43.6943 123.44 43.153 123.664C42.621 123.888 41.9863 124 41.249 124H37.595V114.004H40.605ZM40.843 118.078C41.5523 118.078 42.0376 117.966 42.299 117.742C42.5696 117.518 42.705 117.187 42.705 116.748C42.705 116.3 42.5463 115.978 42.229 115.782C41.9116 115.586 41.403 115.488 40.703 115.488H39.387V118.078H40.843ZM39.387 119.52V122.502H41.011C41.739 122.502 42.243 122.362 42.523 122.082C42.8123 121.802 42.957 121.429 42.957 120.962C42.957 120.663 42.8963 120.407 42.775 120.192C42.6536 119.977 42.4436 119.814 42.145 119.702C41.8463 119.581 41.4403 119.52 40.927 119.52H39.387ZM55.8238 118.988C55.8238 119.763 55.7258 120.467 55.5298 121.102C55.3432 121.727 55.0538 122.269 54.6618 122.726C54.2792 123.183 53.7892 123.533 53.1918 123.776C52.6038 124.019 51.9132 124.14 51.1198 124.14C50.3172 124.14 49.6172 124.019 49.0198 123.776C48.4318 123.524 47.9465 123.174 47.5638 122.726C47.1812 122.269 46.8918 121.723 46.6958 121.088C46.5092 120.453 46.4158 119.749 46.4158 118.974C46.4158 117.938 46.5838 117.037 46.9198 116.272C47.2652 115.507 47.7832 114.914 48.4738 114.494C49.1738 114.065 50.0605 113.85 51.1338 113.85C52.1885 113.85 53.0612 114.065 53.7518 114.494C54.4425 114.914 54.9605 115.511 55.3058 116.286C55.6512 117.051 55.8238 117.952 55.8238 118.988ZM48.3058 118.988C48.3058 119.744 48.4038 120.393 48.5998 120.934C48.8052 121.475 49.1132 121.891 49.5238 122.18C49.9438 122.469 50.4758 122.614 51.1198 122.614C51.7825 122.614 52.3192 122.469 52.7298 122.18C53.1405 121.891 53.4438 121.475 53.6398 120.934C53.8358 120.393 53.9338 119.744 53.9338 118.988C53.9338 117.859 53.7145 116.972 53.2758 116.328C52.8372 115.684 52.1232 115.362 51.1338 115.362C50.4805 115.362 49.9438 115.507 49.5238 115.796C49.1132 116.085 48.8052 116.501 48.5998 117.042C48.4038 117.583 48.3058 118.232 48.3058 118.988ZM63.853 124L62.943 121.354H59.177L58.281 124H56.377L60.045 113.962H62.089L65.757 124H63.853ZM61.613 117.238C61.5756 117.107 61.5196 116.93 61.445 116.706C61.3703 116.482 61.2956 116.253 61.221 116.02C61.1556 115.777 61.1043 115.577 61.067 115.418C61.0203 115.605 60.9596 115.819 60.885 116.062C60.8196 116.305 60.7543 116.533 60.689 116.748C60.633 116.963 60.5863 117.126 60.549 117.238L59.667 119.814H62.481L61.613 117.238ZM69.9135 114.004C70.7909 114.004 71.5142 114.111 72.0835 114.326C72.6529 114.541 73.0775 114.867 73.3575 115.306C73.6375 115.735 73.7775 116.281 73.7775 116.944C73.7775 117.429 73.6842 117.845 73.4975 118.19C73.3202 118.535 73.0869 118.825 72.7975 119.058C72.5082 119.282 72.1955 119.464 71.8595 119.604L74.7295 124H72.7135L70.3195 120.052H68.8635V124H67.0715V114.004H69.9135ZM69.8015 115.502H68.8635V118.582H69.8575C70.5949 118.582 71.1269 118.451 71.4535 118.19C71.7895 117.919 71.9575 117.523 71.9575 117C71.9575 116.636 71.8782 116.347 71.7195 116.132C71.5609 115.908 71.3229 115.749 71.0055 115.656C70.6975 115.553 70.2962 115.502 69.8015 115.502ZM84.2983 118.904C84.2983 120.024 84.0836 120.962 83.6543 121.718C83.2343 122.474 82.623 123.043 81.8203 123.426C81.027 123.809 80.0656 124 78.9363 124H76.1223V114.004H79.2303C80.2663 114.004 81.1623 114.191 81.9183 114.564C82.6743 114.937 83.2576 115.488 83.6683 116.216C84.0883 116.935 84.2983 117.831 84.2983 118.904ZM82.4223 118.96C82.4223 118.167 82.301 117.513 82.0583 117C81.8156 116.487 81.4563 116.109 80.9803 115.866C80.5043 115.614 79.921 115.488 79.2303 115.488H77.9143V122.502H78.9923C80.1496 122.502 81.0083 122.208 81.5683 121.62C82.1376 121.023 82.4223 120.136 82.4223 118.96Z" fill="#221690"/>
</svg>
