<svg width="49" height="26" viewBox="0 0 49 26" fill="none" xmlns="http://www.w3.org/2000/svg">
<path d="M45.7883 0H3.21171C1.71407 0 0.5 1.21407 0.5 2.71171V22.9465C0.5 24.4441 1.71407 25.6582 3.21171 25.6582H45.7883C47.2859 25.6582 48.5 24.4441 48.5 22.9465V2.71171C48.5 1.21407 47.2859 0 45.7883 0Z" fill="#1F157C"/>
<path d="M8.89815 4.38477H5.33768C4.72814 4.38477 4.23401 4.87891 4.23401 5.48845V9.04893C4.23401 9.65847 4.72814 10.1526 5.33768 10.1526H8.89815C9.50769 10.1526 10.0018 9.65847 10.0018 9.04893V5.48845C10.0018 4.87891 9.50769 4.38477 8.89815 4.38477Z" fill="#DEE4F3"/>
<path d="M17.76 4.38477H14.1995C13.59 4.38477 13.0958 4.87891 13.0958 5.48845V9.04893C13.0958 9.65847 13.59 10.1526 14.1995 10.1526H17.76C18.3695 10.1526 18.8636 9.65847 18.8636 9.04893V5.48845C18.8636 4.87891 18.3695 4.38477 17.76 4.38477Z" fill="#DEE4F3"/>
<path d="M8.89815 14.8628H5.33768C4.72814 14.8628 4.23401 15.3569 4.23401 15.9664V19.5269C4.23401 20.1365 4.72814 20.6306 5.33768 20.6306H8.89815C9.50769 20.6306 10.0018 20.1365 10.0018 19.5269V15.9664C10.0018 15.3569 9.50769 14.8628 8.89815 14.8628Z" fill="#DEE4F3"/>
<path d="M26.6219 4.38477H23.0614C22.4519 4.38477 21.9578 4.87891 21.9578 5.48845V9.04893C21.9578 9.65847 22.4519 10.1526 23.0614 10.1526H26.6219C27.2314 10.1526 27.7256 9.65847 27.7256 9.04893V5.48845C27.7256 4.87891 27.2314 4.38477 26.6219 4.38477Z" fill="#DEE4F3"/>
<path d="M35.4865 4.38477H31.9261C31.3165 4.38477 30.8224 4.87891 30.8224 5.48845V9.04893C30.8224 9.65847 31.3165 10.1526 31.9261 10.1526H35.4865C36.0961 10.1526 36.5902 9.65847 36.5902 9.04893V5.48845C36.5902 4.87891 36.0961 4.38477 35.4865 4.38477Z" fill="#DEE4F3"/>
<path d="M44.3483 4.38477H40.7879C40.1783 4.38477 39.6842 4.87891 39.6842 5.48845V9.04893C39.6842 9.65847 40.1783 10.1526 40.7879 10.1526H44.3483C44.9579 10.1526 45.452 9.65847 45.452 9.04893V5.48845C45.452 4.87891 44.9579 4.38477 44.3483 4.38477Z" fill="#DEE4F3"/>
<path d="M44.3483 14.8628H40.7879C40.1783 14.8628 39.6842 15.3569 39.6842 15.9664V19.5269C39.6842 20.1365 40.1783 20.6306 40.7879 20.6306H44.3483C44.9579 20.6306 45.452 20.1365 45.452 19.5269V15.9664C45.452 15.3569 44.9579 14.8628 44.3483 14.8628Z" fill="#DEE4F3"/>
<path d="M33.9001 15.2561H15.7831C14.299 15.2561 13.0958 16.4587 13.0958 17.9421C13.0958 19.4255 14.299 20.628 15.7831 20.628H33.9001C35.3842 20.628 36.5874 19.4255 36.5874 17.9421C36.5874 16.4587 35.3842 15.2561 33.9001 15.2561Z" fill="#FDAF17"/>
</svg>
