<svg width="97" height="128" viewBox="0 0 97 128" fill="none" xmlns="http://www.w3.org/2000/svg">
<rect x="0.5" width="96" height="96" rx="48" fill="#F4F6F8"/>
<path d="M62.2262 23H38.2276C35.2278 23 32.7734 25.5935 32.7734 28.7897V38.1655L30.5044 39.3845C30.1964 39.5558 29.9405 39.8071 29.7638 40.112C29.5872 40.4169 29.4963 40.7639 29.5008 41.1162V48.5395C29.4861 49.0396 29.6706 49.525 30.0138 49.8891C30.3569 50.2532 30.8306 50.4662 31.3307 50.4812H32.7734V55.4636L30.5044 57.0017C29.8881 57.4189 29.5008 58.2644 29.5008 59.1834V68.5456C29.5008 69.9092 30.3189 71 31.3307 71H37.6167C37.6925 70.9992 37.7682 70.9928 37.8431 70.9809C37.9685 70.9809 38.0967 71 38.2249 71H62.2235C65.2233 71 67.6777 68.4092 67.6777 65.213V28.7897C67.6805 25.6071 65.2261 23 62.2262 23Z" fill="#1F157C"/>
<path d="M39.3184 37.9883C39.0653 37.9883 38.8225 37.8877 38.6435 37.7087C38.4645 37.5297 38.364 37.287 38.364 37.0338V26.5453C38.364 26.2922 38.4645 26.0494 38.6435 25.8704C38.8225 25.6914 39.0653 25.5908 39.3184 25.5908C39.5716 25.5908 39.8144 25.6914 39.9934 25.8704C40.1724 26.0494 40.2729 26.2922 40.2729 26.5453V37.0338C40.2729 37.287 40.1724 37.5297 39.9934 37.7087C39.8144 37.8877 39.5716 37.9883 39.3184 37.9883Z" fill="#DEE4F3"/>
<path d="M46.2235 37.9883C45.9704 37.9883 45.7276 37.8877 45.5486 37.7087C45.3696 37.5297 45.269 37.287 45.269 37.0338V26.5453C45.269 26.2922 45.3696 26.0494 45.5486 25.8704C45.7276 25.6914 45.9704 25.5908 46.2235 25.5908C46.4767 25.5908 46.7195 25.6914 46.8985 25.8704C47.0775 26.0494 47.178 26.2922 47.178 26.5453V37.0338C47.178 37.287 47.0775 37.5297 46.8985 37.7087C46.7195 37.8877 46.4767 37.9883 46.2235 37.9883Z" fill="#FDAF17"/>
<path d="M53.134 37.9883C52.8808 37.9883 52.6381 37.8877 52.4591 37.7087C52.2801 37.5297 52.1795 37.287 52.1795 37.0338V26.5453C52.1795 26.2922 52.2801 26.0494 52.4591 25.8704C52.6381 25.6914 52.8808 25.5908 53.134 25.5908C53.3871 25.5908 53.6299 25.6914 53.8089 25.8704C53.9879 26.0494 54.0885 26.2922 54.0885 26.5453V37.0338C54.0885 37.287 53.9879 37.5297 53.8089 37.7087C53.6299 37.8877 53.3871 37.9883 53.134 37.9883Z" fill="#DEE4F3"/>
<path d="M60.0445 34.4921C59.7914 34.4921 59.5486 34.3916 59.3696 34.2126C59.1906 34.0336 59.09 33.7908 59.09 33.5376V26.5453C59.09 26.2922 59.1906 26.0494 59.3696 25.8704C59.5486 25.6914 59.7914 25.5908 60.0445 25.5908C60.2977 25.5908 60.5404 25.6914 60.7194 25.8704C60.8984 26.0494 60.999 26.2922 60.999 26.5453V33.5376C60.999 33.7908 60.8984 34.0336 60.7194 34.2126C60.5404 34.3916 60.2977 34.4921 60.0445 34.4921Z" fill="#FDAF17"/>
<path d="M51.9667 65.6958V65.6794C51.9667 63.8959 53.363 62.4996 55.2611 62.4996C56.1714 62.4688 57.0591 62.7868 57.7428 63.3886L56.7446 64.5858C56.3434 64.2142 55.8162 64.0085 55.2693 64.0104C55.0557 64.0157 54.8453 64.0634 54.6504 64.151C54.4555 64.2385 54.2801 64.364 54.1343 64.5202C53.9885 64.6764 53.8754 64.8601 53.8015 65.0605C53.7276 65.261 53.6944 65.4742 53.7039 65.6876V65.6958C53.6929 65.9183 53.7281 66.1407 53.8072 66.349C53.8863 66.5573 54.0077 66.7469 54.1637 66.906C54.3197 67.0651 54.507 67.1901 54.7136 67.2733C54.9203 67.3565 55.142 67.396 55.3647 67.3893C55.7091 67.4044 56.0501 67.3161 56.3438 67.1357V66.4048H55.1356V65.164H57.9473V67.9157C57.2001 68.5323 56.2598 68.8663 55.2911 68.8592C53.3903 68.8592 51.9667 67.5502 51.9667 65.6958Z" fill="#DEE4F3"/>
<path d="M58.8937 62.6196H62.0326C62.8016 62.6196 63.3416 62.8133 63.7016 63.1651C63.8298 63.295 63.9306 63.4493 63.998 63.6188C64.0655 63.7884 64.0982 63.9698 64.0943 64.1523V64.1714C64.1 64.4689 64.0119 64.7607 63.8426 65.0054C63.6732 65.2502 63.4312 65.4354 63.1507 65.5349C63.8925 65.7776 64.3643 66.1976 64.3643 67.0294V67.0594C64.3643 68.1093 63.508 68.7447 62.049 68.7447H58.8937V62.6196ZM61.6208 65.0577C62.1362 65.0577 62.4253 64.8832 62.4253 64.5259V64.5095C62.4253 64.1768 62.1526 63.9832 61.6562 63.9832H60.5654V65.0577H61.6208ZM61.8662 67.3757C62.3817 67.3757 62.6844 67.1739 62.6844 66.8139V66.7867C62.6844 66.454 62.4117 66.2413 61.8662 66.2413H60.5736V67.3703L61.8662 67.3757Z" fill="#DEE4F3"/>
<path d="M22.6 124L19.856 115.81H19.8C19.8093 115.997 19.8233 116.263 19.842 116.608C19.8607 116.944 19.8747 117.313 19.884 117.714C19.9027 118.106 19.912 118.475 19.912 118.82V124H18.302V114.004H20.794L23.426 121.858H23.482L26.226 114.004H28.718V124H27.01V118.736C27.01 118.419 27.0147 118.073 27.024 117.7C27.0427 117.317 27.0567 116.958 27.066 116.622C27.0847 116.277 27.0987 116.011 27.108 115.824H27.052L24.196 124H22.6ZM36.988 124H31.304V114.004H36.988V115.502H33.096V118.05H36.736V119.548H33.096V122.488H36.988V124ZM43.4086 124L40.6646 115.81H40.6086C40.6179 115.997 40.6319 116.263 40.6506 116.608C40.6693 116.944 40.6833 117.313 40.6926 117.714C40.7113 118.106 40.7206 118.475 40.7206 118.82V124H39.1106V114.004H41.6026L44.2346 121.858H44.2906L47.0346 114.004H49.5266V124H47.8186V118.736C47.8186 118.419 47.8233 118.073 47.8326 117.7C47.8513 117.317 47.8653 116.958 47.8746 116.622C47.8933 116.277 47.9073 116.011 47.9166 115.824H47.8606L45.0046 124H43.4086ZM61.0445 118.988C61.0445 119.763 60.9465 120.467 60.7505 121.102C60.5639 121.727 60.2745 122.269 59.8825 122.726C59.4999 123.183 59.0099 123.533 58.4125 123.776C57.8245 124.019 57.1339 124.14 56.3405 124.14C55.5379 124.14 54.8379 124.019 54.2405 123.776C53.6525 123.524 53.1672 123.174 52.7845 122.726C52.4019 122.269 52.1125 121.723 51.9165 121.088C51.7299 120.453 51.6365 119.749 51.6365 118.974C51.6365 117.938 51.8045 117.037 52.1405 116.272C52.4859 115.507 53.0039 114.914 53.6945 114.494C54.3945 114.065 55.2812 113.85 56.3545 113.85C57.4092 113.85 58.2819 114.065 58.9725 114.494C59.6632 114.914 60.1812 115.511 60.5265 116.286C60.8719 117.051 61.0445 117.952 61.0445 118.988ZM53.5265 118.988C53.5265 119.744 53.6245 120.393 53.8205 120.934C54.0259 121.475 54.3339 121.891 54.7445 122.18C55.1645 122.469 55.6965 122.614 56.3405 122.614C57.0032 122.614 57.5399 122.469 57.9505 122.18C58.3612 121.891 58.6645 121.475 58.8605 120.934C59.0565 120.393 59.1545 119.744 59.1545 118.988C59.1545 117.859 58.9352 116.972 58.4965 116.328C58.0579 115.684 57.3439 115.362 56.3545 115.362C55.7012 115.362 55.1645 115.507 54.7445 115.796C54.3339 116.085 54.0259 116.501 53.8205 117.042C53.6245 117.583 53.5265 118.232 53.5265 118.988ZM66.0151 114.004C66.8924 114.004 67.6158 114.111 68.1851 114.326C68.7544 114.541 69.1791 114.867 69.4591 115.306C69.7391 115.735 69.8791 116.281 69.8791 116.944C69.8791 117.429 69.7858 117.845 69.5991 118.19C69.4218 118.535 69.1884 118.825 68.8991 119.058C68.6098 119.282 68.2971 119.464 67.9611 119.604L70.8311 124H68.8151L66.4211 120.052H64.9651V124H63.1731V114.004H66.0151ZM65.9031 115.502H64.9651V118.582H65.9591C66.6964 118.582 67.2284 118.451 67.5551 118.19C67.8911 117.919 68.0591 117.523 68.0591 117C68.0591 116.636 67.9798 116.347 67.8211 116.132C67.6624 115.908 67.4244 115.749 67.1071 115.656C66.7991 115.553 66.3978 115.502 65.9031 115.502ZM75.1359 118.414L77.4179 114.004H79.3499L76.0319 120.108V124H74.2399V120.178L70.9219 114.004H72.8679L75.1359 118.414Z" fill="#221690"/>
</svg>
