<svg width="39" height="48" viewBox="0 0 39 48" fill="none" xmlns="http://www.w3.org/2000/svg">
<path d="M33.2262 0H9.22759C6.22776 0 3.77336 2.59348 3.77336 5.78967V15.1655L1.50439 16.3845C1.19642 16.5558 0.940532 16.8071 0.763848 17.112C0.587164 17.4169 0.496274 17.7639 0.500814 18.1162V25.5395C0.48613 26.0396 0.67064 26.525 1.01378 26.8891C1.35692 27.2532 1.83061 27.4662 2.33071 27.4812H3.77336V32.4636L1.50439 34.0017C0.888065 34.4189 0.500814 35.2644 0.500814 36.1834V45.5456C0.500814 46.9092 1.31895 48 2.33071 48H8.61672C8.69253 47.9992 8.76818 47.9928 8.84307 47.9809C8.96851 47.9809 9.09669 48 9.22486 48H33.2235C36.2233 48 38.6777 45.4092 38.6777 42.213V5.78967C38.6805 2.60712 36.2261 0 33.2262 0Z" fill="#1F157C"/>
<path d="M10.3184 14.9883C10.0653 14.9883 9.82252 14.8877 9.64352 14.7087C9.46451 14.5297 9.36395 14.287 9.36395 14.0338V3.54531C9.36395 3.29216 9.46451 3.04939 9.64352 2.87039C9.82252 2.69139 10.0653 2.59082 10.3184 2.59082C10.5716 2.59082 10.8144 2.69139 10.9934 2.87039C11.1724 3.04939 11.2729 3.29216 11.2729 3.54531V14.0338C11.2729 14.287 11.1724 14.5297 10.9934 14.7087C10.8144 14.8877 10.5716 14.9883 10.3184 14.9883Z" fill="#DEE4F3"/>
<path d="M17.2235 14.9883C16.9704 14.9883 16.7276 14.8877 16.5486 14.7087C16.3696 14.5297 16.269 14.287 16.269 14.0338V3.54531C16.269 3.29216 16.3696 3.04939 16.5486 2.87039C16.7276 2.69139 16.9704 2.59082 17.2235 2.59082C17.4767 2.59082 17.7195 2.69139 17.8985 2.87039C18.0775 3.04939 18.178 3.29216 18.178 3.54531V14.0338C18.178 14.287 18.0775 14.5297 17.8985 14.7087C17.7195 14.8877 17.4767 14.9883 17.2235 14.9883Z" fill="#FDAF17"/>
<path d="M24.134 14.9883C23.8808 14.9883 23.6381 14.8877 23.4591 14.7087C23.2801 14.5297 23.1795 14.287 23.1795 14.0338V3.54531C23.1795 3.29216 23.2801 3.04939 23.4591 2.87039C23.6381 2.69139 23.8808 2.59082 24.134 2.59082C24.3871 2.59082 24.6299 2.69139 24.8089 2.87039C24.9879 3.04939 25.0885 3.29216 25.0885 3.54531V14.0338C25.0885 14.287 24.9879 14.5297 24.8089 14.7087C24.6299 14.8877 24.3871 14.9883 24.134 14.9883Z" fill="#DEE4F3"/>
<path d="M31.0445 11.4921C30.7914 11.4921 30.5486 11.3916 30.3696 11.2126C30.1906 11.0336 30.09 10.7908 30.09 10.5376V3.54531C30.09 3.29216 30.1906 3.04939 30.3696 2.87039C30.5486 2.69139 30.7914 2.59082 31.0445 2.59082C31.2977 2.59082 31.5404 2.69139 31.7194 2.87039C31.8984 3.04939 31.999 3.29216 31.999 3.54531V10.5376C31.999 10.7908 31.8984 11.0336 31.7194 11.2126C31.5404 11.3916 31.2977 11.4921 31.0445 11.4921Z" fill="#FDAF17"/>
<path d="M22.9667 42.6958V42.6794C22.9667 40.8959 24.363 39.4996 26.2611 39.4996C27.1714 39.4688 28.0591 39.7868 28.7428 40.3886L27.7446 41.5858C27.3434 41.2142 26.8162 41.0085 26.2693 41.0104C26.0557 41.0157 25.8453 41.0634 25.6504 41.151C25.4555 41.2385 25.2801 41.364 25.1343 41.5202C24.9885 41.6764 24.8754 41.8601 24.8015 42.0605C24.7276 42.261 24.6944 42.4742 24.7039 42.6876V42.6958C24.6929 42.9183 24.7281 43.1407 24.8072 43.349C24.8863 43.5573 25.0077 43.7469 25.1637 43.906C25.3197 44.0651 25.507 44.1901 25.7136 44.2733C25.9203 44.3565 26.142 44.396 26.3647 44.3893C26.7091 44.4044 27.0501 44.3161 27.3438 44.1357V43.4048H26.1356V42.164H28.9473V44.9157C28.2001 45.5323 27.2598 45.8663 26.2911 45.8592C24.3903 45.8592 22.9667 44.5502 22.9667 42.6958Z" fill="#DEE4F3"/>
<path d="M29.8937 39.6196H33.0326C33.8016 39.6196 34.3416 39.8133 34.7016 40.1651C34.8298 40.295 34.9306 40.4493 34.998 40.6188C35.0655 40.7884 35.0982 40.9698 35.0943 41.1523V41.1714C35.1 41.4689 35.0119 41.7607 34.8426 42.0054C34.6732 42.2502 34.4312 42.4354 34.1507 42.5349C34.8925 42.7776 35.3643 43.1976 35.3643 44.0294V44.0594C35.3643 45.1093 34.508 45.7447 33.049 45.7447H29.8937V39.6196ZM32.6208 42.0577C33.1362 42.0577 33.4253 41.8832 33.4253 41.5259V41.5095C33.4253 41.1768 33.1526 40.9832 32.6562 40.9832H31.5654V42.0577H32.6208ZM32.8662 44.3757C33.3817 44.3757 33.6844 44.1739 33.6844 43.8139V43.7867C33.6844 43.454 33.4117 43.2413 32.8662 43.2413H31.5736V44.3703L32.8662 44.3757Z" fill="#DEE4F3"/>
</svg>
