<svg width="97" height="128" viewBox="0 0 97 128" fill="none" xmlns="http://www.w3.org/2000/svg">
<rect x="0.5" width="96" height="96" rx="48" fill="#F4F6F8"/>
<rect width="48" height="36.03" transform="translate(24.5 30)" fill="#F4F6F8"/>
<path d="M41.4091 64.5627C41.8944 63.6519 42.1483 62.6357 42.1483 61.6036C42.1483 60.5716 41.8944 59.5553 41.4091 58.6445H55.5909C55.1055 59.5553 54.8516 60.5716 54.8516 61.6036C54.8516 62.6357 55.1055 63.6519 55.5909 64.5627" fill="#1F157C"/>
<path d="M32.5864 64.3311H64.4137C64.8643 64.3311 65.2965 64.5101 65.6151 64.8287C65.9337 65.1473 66.1127 65.5795 66.1127 66.0301H30.8818C30.8818 65.5795 31.0609 65.1473 31.3795 64.8287C31.6981 64.5101 32.1303 64.3311 32.5809 64.3311H32.5864Z" fill="#DEE4F3"/>
<path d="M67.0455 30H29.9545C28.5092 30.0043 27.1244 30.5804 26.1024 31.6024C25.0804 32.6244 24.5043 34.0092 24.5 35.4545V54.4091H72.5V35.4545C72.4957 34.0092 71.9196 32.6244 70.8976 31.6024C69.8757 30.5804 68.4908 30.0043 67.0455 30Z" fill="#1F157C"/>
<path d="M29.9545 60.6627H67.0455C68.4875 60.6585 69.8695 60.085 70.8909 59.0672C71.9124 58.0493 72.4907 56.6693 72.5 55.2273H24.5C24.5093 56.6693 25.0876 58.0493 26.1091 59.0672C27.1305 60.085 28.5125 60.6585 29.9545 60.6627Z" fill="#DEE4F3"/>
<path d="M24.5 55.2083V55.2274H72.5C72.5 55.2274 72.5 55.2137 72.5 55.2083V54.4092H24.5V55.2083Z" fill="#DEE4F3"/>
<path d="M50.2973 37.6365V38.6074C50.2973 40.9328 50.2973 43.2592 50.2973 45.5865C50.3135 45.9779 50.2897 46.3699 50.2264 46.7565C49.9755 47.9483 49.2228 48.7583 48.1182 49.2547C47.7896 49.3939 47.4526 49.5123 47.1091 49.6092C46.9046 49.6719 46.7873 49.5928 46.7409 49.3828C46.7265 49.3037 46.7201 49.2233 46.7219 49.1428C46.7219 47.0701 46.7219 45.0001 46.7219 42.9274C46.7134 42.3433 46.8325 41.7643 47.0709 41.231C47.5805 40.0593 48.3412 39.0138 49.2991 38.1683C49.5752 37.9006 49.9212 37.7163 50.2973 37.6365Z" fill="#DEE4F3"/>
<path d="M46.7 35.449L46.7299 40.2135C47.2675 39.501 47.9335 38.8952 48.6936 38.4272C49.1955 38.1194 49.7331 37.8739 50.2945 37.6962V35.449H46.7Z" fill="#FDAF17"/>
<path d="M19.6 124L16.856 115.81H16.8C16.8093 115.997 16.8233 116.263 16.842 116.608C16.8607 116.944 16.8747 117.313 16.884 117.714C16.9027 118.106 16.912 118.475 16.912 118.82V124H15.302V114.004H17.794L20.426 121.858H20.482L23.226 114.004H25.718V124H24.01V118.736C24.01 118.419 24.0147 118.073 24.024 117.7C24.0427 117.317 24.0567 116.958 24.066 116.622C24.0847 116.277 24.0987 116.011 24.108 115.824H24.052L21.196 124H19.6ZM37.236 118.988C37.236 119.763 37.138 120.467 36.942 121.102C36.7553 121.727 36.466 122.269 36.074 122.726C35.6913 123.183 35.2013 123.533 34.604 123.776C34.016 124.019 33.3253 124.14 32.532 124.14C31.7293 124.14 31.0293 124.019 30.432 123.776C29.844 123.524 29.3586 123.174 28.976 122.726C28.5933 122.269 28.304 121.723 28.108 121.088C27.9213 120.453 27.828 119.749 27.828 118.974C27.828 117.938 27.996 117.037 28.332 116.272C28.6773 115.507 29.1953 114.914 29.886 114.494C30.586 114.065 31.4726 113.85 32.546 113.85C33.6006 113.85 34.4733 114.065 35.164 114.494C35.8546 114.914 36.3726 115.511 36.718 116.286C37.0633 117.051 37.236 117.952 37.236 118.988ZM29.718 118.988C29.718 119.744 29.816 120.393 30.012 120.934C30.2173 121.475 30.5253 121.891 30.936 122.18C31.356 122.469 31.888 122.614 32.532 122.614C33.1946 122.614 33.7313 122.469 34.142 122.18C34.5526 121.891 34.856 121.475 35.052 120.934C35.248 120.393 35.346 119.744 35.346 118.988C35.346 117.859 35.1266 116.972 34.688 116.328C34.2493 115.684 33.5353 115.362 32.546 115.362C31.8926 115.362 31.356 115.507 30.936 115.796C30.5253 116.085 30.2173 116.501 30.012 117.042C29.816 117.583 29.718 118.232 29.718 118.988ZM47.8625 124H45.6365L40.9045 116.16H40.8485C40.8672 116.44 40.8812 116.734 40.8905 117.042C40.9092 117.35 40.9232 117.667 40.9325 117.994C40.9512 118.311 40.9652 118.633 40.9745 118.96V124H39.3645V114.004H41.5765L46.2945 121.788H46.3365C46.3272 121.545 46.3178 121.27 46.3085 120.962C46.2992 120.654 46.2852 120.341 46.2665 120.024C46.2572 119.697 46.2478 119.385 46.2385 119.086V114.004H47.8625V124ZM53.8541 124H49.6541V122.978L50.8581 122.53V115.488L49.6541 115.026V114.004H53.8541V115.026L52.6501 115.488V122.53L53.8541 122.978V124ZM59.2317 124H57.4397V115.516H54.5697V114.004H62.1017V115.516H59.2317V124ZM72.2906 118.988C72.2906 119.763 72.1926 120.467 71.9966 121.102C71.81 121.727 71.5206 122.269 71.1286 122.726C70.746 123.183 70.256 123.533 69.6586 123.776C69.0706 124.019 68.38 124.14 67.5866 124.14C66.784 124.14 66.084 124.019 65.4866 123.776C64.8986 123.524 64.4133 123.174 64.0306 122.726C63.648 122.269 63.3586 121.723 63.1626 121.088C62.976 120.453 62.8826 119.749 62.8826 118.974C62.8826 117.938 63.0506 117.037 63.3866 116.272C63.732 115.507 64.25 114.914 64.9406 114.494C65.6406 114.065 66.5273 113.85 67.6006 113.85C68.6553 113.85 69.528 114.065 70.2186 114.494C70.9093 114.914 71.4273 115.511 71.7726 116.286C72.118 117.051 72.2906 117.952 72.2906 118.988ZM64.7726 118.988C64.7726 119.744 64.8706 120.393 65.0666 120.934C65.272 121.475 65.58 121.891 65.9906 122.18C66.4106 122.469 66.9426 122.614 67.5866 122.614C68.2493 122.614 68.786 122.469 69.1966 122.18C69.6073 121.891 69.9106 121.475 70.1066 120.934C70.3026 120.393 70.4006 119.744 70.4006 118.988C70.4006 117.859 70.1813 116.972 69.7426 116.328C69.304 115.684 68.59 115.362 67.6006 115.362C66.9473 115.362 66.4106 115.507 65.9906 115.796C65.58 116.085 65.272 116.501 65.0666 117.042C64.8706 117.583 64.7726 118.232 64.7726 118.988ZM77.2612 114.004C78.1385 114.004 78.8619 114.111 79.4312 114.326C80.0005 114.541 80.4252 114.867 80.7052 115.306C80.9852 115.735 81.1252 116.281 81.1252 116.944C81.1252 117.429 81.0319 117.845 80.8452 118.19C80.6679 118.535 80.4345 118.825 80.1452 119.058C79.8559 119.282 79.5432 119.464 79.2072 119.604L82.0772 124H80.0612L77.6672 120.052H76.2112V124H74.4192V114.004H77.2612ZM77.1492 115.502H76.2112V118.582H77.2052C77.9425 118.582 78.4745 118.451 78.8012 118.19C79.1372 117.919 79.3052 117.523 79.3052 117C79.3052 116.636 79.2259 116.347 79.0672 116.132C78.9085 115.908 78.6705 115.749 78.3532 115.656C78.0452 115.553 77.6439 115.502 77.1492 115.502Z" fill="#221690"/>
</svg>
