<svg width="49" height="37" viewBox="0 0 49 37" fill="none" xmlns="http://www.w3.org/2000/svg">
<rect width="48" height="36.03" transform="translate(0.5)" fill="#F4F6F8"/>
<path d="M17.4091 34.5627C17.8944 33.6519 18.1483 32.6357 18.1483 31.6036C18.1483 30.5716 17.8944 29.5553 17.4091 28.6445H31.5909C31.1055 29.5553 30.8516 30.5716 30.8516 31.6036C30.8516 32.6357 31.1055 33.6519 31.5909 34.5627" fill="#1F157C"/>
<path d="M8.58638 34.3311H40.4137C40.8643 34.3311 41.2965 34.5101 41.6151 34.8287C41.9337 35.1473 42.1127 35.5795 42.1127 36.0301H6.88184C6.88184 35.5795 7.06085 35.1473 7.37949 34.8287C7.69813 34.5101 8.1303 34.3311 8.58093 34.3311H8.58638Z" fill="#DEE4F3"/>
<path d="M43.0455 0H5.95455C4.50924 0.00431653 3.12436 0.580381 2.10236 1.60237C1.08037 2.62436 0.504317 4.00924 0.5 5.45455V24.4091H48.5V5.45455C48.4957 4.00924 47.9196 2.62436 46.8976 1.60237C45.8757 0.580381 44.4908 0.00431653 43.0455 0Z" fill="#1F157C"/>
<path d="M5.95455 30.6627H43.0455C44.4875 30.6585 45.8695 30.085 46.8909 29.0672C47.9124 28.0493 48.4907 26.6693 48.5 25.2273H0.5C0.509339 26.6693 1.08761 28.0493 2.10906 29.0672C3.13052 30.085 4.51253 30.6585 5.95455 30.6627Z" fill="#DEE4F3"/>
<path d="M0.5 25.2083V25.2274H48.5C48.5 25.2274 48.5 25.2137 48.5 25.2083V24.4092H0.5V25.2083Z" fill="#DEE4F3"/>
<path d="M26.2973 7.63647V8.60738C26.2973 10.9328 26.2973 13.2592 26.2973 15.5865C26.3135 15.9779 26.2897 16.3699 26.2264 16.7565C25.9755 17.9483 25.2228 18.7583 24.1182 19.2547C23.7896 19.3939 23.4526 19.5123 23.1091 19.6092C22.9046 19.6719 22.7873 19.5928 22.7409 19.3828C22.7265 19.3037 22.7201 19.2233 22.7219 19.1428C22.7219 17.0701 22.7219 15.0001 22.7219 12.9274C22.7134 12.3433 22.8325 11.7643 23.0709 11.231C23.5805 10.0593 24.3412 9.01379 25.2991 8.1683C25.5752 7.90061 25.9212 7.71627 26.2973 7.63647Z" fill="#DEE4F3"/>
<path d="M22.7 5.44897L22.7299 10.2135C23.2675 9.501 23.9335 8.89516 24.6936 8.42717C25.1955 8.11937 25.7331 7.87391 26.2945 7.69625V5.44897H22.7Z" fill="#FDAF17"/>
</svg>
