<svg width="49" height="48" viewBox="0 0 49 48" fill="none" xmlns="http://www.w3.org/2000/svg">
<path d="M48.0696 26.0195C48.0639 26.2642 47.964 26.4973 47.7906 26.6701C47.6172 26.8429 47.3837 26.9421 47.139 26.9469C46.9163 26.9134 46.7128 26.8019 46.5648 26.6322C46.4168 26.4626 46.3338 26.2458 46.3308 26.0207C46.3277 25.7956 46.4048 25.5767 46.5482 25.4031C46.6916 25.2295 46.892 25.1125 47.1136 25.073C47.2386 25.0722 47.3625 25.096 47.4782 25.1432C47.594 25.1903 47.6993 25.2599 47.7881 25.3478C47.8769 25.4357 47.9475 25.5403 47.9958 25.6556C48.0441 25.7708 48.0692 25.8945 48.0696 26.0195Z" fill="#1F157C"/>
<path d="M47.0376 14.5703C48.1399 12.7342 48.605 10.5855 48.3607 8.45796C47.8353 3.75102 43.7836 0.0189923 39.0513 0C35.351 0 32.5053 1.5827 30.5522 4.74809C30.1692 5.38117 29.8147 6.01424 29.438 6.64732L28.8999 6.41309C26.5428 5.32715 23.9273 4.92783 21.3536 5.26092C16.5549 5.894 12.8925 8.31232 10.4488 12.5033C7.79622 17.0488 5.17212 21.6133 2.53534 26.1651C1.80115 27.402 1.25395 28.7407 0.911497 30.1377C0.740566 30.8626 0.636112 31.6033 0.5 32.3345V34.68C0.651939 35.4904 0.769059 36.3071 0.965313 37.1047C1.68776 39.9707 3.2739 42.5453 5.50876 44.4795C7.74362 46.4137 10.5191 47.614 13.4591 47.9177C13.5811 47.9373 13.7016 47.9648 13.82 48H16.0737C16.1594 47.9684 16.2472 47.943 16.3365 47.924C21.2112 47.3606 24.9526 44.9992 27.447 40.7766C30.1903 36.153 32.8841 31.5104 35.5282 26.8489C37.2572 23.8813 37.868 20.3933 37.2503 17.0149C36.6327 13.6364 34.8273 10.5902 32.1602 8.42631C31.8152 8.14142 31.448 7.88186 31.0745 7.59381C31.524 6.83095 31.9355 6.0744 32.4008 5.35586C33.3071 3.97191 34.6346 2.91626 36.1871 2.34495C37.7396 1.77364 39.4347 1.717 41.0219 2.18336C42.6091 2.64971 44.0041 3.61435 45.0007 4.93468C45.9974 6.25501 46.5429 7.86096 46.5564 9.51519C46.5534 10.9749 46.1529 12.4062 45.3979 13.6555C42.5491 18.5555 39.7076 23.4619 36.8735 28.3746C36.5718 28.8681 36.3719 29.417 36.2857 29.9889C36.1994 30.5609 36.2286 31.1443 36.3713 31.7048C36.5141 32.2653 36.7677 32.7915 37.117 33.2525C37.4664 33.7135 37.9045 34.0998 38.4056 34.3888C40.501 35.6075 43.1125 34.8637 44.3881 32.6795C44.8693 31.8597 45.3378 31.0335 45.8221 30.2073C46.0247 29.856 46.2367 29.5078 46.433 29.1533C46.7495 28.5962 46.6166 28.0422 46.1165 27.7668C45.6163 27.4915 45.1162 27.6687 44.7775 28.2258C44.6794 28.3872 44.5876 28.5424 44.4926 28.7133C43.8754 29.78 43.2739 30.8563 42.6314 31.9103C42.3892 32.3052 42.0398 32.6232 41.6239 32.8271C41.2079 33.031 40.7426 33.1125 40.2821 33.0621C39.8216 33.0117 39.3849 32.8314 39.023 32.5423C38.661 32.2532 38.3887 31.8671 38.2378 31.4292C38.1136 31.0571 38.0776 30.6613 38.1325 30.273C38.1875 29.8846 38.3319 29.5143 38.5543 29.1913C41.3821 24.3271 44.2098 19.4534 47.0376 14.5703ZM18.4699 7.92298C20.0152 7.31677 21.666 7.02522 23.3255 7.06545C24.985 7.10567 26.6197 7.47685 28.1339 8.15722L28.4821 8.325C27.8806 9.36641 27.3077 10.3698 26.7158 11.3574C26.6714 11.4122 26.6155 11.4565 26.552 11.4872C26.4885 11.5178 26.4191 11.5341 26.3486 11.5347C25.0318 11.4777 24.117 12.0697 23.4997 13.1997C22.8825 14.3298 22.2589 15.3648 21.629 16.4411C21.3192 16.9125 21.1575 17.4659 21.1649 18.0301C21.1722 18.5942 21.3482 19.1432 21.6701 19.6065C21.7055 19.6672 21.7272 19.7349 21.7337 19.8049C21.7403 19.8748 21.7316 19.9454 21.7081 20.0116C21.3916 20.6257 21.0181 21.2271 20.6477 21.8665L10.6103 16.1214C12.3386 12.516 14.5227 9.37276 18.4573 7.91035L18.4699 7.92298ZM26.9184 14.7476C26.6904 15.2066 26.4151 15.6434 26.1555 16.0897C25.7123 16.8589 25.2913 17.6439 24.8039 18.3846C24.6255 18.6035 24.4114 18.7908 24.1708 18.9386C23.3256 18.9196 22.8287 18.2422 23.1325 17.6724C23.8353 16.3556 24.5981 15.0673 25.3705 13.7853C25.4344 13.6903 25.5165 13.609 25.6121 13.546C25.7077 13.483 25.8149 13.4397 25.9274 13.4185C26.0399 13.3973 26.1555 13.3986 26.2675 13.4225C26.3794 13.4463 26.4856 13.4922 26.5797 13.5574C26.7696 13.679 26.9079 13.8664 26.9681 14.0838C27.0283 14.3011 27.006 14.533 26.9057 14.7349L26.9184 14.7476ZM35.4807 18.0522C35.8621 20.8812 35.2514 23.7549 33.7524 26.1841C33.2745 26.9882 32.8028 27.7985 32.3217 28.6405L22.2716 22.8193C22.6419 22.1863 22.9838 21.5532 23.3541 20.9707C23.4037 20.92 23.4635 20.8806 23.5295 20.8549C23.5956 20.8293 23.6664 20.818 23.7371 20.822C24.2948 20.8636 24.8523 20.7403 25.3403 20.4673C25.8284 20.1943 26.2252 19.7837 26.4815 19.2867C27.1336 18.1472 27.7952 17.014 28.4536 15.8808C28.7566 15.411 28.9135 14.862 28.9044 14.3031C28.8954 13.7442 28.7209 13.2004 28.4029 12.7407C28.366 12.6813 28.3423 12.6147 28.3335 12.5453C28.3248 12.4759 28.3312 12.4054 28.3523 12.3387C28.922 11.3195 29.5108 10.3129 30.1249 9.25564C33.189 11.4524 34.9743 14.3646 35.4681 18.0396L35.4807 18.0522Z" fill="#1F157C"/>
<path d="M28.4725 8.31235C27.8679 9.35376 27.295 10.354 26.703 11.3416C26.6589 11.3969 26.603 11.4416 26.5396 11.4728C26.4761 11.504 26.4066 11.5208 26.3359 11.5221C25.0191 11.4651 24.1043 12.057 23.487 13.1839C22.8698 14.3108 22.243 15.3522 21.6131 16.4284C21.3033 16.8999 21.1417 17.4533 21.149 18.0174C21.1563 18.5815 21.3323 19.1305 21.6542 19.5938C21.6895 19.654 21.7112 19.7212 21.7178 19.7906C21.7243 19.86 21.7156 19.9301 21.6922 19.9958C21.3757 20.6131 21.0022 21.2145 20.6318 21.8507L10.5975 16.1087C12.348 12.5002 14.5321 9.36011 18.4667 7.8977C20.0116 7.29029 21.6624 6.99781 23.322 7.03749C24.9816 7.07718 26.6165 7.44821 28.1306 8.12877C28.2193 8.18574 28.3174 8.23638 28.4725 8.31235Z" fill="#DEE4F3"/>
<path d="M30.1122 9.23975C33.189 11.4555 34.9743 14.3614 35.4713 18.0395C35.8488 20.8677 35.2371 23.7394 33.7398 26.1683C33.2618 26.9723 32.7902 27.7826 32.309 28.6278L22.2589 22.8066C22.6293 22.1735 22.9711 21.5405 23.3415 20.9549C23.3913 20.9038 23.4517 20.8643 23.5184 20.8392C23.5851 20.814 23.6565 20.8038 23.7276 20.8093C24.2851 20.85 24.8422 20.7259 25.3296 20.4523C25.8171 20.1788 26.2133 19.7679 26.4689 19.2709C27.1209 18.1345 27.7825 17.0013 28.4409 15.8681C28.7439 15.3983 28.9008 14.8493 28.8918 14.2903C28.8828 13.7314 28.7082 13.1878 28.3903 12.728C28.3533 12.6686 28.3296 12.602 28.3209 12.5326C28.3121 12.4632 28.3185 12.3927 28.3396 12.326C28.9094 11.3067 29.5013 10.3002 30.1122 9.23975Z" fill="#DEE4F3"/>
<path d="M24.1456 18.9322C23.3004 18.91 22.8034 18.2326 23.1073 17.666C23.8132 16.3461 24.5729 15.0577 25.3452 13.7789C25.4092 13.684 25.4913 13.6027 25.5868 13.5397C25.6823 13.4767 25.7893 13.4331 25.9017 13.4116C26.0141 13.3902 26.1297 13.3912 26.2417 13.4145C26.3537 13.4379 26.46 13.4832 26.5544 13.5478C26.7511 13.6657 26.8963 13.8531 26.9614 14.0729C27.0264 14.2927 27.0066 14.529 26.9058 14.7349C26.6779 15.1939 26.4025 15.6307 26.1429 16.077C25.6998 16.8462 25.2788 17.6312 24.7913 18.3751C24.6091 18.5959 24.3907 18.7843 24.1456 18.9322Z" fill="#DEE4F3"/>
<path d="M17.8052 31.3532C17.6912 31.5526 17.5836 31.7394 17.4886 31.9261C16.7099 33.283 15.9313 34.642 15.1526 36.0031C15.0312 36.238 14.8858 36.4597 14.7189 36.6647C14.4651 36.9527 14.1434 37.1728 13.783 37.3049C13.4226 37.437 13.0349 37.477 12.6551 37.4212C12.4163 37.3924 12.1795 37.349 11.946 37.2914C11.8036 37.263 11.7624 37.1743 11.8068 37.0382C11.8237 36.9864 11.846 36.9366 11.8732 36.8894C12.5665 35.6771 13.2628 34.4711 13.9434 33.2524C14.1339 32.9073 14.3975 32.6081 14.7158 32.3756C15.404 31.8602 16.1972 31.5025 17.0392 31.3279C17.2918 31.264 17.5573 31.2727 17.8052 31.3532Z" fill="#DEE4F3"/>
<path d="M16.4315 28.8748L14.8488 31.6698C15.7716 31.2775 16.7929 31.1791 17.7736 31.3881L18.5238 30.0744L16.4315 28.8748Z" fill="#FDAF17"/>
</svg>
