<svg width="97" height="128" viewBox="0 0 97 128" fill="none" xmlns="http://www.w3.org/2000/svg">
<rect x="0.5" width="96" height="96" rx="48" fill="#F4F6F8"/>
<path d="M72.0696 50.0195C72.0639 50.2642 71.964 50.4973 71.7906 50.6701C71.6172 50.8429 71.3837 50.9421 71.139 50.9469C70.9163 50.9134 70.7128 50.8019 70.5648 50.6322C70.4168 50.4626 70.3338 50.2458 70.3308 50.0207C70.3277 49.7956 70.4048 49.5767 70.5482 49.4031C70.6916 49.2295 70.892 49.1125 71.1136 49.073C71.2386 49.0722 71.3625 49.096 71.4782 49.1432C71.594 49.1903 71.6993 49.2599 71.7881 49.3478C71.8769 49.4357 71.9475 49.5403 71.9958 49.6556C72.0441 49.7708 72.0692 49.8945 72.0696 50.0195Z" fill="#1F157C"/>
<path d="M71.0376 38.5703C72.1399 36.7342 72.605 34.5855 72.3607 32.458C71.8353 27.751 67.7836 24.019 63.0513 24C59.351 24 56.5053 25.5827 54.5522 28.7481C54.1692 29.3812 53.8147 30.0142 53.438 30.6473L52.8999 30.4131C50.5428 29.3271 47.9273 28.9278 45.3536 29.2609C40.5549 29.894 36.8925 32.3123 34.4488 36.5033C31.7962 41.0488 29.1721 45.6133 26.5353 50.1651C25.8012 51.402 25.2539 52.7407 24.9115 54.1377C24.7406 54.8626 24.6361 55.6033 24.5 56.3345V58.68C24.6519 59.4904 24.7691 60.3071 24.9653 61.1047C25.6878 63.9707 27.2739 66.5453 29.5088 68.4795C31.7436 70.4137 34.5191 71.614 37.4591 71.9177C37.5811 71.9373 37.7016 71.9648 37.82 72H40.0737C40.1594 71.9684 40.2472 71.943 40.3365 71.924C45.2112 71.3606 48.9526 68.9992 51.447 64.7766C54.1903 60.153 56.8841 55.5104 59.5282 50.8489C61.2572 47.8813 61.868 44.3933 61.2503 41.0149C60.6327 37.6364 58.8273 34.5902 56.1602 32.4263C55.8152 32.1414 55.448 31.8819 55.0745 31.5938C55.524 30.831 55.9355 30.0744 56.4008 29.3559C57.3071 27.9719 58.6346 26.9163 60.1871 26.3449C61.7396 25.7736 63.4347 25.717 65.0219 26.1834C66.6091 26.6497 68.0041 27.6143 69.0007 28.9347C69.9974 30.255 70.5429 31.861 70.5564 33.5152C70.5534 34.9749 70.1529 36.4062 69.3979 37.6555C66.5491 42.5555 63.7076 47.4619 60.8735 52.3746C60.5718 52.8681 60.3719 53.417 60.2857 53.9889C60.1994 54.5609 60.2286 55.1443 60.3713 55.7048C60.5141 56.2653 60.7677 56.7915 61.117 57.2525C61.4664 57.7135 61.9045 58.0998 62.4056 58.3888C64.501 59.6075 67.1125 58.8637 68.3881 56.6795C68.8693 55.8597 69.3378 55.0335 69.8221 54.2073C70.0247 53.856 70.2367 53.5078 70.433 53.1533C70.7495 52.5962 70.6166 52.0422 70.1165 51.7668C69.6163 51.4915 69.1162 51.6687 68.7775 52.2258C68.6794 52.3872 68.5876 52.5424 68.4926 52.7133C67.8754 53.78 67.2739 54.8563 66.6314 55.9103C66.3892 56.3052 66.0398 56.6232 65.6239 56.8271C65.2079 57.031 64.7426 57.1125 64.2821 57.0621C63.8216 57.0117 63.3849 56.8314 63.023 56.5423C62.661 56.2532 62.3887 55.8671 62.2378 55.4292C62.1136 55.0571 62.0776 54.6613 62.1325 54.273C62.1875 53.8846 62.3319 53.5143 62.5543 53.1913C65.3821 48.3271 68.2098 43.4534 71.0376 38.5703ZM42.4699 31.923C44.0152 31.3168 45.666 31.0252 47.3255 31.0654C48.985 31.1057 50.6197 31.4768 52.1339 32.1572L52.4821 32.325C51.8806 33.3664 51.3077 34.3698 50.7158 35.3574C50.6714 35.4122 50.6155 35.4565 50.552 35.4872C50.4885 35.5178 50.4191 35.5341 50.3486 35.5347C49.0318 35.4777 48.117 36.0697 47.4997 37.1997C46.8825 38.3298 46.2589 39.3648 45.629 40.4411C45.3192 40.9125 45.1575 41.4659 45.1649 42.0301C45.1722 42.5942 45.3482 43.1432 45.6701 43.6065C45.7055 43.6672 45.7272 43.7349 45.7337 43.8049C45.7403 43.8748 45.7316 43.9454 45.7081 44.0116C45.3916 44.6257 45.0181 45.2271 44.6477 45.8665L34.6103 40.1214C36.3386 36.516 38.5227 33.3728 42.4573 31.9103L42.4699 31.923ZM50.9184 38.7476C50.6904 39.2066 50.4151 39.6434 50.1555 40.0897C49.7123 40.8589 49.2913 41.6439 48.8039 42.3846C48.6255 42.6035 48.4114 42.7908 48.1708 42.9386C47.3256 42.9196 46.8287 42.2422 47.1325 41.6724C47.8353 40.3556 48.5981 39.0673 49.3705 37.7853C49.4344 37.6903 49.5165 37.609 49.6121 37.546C49.7077 37.483 49.8149 37.4397 49.9274 37.4185C50.0399 37.3973 50.1555 37.3986 50.2675 37.4225C50.3794 37.4463 50.4856 37.4922 50.5797 37.5574C50.7696 37.679 50.9079 37.8664 50.9681 38.0838C51.0283 38.3011 51.006 38.533 50.9057 38.7349L50.9184 38.7476ZM59.4807 42.0522C59.8621 44.8812 59.2514 47.7549 57.7524 50.1841C57.2745 50.9882 56.8028 51.7985 56.3217 52.6405L46.2716 46.8193C46.6419 46.1863 46.9838 45.5532 47.3541 44.9707C47.4037 44.92 47.4635 44.8806 47.5295 44.8549C47.5956 44.8293 47.6664 44.818 47.7371 44.822C48.2948 44.8636 48.8523 44.7403 49.3403 44.4673C49.8284 44.1943 50.2252 43.7837 50.4815 43.2867C51.1336 42.1472 51.7952 41.014 52.4536 39.8808C52.7566 39.411 52.9135 38.862 52.9044 38.3031C52.8954 37.7442 52.7209 37.2004 52.4029 36.7407C52.366 36.6813 52.3423 36.6147 52.3335 36.5453C52.3248 36.4759 52.3312 36.4054 52.3523 36.3387C52.922 35.3195 53.5108 34.3129 54.1249 33.2556C57.189 35.4524 58.9743 38.3646 59.4681 42.0396L59.4807 42.0522Z" fill="#1F157C"/>
<path d="M52.4725 32.3123C51.8679 33.3538 51.295 34.354 50.703 35.3416C50.6589 35.3969 50.603 35.4416 50.5396 35.4728C50.4761 35.504 50.4066 35.5208 50.3359 35.5221C49.0191 35.4651 48.1043 36.057 47.487 37.1839C46.8698 38.3108 46.243 39.3522 45.6131 40.4284C45.3033 40.8999 45.1417 41.4533 45.149 42.0174C45.1563 42.5815 45.3323 43.1305 45.6542 43.5938C45.6895 43.654 45.7112 43.7212 45.7178 43.7906C45.7243 43.86 45.7156 43.9301 45.6922 43.9958C45.3757 44.6131 45.0022 45.2145 44.6318 45.8507L34.5975 40.1087C36.348 36.5002 38.5321 33.3601 42.4667 31.8977C44.0116 31.2903 45.6624 30.9978 47.322 31.0375C48.9816 31.0772 50.6165 31.4482 52.1306 32.1288C52.2193 32.1857 52.3174 32.2364 52.4725 32.3123Z" fill="#DEE4F3"/>
<path d="M54.1122 33.2397C57.189 35.4555 58.9743 38.3614 59.4713 42.0395C59.8488 44.8677 59.2371 47.7394 57.7398 50.1683C57.2618 50.9723 56.7902 51.7826 56.309 52.6278L46.2589 46.8066C46.6293 46.1735 46.9711 45.5405 47.3415 44.9549C47.3913 44.9038 47.4517 44.8643 47.5184 44.8392C47.5851 44.814 47.6565 44.8038 47.7276 44.8093C48.2851 44.85 48.8422 44.7259 49.3296 44.4523C49.8171 44.1788 50.2133 43.7679 50.4689 43.2709C51.1209 42.1345 51.7825 41.0013 52.4409 39.8681C52.7439 39.3983 52.9008 38.8493 52.8918 38.2903C52.8828 37.7314 52.7082 37.1878 52.3903 36.728C52.3533 36.6686 52.3296 36.602 52.3209 36.5326C52.3121 36.4632 52.3185 36.3927 52.3396 36.326C52.9094 35.3067 53.5013 34.3002 54.1122 33.2397Z" fill="#DEE4F3"/>
<path d="M48.1456 42.9322C47.3004 42.91 46.8034 42.2326 47.1073 41.666C47.8132 40.3461 48.5729 39.0577 49.3452 37.7789C49.4092 37.684 49.4913 37.6027 49.5868 37.5397C49.6823 37.4767 49.7893 37.4331 49.9017 37.4116C50.0141 37.3902 50.1297 37.3912 50.2417 37.4145C50.3537 37.4379 50.46 37.4832 50.5544 37.5478C50.7511 37.6657 50.8963 37.8531 50.9614 38.0729C51.0264 38.2927 51.0066 38.529 50.9058 38.7349C50.6779 39.1939 50.4025 39.6307 50.1429 40.077C49.6998 40.8462 49.2788 41.6312 48.7913 42.3751C48.6091 42.5959 48.3907 42.7843 48.1456 42.9322Z" fill="#DEE4F3"/>
<path d="M41.8052 55.3532C41.6912 55.5526 41.5836 55.7394 41.4886 55.9261C40.7099 57.283 39.9313 58.642 39.1526 60.0031C39.0312 60.238 38.8858 60.4597 38.7189 60.6647C38.4651 60.9527 38.1434 61.1728 37.783 61.3049C37.4226 61.437 37.0349 61.477 36.6551 61.4212C36.4163 61.3924 36.1795 61.349 35.946 61.2914C35.8036 61.263 35.7624 61.1743 35.8068 61.0382C35.8237 60.9864 35.846 60.9366 35.8732 60.8894C36.5665 59.6771 37.2628 58.4711 37.9434 57.2524C38.1339 56.9073 38.3975 56.6081 38.7158 56.3756C39.404 55.8602 40.1972 55.5025 41.0392 55.3279C41.2918 55.264 41.5573 55.2727 41.8052 55.3532Z" fill="#DEE4F3"/>
<path d="M40.4315 52.8748L38.8488 55.6698C39.7716 55.2775 40.7929 55.1791 41.7736 55.3881L42.5238 54.0744L40.4315 52.8748Z" fill="#FDAF17"/>
<path d="M28.6 124L25.856 115.81H25.8C25.8093 115.997 25.8233 116.263 25.842 116.608C25.8607 116.944 25.8747 117.313 25.884 117.714C25.9027 118.106 25.912 118.475 25.912 118.82V124H24.302V114.004H26.794L29.426 121.858H29.482L32.226 114.004H34.718V124H33.01V118.736C33.01 118.419 33.0147 118.073 33.024 117.7C33.0427 117.317 33.0567 116.958 33.066 116.622C33.0847 116.277 33.0987 116.011 33.108 115.824H33.052L30.196 124H28.6ZM46.236 118.988C46.236 119.763 46.138 120.467 45.942 121.102C45.7553 121.727 45.466 122.269 45.074 122.726C44.6913 123.183 44.2013 123.533 43.604 123.776C43.016 124.019 42.3253 124.14 41.532 124.14C40.7293 124.14 40.0293 124.019 39.432 123.776C38.844 123.524 38.3586 123.174 37.976 122.726C37.5933 122.269 37.304 121.723 37.108 121.088C36.9213 120.453 36.828 119.749 36.828 118.974C36.828 117.938 36.996 117.037 37.332 116.272C37.6773 115.507 38.1953 114.914 38.886 114.494C39.586 114.065 40.4726 113.85 41.546 113.85C42.6006 113.85 43.4733 114.065 44.164 114.494C44.8546 114.914 45.3726 115.511 45.718 116.286C46.0633 117.051 46.236 117.952 46.236 118.988ZM38.718 118.988C38.718 119.744 38.816 120.393 39.012 120.934C39.2173 121.475 39.5253 121.891 39.936 122.18C40.356 122.469 40.888 122.614 41.532 122.614C42.1946 122.614 42.7313 122.469 43.142 122.18C43.5526 121.891 43.856 121.475 44.052 120.934C44.248 120.393 44.346 119.744 44.346 118.988C44.346 117.859 44.1266 116.972 43.688 116.328C43.2493 115.684 42.5353 115.362 41.546 115.362C40.8926 115.362 40.356 115.507 39.936 115.796C39.5253 116.085 39.2173 116.501 39.012 117.042C38.816 117.583 38.718 118.232 38.718 118.988ZM56.2885 120.472C56.2885 121.163 56.1392 121.788 55.8405 122.348C55.5512 122.899 55.1078 123.337 54.5105 123.664C53.9132 123.981 53.1572 124.14 52.2425 124.14C50.9452 124.14 49.9605 123.804 49.2885 123.132C48.6165 122.451 48.2805 121.555 48.2805 120.444V114.004H50.0725V120.262C50.0725 121.074 50.2592 121.671 50.6325 122.054C51.0058 122.427 51.5612 122.614 52.2985 122.614C52.8212 122.614 53.2412 122.525 53.5585 122.348C53.8852 122.171 54.1232 121.905 54.2725 121.55C54.4312 121.186 54.5105 120.752 54.5105 120.248V114.004H56.2885V120.472ZM64.6335 121.27C64.6335 121.858 64.4888 122.367 64.1995 122.796C63.9102 123.225 63.4902 123.557 62.9395 123.79C62.3982 124.023 61.7495 124.14 60.9935 124.14C60.6295 124.14 60.2795 124.117 59.9435 124.07C59.6168 124.033 59.3042 123.972 59.0055 123.888C58.7162 123.804 58.4455 123.701 58.1935 123.58V121.9C58.6135 122.087 59.0755 122.259 59.5795 122.418C60.0835 122.567 60.5968 122.642 61.1195 122.642C61.5208 122.642 61.8475 122.591 62.0995 122.488C62.3608 122.376 62.5522 122.227 62.6735 122.04C62.7948 121.844 62.8555 121.62 62.8555 121.368C62.8555 121.088 62.7762 120.85 62.6175 120.654C62.4588 120.458 62.2255 120.276 61.9175 120.108C61.6095 119.94 61.2268 119.763 60.7695 119.576C60.4615 119.445 60.1582 119.301 59.8595 119.142C59.5702 118.974 59.3088 118.773 59.0755 118.54C58.8422 118.307 58.6555 118.031 58.5155 117.714C58.3755 117.397 58.3055 117.023 58.3055 116.594C58.3055 116.025 58.4408 115.535 58.7115 115.124C58.9915 114.713 59.3788 114.401 59.8735 114.186C60.3775 113.971 60.9608 113.864 61.6235 113.864C62.1555 113.864 62.6548 113.92 63.1215 114.032C63.5882 114.144 64.0502 114.303 64.5075 114.508L63.9335 115.95C63.5228 115.773 63.1262 115.633 62.7435 115.53C62.3608 115.427 61.9688 115.376 61.5675 115.376C61.2502 115.376 60.9795 115.427 60.7555 115.53C60.5315 115.623 60.3635 115.759 60.2515 115.936C60.1395 116.113 60.0835 116.319 60.0835 116.552C60.0835 116.823 60.1535 117.051 60.2935 117.238C60.4335 117.425 60.6482 117.602 60.9375 117.77C61.2362 117.929 61.6188 118.111 62.0855 118.316C62.6268 118.549 63.0842 118.792 63.4575 119.044C63.8308 119.296 64.1202 119.599 64.3255 119.954C64.5308 120.309 64.6335 120.747 64.6335 121.27ZM72.2048 124H66.5208V114.004H72.2048V115.502H68.3128V118.05H71.9528V119.548H68.3128V122.488H72.2048V124Z" fill="#221690"/>
</svg>
