<svg width="106" height="128" viewBox="0 0 106 128" fill="none" xmlns="http://www.w3.org/2000/svg">
<rect x="5" width="96" height="96" rx="48" fill="#F4F6F8"/>
<path d="M72.9201 31.5779C72.9201 28.5105 70.5781 26 67.7144 26H39.7301C36.8664 26 34.5244 28.5105 34.5244 31.5779C34.5244 31.6594 34.5244 31.7409 34.5244 31.8197C34.5407 32.2408 34.5407 32.6592 34.5244 33.0776C34.5244 33.1591 34.5244 33.2406 34.5244 33.3221C34.5244 33.4036 34.5244 33.4852 34.5244 33.5667C34.5407 33.9851 34.5407 34.4062 34.5244 34.8246C34.5244 34.9061 34.5244 34.9876 34.5244 35.0691C34.5244 35.1506 34.5244 35.2321 34.5244 35.3136C34.5407 35.732 34.5407 36.1505 34.5244 36.5716C34.5244 36.6504 34.5244 36.7319 34.5244 36.8161C34.5244 36.8976 34.5244 36.9791 34.5244 37.0579C34.5407 37.479 34.5407 37.8974 34.5244 38.3158C34.5244 38.3974 34.5244 38.4789 34.5244 38.5604C34.5244 38.6419 34.5244 38.7234 34.5244 38.8049C34.5407 39.2233 34.5407 39.6444 34.5244 40.0628C34.5244 40.1443 34.5244 40.2259 34.5244 40.3074C34.5244 40.3889 34.5244 40.4704 34.5244 40.5519C34.5407 40.9703 34.5407 41.3887 34.5244 41.8098C34.5244 41.8886 34.5244 41.9701 34.5244 42.0516C34.5244 42.1358 34.5244 42.2174 34.5244 42.2962C34.5407 42.7173 34.5407 43.1357 34.5244 43.5541C34.5244 43.6356 34.5244 43.7171 34.5244 43.7986C34.5244 43.8801 34.5244 43.9616 34.5244 44.0431C34.5407 44.4615 34.5407 44.8827 34.5244 45.3011C34.5244 45.3826 34.5244 45.4641 34.5244 45.5456C34.5244 45.6271 34.5244 45.7086 34.5244 45.7901C34.5407 46.2085 34.5407 46.6269 34.5244 47.0481C34.5244 47.1269 34.5244 47.2084 34.5244 47.2899C34.5244 47.3741 34.5244 47.4529 34.5244 47.5344C34.5407 47.9555 34.5407 48.3739 34.5244 48.7923C34.5244 48.8738 34.5244 48.9553 34.5244 49.0369C34.5244 49.1184 34.5244 49.1999 34.5244 49.2814C34.5407 49.6998 34.5407 50.1209 34.5244 50.5393C34.5244 50.6208 34.5244 50.7023 34.5244 50.7838C34.5244 50.8653 34.5244 50.9469 34.5244 51.0284C34.5407 51.4468 34.5407 51.8652 34.5244 52.2836C34.5244 52.3651 34.5244 52.4466 34.5244 52.5281C34.5244 52.6096 34.5244 52.6911 34.5244 52.7726C34.5407 53.191 34.5407 53.6122 34.5244 54.0306C34.5244 54.1121 34.5244 54.1936 34.5244 54.2751C34.5244 54.3566 34.5244 54.4381 34.5244 54.5196C34.5407 54.938 34.5407 55.3564 34.5244 55.7776C34.5244 55.8591 34.5244 55.9378 34.5244 56.0221C34.5244 56.1036 34.5244 56.1851 34.5244 56.2639C34.5407 56.685 34.5407 57.1034 34.5244 57.5218C34.5244 57.6033 34.5244 57.6848 34.5244 57.7663C34.5244 57.8479 34.5244 57.9294 34.5244 58.0109C34.5407 58.4293 34.5407 58.8504 34.5244 59.2688C34.5244 59.3503 34.5244 59.4318 34.5244 59.5133C34.5244 59.5948 34.5244 59.6763 34.5244 59.7578C34.5407 60.1763 34.5407 60.5947 34.5244 61.0158C34.5244 61.0946 34.5244 61.1761 34.5244 61.2603C34.5244 61.3418 34.5244 61.4233 34.5244 61.5021C34.5407 61.9233 34.5407 62.3417 34.5244 62.7601C34.5244 62.8416 34.5244 62.9231 34.5244 63.0046C34.5244 63.0861 34.5244 63.1676 34.5244 63.2491C34.5407 63.6675 34.5407 64.0886 34.5244 64.507C34.5244 64.5886 34.5244 64.6701 34.5244 64.7516C34.5244 64.8331 34.5244 64.9146 34.5244 64.9961C34.5407 65.4145 34.5407 65.8329 34.5244 66.254C34.5244 66.3328 34.5244 66.4143 34.5244 66.4958C34.5244 66.5801 34.5244 66.6616 34.5244 66.7404C34.5407 67.1615 34.5407 67.5799 34.5244 67.9983C34.5244 68.0798 34.5244 68.1613 34.5244 68.2428C34.5244 71.3102 36.8664 73.818 39.7301 73.818H67.7144C70.5781 73.818 72.9201 71.3102 72.9201 68.2428C72.9201 68.1613 72.9201 68.0798 72.9201 67.9983C72.901 67.5799 72.901 67.1615 72.9201 66.7404C72.9201 66.6616 72.9201 66.5801 72.9201 66.4958C72.9201 66.4143 72.9201 66.3328 72.9201 66.254C72.901 65.8329 72.901 65.4145 72.9201 64.9961C72.9201 64.9146 72.9201 64.8331 72.9201 64.7516C72.9201 64.6701 72.9201 64.5886 72.9201 64.507C72.901 64.0886 72.901 63.6675 72.9201 63.2491C72.9201 63.1676 72.9201 63.0861 72.9201 63.0046C72.9201 62.9231 72.9201 62.8416 72.9201 62.7601C72.901 62.3417 72.901 61.9233 72.9201 61.5021C72.9201 61.4233 72.9201 61.3418 72.9201 61.2603C72.9201 61.1761 72.9201 61.0973 72.9201 61.0158C72.901 60.5947 72.901 60.1763 72.9201 59.7578C72.9201 59.6763 72.9201 59.5948 72.9201 59.5133C72.9201 59.4318 72.9201 59.3503 72.9201 59.2688C72.901 58.8504 72.901 58.4293 72.9201 58.0109C72.9201 57.9294 72.9201 57.8479 72.9201 57.7663C72.9201 57.6848 72.9201 57.6033 72.9201 57.5218C72.901 57.1034 72.901 56.685 72.9201 56.2639C72.9201 56.1851 72.9201 56.1036 72.9201 56.0221C72.9201 55.9406 72.9201 55.8591 72.9201 55.7776C72.901 55.3564 72.901 54.938 72.9201 54.5196C72.9201 54.4381 72.9201 54.3566 72.9201 54.2751C72.9201 54.1936 72.9201 54.1121 72.9201 54.0306C72.901 53.6122 72.901 53.191 72.9201 52.7726C72.9201 52.6911 72.9201 52.6096 72.9201 52.5281C72.9201 52.4466 72.9201 52.3651 72.9201 52.2863C72.901 51.8652 72.901 51.4468 72.9201 51.0256C72.9201 50.9469 72.9201 50.8653 72.9201 50.7838C72.9201 50.7023 72.9201 50.6208 72.9201 50.5393C72.901 50.1209 72.901 49.6998 72.9201 49.2814C72.9201 49.1999 72.9201 49.1184 72.9201 49.0369C72.9201 48.9553 72.9201 48.8738 72.9201 48.7923C72.901 48.3739 72.901 47.9555 72.9201 47.5344C72.9201 47.4529 72.9201 47.3714 72.9201 47.2899C72.9201 47.2084 72.9201 47.1269 72.9201 47.0481C72.901 46.6269 72.901 46.2085 72.9201 45.7901C72.9201 45.7086 72.9201 45.6271 72.9201 45.5456C72.9201 45.4641 72.9201 45.3826 72.9201 45.3011C72.901 44.8827 72.901 44.4615 72.9201 44.0431C72.9201 43.9616 72.9201 43.8801 72.9201 43.7986C72.9201 43.7171 72.9201 43.6356 72.9201 43.5541C72.901 43.1357 72.901 42.7173 72.9201 42.2962C72.9201 42.2146 72.9201 42.1358 72.9201 42.0516C72.9201 41.9701 72.9201 41.8886 72.9201 41.8098C72.901 41.3887 72.901 40.9703 72.9201 40.5519C72.9201 40.4704 72.9201 40.3889 72.9201 40.3074C72.9201 40.2259 72.9201 40.1443 72.9201 40.0628C72.901 39.6444 72.901 39.2233 72.9201 38.8049C72.9201 38.7234 72.9201 38.6419 72.9201 38.5604C72.9201 38.4789 72.9201 38.3974 72.9201 38.3158C72.901 37.8974 72.901 37.479 72.9201 37.0579C72.9201 36.9791 72.9201 36.8976 72.9201 36.8161C72.9201 36.7319 72.9201 36.6504 72.9201 36.5716C72.901 36.1505 72.901 35.732 72.9201 35.3136C72.9201 35.2321 72.9201 35.1506 72.9201 35.0691C72.9201 34.9876 72.9201 34.9061 72.9201 34.8246C72.901 34.4062 72.901 33.9851 72.9201 33.5667C72.9201 33.4852 72.9201 33.4036 72.9201 33.3221C72.9201 33.2406 72.9201 33.1591 72.9201 33.0776C72.901 32.6592 72.901 32.2408 72.9201 31.8197C72.9201 31.7409 72.9201 31.6594 72.9201 31.5779Z" fill="#1F157C"/>
<path d="M68.1003 63.5698H39.3552C36.6737 63.5698 34.5 65.7435 34.5 68.425V69.145C34.5 71.8264 36.6737 74.0001 39.3552 74.0001H68.1003C70.7817 74.0001 72.9554 71.8264 72.9554 69.145V68.425C72.9554 65.7435 70.7817 63.5698 68.1003 63.5698Z" fill="#DEE4F3"/>
<path d="M59.7783 47.7708C59.776 48.6912 59.5524 49.5976 59.1263 50.4134C58.7001 51.2293 58.084 51.9306 57.3298 52.4583C56.5757 52.986 55.7057 53.3245 54.7932 53.4453C53.8808 53.5661 52.9527 53.4656 52.0872 53.1523C51.2217 52.8391 50.4443 52.3222 49.8205 51.6454C49.1968 50.9685 48.745 50.1516 48.5033 49.2635C48.2617 48.3753 48.2372 47.4421 48.4319 46.5425C48.6267 45.6429 49.035 44.8034 49.6224 44.0948C49.7021 43.997 49.7863 43.9019 49.8751 43.8095C50.3587 43.315 50.9428 43.2661 51.3857 43.6737C51.4865 43.768 51.567 43.882 51.6219 44.0086C51.6769 44.1353 51.7053 44.2719 51.7053 44.41C51.7053 44.548 51.6769 44.6846 51.6219 44.8113C51.567 44.938 51.4865 45.052 51.3857 45.1463C50.7071 45.8541 50.331 46.7984 50.337 47.779C50.3407 48.3684 50.4848 48.9486 50.7573 49.4713C51.0298 49.994 51.423 50.4443 51.9041 50.7848C52.3853 51.1254 52.9407 51.3464 53.5243 51.4296C54.1079 51.5129 54.7029 51.4559 55.2601 51.2634C55.8172 51.0709 56.3206 50.7484 56.7283 50.3227C57.1361 49.897 57.4366 49.3803 57.605 48.8154C57.7733 48.2505 57.8047 47.6535 57.6964 47.0741C57.5882 46.4946 57.3435 45.9492 56.9826 45.4832C56.8793 45.35 56.7571 45.2305 56.6538 45.0974C56.4739 44.9002 56.3785 44.6403 56.3881 44.3736C56.3978 44.1069 56.5117 43.8546 56.7054 43.671C56.8052 43.5755 56.9237 43.5019 57.0535 43.4547C57.1833 43.4076 57.3215 43.388 57.4592 43.3972C57.597 43.4064 57.7313 43.4442 57.8536 43.5082C57.976 43.5722 58.0837 43.6609 58.1699 43.7688C58.6906 44.2954 59.101 44.9206 59.3772 45.6078C59.6534 46.2949 59.7897 47.0303 59.7783 47.7708Z" fill="#DEE4F3"/>
<path d="M53.0321 45.0157C53.0321 44.1327 53.0321 43.247 53.0321 42.3613C53.0321 41.6603 53.4288 41.2202 54.0211 41.2066C54.6134 41.193 55.0481 41.6495 55.0535 42.3803C55.0535 44.13 55.0535 45.8797 55.0535 47.6294C55.0535 48.3766 54.6596 48.8113 54.032 48.8058C53.4044 48.8004 53.0376 48.3684 53.0321 47.6077C53.0267 46.7437 53.0321 45.8797 53.0321 45.0157Z" fill="#FDAF17"/>
<path d="M67.9834 71.3103C69.3789 71.3103 70.5102 70.1791 70.5102 68.7836C70.5102 67.3881 69.3789 66.2568 67.9834 66.2568C66.5879 66.2568 65.4567 67.3881 65.4567 68.7836C65.4567 70.1791 66.5879 71.3103 67.9834 71.3103Z" fill="#1F157C"/>
<path d="M45.8105 68.7834C45.8109 68.9084 45.7865 69.0322 45.7388 69.1478C45.6912 69.2633 45.6212 69.3683 45.5328 69.4567C45.4444 69.545 45.3394 69.6151 45.2239 69.6627C45.1084 69.7104 44.9846 69.7347 44.8596 69.7344H37.8934C37.6412 69.7344 37.3993 69.6342 37.221 69.4558C37.0426 69.2775 36.9424 69.0356 36.9424 68.7834C36.9424 68.5312 37.0426 68.2894 37.221 68.111C37.3993 67.9327 37.6412 67.8325 37.8934 67.8325H44.8596C45.1118 67.8325 45.3537 67.9327 45.532 68.111C45.7103 68.2894 45.8105 68.5312 45.8105 68.7834Z" fill="#1F157C"/>
<path d="M53.7576 69.7344H49.6034C49.3512 69.7344 49.1093 69.6342 48.931 69.4558C48.7527 69.2775 48.6525 69.0356 48.6525 68.7834C48.6525 68.5312 48.7527 68.2894 48.931 68.111C49.1093 67.9327 49.3512 67.8325 49.6034 67.8325H53.7576C54.0098 67.8325 54.2517 67.9327 54.43 68.111C54.6083 68.2894 54.7085 68.5312 54.7085 68.7834C54.7085 69.0356 54.6083 69.2775 54.43 69.4558C54.2517 69.6342 54.0098 69.7344 53.7576 69.7344Z" fill="#1F157C"/>
<path d="M4.784 114.004C6.08133 114.004 7.024 114.275 7.612 114.816C8.20933 115.357 8.508 116.104 8.508 117.056C8.508 117.485 8.44267 117.896 8.312 118.288C8.18133 118.671 7.962 119.016 7.654 119.324C7.346 119.632 6.94 119.875 6.436 120.052C5.94133 120.229 5.32533 120.318 4.588 120.318H3.594V124H1.802V114.004H4.784ZM4.672 115.488H3.594V118.834H4.406C4.89133 118.834 5.302 118.778 5.638 118.666C5.98333 118.545 6.24467 118.358 6.422 118.106C6.59933 117.854 6.688 117.527 6.688 117.126C6.688 116.575 6.52467 116.165 6.198 115.894C5.87133 115.623 5.36267 115.488 4.672 115.488ZM19.402 118.988C19.402 119.763 19.304 120.467 19.108 121.102C18.9213 121.727 18.632 122.269 18.24 122.726C17.8573 123.183 17.3673 123.533 16.77 123.776C16.182 124.019 15.4913 124.14 14.698 124.14C13.8953 124.14 13.1953 124.019 12.598 123.776C12.01 123.524 11.5246 123.174 11.142 122.726C10.7593 122.269 10.47 121.723 10.274 121.088C10.0873 120.453 9.99397 119.749 9.99397 118.974C9.99397 117.938 10.162 117.037 10.498 116.272C10.8433 115.507 11.3613 114.914 12.052 114.494C12.752 114.065 13.6386 113.85 14.712 113.85C15.7666 113.85 16.6393 114.065 17.33 114.494C18.0206 114.914 18.5386 115.511 18.884 116.286C19.2293 117.051 19.402 117.952 19.402 118.988ZM11.884 118.988C11.884 119.744 11.982 120.393 12.178 120.934C12.3833 121.475 12.6913 121.891 13.102 122.18C13.522 122.469 14.054 122.614 14.698 122.614C15.3606 122.614 15.8973 122.469 16.308 122.18C16.7186 121.891 17.022 121.475 17.218 120.934C17.414 120.393 17.512 119.744 17.512 118.988C17.512 117.859 17.2926 116.972 16.854 116.328C16.4153 115.684 15.7013 115.362 14.712 115.362C14.0586 115.362 13.522 115.507 13.102 115.796C12.6913 116.085 12.3833 116.501 12.178 117.042C11.982 117.583 11.884 118.232 11.884 118.988ZM33.3638 114.004L30.7738 124H28.7998L27.2178 118.26C27.1805 118.12 27.1385 117.947 27.0918 117.742C27.0451 117.537 26.9938 117.327 26.9378 117.112C26.8911 116.888 26.8491 116.683 26.8118 116.496C26.7745 116.3 26.7511 116.155 26.7418 116.062C26.7325 116.155 26.7091 116.3 26.6718 116.496C26.6345 116.683 26.5925 116.888 26.5458 117.112C26.4991 117.327 26.4525 117.541 26.4058 117.756C26.3591 117.961 26.3125 118.139 26.2658 118.288L24.7258 124H22.7378L20.1618 114.004H21.9538L23.3258 119.702C23.3725 119.889 23.4191 120.094 23.4658 120.318C23.5125 120.533 23.5591 120.757 23.6058 120.99C23.6525 121.214 23.6945 121.438 23.7318 121.662C23.7691 121.877 23.7971 122.068 23.8158 122.236C23.8345 122.059 23.8625 121.863 23.8998 121.648C23.9371 121.424 23.9791 121.2 24.0258 120.976C24.0725 120.743 24.1191 120.523 24.1658 120.318C24.2125 120.103 24.2591 119.921 24.3058 119.772L25.8738 114.004H27.6098L29.2058 119.786C29.2525 119.945 29.2991 120.131 29.3458 120.346C29.4018 120.551 29.4531 120.771 29.4998 121.004C29.5465 121.228 29.5838 121.447 29.6118 121.662C29.6491 121.877 29.6818 122.068 29.7098 122.236C29.7378 122.003 29.7751 121.737 29.8218 121.438C29.8778 121.139 29.9385 120.836 30.0038 120.528C30.0785 120.22 30.1438 119.945 30.1998 119.702L31.5718 114.004H33.3638ZM40.4215 124H34.7375V114.004H40.4215V115.502H36.5295V118.05H40.1695V119.548H36.5295V122.488H40.4215V124ZM45.3862 114.004C46.2635 114.004 46.9869 114.111 47.5562 114.326C48.1255 114.541 48.5502 114.867 48.8302 115.306C49.1102 115.735 49.2502 116.281 49.2502 116.944C49.2502 117.429 49.1569 117.845 48.9702 118.19C48.7929 118.535 48.5595 118.825 48.2702 119.058C47.9809 119.282 47.6682 119.464 47.3322 119.604L50.2022 124H48.1862L45.7922 120.052H44.3362V124H42.5442V114.004H45.3862ZM45.2742 115.502H44.3362V118.582H45.3302C46.0675 118.582 46.5995 118.451 46.9262 118.19C47.2622 117.919 47.4302 117.523 47.4302 117C47.4302 116.636 47.3509 116.347 47.1922 116.132C47.0335 115.908 46.7955 115.749 46.4782 115.656C46.1702 115.553 45.7689 115.502 45.2742 115.502ZM61.0417 121.27C61.0417 121.858 60.897 122.367 60.6077 122.796C60.3184 123.225 59.8984 123.557 59.3477 123.79C58.8064 124.023 58.1577 124.14 57.4017 124.14C57.0377 124.14 56.6877 124.117 56.3517 124.07C56.025 124.033 55.7124 123.972 55.4137 123.888C55.1244 123.804 54.8537 123.701 54.6017 123.58V121.9C55.0217 122.087 55.4837 122.259 55.9877 122.418C56.4917 122.567 57.005 122.642 57.5277 122.642C57.929 122.642 58.2557 122.591 58.5077 122.488C58.769 122.376 58.9604 122.227 59.0817 122.04C59.203 121.844 59.2637 121.62 59.2637 121.368C59.2637 121.088 59.1844 120.85 59.0257 120.654C58.867 120.458 58.6337 120.276 58.3257 120.108C58.0177 119.94 57.635 119.763 57.1777 119.576C56.8697 119.445 56.5664 119.301 56.2677 119.142C55.9784 118.974 55.717 118.773 55.4837 118.54C55.2504 118.307 55.0637 118.031 54.9237 117.714C54.7837 117.397 54.7137 117.023 54.7137 116.594C54.7137 116.025 54.849 115.535 55.1197 115.124C55.3997 114.713 55.787 114.401 56.2817 114.186C56.7857 113.971 57.369 113.864 58.0317 113.864C58.5637 113.864 59.063 113.92 59.5297 114.032C59.9964 114.144 60.4584 114.303 60.9157 114.508L60.3417 115.95C59.931 115.773 59.5344 115.633 59.1517 115.53C58.769 115.427 58.377 115.376 57.9757 115.376C57.6584 115.376 57.3877 115.427 57.1637 115.53C56.9397 115.623 56.7717 115.759 56.6597 115.936C56.5477 116.113 56.4917 116.319 56.4917 116.552C56.4917 116.823 56.5617 117.051 56.7017 117.238C56.8417 117.425 57.0564 117.602 57.3457 117.77C57.6444 117.929 58.027 118.111 58.4937 118.316C59.035 118.549 59.4924 118.792 59.8657 119.044C60.239 119.296 60.5284 119.599 60.7337 119.954C60.939 120.309 61.0417 120.747 61.0417 121.27ZM70.853 120.472C70.853 121.163 70.7036 121.788 70.405 122.348C70.1156 122.899 69.6723 123.337 69.075 123.664C68.4776 123.981 67.7216 124.14 66.807 124.14C65.5096 124.14 64.525 123.804 63.853 123.132C63.181 122.451 62.845 121.555 62.845 120.444V114.004H64.637V120.262C64.637 121.074 64.8236 121.671 65.197 122.054C65.5703 122.427 66.1256 122.614 66.863 122.614C67.3856 122.614 67.8056 122.525 68.123 122.348C68.4496 122.171 68.6876 121.905 68.837 121.55C68.9956 121.186 69.075 120.752 69.075 120.248V114.004H70.853V120.472ZM76.3699 114.004C77.6673 114.004 78.6099 114.275 79.1979 114.816C79.7953 115.357 80.0939 116.104 80.0939 117.056C80.0939 117.485 80.0286 117.896 79.8979 118.288C79.7673 118.671 79.5479 119.016 79.2399 119.324C78.9319 119.632 78.5259 119.875 78.0219 120.052C77.5273 120.229 76.9113 120.318 76.1739 120.318H75.1799V124H73.3879V114.004H76.3699ZM76.2579 115.488H75.1799V118.834H75.9919C76.4773 118.834 76.8879 118.778 77.2239 118.666C77.5693 118.545 77.8306 118.358 78.0079 118.106C78.1853 117.854 78.2739 117.527 78.2739 117.126C78.2739 116.575 78.1106 116.165 77.7839 115.894C77.4573 115.623 76.9486 115.488 76.2579 115.488ZM85.0379 114.004C86.3352 114.004 87.2779 114.275 87.8659 114.816C88.4632 115.357 88.7619 116.104 88.7619 117.056C88.7619 117.485 88.6966 117.896 88.5659 118.288C88.4352 118.671 88.2159 119.016 87.9079 119.324C87.5999 119.632 87.1939 119.875 86.6899 120.052C86.1952 120.229 85.5792 120.318 84.8419 120.318H83.8479V124H82.0559V114.004H85.0379ZM84.9259 115.488H83.8479V118.834H84.6599C85.1452 118.834 85.5559 118.778 85.8919 118.666C86.2372 118.545 86.4986 118.358 86.6759 118.106C86.8532 117.854 86.9419 117.527 86.9419 117.126C86.9419 116.575 86.7786 116.165 86.4519 115.894C86.1252 115.623 85.6166 115.488 84.9259 115.488ZM90.7239 124V114.004H92.5159V122.488H96.6879V124H90.7239ZM100.909 118.414L103.191 114.004H105.123L101.805 120.108V124H100.013V120.178L96.6953 114.004H98.6413L100.909 118.414Z" fill="#221690"/>
</svg>
