<svg width="97" height="128" viewBox="0 0 97 128" fill="none" xmlns="http://www.w3.org/2000/svg">
<rect x="0.5" width="96" height="96" rx="48" fill="#F4F6F8"/>
<path d="M64.25 30.3137H32.0327C31.1862 30.3137 30.5 31 30.5 31.8465C30.5 32.693 31.1862 33.3792 32.0327 33.3792H64.25C65.0965 33.3792 65.7827 32.693 65.7827 31.8465C65.7827 31 65.0965 30.3137 64.25 30.3137Z" fill="#FDAF17"/>
<path d="M64.25 38.3892H32.0327C31.1862 38.3892 30.5 39.0754 30.5 39.9219C30.5 40.7684 31.1862 41.4546 32.0327 41.4546H64.25C65.0965 41.4546 65.7827 40.7684 65.7827 39.9219C65.7827 39.0754 65.0965 38.3892 64.25 38.3892Z" fill="#1F157C"/>
<path d="M64.25 46.4673H32.0327C31.1862 46.4673 30.5 47.1535 30.5 48C30.5 48.8465 31.1862 49.5327 32.0327 49.5327H64.25C65.0965 49.5327 65.7827 48.8465 65.7827 48C65.7827 47.1535 65.0965 46.4673 64.25 46.4673Z" fill="#FDAF17"/>
<path d="M64.25 54.5427H32.0327C31.1862 54.5427 30.5 55.2289 30.5 56.0754C30.5 56.922 31.1862 57.6082 32.0327 57.6082H64.25C65.0965 57.6082 65.7827 56.922 65.7827 56.0754C65.7827 55.2289 65.0965 54.5427 64.25 54.5427Z" fill="#1F157C"/>
<path d="M64.25 62.6208H32.0327C31.1862 62.6208 30.5 63.3071 30.5 64.1536C30.5 65.0001 31.1862 65.6863 32.0327 65.6863H64.25C65.0965 65.6863 65.7827 65.0001 65.7827 64.1536C65.7827 63.3071 65.0965 62.6208 64.25 62.6208Z" fill="#FDAF17"/>
<path d="M57.5355 24H38.75C37.0555 24 35.6818 25.3737 35.6818 27.0682V68.9318C35.6818 70.6263 37.0555 72 38.75 72H57.5355C59.23 72 60.6036 70.6263 60.6036 68.9318V27.0682C60.6036 25.3737 59.23 24 57.5355 24Z" fill="#1F157C"/>
<path d="M54.6255 27.5701H41.6601C40.2954 27.5701 39.1891 28.6763 39.1891 30.041V65.9592C39.1891 67.3238 40.2954 68.4301 41.6601 68.4301H54.6255C55.9902 68.4301 57.0964 67.3238 57.0964 65.9592V30.041C57.0964 28.6763 55.9902 27.5701 54.6255 27.5701Z" fill="#DEE4F3"/>
<path d="M52.3864 56.34L49.6891 58.1482V59.6045H52.3864V61.4591H43.9591V57.6055C43.9591 56.6018 44.2037 55.8209 44.6927 55.2627C44.9513 54.981 45.2691 54.7599 45.6232 54.6156C45.9774 54.4713 46.3591 54.4073 46.7409 54.4282H46.7627C47.3595 54.4015 47.9477 54.5774 48.4318 54.9273C48.8638 55.2645 49.1911 55.7175 49.3755 56.2336L52.3755 54.1746L52.3864 56.34ZM46.8364 56.3045C46.6659 56.2922 46.495 56.321 46.3379 56.3884C46.1808 56.4558 46.0422 56.5598 45.9337 56.6918C45.7152 57.0039 45.6085 57.3806 45.6309 57.7609V59.6045H48.0527V57.7391C48.0777 57.3602 47.9622 56.9854 47.7282 56.6864C47.6203 56.5641 47.4864 56.4675 47.3364 56.4038C47.1863 56.3401 47.0238 56.3108 46.8609 56.3182L46.8364 56.3045Z" fill="#1F157C"/>
<path d="M52.3864 46.4808L50.4964 47.2499V50.8145L52.3864 51.5863V53.4763L43.8991 49.8627V48.1554L52.3864 44.5417V46.4808ZM46.1137 49.0336L48.8409 50.1518V47.9208L46.1137 49.0336Z" fill="#1F157C"/>
<path d="M52.3864 36.6437H46.8855L50.4855 39.0165V39.0628L46.9209 41.411H52.3755V43.241H43.9482V41.2447L47.5127 39.0274L43.9482 36.8128V34.8137H52.3755L52.3864 36.6437Z" fill="#1F157C"/>
<path d="M36.644 114.004C37.5213 114.004 38.2447 114.111 38.814 114.326C39.3833 114.541 39.808 114.867 40.088 115.306C40.368 115.735 40.508 116.281 40.508 116.944C40.508 117.429 40.4147 117.845 40.228 118.19C40.0507 118.535 39.8173 118.825 39.528 119.058C39.2387 119.282 38.926 119.464 38.59 119.604L41.46 124H39.444L37.05 120.052H35.594V124H33.802V114.004H36.644ZM36.532 115.502H35.594V118.582H36.588C37.3253 118.582 37.8573 118.451 38.184 118.19C38.52 117.919 38.688 117.523 38.688 117C38.688 116.636 38.6087 116.347 38.45 116.132C38.2913 115.908 38.0533 115.749 37.736 115.656C37.428 115.553 37.0267 115.502 36.532 115.502ZM49.0268 124L48.1168 121.354H44.3508L43.4548 124H41.5508L45.2188 113.962H47.2628L50.9308 124H49.0268ZM46.7868 117.238C46.7494 117.107 46.6934 116.93 46.6188 116.706C46.5441 116.482 46.4694 116.253 46.3948 116.02C46.3294 115.777 46.2781 115.577 46.2408 115.418C46.1941 115.605 46.1334 115.819 46.0588 116.062C45.9934 116.305 45.9281 116.533 45.8628 116.748C45.8068 116.963 45.7601 117.126 45.7228 117.238L44.8408 119.814H47.6548L46.7868 117.238ZM56.5434 124L53.7994 115.81H53.7434C53.7527 115.997 53.7667 116.263 53.7854 116.608C53.804 116.944 53.818 117.313 53.8274 117.714C53.846 118.106 53.8554 118.475 53.8554 118.82V124H52.2454V114.004H54.7374L57.3694 121.858H57.4254L60.1694 114.004H62.6614V124H60.9534V118.736C60.9534 118.419 60.958 118.073 60.9674 117.7C60.986 117.317 61 116.958 61.0094 116.622C61.028 116.277 61.042 116.011 61.0514 115.824H60.9954L58.1394 124H56.5434Z" fill="#221690"/>
</svg>
