<svg width="36" height="48" viewBox="0 0 36 48" fill="none" xmlns="http://www.w3.org/2000/svg">
<path d="M34.25 6.31372H2.03273C1.18623 6.31372 0.5 6.99998 0.5 7.84648C0.5 8.69298 1.18623 9.37921 2.03273 9.37921H34.25C35.0965 9.37921 35.7827 8.69298 35.7827 7.84648C35.7827 6.99998 35.0965 6.31372 34.25 6.31372Z" fill="#FDAF17"/>
<path d="M34.25 14.3892H2.03273C1.18623 14.3892 0.5 15.0754 0.5 15.9219C0.5 16.7684 1.18623 17.4546 2.03273 17.4546H34.25C35.0965 17.4546 35.7827 16.7684 35.7827 15.9219C35.7827 15.0754 35.0965 14.3892 34.25 14.3892Z" fill="#1F157C"/>
<path d="M34.25 22.4673H2.03273C1.18623 22.4673 0.5 23.1535 0.5 24C0.5 24.8465 1.18623 25.5327 2.03273 25.5327H34.25C35.0965 25.5327 35.7827 24.8465 35.7827 24C35.7827 23.1535 35.0965 22.4673 34.25 22.4673Z" fill="#FDAF17"/>
<path d="M34.25 30.5427H2.03273C1.18623 30.5427 0.5 31.2289 0.5 32.0754C0.5 32.922 1.18623 33.6082 2.03273 33.6082H34.25C35.0965 33.6082 35.7827 32.922 35.7827 32.0754C35.7827 31.2289 35.0965 30.5427 34.25 30.5427Z" fill="#1F157C"/>
<path d="M34.25 38.6208H2.03273C1.18623 38.6208 0.5 39.3071 0.5 40.1536C0.5 41.0001 1.18623 41.6863 2.03273 41.6863H34.25C35.0965 41.6863 35.7827 41.0001 35.7827 40.1536C35.7827 39.3071 35.0965 38.6208 34.25 38.6208Z" fill="#FDAF17"/>
<path d="M27.5355 0H8.75001C7.0555 0 5.68182 1.37367 5.68182 3.06818V44.9318C5.68182 46.6263 7.0555 48 8.75001 48H27.5355C29.23 48 30.6036 46.6263 30.6036 44.9318V3.06818C30.6036 1.37367 29.23 0 27.5355 0Z" fill="#1F157C"/>
<path d="M24.6255 3.57007H11.6601C10.2954 3.57007 9.18915 4.67631 9.18915 6.04096V41.9592C9.18915 43.3238 10.2954 44.4301 11.6601 44.4301H24.6255C25.9902 44.4301 27.0964 43.3238 27.0964 41.9592V6.04096C27.0964 4.67631 25.9902 3.57007 24.6255 3.57007Z" fill="#DEE4F3"/>
<path d="M22.3864 32.34L19.6891 34.1482V35.6045H22.3864V37.4591H13.9591V33.6055C13.9591 32.6018 14.2037 31.8209 14.6927 31.2627C14.9513 30.981 15.2691 30.7599 15.6232 30.6156C15.9774 30.4713 16.3591 30.4073 16.7409 30.4282H16.7627C17.3595 30.4015 17.9477 30.5774 18.4318 30.9273C18.8638 31.2645 19.1911 31.7175 19.3755 32.2336L22.3755 30.1746L22.3864 32.34ZM16.8364 32.3045C16.6659 32.2922 16.495 32.321 16.3379 32.3884C16.1808 32.4558 16.0422 32.5598 15.9337 32.6918C15.7152 33.0039 15.6085 33.3806 15.6309 33.7609V35.6045H18.0527V33.7391C18.0777 33.3602 17.9622 32.9854 17.7282 32.6864C17.6203 32.5641 17.4864 32.4675 17.3364 32.4038C17.1863 32.3401 17.0238 32.3108 16.8609 32.3182L16.8364 32.3045Z" fill="#1F157C"/>
<path d="M22.3864 22.4808L20.4964 23.2499V26.8145L22.3864 27.5863V29.4763L13.8991 25.8627V24.1554L22.3864 20.5417V22.4808ZM16.1137 25.0336L18.8409 26.1518V23.9208L16.1137 25.0336Z" fill="#1F157C"/>
<path d="M22.3864 12.6437H16.8855L20.4855 15.0165V15.0628L16.9209 17.411H22.3755V19.241H13.9482V17.2447L17.5127 15.0274L13.9482 12.8128V10.8137H22.3755L22.3864 12.6437Z" fill="#1F157C"/>
</svg>
